<?xml version="1.0" encoding="utf-8"?>
<svg viewBox="0 0 36 36" width="36" height="36" fill="none" xmlns="http://www.w3.org/2000/svg">
  <path d="M 18.624 4.055 C 18.624 4.055 18.228 4.079 17.99 4.176 C 17.75 4.276 17.491 4.45 17.313 4.629 C 16.961 4.985 16.727 5.584 16.706 6.145 L 16.706 9.363 L 17.747 9.363 L 17.747 6.145 C 17.727 5.788 17.836 5.582 18.052 5.362 C 18.158 5.255 18.243 5.199 18.385 5.139 C 18.532 5.079 19.019 5.018 19.019 5.018 C 18.972 5.032 18.671 4.04 18.624 4.055 Z" style="fill: rgb(255, 79, 31);"/>
  <path d="M 15.166 24.151 L 15.166 24.917 C 15.143 25.635 14.833 26.387 14.37 26.854 C 13.906 27.322 13.158 27.659 12.443 27.659 C 11.729 27.659 10.981 27.322 10.517 26.854 C 10.054 26.387 9.963 26.095 9.831 25.619 L 4.514 27.545 C 4.384 27.587 4.354 27.621 4.294 27.703 C 4.236 27.784 4.219 27.794 4.232 27.905 L 4.232 28.517 L 4.232 30.128 C 4.212 30.651 3.98 31.245 3.632 31.607 C 3.284 31.971 2.686 32.257 2.117 32.257 C 1.596 32.257 1.003 32.001 0.643 31.648 C 0.284 31.299 0.027 30.697 0.003 30.127 L 0.003 8.444 C 0.023 7.689 0.332 6.919 0.808 6.438 C 1.283 5.959 2.052 5.645 2.8 5.623 L 13.203 5.623 L 13.203 6.665 L 2.8 6.665 C 2.26 6.643 1.888 6.828 1.548 7.171 C 1.206 7.516 1.022 7.894 1.044 8.444 L 1.044 30.127 C 1.018 30.475 1.141 30.679 1.37 30.903 C 1.598 31.126 1.802 31.215 2.117 31.215 C 2.46 31.215 2.659 31.118 2.881 30.887 C 3.101 30.657 3.212 30.447 3.191 30.127 L 3.191 28.517 L 3.191 27.905 C 3.205 27.633 3.301 27.299 3.452 27.092 C 3.601 26.887 3.875 26.69 4.124 26.579 L 10.064 24.427 L 10.795 24.162 L 10.762 24.917 C 10.739 25.424 10.923 25.784 11.256 26.12 C 11.59 26.456 11.943 26.618 12.443 26.618 C 12.944 26.618 13.298 26.456 13.63 26.12 C 13.964 25.784 14.148 25.424 14.124 24.917 L 14.124 24.151 Z" style="fill: rgb(255, 79, 31);"/>
  <path d="M 12.444 23.982 C 11.235 23.959 10.032 23.434 9.237 22.632 C 8.441 21.829 7.923 20.619 7.9 19.401 L 7.9 16.414 C 7.923 15.195 8.441 13.985 9.237 13.183 C 10.032 12.38 11.235 11.832 12.444 11.832 C 13.653 11.832 14.857 12.38 15.651 13.183 C 16.448 13.985 16.967 15.195 16.989 16.414 L 16.989 19.401 C 16.95 20.995 16.192 22.235 15.167 23.037 L 15.167 23.386 L 15.167 24.382 L 14.125 24.382 L 14.125 23.386 L 14.125 22.772 L 14.125 22.483 L 14.363 22.336 C 15.346 21.728 15.987 20.72 15.948 19.401 L 15.948 16.414 C 15.971 15.409 15.578 14.588 14.913 13.917 C 14.247 13.244 13.437 12.873 12.444 12.873 C 11.452 12.873 10.642 13.244 9.976 13.917 C 9.31 14.588 8.919 15.409 8.941 16.414 L 8.941 19.401 C 8.919 20.406 9.31 21.226 9.976 21.899 C 10.642 22.571 11.452 22.965 12.444 22.942 Z" style="fill: rgb(255, 79, 31);"/>
  <path d="M 16.594 26.172 L 20.391 27.551 C 20.52 27.595 20.533 27.621 20.593 27.703 C 20.651 27.784 20.668 27.794 20.655 27.905 L 20.655 29.438 C 20.676 30.191 20.985 30.961 21.46 31.441 C 21.936 31.922 22.703 32.234 23.453 32.257 L 33.173 32.257 C 33.922 32.234 34.689 31.922 35.166 31.441 C 35.64 30.961 35.95 30.191 35.971 29.438 L 35.971 8.444 C 35.95 7.689 35.64 6.919 35.166 6.438 C 34.689 5.959 33.922 5.645 33.173 5.623 L 21.175 5.623 L 21.175 6.665 L 33.173 6.665 C 33.714 6.643 34.085 6.828 34.425 7.171 C 34.766 7.516 34.95 7.894 34.929 8.444 L 34.929 29.438 C 34.95 29.986 34.766 30.364 34.425 30.709 C 34.085 31.052 33.714 31.237 33.173 31.215 L 23.453 31.215 C 22.912 31.237 22.54 31.052 22.2 30.709 C 21.859 30.364 21.676 29.985 21.696 29.438 L 21.696 27.905 C 21.683 27.633 21.586 27.299 21.435 27.092 C 21.286 26.887 20.995 26.683 20.746 26.573 L 16.949 25.194 Z" style="fill: rgb(255, 79, 31);"/>
  <path d="M 21.174 16.814 L 30.665 16.814 L 30.665 17.855 L 21.174 17.855 Z" style="fill: rgb(255, 79, 31);"/>
  <path d="M 22.77 20.031 L 29.072 20.031 L 29.072 21.072 L 22.77 21.072 Z" style="fill: rgb(255, 79, 31);"/>
</svg>