<svg width="36" height="36" viewBox="0 0 36 36" fill="none" xmlns="http://www.w3.org/2000/svg">
<path d="M33.0003 33.0194L23.323 23.3293C22.2667 24.3997 21.0063 25.2473 19.6165 25.8217C18.2267 26.3962 16.7358 26.6858 15.232 26.6736M8.28458 24.3025C6.29273 22.7693 4.86226 20.6218 4.21487 18.193C3.56749 15.7642 3.73934 13.1896 4.70381 10.8684C5.66827 8.54715 7.37148 6.60887 9.54944 5.35396C11.7274 4.09905 14.2585 3.5976 16.7504 3.92733M23.3325 7.17773C25.1091 8.9559 26.2496 11.2705 26.5771 13.7626C26.9047 16.2548 26.401 18.7855 25.1442 20.9624" stroke="#FF4F1F" stroke-width="1.72019" stroke-miterlimit="10"/>
<g clip-path="url(#clip0)">
<path d="M10.9329 26.6678L13.1745 21.2772L13.294 21.3274C13.9791 21.6095 14.7478 21.6107 15.4338 21.3307C16.1198 21.0507 16.6681 20.5121 16.9602 19.8312L17.7332 17.9923L16.1058 17.3083L16.8787 15.4695L16.2292 15.1938L15.4563 17.0326L13.9485 16.3988L14.7214 14.56L14.068 14.2934L13.2951 16.1323L11.6756 15.4488L10.9027 17.2876C10.6206 17.9728 10.6194 18.7414 10.8994 19.4274C11.1794 20.1134 11.718 20.6617 12.3989 20.9539L12.5184 21.0041L10.2709 26.3896L10.9329 26.6678ZM11.545 19.1696C11.44 18.9152 11.3866 18.6425 11.3881 18.3673C11.3895 18.0921 11.4458 17.8199 11.5535 17.5666L12.0546 16.3681L16.8033 18.3642L16.2977 19.5608C16.0824 20.0728 15.6725 20.4784 15.1583 20.6883C14.644 20.8982 14.0674 20.8952 13.5553 20.68L12.6727 20.309C12.4187 20.2031 12.1883 20.0478 11.9947 19.8523C11.8012 19.6567 11.6483 19.4247 11.545 19.1696Z" fill="#FF4F1F"/>
<path d="M19.5228 14.8936L14.1226 12.6264L14.8503 10.8822C15.0713 10.379 15.4793 9.98157 15.9881 9.77393C16.4969 9.56628 17.0665 9.56475 17.5764 9.76965L18.4958 10.1561C19.0041 10.3758 19.406 10.786 19.6153 11.2988C19.8245 11.8115 19.8244 12.3858 19.615 12.8984L19.2797 13.6446L19.9325 13.919L20.2499 13.1572C20.532 12.4721 20.5332 11.7035 20.2532 11.0175C19.9732 10.3315 19.4346 9.78315 18.7537 9.49101L18.6388 9.4427L21.0198 4.11695L20.3717 3.8445L17.986 9.16831L17.8711 9.12C17.1859 8.83793 16.4173 8.83675 15.7313 9.11673C15.0453 9.3967 14.497 9.93534 14.2048 10.6163L13.1856 13.0088L19.2537 15.5594L19.5228 14.8936Z" fill="#FF4F1F"/>
</g>
<defs>
<clipPath id="clip0">
<rect width="20.5485" height="20.4642" fill="white" transform="translate(20.9471 2) rotate(67.7988)"/>
</clipPath>
</defs>
</svg>
