<?xml version="1.0" encoding="UTF-8" standalone="no"?> <!-- Created with Vectornator for iOS (http://vectornator.io/) --><!DOCTYPE svg PUBLIC "-//W3C//DTD SVG 1.1//EN" "http://www.w3.org/Graphics/SVG/1.1/DTD/svg11.dtd">
<svg height="100%" style="fill-rule:nonzero;clip-rule:evenodd;stroke-linecap:round;stroke-linejoin:round;" xmlns:xlink="http://www.w3.org/1999/xlink" xmlns="http://www.w3.org/2000/svg" xml:space="preserve" width="100%" xmlns:vectornator="http://vectornator.io" version="1.1" viewBox="0 0 36 36">
<metadata>
<vectornator:setting key="DimensionsVisible" value="1"/>
<vectornator:setting key="PencilOnly" value="0"/>
<vectornator:setting key="SnapToPoints" value="0"/>
<vectornator:setting key="OutlineMode" value="0"/>
<vectornator:setting key="CMYKEnabledKey" value="0"/>
<vectornator:setting key="RulersVisible" value="1"/>
<vectornator:setting key="SnapToEdges" value="1"/>
<vectornator:setting key="GuidesVisible" value="1"/>
<vectornator:setting key="DisplayWhiteBackground" value="0"/>
<vectornator:setting key="doHistoryDisabled" value="0"/>
<vectornator:setting key="SnapToGuides" value="1"/>
<vectornator:setting key="TimeLapseWatermarkDisabled" value="0"/>
<vectornator:setting key="Units" value="Points"/>
<vectornator:setting key="DynamicGuides" value="0"/>
<vectornator:setting key="IsolateActiveLayer" value="0"/>
<vectornator:setting key="SnapToGrid" value="1"/>
</metadata>
<defs/>
<g id="Untitled" vectornator:layerName="Untitled">
<path d="M23.929+22.4691L23.1952+23.2029C22.0499+24.3635+20.7028+25.2585+19.1961+25.8812C17.6893+26.5041+16.057+26.8117+14.4264+26.7985L14.4264+28.8164C16.3272+28.8318+18.2101+28.4785+19.9665+27.7524C21.3945+27.1623+22.6211+26.1965+23.7823+25.1841L34.5691+35.9709L36+34.5767L23.929+22.4691Z" opacity="1" fill="#ff4f1f"/>
<path d="M16.3343+0.124974C13.1883-0.291305+9.9848+0.338478+7.23517+1.92278C4.48553+3.50708+2.32558+5.96332+1.10797+8.89384C-0.109645+11.8243-0.333065+15.0733+0.484244+18.1397C1.30158+21.206+3.10618+23.9089+5.62082+25.8445L6.86827+24.2669C4.70583+22.6024+3.13167+20.2629+2.42881+17.626C1.72596+14.9891+1.93207+12.1844+2.97915+9.66433C4.02624+7.14422+5.86124+5.04631+8.2258+3.68389C10.5903+2.32147+13.3353+1.78494+16.0407+2.14291L16.3343+0.124974Z" opacity="1" fill="#ff4f1f"/>
<path d="M24.6262+4.23423L23.1952+5.66514C25.1241+7.59565+26.3619+10.1141+26.7175+12.8197C27.0731+15.5253+26.541+18.2711+25.1765+20.6346L26.9009+21.6619C28.4876+18.9136+29.149+15.7091+28.7354+12.5628C28.322+9.41663+26.8691+6.47915+24.6262+4.23423Z" opacity="1" fill="#ff4f1f"/>
<path d="M9.40953+27.9872L12.0413+21.6582L12.1816+21.7172C12.986+22.0484+13.8885+22.0498+14.6939+21.721C15.4993+21.3923+16.1431+20.7599+16.486+19.9605L17.3936+17.8015L15.4829+16.9984L16.3903+14.8396L15.6278+14.5159L14.7203+16.6748L12.9501+15.9306L13.8575+13.7717L13.0904+13.4587L12.1829+15.6177L10.2815+14.8153L9.37407+16.9741C9.04286+17.7786+9.04146+18.681+9.3702+19.4864C9.69894+20.2918+10.3313+20.9356+11.1307+21.2786L11.271+21.3376L8.63229+27.6606L9.40953+27.9872ZM10.1282+19.1837C10.0049+18.8851+9.9422+18.5649+9.94397+18.2418C9.94561+17.9187+10.0117+17.5991+10.1382+17.3017L10.7265+15.8946L16.3018+18.2382L15.7082+19.643C15.4554+20.2442+14.9742+20.7204+14.3705+20.9668C13.7666+21.2133+13.0897+21.2097+12.4884+20.9571L11.4522+20.5215C11.154+20.3972+10.8835+20.2148+10.6562+19.9853C10.429+19.7556+10.2495+19.4833+10.1282+19.1837Z" opacity="1" fill="#ff4f1f"/>
<path d="M19.4947+14.1634L13.1545+11.5015L14.0088+9.45372C14.2683+8.86293+14.7473+8.39632+15.3447+8.15253C15.9421+7.90874+16.6108+7.90694+17.2095+8.14751L18.2889+8.60123C18.8857+8.85917+19.3576+9.34078+19.6033+9.94284C19.8489+10.5448+19.8488+11.2191+19.603+11.8209L19.2093+12.697L19.9757+13.0192L20.3484+12.1247C20.6796+11.3204+20.681+10.418+20.3523+9.61258C20.0235+8.80716+19.3912+8.16336+18.5917+7.82036L18.4568+7.76364L21.2523+1.51082L20.4914+1.19094L17.6904+7.44149L17.5555+7.38477C16.751+7.0536+15.8486+7.05221+15.0432+7.38093C14.2378+7.70964+13.594+8.34204+13.251+9.14154L12.0544+11.9505L19.1788+14.9451L19.4947+14.1634Z" opacity="1" fill="#ff4f1f"/>
</g>
</svg>
