<?xml version="1.0" encoding="utf-8"?>
<svg viewBox="98.688 214.737 36 36.056" width="36" height="36.056" xmlns="http://www.w3.org/2000/svg">
  <path d="M23.8341 23.0842L22.7843 22.0344L26.7584 18.1354L22.7094 14.0864L23.7591 13.0366L28.8579 18.1354L23.8341 23.0842Z" fill="#FF4F1F" transform="matrix(1, 0, 0, 1, 98.687981, 214.736572)"/>
  <path d="M12.2869 23.0842L7.18811 17.9854L12.2119 13.0366L13.2616 14.0864L9.2876 17.9854L13.3366 22.0344L12.2869 23.0842Z" fill="#FF4F1F" transform="matrix(1, 0, 0, 1, 98.687981, 214.736572)"/>
  <path d="M19.736 13.1106L15.1616 22.3086L16.5044 22.9764L21.0787 13.7784L19.736 13.1106Z" fill="#FF4F1F" transform="matrix(1, 0, 0, 1, 98.687981, 214.736572)"/>
  <path d="M17.9855 36.0561C16.2609 36.0561 14.5363 35.8311 12.8117 35.3062L13.2616 33.8816C19.7101 35.8311 26.9083 33.5817 31.1073 28.258C33.8066 24.8088 35.0063 20.4599 34.4814 16.1109C33.9566 11.762 31.7071 7.86294 28.258 5.1636C24.8088 2.46426 20.4599 1.26455 16.1109 1.78942C11.612 2.23931 7.71298 4.48876 5.01364 7.93792C2.31429 11.3871 1.11459 15.736 1.63946 20.085C2.16433 24.4339 4.41378 28.3329 7.86294 31.1073L6.96316 32.232C3.13909 29.3077 0.739678 25.0338 0.139824 20.2349C-0.460029 15.4361 0.889641 10.7872 3.81393 6.96316C6.73821 3.13909 11.0122 0.739678 15.811 0.139824C20.6098 -0.460029 25.2587 0.889641 29.0828 3.81393C36.8809 9.88745 38.3055 21.2847 32.232 29.0828C28.7079 33.5817 23.3842 36.0561 17.9855 36.0561Z" fill="#FF4F1F" transform="matrix(1, 0, 0, 1, 98.687981, 214.736572)"/>
</svg>