<?xml version="1.0" encoding="UTF-8" standalone="no"?> <!-- Created with Vectornator for iOS (http://vectornator.io/) --><!DOCTYPE svg PUBLIC "-//W3C//DTD SVG 1.1//EN" "http://www.w3.org/Graphics/SVG/1.1/DTD/svg11.dtd">
<svg height="100%" style="fill-rule:nonzero;clip-rule:evenodd;stroke-linecap:round;stroke-linejoin:round;" xmlns:xlink="http://www.w3.org/1999/xlink" xmlns="http://www.w3.org/2000/svg" xml:space="preserve" width="100%" xmlns:vectornator="http://vectornator.io" version="1.1" viewBox="0 0 36 36">
<metadata>
<vectornator:setting key="DimensionsVisible" value="1"/>
<vectornator:setting key="PencilOnly" value="0"/>
<vectornator:setting key="SnapToPoints" value="0"/>
<vectornator:setting key="OutlineMode" value="0"/>
<vectornator:setting key="CMYKEnabledKey" value="0"/>
<vectornator:setting key="RulersVisible" value="1"/>
<vectornator:setting key="SnapToEdges" value="0"/>
<vectornator:setting key="GuidesVisible" value="1"/>
<vectornator:setting key="DisplayWhiteBackground" value="0"/>
<vectornator:setting key="doHistoryDisabled" value="0"/>
<vectornator:setting key="SnapToGuides" value="1"/>
<vectornator:setting key="TimeLapseWatermarkDisabled" value="0"/>
<vectornator:setting key="Units" value="Points"/>
<vectornator:setting key="DynamicGuides" value="0"/>
<vectornator:setting key="IsolateActiveLayer" value="0"/>
<vectornator:setting key="SnapToGrid" value="0"/>
</metadata>
<defs/>
<g id="Untitled" vectornator:layerName="Untitled">
<g opacity="1">
<path d="M11.8787+31.0859C10.5231+31.0859+9.39706+32.1788+9.39706+33.5344C9.39706+34.8899+10.5231+35.983+11.8787+35.983L22.5+35.983C23.8556+35.983+24.9485+34.89+24.9485+33.5344C24.9485+32.1788+23.8556+31.0859+22.5+31.0859L11.8787+31.0859ZM11.8787+32.4425L22.5+32.4425C23.1025+32.4425+23.5919+32.9319+23.5919+33.5344C23.5919+34.1369+23.1025+34.6263+22.5+34.6263L11.8787+34.6263C11.2762+34.6263+10.7868+34.1369+10.7868+33.5344C10.7868+32.9319+11.2762+32.4425+11.8787+32.4425Z" opacity="1" fill="#ff4f1f"/>
<path d="M26.1728-0.0170321C24.7419-0.0170321+23.5919+1.13293+23.5919+2.56385C23.5919+3.99477+24.7419+5.17782+26.1728+5.17782C27.6038+5.17782+28.7868+3.99477+28.7868+2.56385C28.7868+1.13293+27.6038-0.0170321+26.1728-0.0170321ZM26.1728+1.07488C27.0012+1.07488+27.6949+1.73543+27.6949+2.56385C27.6949+3.39227+27.0012+4.08591+26.1728+4.08591C25.3444+4.08591+24.6838+3.39227+24.6838+2.56385C24.6838+1.73543+25.3444+1.07488+26.1728+1.07488Z" opacity="1" fill="#ff4f1f"/>
<path d="M13.2353+3.78811C11.8797+3.78811+10.7868+4.91412+10.7868+6.26973C10.7868+7.62534+11.8797+8.71826+13.2353+8.71826L20.5809+8.71826C21.9365+8.71826+23.0294+7.62534+23.0294+6.26973C23.0294+4.91412+21.9365+3.78811+20.5809+3.78811L13.2353+3.78811ZM13.2353+5.17782L20.5809+5.17782C21.1834+5.17782+21.6728+5.66724+21.6728+6.26973C21.6728+6.87222+21.1834+7.36164+20.5809+7.36164L13.2353+7.36164C12.6328+7.36164+12.1434+6.87222+12.1434+6.26973C12.1434+5.66724+12.6328+5.17782+13.2353+5.17782Z" opacity="1" fill="#ff4f1f"/>
<path d="M5.85662+10.6043C4.50102+10.6043+3.40809+11.7303+3.40809+13.0859C3.40809+14.4415+4.50102+15.5344+5.85662+15.5344L16.2132+15.5344C17.5688+15.5344+18.6949+14.4415+18.6949+13.0859C18.6949+11.7303+17.5688+10.6043+16.2132+10.6043L5.85662+10.6043ZM5.85662+11.994L16.2132+11.994C16.8157+11.994+17.3051+12.4834+17.3051+13.0859C17.3051+13.6884+16.8157+14.1778+16.2132+14.1778L5.85662+14.1778C5.25413+14.1778+4.76471+13.6884+4.76471+13.0859C4.76471+12.4834+5.25413+11.994+5.85662+11.994Z" opacity="1" fill="#ff4f1f"/>
<path d="M12.1434+17.4536C10.7878+17.4536+9.69485+18.5465+9.69485+19.9021C9.69485+21.2577+10.7878+22.3506+12.1434+22.3506L24.6838+22.3506C26.0394+22.3506+27.1324+21.2577+27.1324+19.9021C27.1324+18.5465+26.0394+17.4536+24.6838+17.4536L12.1434+17.4536ZM12.1434+18.8102L24.6838+18.8102C25.2863+18.8102+25.7757+19.2996+25.7757+19.9021C25.7757+20.5047+25.2863+20.994+24.6838+20.994L12.1434+20.994C11.5409+20.994+11.0515+20.5047+11.0515+19.9021C11.0515+19.2996+11.5409+18.8102+12.1434+18.8102Z" opacity="1" fill="#ff4f1f"/>
<path d="M19.2243+24.2697C17.8687+24.2697+16.7757+25.3627+16.7757+26.7183C16.7757+28.0739+17.8687+29.1668+19.2243+29.1668L30.1434+29.1668C31.499+29.1668+32.5919+28.0739+32.5919+26.7183C32.5919+25.3626+31.499+24.2697+30.1434+24.2697L19.2243+24.2697ZM19.2243+25.6263L30.1434+25.6263C30.746+25.6264+31.2353+26.1158+31.2353+26.7183C31.2353+27.3207+30.746+27.8102+30.1434+27.8102L19.2243+27.8102C18.6218+27.8102+18.1324+27.3207+18.1324+26.7183C18.1324+26.1158+18.6218+25.6263+19.2243+25.6263Z" opacity="1" fill="#ff4f1f"/>
</g>
</g>
</svg>
