<svg width="36" height="36" viewBox="0 0 36 36" fill="none" xmlns="http://www.w3.org/2000/svg">
<path fill-rule="evenodd" clip-rule="evenodd" d="M25.5076 4.86364C26.29 4.86364 26.9243 4.22937 26.9243 3.44697C26.9243 2.66457 26.29 2.0303 25.5076 2.0303C24.7252 2.0303 24.091 2.66457 24.091 3.44697C24.091 4.22937 24.7252 4.86364 25.5076 4.86364ZM25.5076 5.89394C26.8591 5.89394 27.9546 4.79839 27.9546 3.44697C27.9546 2.09555 26.8591 1 25.5076 1C24.1562 1 23.0607 2.09555 23.0607 3.44697C23.0607 4.79839 24.1562 5.89394 25.5076 5.89394Z" fill="#FF4F1F"/>
<path fill-rule="evenodd" clip-rule="evenodd" d="M20.2273 5.89384H13.2728C12.7038 5.89384 12.2425 6.35512 12.2425 6.92414C12.2425 7.49316 12.7038 7.95444 13.2728 7.95444H20.2273C20.7963 7.95444 21.2576 7.49316 21.2576 6.92414C21.2576 6.35512 20.7963 5.89384 20.2273 5.89384ZM13.2728 4.60596C11.9925 4.60596 10.9546 5.64384 10.9546 6.92414C10.9546 8.20444 11.9925 9.24232 13.2728 9.24232H20.2273C21.5076 9.24232 22.5455 8.20444 22.5455 6.92414C22.5455 5.64384 21.5076 4.60596 20.2273 4.60596H13.2728Z" fill="#FF4F1F"/>
<path fill-rule="evenodd" clip-rule="evenodd" d="M16.1061 12.3333H6.31818C5.74916 12.3333 5.28788 12.7946 5.28788 13.3636C5.28788 13.9326 5.74916 14.3939 6.31818 14.3939H16.1061C16.6751 14.3939 17.1364 13.9326 17.1364 13.3636C17.1364 12.7946 16.6751 12.3333 16.1061 12.3333ZM6.31818 11.0454C5.03789 11.0454 4 12.0833 4 13.3636C4 14.6439 5.03789 15.6818 6.31818 15.6818H16.1061C17.3864 15.6818 18.4242 14.6439 18.4242 13.3636C18.4242 12.0833 17.3864 11.0454 16.1061 11.0454H6.31818Z" fill="#FF4F1F"/>
<path fill-rule="evenodd" clip-rule="evenodd" d="M24.091 18.7727H12.2425C11.6735 18.7727 11.2122 19.234 11.2122 19.803C11.2122 20.3721 11.6735 20.8333 12.2425 20.8333H24.091C24.66 20.8333 25.1213 20.3721 25.1213 19.803C25.1213 19.234 24.66 18.7727 24.091 18.7727ZM12.2425 17.4849C10.9622 17.4849 9.92432 18.5227 9.92432 19.803C9.92432 21.0833 10.9622 22.1212 12.2425 22.1212H24.091C25.3713 22.1212 26.4092 21.0833 26.4092 19.803C26.4092 18.5227 25.3713 17.4849 24.091 17.4849H12.2425Z" fill="#FF4F1F"/>
<path fill-rule="evenodd" clip-rule="evenodd" d="M29.2424 25.2122H18.9394C18.3704 25.2122 17.9091 25.6735 17.9091 26.2425C17.9091 26.8115 18.3704 27.2728 18.9394 27.2728H29.2424C29.8115 27.2728 30.2727 26.8115 30.2727 26.2425C30.2727 25.6735 29.8115 25.2122 29.2424 25.2122ZM18.9394 23.9243C17.6591 23.9243 16.6212 24.9622 16.6212 26.2425C16.6212 27.5228 17.6591 28.5607 18.9394 28.5607H29.2424C30.5227 28.5607 31.5606 27.5228 31.5606 26.2425C31.5606 24.9622 30.5227 23.9243 29.2424 23.9243H18.9394Z" fill="#FF4F1F"/>
<path fill-rule="evenodd" clip-rule="evenodd" d="M22.0303 31.6516H11.9848C11.4158 31.6516 10.9545 32.1129 10.9545 32.682C10.9545 33.251 11.4158 33.7123 11.9848 33.7123H22.0303C22.5993 33.7123 23.0606 33.251 23.0606 32.682C23.0606 32.1129 22.5993 31.6516 22.0303 31.6516ZM11.9848 30.3638C10.7045 30.3638 9.66663 31.4017 9.66663 32.682C9.66663 33.9622 10.7045 35.0001 11.9848 35.0001H22.0303C23.3106 35.0001 24.3484 33.9622 24.3484 32.682C24.3484 31.4017 23.3106 30.3638 22.0303 30.3638H11.9848Z" fill="#FF4F1F"/>
</svg>
