<?xml version="1.0" encoding="UTF-8" standalone="no"?> <!-- Created with Vectornator for iOS (http://vectornator.io/) --><!DOCTYPE svg PUBLIC "-//W3C//DTD SVG 1.1//EN" "http://www.w3.org/Graphics/SVG/1.1/DTD/svg11.dtd">
<svg height="100%" style="fill-rule:nonzero;clip-rule:evenodd;stroke-linecap:round;stroke-linejoin:round;" xmlns:xlink="http://www.w3.org/1999/xlink" xmlns="http://www.w3.org/2000/svg" xml:space="preserve" width="100%" xmlns:vectornator="http://vectornator.io" version="1.1" viewBox="0 0 36 36">
<metadata>
<vectornator:setting key="DimensionsVisible" value="1"/>
<vectornator:setting key="PencilOnly" value="0"/>
<vectornator:setting key="SnapToPoints" value="0"/>
<vectornator:setting key="OutlineMode" value="0"/>
<vectornator:setting key="CMYKEnabledKey" value="0"/>
<vectornator:setting key="RulersVisible" value="1"/>
<vectornator:setting key="SnapToEdges" value="0"/>
<vectornator:setting key="GuidesVisible" value="1"/>
<vectornator:setting key="DisplayWhiteBackground" value="0"/>
<vectornator:setting key="doHistoryDisabled" value="0"/>
<vectornator:setting key="SnapToGuides" value="1"/>
<vectornator:setting key="TimeLapseWatermarkDisabled" value="0"/>
<vectornator:setting key="Units" value="Points"/>
<vectornator:setting key="DynamicGuides" value="0"/>
<vectornator:setting key="IsolateActiveLayer" value="0"/>
<vectornator:setting key="SnapToGrid" value="0"/>
</metadata>
<defs/>
<g id="Untitled" vectornator:layerName="Untitled">
<g opacity="1">
<path d="M31.0111+35.9998L4.53484+35.9998L4.53484+34.4967L31.0111+34.4967C32.6754+34.4967+34.037+33.1438+34.037+31.4904L34.037+13.3025L35.5499+13.3025L35.5499+31.5655C35.5499+33.9706+33.5074+35.9998+31.0111+35.9998Z" opacity="1" fill="#ff4f1f"/>
<path d="M20.4207+24.6512L12.9316+24.6512L12.9316+26.1544L20.4207+26.1544L20.4207+24.6512Z" opacity="1" fill="#ff4f1f"/>
<path d="M20.4207+19.9915L12.9316+19.9915L12.9316+21.4946L20.4207+21.4946L20.4207+19.9915Z" opacity="1" fill="#ff4f1f"/>
<path d="M20.4207+15.3318L12.9316+15.3318L12.9316+16.8349L20.4207+16.8349L20.4207+15.3318Z" opacity="1" fill="#ff4f1f"/>
<path d="M20.4207+10.672L12.9316+10.672L12.9316+12.1751L20.4207+12.1751L20.4207+10.672Z" opacity="1" fill="#ff4f1f"/>
<path d="M20.4207+6.01275L12.9316+6.01275L12.9316+7.51589L20.4207+7.51589L20.4207+6.01275Z" opacity="1" fill="#ff4f1f"/>
<path d="M20.4207+29.311L12.9316+29.311L12.9316+30.8141L20.4207+30.8141L20.4207+29.311Z" opacity="1" fill="#ff4f1f"/>
<path d="M30.7843+24.6512L23.2954+24.6512L23.2954+26.1544L30.7843+26.1544L30.7843+24.6512Z" opacity="1" fill="#ff4f1f"/>
<path d="M30.7843+19.9915L23.2954+19.9915L23.2954+21.4946L30.7843+21.4946L30.7843+19.9915Z" opacity="1" fill="#ff4f1f"/>
<path d="M30.7843+29.311L23.2954+29.311L23.2954+30.8141L30.7843+30.8141L30.7843+29.311Z" opacity="1" fill="#ff4f1f"/>
<path d="M4.53491+36C2.26552+36+0.449998+34.1211+0.449998+31.9415L0.449998+19.0146C0.449998+16.5345+2.49246+14.5052+4.98879+14.5052L7.18254+14.5052L7.18254+4.50939C7.18254+2.02922+9.225-9.53674e-07+11.7214-9.53674e-07L31.0112-9.53674e-07C33.5075-9.53674e-07+35.55+2.02922+35.55+4.50939L35.55+8.56785L34.037+8.56785L34.037+4.50939C34.037+2.85595+32.6754+1.50313+31.0112+1.50313L11.7214+1.50313C10.0571+1.50313+8.69547+2.85595+8.69547+4.50939L8.69547+31.9415C8.69547+34.1963+6.80431+36+4.53491+36ZM4.98879+16.0084C3.32457+16.0084+1.96293+17.3612+1.96293+19.0146L1.96293+31.9415C1.96293+33.3696+3.17327+34.4969+4.53491+34.4969C5.9722+34.4969+7.1069+33.2944+7.1069+31.9415L7.1069+16.0084L4.98879+16.0084Z" opacity="1" fill="#ff4f1f"/>
<path d="M29.2714+16.8349L24.8083+16.8349C23.9762+16.8349+23.2954+16.1584+23.2954+15.3317L23.2954+7.28996C23.2954+6.46323+23.9762+5.78682+24.8083+5.78682L29.2714+5.78682C30.1035+5.78682+30.7843+6.46323+30.7843+7.28996L30.7843+15.3317C30.7843+16.1584+30.1035+16.8349+29.2714+16.8349ZM24.8083+7.28996L24.8083+15.3317L29.2714+15.3317L29.2714+7.28996L24.8083+7.28996Z" opacity="1" fill="#ff4f1f"/>
</g>
</g>
</svg>
