<svg width="36" height="36" viewBox="0 0 36 36" fill="none" xmlns="http://www.w3.org/2000/svg">
<path d="M29.8633 34.9998H4.85791V33.5802H29.8633C31.4351 33.5802 32.7211 32.3025 32.7211 30.7409V13.5635H34.1499V30.8119C34.1499 33.0833 32.2209 34.9998 29.8633 34.9998Z" fill="#FF4F1F"/>
<path d="M19.8612 24.2817H12.7882V25.7014H19.8612V24.2817Z" fill="#FF4F1F"/>
<path d="M19.8612 19.8809H12.7882V21.3005H19.8612V19.8809Z" fill="#FF4F1F"/>
<path d="M19.8612 15.48H12.7882V16.8996H19.8612V15.48Z" fill="#FF4F1F"/>
<path d="M19.8612 11.0791H12.7882V12.4987H19.8612V11.0791Z" fill="#FF4F1F"/>
<path d="M19.8612 6.67871H12.7882V8.09834H19.8612V6.67871Z" fill="#FF4F1F"/>
<path d="M19.8612 28.6826H12.7882V30.1022H19.8612V28.6826Z" fill="#FF4F1F"/>
<path d="M29.6491 24.2817H22.5762V25.7014H29.6491V24.2817Z" fill="#FF4F1F"/>
<path d="M29.6491 19.8809H22.5762V21.3005H29.6491V19.8809Z" fill="#FF4F1F"/>
<path d="M29.6491 28.6826H22.5762V30.1022H29.6491V28.6826Z" fill="#FF4F1F"/>
<path d="M4.85797 35C2.71466 35 1 33.2255 1 31.167V18.9582C1 16.6159 2.92899 14.6994 5.28664 14.6994H7.35851V5.25887C7.35851 2.91649 9.2875 1 11.6452 1H29.8634C32.221 1 34.15 2.91649 34.15 5.25887V9.09186H32.7211V5.25887C32.7211 3.69729 31.4351 2.41962 29.8634 2.41962H11.6452C10.0734 2.41962 8.78739 3.69729 8.78739 5.25887V31.167C8.78739 33.2965 7.00129 35 4.85797 35ZM5.28664 16.119C3.71487 16.119 2.42888 17.3967 2.42888 18.9582V31.167C2.42888 32.5157 3.57198 33.5804 4.85797 33.5804C6.21541 33.5804 7.28707 32.4447 7.28707 31.167V16.119H5.28664Z" fill="#FF4F1F"/>
<path d="M28.2202 16.8996H24.0051C23.2192 16.8996 22.5762 16.2607 22.5762 15.4799V7.88496C22.5762 7.10416 23.2192 6.46533 24.0051 6.46533H28.2202C29.0061 6.46533 29.6491 7.10416 29.6491 7.88496V15.4799C29.6491 16.2607 29.0061 16.8996 28.2202 16.8996ZM24.0051 7.88496V15.4799H28.2202V7.88496H24.0051Z" fill="#FF4F1F"/>
</svg>
