<?xml version="1.0" encoding="utf-8"?>
<svg viewBox="4.237 2.002 29.771 32.777" width="29.771" height="32.777" xmlns="http://www.w3.org/2000/svg">
  <path d="M 5.363 22.805 L 5.363 29.279 C 5.339 30.097 5.647 30.729 6.188 31.27 C 6.728 31.81 7.36 32.119 8.178 32.094 L 13.246 32.094 L 13.246 33.22 L 8.178 33.22 C 7.13 33.196 6.074 32.748 5.391 32.066 C 4.709 31.384 4.262 30.327 4.237 29.279 L 4.237 22.805 Z M 16.905 4.506 L 26.195 4.506 C 27.087 4.531 28.003 4.915 28.584 5.496 C 28.876 5.788 29.144 6.182 29.307 6.569 C 29.471 6.955 29.529 7.665 29.529 7.665 C 29.545 7.716 28.459 7.969 28.459 7.997 C 28.458 7.987 28.433 7.584 28.401 7.43 C 28.37 7.275 28.331 7.151 28.27 7.008 C 28.149 6.722 28.005 6.509 27.787 6.292 C 27.349 5.854 26.857 5.608 26.195 5.632 L 16.905 5.632 Z M 28.459 7.997 C 28.459 7.997 28.459 7.997 28.459 7.997 C 28.459 7.997 28.459 7.997 28.459 7.997 Z M 29.573 22.805 C 29.573 25.239 29.573 27.525 29.573 29.281 C 29.573 30.328 29.101 31.385 28.419 32.067 C 27.736 32.749 26.68 33.196 25.632 33.22 L 23.38 33.22 L 23.38 32.094 L 25.632 32.094 C 26.45 32.119 27.082 31.81 27.623 31.27 C 28.163 30.73 28.447 30.098 28.447 29.281 C 28.447 27.525 28.447 25.239 28.447 22.805 Z" style="fill: rgb(255, 79, 31);"/>
  <path d="M 4.449 3.75 C 5.303 2.648 6.656 2.002 7.897 2.002 C 9.139 2.002 10.492 2.648 11.345 3.75 C 11.452 3.919 11.543 4.196 11.557 4.396 L 11.557 24.279 C 11.539 24.506 11.449 24.795 11.332 24.946 C 11.213 25.101 10.978 25.261 10.804 25.318 C 10.629 25.375 10.346 25.385 10.157 25.331 C 9.973 25.278 9.73 25.098 9.582 24.925 C 9.164 24.293 8.586 24.072 7.897 24.072 C 7.208 24.072 6.631 24.293 6.213 24.925 C 6.064 25.098 5.821 25.278 5.637 25.331 C 5.449 25.385 5.165 25.375 4.991 25.318 C 4.816 25.261 4.582 25.101 4.462 24.946 C 4.345 24.795 4.255 24.506 4.238 24.279 L 4.238 4.396 C 4.251 4.196 4.342 3.92 4.449 3.75 Z M 5.364 4.406 L 5.364 24.187 C 6.008 23.417 7.005 22.946 7.897 22.946 C 8.789 22.946 9.786 23.417 10.431 24.187 L 10.431 4.406 C 9.801 3.492 8.905 3.129 7.897 3.129 C 6.89 3.129 5.993 3.492 5.364 4.406 Z" style="fill: rgb(255, 79, 31);"/>
  <path d="M 19.061 24.693 L 28.587 10.195 C 28.821 9.873 29.212 9.602 29.568 9.529 C 29.923 9.455 30.389 9.548 30.732 9.751 L 33.317 11.45 C 33.639 11.683 33.91 12.074 33.983 12.43 C 34.057 12.786 33.964 13.252 33.761 13.594 L 20.296 34.088 C 20.062 34.41 19.671 34.68 19.315 34.754 C 18.959 34.827 18.493 34.734 18.151 34.531 L 15.566 32.832 C 15.244 32.599 14.973 32.208 14.9 31.852 C 14.826 31.496 14.919 31.03 15.122 30.688 L 17.361 27.281 L 18.067 27.744 L 15.828 31.152 C 15.689 31.33 15.683 31.473 15.727 31.681 C 15.77 31.89 15.831 32.019 16.029 32.127 L 18.615 33.826 C 18.793 33.964 18.936 33.97 19.144 33.927 C 19.353 33.884 19.482 33.822 19.59 33.624 L 33.055 13.13 C 33.194 12.953 33.199 12.81 33.156 12.601 C 33.113 12.393 33.051 12.263 32.854 12.155 L 30.268 10.457 C 30.09 10.318 29.947 10.312 29.739 10.356 C 29.53 10.399 29.401 10.46 29.293 10.658 L 19.767 25.157 Z" style="fill: rgb(255, 79, 31);"/>
  <rect x="31.0816" y="13.0547" width="2.376" height="0.546404" transform="matrix(0.835739, 0.549126, -0.549126, 0.835739, 12.274164, -14.923352)" fill="#FF4F1F"/>
  <rect x="30.9808" y="14.2944" width="1.782" height="0.546404" transform="matrix(0.835739, 0.549126, -0.549126, 0.835739, 12.938359, -14.664367)" fill="#FF4F1F"/>
  <rect x="29.7797" y="16.125" width="1.782" height="0.546404" transform="matrix(0.835739, 0.549126, -0.549126, 0.835739, 13.746296, -13.704115)" fill="#FF4F1F"/>
  <rect x="29.884" y="14.8804" width="2.376" height="0.546404" transform="matrix(0.835739, 0.549126, -0.549126, 0.835739, 13.079986, -13.965828)" fill="#FF4F1F"/>
  <rect x="28.6816" y="16.7085" width="2.376" height="0.546404" transform="matrix(0.835739, 0.549126, -0.549126, 0.835739, 13.886337, -13.005274)" fill="#FF4F1F"/>
  <rect x="28.5797" y="17.9463" width="1.782" height="0.546404" transform="matrix(0.835739, 0.549126, -0.549126, 0.835739, 14.549307, -12.745996)" fill="#FF4F1F"/>
  <rect x="27.3809" y="19.772" width="1.782" height="0.546404" transform="matrix(0.835739, 0.549126, -0.549126, 0.835739, 15.354931, -11.787812)" fill="#FF4F1F"/>
  <rect x="27.4839" y="18.5298" width="2.376" height="0.546404" transform="matrix(0.835739, 0.549126, -0.549126, 0.835739, 14.689726, -12.048417)" fill="#FF4F1F"/>
  <rect x="28.6816" y="16.7085" width="2.376" height="0.546404" transform="matrix(0.835739, 0.549126, -0.549126, 0.835739, 13.886337, -13.005274)" fill="#FF4F1F"/>
  <rect x="28.5797" y="17.9463" width="1.782" height="0.546404" transform="matrix(0.835739, 0.549126, -0.549126, 0.835739, 14.549307, -12.745996)" fill="#FF4F1F"/>
  <rect x="27.3809" y="19.772" width="1.782" height="0.546404" transform="matrix(0.835739, 0.549126, -0.549126, 0.835739, 15.354931, -11.787812)" fill="#FF4F1F"/>
  <rect x="27.4839" y="18.5298" width="2.376" height="0.546404" transform="matrix(0.835739, 0.549126, -0.549126, 0.835739, 14.689726, -12.048417)" fill="#FF4F1F"/>
  <rect x="26.2828" y="20.3628" width="2.376" height="0.546404" transform="matrix(0.835739, 0.549126, -0.549126, 0.835739, 15.498981, -11.087772)" fill="#FF4F1F"/>
  <rect x="26.1797" y="21.6025" width="1.782" height="0.546404" transform="matrix(0.835739, 0.549126, -0.549126, 0.835739, 16.162798, -10.827523)" fill="#FF4F1F"/>
  <rect x="24.9808" y="23.4258" width="1.782" height="0.546404" transform="matrix(0.835739, 0.549126, -0.549126, 0.835739, 16.967087, -9.869679)" fill="#FF4F1F"/>
  <rect x="25.0828" y="22.186" width="2.376" height="0.546404" transform="matrix(0.835739, 0.549126, -0.549126, 0.835739, 16.303035, -10.129339)" fill="#FF4F1F"/>
  <rect x="23.8816" y="24.0166" width="2.376" height="0.546404" transform="matrix(0.835739, 0.549126, -0.549126, 0.835739, 17.110955, -9.169033)" fill="#FF4F1F"/>
  <rect x="23.7761" y="25.2539" width="1.782" height="0.546404" transform="matrix(0.835739, 0.549126, -0.549126, 0.835739, 17.773061, -8.907861)" fill="#FF4F1F"/>
  <rect x="22.5785" y="27.0796" width="1.782" height="0.546404" transform="matrix(0.835739, 0.549126, -0.549126, 0.835739, 18.578881, -7.950337)" fill="#FF4F1F"/>
  <rect x="22.684" y="25.8398" width="2.376" height="0.546404" transform="matrix(0.835739, 0.549126, -0.549126, 0.835739, 17.915404, -8.21192)" fill="#FF4F1F"/>
  <rect x="21.4828" y="27.6704" width="2.376" height="0.546404" transform="matrix(0.835739, 0.549126, -0.549126, 0.835739, 18.723325, -7.251613)" fill="#FF4F1F"/>
  <rect x="21.3785" y="28.9126" width="1.782" height="0.546404" transform="matrix(0.835739, 0.549126, -0.549126, 0.835739, 19.388317, -6.990295)" fill="#FF4F1F"/>
  <rect x="20.1761" y="30.7314" width="1.782" height="0.546404" transform="matrix(0.835739, 0.549126, -0.549126, 0.835739, 20.189561, -6.031268)" fill="#FF4F1F"/>
  <rect x="20.2828" y="29.4917" width="2.376" height="0.546404" transform="matrix(0.835739, 0.549126, -0.549126, 0.835739, 19.526336, -6.293494)" fill="#FF4F1F"/>
  <rect x="19.0804" y="31.3218" width="2.376" height="0.546404" transform="matrix(0.835739, 0.549126, -0.549126, 0.835739, 20.333785, -5.332611)" fill="#FF4F1F"/>
</svg>