<?xml version="1.0" encoding="UTF-8" standalone="no"?> <!-- Created with Vectornator for iOS (http://vectornator.io/) --><!DOCTYPE svg PUBLIC "-//W3C//DTD SVG 1.1//EN" "http://www.w3.org/Graphics/SVG/1.1/DTD/svg11.dtd">
<svg height="100%" style="fill-rule:nonzero;clip-rule:evenodd;stroke-linecap:round;stroke-linejoin:round;" xmlns:xlink="http://www.w3.org/1999/xlink" xmlns="http://www.w3.org/2000/svg" xml:space="preserve" width="100%" xmlns:vectornator="http://vectornator.io" version="1.1" viewBox="0 0 36 36">
<metadata>
<vectornator:setting key="DimensionsVisible" value="1"/>
<vectornator:setting key="PencilOnly" value="0"/>
<vectornator:setting key="SnapToPoints" value="0"/>
<vectornator:setting key="OutlineMode" value="0"/>
<vectornator:setting key="CMYKEnabledKey" value="0"/>
<vectornator:setting key="RulersVisible" value="1"/>
<vectornator:setting key="SnapToEdges" value="0"/>
<vectornator:setting key="GuidesVisible" value="1"/>
<vectornator:setting key="DisplayWhiteBackground" value="0"/>
<vectornator:setting key="doHistoryDisabled" value="0"/>
<vectornator:setting key="SnapToGuides" value="1"/>
<vectornator:setting key="TimeLapseWatermarkDisabled" value="0"/>
<vectornator:setting key="Units" value="Points"/>
<vectornator:setting key="DynamicGuides" value="0"/>
<vectornator:setting key="IsolateActiveLayer" value="0"/>
<vectornator:setting key="SnapToGrid" value="0"/>
</metadata>
<defs/>
<g id="Untitled" vectornator:layerName="Untitled">
<g opacity="1">
<path d="M2.88724+22.8488L2.88724+29.9594C2.86088+30.8579+3.19917+31.552+3.79337+32.1462C4.38648+32.7393+5.08063+33.0787+5.97907+33.0513L11.5455+33.0513L11.5455+34.288L5.97907+34.288C4.82801+34.2616+3.66816+33.7696+2.91799+33.0205C2.16893+32.2715+1.67797+31.1105+1.65051+29.9594L1.65051+22.8488L2.88724+22.8488ZM15.5643+2.75025L25.7679+2.75025C26.7476+2.7777+27.7537+3.19947+28.3918+3.8376C28.7125+4.15832+29.0069+4.59107+29.1859+5.01612C29.366+5.44008+29.4297+6.21991+29.4297+6.21991C29.4473+6.27592+28.2545+6.5538+28.2545+6.58455C28.2534+6.57357+28.226+6.13094+28.1908+5.96179C28.1568+5.79155+28.1139+5.65536+28.0469+5.4983C27.914+5.18417+27.7559+4.95022+27.5164+4.71188C27.0354+4.23081+26.495+3.96062+25.7679+3.98698L15.5643+3.98698L15.5643+2.75025ZM29.4781+22.8488C29.4781+25.5221+29.4781+28.033+29.4781+29.9616C29.4781+31.1116+28.9597+32.2726+28.2106+33.0216C27.4604+33.7707+26.3006+34.2616+25.1495+34.288L22.676+34.288L22.676+33.0513L25.1495+33.0513C26.048+33.0787+26.7421+32.7393+27.3363+32.1462C27.9294+31.5531+28.2413+30.859+28.2413+29.9616C28.2413+28.033+28.2413+25.5221+28.2413+22.8488L29.4781+22.8488Z" opacity="1" fill="#ff4f1f"/>
<path d="M1.88336+1.9199C2.82134+0.709529+4.3074+8.86188e-07+5.67044+8.86188e-07C7.03458+8.86188e-07+8.52063+0.709529+9.45752+1.9199C9.57504+2.10552+9.67499+2.40976+9.69036+2.62943L9.69036+24.4677C9.67059+24.7171+9.57174+25.0345+9.44324+25.2003C9.31253+25.3706+9.05442+25.5463+8.86331+25.6089C8.6711+25.6715+8.36027+25.6825+8.15269+25.6232C7.95059+25.565+7.68369+25.3673+7.52114+25.1773C7.06203+24.4831+6.42719+24.2404+5.67044+24.2404C4.91368+24.2404+4.27994+24.4831+3.82083+25.1773C3.65718+25.3673+3.39028+25.565+3.18819+25.6232C2.9817+25.6825+2.66977+25.6715+2.47866+25.6089C2.28645+25.5463+2.02944+25.3706+1.89763+25.2003C1.76913+25.0345+1.67028+24.7171+1.65161+24.4677L1.65161+2.62943C1.66589+2.40976+1.76583+2.10662+1.88336+1.9199ZM2.88834+2.64041L2.88834+24.3667C3.59567+23.521+4.69072+23.0037+5.67044+23.0037C6.65016+23.0037+7.7452+23.521+8.45363+24.3667L8.45363+2.64041C7.76168+1.63653+6.77756+1.23783+5.67044+1.23783C4.56441+1.23783+3.57919+1.63653+2.88834+2.64041Z" opacity="1" fill="#ff4f1f"/>
<path d="M17.9323+24.9225L28.3951+8.99871C28.6521+8.64504+29.0816+8.34739+29.4726+8.26721C29.8625+8.18594+30.3743+8.28808+30.7511+8.51104L33.5903+10.3771C33.9439+10.633+34.2416+11.0625+34.3218+11.4535C34.403+11.8445+34.3009+12.3563+34.0779+12.732L19.2888+35.2414C19.0318+35.595+18.6023+35.8916+18.2113+35.9729C17.8203+36.053+17.3085+35.9509+16.9328+35.7279L14.0936+33.8619C13.7399+33.6059+13.4423+33.1765+13.3621+32.7855C13.2808+32.3945+13.383+31.8826+13.6059+31.507L16.0651+27.765L16.8406+28.2735L14.3814+32.0166C14.2287+32.2121+14.2221+32.3692+14.2704+32.5977C14.3177+32.8272+14.3847+32.9689+14.6021+33.0875L17.4425+34.9536C17.638+35.1052+17.795+35.1118+18.0235+35.0645C18.253+35.0173+18.3947+34.9492+18.5133+34.7317L33.3025+12.2223C33.4552+12.0279+33.4607+11.8709+33.4134+11.6413C33.3662+11.4129+33.2981+11.2701+33.0817+11.1515L30.2414+9.28647C30.0459+9.1338+29.8889+9.12721+29.6604+9.17554C29.4308+9.22277+29.2892+9.28977+29.1705+9.50724L18.7077+25.4321L17.9323+24.9225Z" opacity="1" fill="#ff4f1f"/>
<path d="M31.135+12.1396L33.316+13.5726L33.316+13.5726L32.9865+14.0742L32.9865+14.0742L30.8055+12.6412L30.8055+12.6412L31.135+12.1396L31.135+12.1396Z" opacity="1" fill="#ff4f1f"/>
<path d="M31.0243+13.5012L32.6601+14.576L32.6601+14.576L32.3305+15.0776L32.3305+15.0776L30.6948+14.0028L30.6948+14.0028L31.0243+13.5012L31.0243+13.5012Z" opacity="1" fill="#ff4f1f"/>
<path d="M29.7051+15.5119L31.3408+16.5866L31.3408+16.5866L31.0113+17.0882L31.0113+17.0882L29.3755+16.0134L29.3755+16.0134L29.7051+15.5119L29.7051+15.5119Z" opacity="1" fill="#ff4f1f"/>
<path d="M29.8197+14.1449L32.0006+15.5779L32.0006+15.5779L31.6711+16.0794L31.6711+16.0794L29.4901+14.6464L29.4901+14.6464L29.8197+14.1449L29.8197+14.1449Z" opacity="1" fill="#ff4f1f"/>
<path d="M28.499+16.1527L30.68+17.5858L30.68+17.5858L30.3505+18.0873L30.3505+18.0873L28.1695+16.6543L28.1695+16.6543L28.499+16.1527L28.499+16.1527Z" opacity="1" fill="#ff4f1f"/>
<path d="M28.3871+17.5123L30.0228+18.587L30.0228+18.587L29.6933+19.0886L29.6933+19.0886L28.0575+18.0138L28.0575+18.0138L28.3871+17.5123L28.3871+17.5123Z" opacity="1" fill="#ff4f1f"/>
<path d="M27.0704+19.5175L28.7061+20.5923L28.7061+20.5923L28.3766+21.0938L28.3766+21.0938L26.7408+20.0191L26.7408+20.0191L27.0704+19.5175L27.0704+19.5175Z" opacity="1" fill="#ff4f1f"/>
<path d="M27.1835+18.1531L29.3645+19.5862L29.3645+19.5862L29.035+20.0877L29.035+20.0877L26.854+18.6547L26.854+18.6547L27.1835+18.1531L27.1835+18.1531Z" opacity="1" fill="#ff4f1f"/>
<path d="M28.499+16.1527L30.68+17.5858L30.68+17.5858L30.3505+18.0873L30.3505+18.0873L28.1695+16.6543L28.1695+16.6543L28.499+16.1527L28.499+16.1527Z" opacity="1" fill="#ff4f1f"/>
<path d="M28.3871+17.5123L30.0228+18.587L30.0228+18.587L29.6933+19.0886L29.6933+19.0886L28.0575+18.0138L28.0575+18.0138L28.3871+17.5123L28.3871+17.5123Z" opacity="1" fill="#ff4f1f"/>
<path d="M27.0704+19.5175L28.7061+20.5923L28.7061+20.5923L28.3766+21.0938L28.3766+21.0938L26.7408+20.0191L26.7408+20.0191L27.0704+19.5175L27.0704+19.5175Z" opacity="1" fill="#ff4f1f"/>
<path d="M27.1835+18.1531L29.3645+19.5862L29.3645+19.5862L29.035+20.0877L29.035+20.0877L26.854+18.6547L26.854+18.6547L27.1835+18.1531L27.1835+18.1531Z" opacity="1" fill="#ff4f1f"/>
<path d="M25.8643+20.1664L28.0453+21.5994L28.0453+21.5994L27.7158+22.101L27.7158+22.101L25.5348+20.668L25.5348+20.668L25.8643+20.1664L25.8643+20.1664Z" opacity="1" fill="#ff4f1f"/>
<path d="M25.7511+21.528L27.3868+22.6028L27.3868+22.6028L27.0573+23.1043L27.0573+23.1043L25.4215+22.0296L25.4215+22.0296L25.7511+21.528L25.7511+21.528Z" opacity="1" fill="#ff4f1f"/>
<path d="M24.4343+23.5306L26.07+24.6054L26.07+24.6054L25.7405+25.1069L25.7405+25.1069L24.1047+24.0322L24.1047+24.0322L24.4343+23.5306L24.4343+23.5306Z" opacity="1" fill="#ff4f1f"/>
<path d="M24.5463+22.1689L26.7273+23.6019L26.7273+23.6019L26.3977+24.1035L26.3977+24.1035L24.2168+22.6705L24.2168+22.6705L24.5463+22.1689L24.5463+22.1689Z" opacity="1" fill="#ff4f1f"/>
<path d="M23.227+24.1795L25.408+25.6125L25.408+25.6125L25.0784+26.1141L25.0784+26.1141L22.8974+24.6811L22.8974+24.6811L23.227+24.1795L23.227+24.1795Z" opacity="1" fill="#ff4f1f"/>
<path d="M23.1111+25.5385L24.7468+26.6133L24.7468+26.6133L24.4173+27.1148L24.4173+27.1148L22.7816+26.0401L22.7816+26.0401L23.1111+25.5385L23.1111+25.5385Z" opacity="1" fill="#ff4f1f"/>
<path d="M21.7957+27.5437L23.4315+28.6185L23.4315+28.6185L23.1019+29.1201L23.1019+29.1201L21.4662+28.0453L21.4662+28.0453L21.7957+27.5437L21.7957+27.5437Z" opacity="1" fill="#ff4f1f"/>
<path d="M21.9116+26.182L24.0926+27.615L24.0926+27.615L23.763+28.1166L23.763+28.1166L21.5821+26.6836L21.5821+26.6836L21.9116+26.182L21.9116+26.182Z" opacity="1" fill="#ff4f1f"/>
<path d="M20.5923+28.1926L22.7733+29.6257L22.7733+29.6257L22.4437+30.1272L22.4437+30.1272L20.2627+28.6942L20.2627+28.6942L20.5923+28.1926L20.5923+28.1926Z" opacity="1" fill="#ff4f1f"/>
<path d="M20.4777+29.557L22.1135+30.6318L22.1135+30.6318L21.7839+31.1333L21.7839+31.1333L20.1482+30.0586L20.1482+30.0586L20.4777+29.557L20.4777+29.557Z" opacity="1" fill="#ff4f1f"/>
<path d="M19.1571+31.5547L20.7928+32.6294L20.7928+32.6294L20.4633+33.131L20.4633+33.131L18.8275+32.0562L18.8275+32.0562L19.1571+31.5547L19.1571+31.5547Z" opacity="1" fill="#ff4f1f"/>
<path d="M19.2743+30.193L21.4553+31.6261L21.4553+31.6261L21.1257+32.1276L21.1257+32.1276L18.9447+30.6946L18.9447+30.6946L19.2743+30.193L19.2743+30.193Z" opacity="1" fill="#ff4f1f"/>
<path d="M17.9536+32.2031L20.1346+33.6361L20.1346+33.6361L19.8051+34.1377L19.8051+34.1377L17.6241+32.7047L17.6241+32.7047L17.9536+32.2031L17.9536+32.2031Z" opacity="1" fill="#ff4f1f"/>
</g>
</g>
</svg>
