<?xml version="1.0" encoding="UTF-8" standalone="no"?> <!-- Created with Vectornator for iOS (http://vectornator.io/) --><!DOCTYPE svg PUBLIC "-//W3C//DTD SVG 1.1//EN" "http://www.w3.org/Graphics/SVG/1.1/DTD/svg11.dtd">
<svg height="100%" style="fill-rule:nonzero;clip-rule:evenodd;stroke-linecap:round;stroke-linejoin:round;" xmlns:xlink="http://www.w3.org/1999/xlink" xmlns="http://www.w3.org/2000/svg" xml:space="preserve" width="100%" xmlns:vectornator="http://vectornator.io" version="1.1" viewBox="0 0 36 36">
<metadata>
<vectornator:setting key="DimensionsVisible" value="1"/>
<vectornator:setting key="PencilOnly" value="0"/>
<vectornator:setting key="SnapToPoints" value="0"/>
<vectornator:setting key="OutlineMode" value="0"/>
<vectornator:setting key="CMYKEnabledKey" value="0"/>
<vectornator:setting key="RulersVisible" value="1"/>
<vectornator:setting key="SnapToEdges" value="0"/>
<vectornator:setting key="GuidesVisible" value="1"/>
<vectornator:setting key="DisplayWhiteBackground" value="0"/>
<vectornator:setting key="doHistoryDisabled" value="0"/>
<vectornator:setting key="SnapToGuides" value="1"/>
<vectornator:setting key="TimeLapseWatermarkDisabled" value="0"/>
<vectornator:setting key="Units" value="Points"/>
<vectornator:setting key="DynamicGuides" value="0"/>
<vectornator:setting key="IsolateActiveLayer" value="0"/>
<vectornator:setting key="SnapToGrid" value="0"/>
</metadata>
<defs/>
<g id="Untitled" vectornator:layerName="Untitled">
<g opacity="1">
<path d="M16.418+0C16.099+0+15.7985+0.053367+15.5039+0.175781C15.2092+0.298224+14.9204+0.476998+14.6953+0.703125C14.4703+0.929079+14.2891+1.21648+14.168+1.51172C14.0469+1.80693+13.9907+2.10675+13.9922+2.42578L13.9922+5.34375C13.2551+5.5726+12.5326+5.83164+11.8477+6.1875L9.80859+4.14844C9.35188+3.694+8.72833+3.44531+8.08594+3.44531C7.44354+3.44531+6.85379+3.69531+6.39844+4.14844L4.14844+6.39844C3.69401+6.85512+3.41016+7.47871+3.41016+8.12109C3.41016+8.76348+3.69532+9.38837+4.14844+9.84375L6.15234+11.8828C5.7965+12.5677+5.53746+13.2902+5.30859+14.0273L2.42578+14.0273C1.79044+14.0244+1.194+14.2828+0.738281+14.7305C0.282564+15.1781+0.00858736+15.7792+1.87071e-09+16.418L1.87071e-09+19.582C-1.63181e-05+19.901+0.053357+20.2015+0.175781+20.4961C0.298152+20.7906+0.477082+21.0795+0.703125+21.3047C0.929467+21.53+1.2166+21.711+1.51172+21.832C1.8069+21.9531+2.10675+22.0093+2.42578+22.0078L5.30859+22.0078C5.53776+22.7464+5.83083+23.4662+6.1875+24.1523L4.14844+26.1914C3.69398+26.6482+3.44531+27.2717+3.44531+27.9141C3.44531+28.5564+3.69536+29.1461+4.14844+29.6016L6.39844+31.8516C6.85518+32.306+7.47876+32.5898+8.12109+32.5898C8.76341+32.5898+9.38834+32.3398+9.84375+31.8867L12.2344+29.4961L11.1445+28.4062L8.78906+30.7969C8.61607+30.969+8.36688+31.0781+8.12109+31.0781C7.87531+31.0781+7.62746+30.9703+7.45313+30.7969L5.20313+28.5469C5.03102+28.3739+4.95703+28.1598+4.95703+27.9141C4.95703+27.6682+5.02965+27.4205+5.20313+27.2461L8.01563+24.4688L7.73438+23.9414C7.20763+23.0355+6.80186+22.0729+6.53906+21.0586L6.39844+20.4961L2.42578+20.4961C2.30088+20.4967+2.18663+20.4719+2.07422+20.4258C1.9619+20.3797+1.84399+20.3006+1.75781+20.2148C1.67184+20.1292+1.62865+20.0458+1.58203+19.9336C1.53541+19.8214+1.51171+19.7034+1.51172+19.582L1.51172+16.418C1.51492+16.1848+1.58425+15.9556+1.75781+15.7852C1.93135+15.6147+2.18254+15.5379+2.42578+15.5391L6.36328+15.5391L6.50391+14.9766C6.76674+13.9623+7.17254+12.9644+7.69922+12.0586L7.98047+11.5664L5.20313+8.78906C5.03101+8.61609+4.92187+8.36695+4.92188+8.12109C4.92188+7.87525+5.0297+7.6274+5.20313+7.45312L7.45313+5.23828C7.62608+5.06617+7.84008+4.95703+8.08594+4.95703C8.3318+4.95703+8.5796+5.06485+8.75391+5.23828L11.5313+8.01562L12.0586+7.73438C12.9645+7.20764+13.9271+6.80186+14.9414+6.53906L15.5039+6.39844L15.5039+2.42578C15.5033+2.30087+15.5281+2.18666+15.5742+2.07422C15.6203+1.96194+15.6994+1.87906+15.7852+1.79297C15.871+1.70674+15.9542+1.62866+16.0664+1.58203C16.1786+1.53543+16.2965+1.51172+16.418+1.51172L19.582+1.51172C19.7036+1.51172+19.8214+1.53542+19.9336+1.58203C20.0458+1.62866+20.1292+1.67178+20.2148+1.75781C20.3007+1.84399+20.3795+1.96155+20.4258+2.07422C20.4718+2.18632+20.4967+2.30432+20.4961+2.42578L20.4961+6.39844L21.0586+6.53906C22.0729+6.80189+23.0356+7.20769+23.9414+7.73438L24.4688+8.01562L27.2109+5.20312C27.3789+5.03605+27.6331+4.92188+27.8789+4.92188C28.1248+4.92188+28.3725+5.02965+28.5469+5.20312L30.7969+7.45312C30.969+7.62611+31.043+7.87532+31.043+8.12109C31.043+8.36688+30.9703+8.57954+30.7969+8.75391L27.9844+11.5664L28.2656+12.0586C28.7923+12.9645+29.1982+13.9273+29.4609+14.9414L29.6016+15.5039L33.5742+15.5039C33.6991+15.5033+33.8135+15.5281+33.9258+15.5742C34.0382+15.6204+34.1561+15.6994+34.2422+15.7852C34.3284+15.8709+34.3714+15.9544+34.418+16.0664C34.4646+16.1787+34.4883+16.2965+34.4883+16.418L34.4883+19.582C34.4851+19.813+34.4131+20.0448+34.2422+20.2148C34.0712+20.385+33.8152+20.494+33.5742+20.4961L29.6367+20.4961L29.4961+21.0234C29.2334+22.0375+28.8276+23.0354+28.3008+23.9414L28.0195+24.4336L30.7969+27.2109C30.969+27.384+31.0781+27.6331+31.0781+27.8789C31.0781+28.1246+30.9704+28.3724+30.7969+28.5469L28.5469+30.7969C28.3739+30.969+28.1599+31.043+27.9141+31.043C27.6684+31.043+27.4205+30.9704+27.2461+30.7969L24.4688+27.9844L23.9414+28.2656C23.0356+28.7923+22.0728+29.1981+21.0586+29.4609L20.4961+29.6016L20.4961+33.5742C20.4967+33.699+20.4719+33.8135+20.4258+33.9258C20.3796+34.0382+20.3006+34.1561+20.2148+34.2422C20.1291+34.3284+20.0457+34.3714+19.9336+34.418C19.8213+34.4646+19.7035+34.4883+19.582+34.4883L16.418+34.4883C16.2966+34.4883+16.1787+34.4646+16.0664+34.418C15.9543+34.3714+15.8707+34.3282+15.7852+34.2422C15.6991+34.1558+15.6202+34.038+15.5742+33.9258C15.5281+33.8133+15.5033+33.6956+15.5039+33.5742L15.5039+30.1992L13.9922+30.1992L13.9922+33.5742C13.9907+33.8897+14.0469+34.1931+14.168+34.4883C14.289+34.7834+14.4701+35.0706+14.6953+35.2969C14.9202+35.5229+15.2092+35.7018+15.5039+35.8242C15.7985+35.9466+16.0991+36+16.418+36L19.582+36C19.901+36+20.2015+35.9466+20.4961+35.8242C20.7908+35.7018+21.0796+35.5231+21.3047+35.2969C21.5296+35.071+21.7108+34.7835+21.832+34.4883C21.9532+34.193+22.0093+33.8932+22.0078+33.5742L22.0078+30.6914C22.7463+30.4622+23.4662+30.1691+24.1523+29.8125L26.1914+31.8516C26.6483+32.306+27.2718+32.5547+27.9141+32.5547C28.5564+32.5547+29.1461+32.3046+29.6016+31.8516L31.8516+29.6016C32.306+29.1447+32.5898+28.5211+32.5898+27.8789C32.5898+27.2366+32.3046+26.6117+31.8516+26.1562L29.8477+24.1172C30.2035+23.4322+30.4626+22.7097+30.6914+21.9727L33.5742+21.9727C34.2139+21.9671+34.8481+21.7162+35.2969+21.2695C35.7457+20.8229+35.9915+20.2151+36+19.582L36+16.418C36+16.099+35.9466+15.7985+35.8242+15.5039C35.7019+15.2094+35.523+14.9204+35.2969+14.6953C35.0708+14.4702+34.7835+14.3243+34.4883+14.2031C34.1929+14.082+33.8933+13.9907+33.5742+13.9922L30.6914+13.9922C30.4623+13.2537+30.1692+12.5339+29.8125+11.8477L31.8516+9.80859C32.306+9.35181+32.5547+8.76342+32.5547+8.12109C32.5547+7.47878+32.3046+6.85382+31.8516+6.39844L29.6016+4.14844C29.1448+3.69398+28.5213+3.44531+27.8789+3.44531C27.2366+3.44531+26.6117+3.69537+26.1563+4.14844L24.1523+6.1875C23.4675+5.83166+22.7449+5.57262+22.0078+5.34375L22.0078+2.42578C22.0093+2.11019+21.9531+1.80692+21.832+1.51172C21.7106+1.21618+21.5298+0.929122+21.3047+0.703125C21.0798+0.477193+20.7908+0.298224+20.4961+0.175781C20.2015+0.0533584+19.9011-2.23517e-07+19.582+0L16.418+0Z" opacity="1" fill="#ff4f1f"/>
<path d="M17.4023+10.9336C15.8271+11.0578+14.3497+11.6956+13.1836+12.7617C12.0175+13.8277+11.2333+15.2469+10.9688+16.8047C10.7042+18.3624+10.9581+19.9837+11.707+21.375C12.4559+22.7663+13.6713+23.8667+15.1172+24.5039C16.563+25.141+18.1554+25.2768+19.6875+24.8906C21.2197+24.5044+22.5837+23.6057+23.5547+22.3594C24.5258+21.1131+25.0665+19.5801+25.0664+18C25.0781+17.8064+25.0793+17.5667+25.0664+17.332L23.5547+17.4375C23.5646+17.6175+23.5645+17.7848+23.5547+17.9648C23.5537+19.252+23.1603+20.4625+22.3945+21.4453C21.6288+22.4282+20.5442+23.1095+19.3359+23.4141C18.1278+23.7186+16.855+23.6352+15.7148+23.1328C14.5746+22.6304+13.6335+21.7339+13.043+20.6367C12.4524+19.5395+12.2367+18.2792+12.4453+17.0508C12.6539+15.8223+13.2836+14.7273+14.2031+13.8867C15.1227+13.046+16.3008+12.5081+17.543+12.4102C18.7851+12.3123+20.0187+12.6379+21.0586+13.3242L21.8672+12.0938C20.5485+11.2234+18.9775+10.8096+17.4023+10.9336Z" opacity="1" fill="#ff4f1f"/>
</g>
</g>
</svg>
