<svg width="36" height="36" viewBox="0 0 36 36" fill="none" xmlns="http://www.w3.org/2000/svg">
<path d="M15.1127 28.8433V31.8433C15.1118 32.039 15.1496 32.2331 15.2239 32.4142C15.2982 32.5954 15.4076 32.76 15.5458 32.8988C15.6839 33.0376 15.8481 33.1477 16.0289 33.2228C16.2097 33.2979 16.4036 33.3366 16.5993 33.3366H19.3993C19.5951 33.3366 19.789 33.2979 19.9698 33.2228C20.1506 33.1477 20.3148 33.0376 20.4529 32.8988C20.5911 32.76 20.7004 32.5954 20.7748 32.4142C20.8491 32.2331 20.8869 32.039 20.886 31.8433V28.8433C21.8464 28.5944 22.7683 28.2153 23.626 27.7166L25.746 29.8366C26.0259 30.115 26.4046 30.2714 26.7993 30.2714C27.1941 30.2714 27.5728 30.115 27.8527 29.8366L29.8527 27.8366C30.1311 27.5567 30.2875 27.178 30.2875 26.7833C30.2875 26.3885 30.1311 26.0098 29.8527 25.7299L27.7327 23.6099C28.2314 22.7522 28.6105 21.8304 28.8593 20.8699H31.8593C32.2479 20.8665 32.6196 20.711 32.895 20.4369C33.1704 20.1628 33.3275 19.7918 33.3327 19.4033V16.6033C33.3327 16.4075 33.294 16.2136 33.2189 16.0328C33.1438 15.852 33.0336 15.6878 32.8949 15.5497C32.7561 15.4115 32.5915 15.3022 32.4103 15.2278C32.2292 15.1535 32.0351 15.1157 31.8393 15.1166H28.8393C28.5905 14.1562 28.2114 13.2343 27.7127 12.3766L29.8327 10.2566C30.1111 9.97675 30.2675 9.59803 30.2675 9.20325C30.2675 8.80848 30.1111 8.42976 29.8327 8.14992L27.8327 6.14992C27.5528 5.87146 27.1741 5.71514 26.7793 5.71514C26.3846 5.71514 26.0059 5.87146 25.726 6.14992L23.626 8.28992C22.7683 7.79119 21.8464 7.41212 20.886 7.16325V4.16326C20.8869 3.96746 20.8491 3.77343 20.7748 3.59228C20.7004 3.41114 20.5911 3.24647 20.4529 3.10771C20.3148 2.96895 20.1506 2.85885 19.9698 2.78372C19.789 2.70859 19.5951 2.66992 19.3993 2.66992H16.5993C16.4036 2.66992 16.2097 2.70859 16.0289 2.78372C15.8481 2.85885 15.6839 2.96895 15.5458 3.10771C15.4076 3.24647 15.2982 3.41114 15.2239 3.59228C15.1496 3.77343 15.1118 3.96746 15.1127 4.16326V7.16325C14.1522 7.41212 13.2304 7.79119 12.3727 8.28992L10.2527 6.16992C9.97284 5.89146 9.59413 5.73514 9.19935 5.73514C8.80457 5.73514 8.42585 5.89146 8.14602 6.16992L6.14602 8.16992C5.86756 8.44976 5.71123 8.82848 5.71123 9.22325C5.71123 9.61803 5.86756 9.99675 6.14602 10.2766L8.26602 12.3966C7.76729 13.2543 7.38822 14.1762 7.13935 15.1366H4.15935C3.76735 15.1348 3.3905 15.2879 3.11083 15.5626C2.83115 15.8373 2.67129 16.2113 2.66602 16.6033V19.4033C2.66601 19.599 2.70469 19.7929 2.77982 19.9737C2.85494 20.1545 2.96505 20.3187 3.1038 20.4569C3.24256 20.595 3.40724 20.7044 3.58838 20.7787C3.76952 20.853 3.96356 20.8908 4.15935 20.8899H7.15935C7.40822 21.8504 7.78729 22.7722 8.28602 23.6299L6.16602 25.7499C5.88756 26.0298 5.73123 26.4085 5.73123 26.8033C5.73123 27.198 5.88756 27.5767 6.16602 27.8566L8.16602 29.8566C8.44585 30.135 8.82457 30.2914 9.21935 30.2914C9.61413 30.2914 9.99284 30.135 10.2727 29.8566L12.3927 27.7366" stroke="#FF4F1F" stroke-width="1.33333" stroke-miterlimit="10"/>
<path d="M23.6137 17.4479C23.6238 17.6322 23.6238 17.8169 23.6137 18.0012C23.6138 19.2572 23.1947 20.4774 22.4227 21.4682C21.6508 22.459 20.5702 23.1637 19.3523 23.4707C18.1344 23.7777 16.8488 23.6694 15.6995 23.163C14.5501 22.6565 13.6027 21.7809 13.0074 20.6749C12.4121 19.5689 12.203 18.2959 12.4133 17.0576C12.6236 15.8193 13.2412 14.6866 14.1682 13.8392C15.0952 12.9917 16.2786 12.4779 17.5307 12.3792C18.7828 12.2806 20.0321 12.6027 21.0804 13.2946" stroke="#FF4F1F" stroke-width="1.33333" stroke-miterlimit="10"/>
</svg>
