<?xml version="1.0" encoding="UTF-8" standalone="no"?> <!-- Created with Vectornator for iOS (http://vectornator.io/) --><!DOCTYPE svg PUBLIC "-//W3C//DTD SVG 1.1//EN" "http://www.w3.org/Graphics/SVG/1.1/DTD/svg11.dtd">
<svg height="100%" style="fill-rule:nonzero;clip-rule:evenodd;stroke-linecap:round;stroke-linejoin:round;" xmlns:xlink="http://www.w3.org/1999/xlink" xmlns="http://www.w3.org/2000/svg" xml:space="preserve" width="100%" xmlns:vectornator="http://vectornator.io" version="1.1" viewBox="0 0 36 36">
<metadata>
<vectornator:setting key="DimensionsVisible" value="1"/>
<vectornator:setting key="PencilOnly" value="0"/>
<vectornator:setting key="SnapToPoints" value="0"/>
<vectornator:setting key="OutlineMode" value="0"/>
<vectornator:setting key="CMYKEnabledKey" value="0"/>
<vectornator:setting key="RulersVisible" value="1"/>
<vectornator:setting key="SnapToEdges" value="0"/>
<vectornator:setting key="GuidesVisible" value="1"/>
<vectornator:setting key="DisplayWhiteBackground" value="0"/>
<vectornator:setting key="doHistoryDisabled" value="0"/>
<vectornator:setting key="SnapToGuides" value="1"/>
<vectornator:setting key="TimeLapseWatermarkDisabled" value="0"/>
<vectornator:setting key="Units" value="Points"/>
<vectornator:setting key="DynamicGuides" value="0"/>
<vectornator:setting key="IsolateActiveLayer" value="0"/>
<vectornator:setting key="SnapToGrid" value="0"/>
</metadata>
<defs/>
<g id="Untitled" vectornator:layerName="Untitled">
<g opacity="1">
<path d="M8.00829+23.6504L7.25985+23.6504L7.25985+20.2824C3.29313+20.2824+0+16.9893+0+13.0226L0+12.7981C0+8.83133+3.29313+5.5382+7.25985+5.5382L13.6216+5.5382C16.6153+5.5382+19.3846+7.48414+20.4324+10.2534L19.0852+10.7773C18.2619+8.53195+16.0914+7.03508+13.6964+7.03508L7.25985+7.03508C4.11641+7.03508+1.49688+9.6546+1.49688+12.7981L1.49688+13.0226C1.49688+16.166+4.11641+18.7856+7.25985+18.7856L8.68189+18.7856L8.68189+22.1535L8.75673+22.1535C10.1788+22.0787+11.4511+21.1806+11.975+19.8334C12.1247+19.3095+12.5738+19.0101+13.0977+18.8604L13.397+20.3573C12.6486+22.3032+10.8524+23.6504+8.75673+23.6504L8.00829+23.6504L8.00829+23.6504Z" opacity="1" fill="#ff4f1f"/>
<path d="M28.0665+30.4618L27.2432+30.4618C25.1476+30.387+23.3513+29.1146+22.6029+27.1687C22.6029+27.1687+22.6029+27.1687+22.5281+27.1687L22.4532+27.1687C18.4116+27.1687+15.1934+23.8755+15.1934+19.9088L15.1934+19.6843C15.1934+15.6427+18.4865+12.4244+22.4532+12.4244L28.7401+12.4244C32.7817+12.4244+36+15.7176+36+19.6843L36+19.9088C36+23.9504+32.7068+27.1687+28.7401+27.1687L28.0665+27.1687L28.0665+25.6718L28.7401+25.6718C31.9584+25.6718+34.5031+23.0523+34.5031+19.9088L34.5031+19.6843C34.5031+16.466+31.8835+13.9213+28.7401+13.9213L22.4532+13.9213C19.2349+13.9213+16.6902+16.5408+16.6902+19.6843L16.6902+19.9088C16.6902+23.1271+19.3098+25.6718+22.4532+25.6718L22.6029+25.6718C23.2765+25.6718+23.8004+26.046+24.0249+26.6448C24.5488+28.0668+25.8212+28.9649+27.3181+28.9649L28.0665+28.9649L28.0665+30.4618Z" opacity="1" fill="#ff4f1f"/>
</g>
</g>
</svg>
