<svg width="36" height="36" viewBox="0 0 36 36" fill="none" xmlns="http://www.w3.org/2000/svg">
<path d="M8.00829 24.1122H7.25985V20.7442C3.29313 20.7442 0 17.4511 0 13.4844V13.2599C0 9.29313 3.29313 6 7.25985 6H13.6216C16.6153 6 19.3846 7.94594 20.4324 10.7152L19.0852 11.2391C18.2619 8.99375 16.0914 7.49688 13.6964 7.49688H7.25985C4.11641 7.49688 1.49688 10.1164 1.49688 13.2599V13.4844C1.49688 16.6278 4.11641 19.2474 7.25985 19.2474H8.68189V22.6153H8.75673C10.1788 22.5405 11.4511 21.6424 11.975 20.2952C12.1247 19.7713 12.5738 19.4719 13.0977 19.3222L13.397 20.8191C12.6486 22.765 10.8524 24.1122 8.75673 24.1122H8.00829V24.1122Z" fill="#FF4F1F"/>
<path d="M28.0665 30.9236H27.2432C25.1476 30.8488 23.3513 29.5764 22.6029 27.6305C22.6029 27.6305 22.6029 27.6305 22.5281 27.6305H22.4532C18.4116 27.6305 15.1934 24.3373 15.1934 20.3706V20.1461C15.1934 16.1045 18.4865 12.8862 22.4532 12.8862H28.7401C32.7817 12.8862 36 16.1794 36 20.1461V20.3706C36 24.4122 32.7068 27.6305 28.7401 27.6305H28.0665V26.1336H28.7401C31.9584 26.1336 34.5031 23.5141 34.5031 20.3706V20.1461C34.5031 16.9278 31.8835 14.3831 28.7401 14.3831H22.4532C19.2349 14.3831 16.6902 17.0026 16.6902 20.1461V20.3706C16.6902 23.5889 19.3098 26.1336 22.4532 26.1336H22.6029C23.2765 26.1336 23.8004 26.5078 24.0249 27.1066C24.5488 28.5286 25.8212 29.4267 27.3181 29.4267H28.0665V30.9236Z" fill="#FF4F1F"/>
</svg>
