<?xml version="1.0" encoding="UTF-8" standalone="no"?> <!-- Created with Vectornator for iOS (http://vectornator.io/) --><!DOCTYPE svg PUBLIC "-//W3C//DTD SVG 1.1//EN" "http://www.w3.org/Graphics/SVG/1.1/DTD/svg11.dtd">
<svg height="100%" style="fill-rule:nonzero;clip-rule:evenodd;stroke-linecap:round;stroke-linejoin:round;" xmlns:xlink="http://www.w3.org/1999/xlink" xmlns="http://www.w3.org/2000/svg" xml:space="preserve" width="100%" xmlns:vectornator="http://vectornator.io" version="1.1" viewBox="0 0 36 36">
<metadata>
<vectornator:setting key="DimensionsVisible" value="1"/>
<vectornator:setting key="PencilOnly" value="0"/>
<vectornator:setting key="SnapToPoints" value="0"/>
<vectornator:setting key="OutlineMode" value="0"/>
<vectornator:setting key="CMYKEnabledKey" value="0"/>
<vectornator:setting key="RulersVisible" value="1"/>
<vectornator:setting key="SnapToEdges" value="0"/>
<vectornator:setting key="GuidesVisible" value="1"/>
<vectornator:setting key="DisplayWhiteBackground" value="0"/>
<vectornator:setting key="doHistoryDisabled" value="0"/>
<vectornator:setting key="SnapToGuides" value="1"/>
<vectornator:setting key="TimeLapseWatermarkDisabled" value="0"/>
<vectornator:setting key="Units" value="Points"/>
<vectornator:setting key="DynamicGuides" value="0"/>
<vectornator:setting key="IsolateActiveLayer" value="0"/>
<vectornator:setting key="SnapToGrid" value="0"/>
</metadata>
<defs/>
<g id="Untitled" vectornator:layerName="Untitled">
<g opacity="1">
<path d="M28.334+19.2501L30.1225+22.2457L30.1225+26.4962L25.9535+24.9862C26.465+23.2379+26.7339+21.6337+26.7392+19.5773C26.7191+13.2449+23.4767+3.8301+18.6226+0.31344L18.1906+5.68047e-07L17.7596+0.31344C12.913+3.82057+9.64091+13.2365+9.62079+19.5698C9.62926+21.6294+9.90034+23.2273+10.415+24.9735L5.87752+26.5185L5.87752+22.4152L8.02077+19.4216L6.80407+18.5501L4.52105+21.7385L4.38127+21.9344L4.38127+22.1748L4.38127+27.5636L4.38127+28.6098L5.3703+28.272L11.5904+26.1542L12.302+25.9117L12.0584+25.2043C11.4273+23.3714+11.116+21.5066+11.117+19.5688C11.0969+13.4779+13.867+5.23317+18.1906+1.85311C22.7683+4.99809+25.2621+13.4842+25.2419+19.5773C25.2472+21.5119+24.9401+23.3745+24.3154+25.2054L24.0792+25.899L24.7697+26.1489L30.6159+28.2678L31.6187+28.631L31.6187+27.5636L31.6187+22.0392L31.6187+21.8338L31.5139+21.6559L29.6195+18.4823L28.334+19.2501Z" opacity="1" fill="#ff4f1f"/>
<path d="M15.0393+12.8256C15.0541+12.239+15.2563+11.5634+15.5677+11.0667C15.9055+10.5871+16.4497+10.1391+16.9845+9.89876C17.532+9.68909+18.234+9.6192+18.8122+9.71662C19.384+9.84687+20.0172+10.1677+20.4313+10.5818C20.8464+10.9958+21.1831+11.6269+21.2964+12.2019C21.4108+12.7769+21.325+13.4811+21.1143+14.0285C20.8739+14.5633+20.426+15.1076+19.9473+15.4454C19.6996+15.6053+19.3851+15.7567+19.1066+15.8403C18.8291+15.924+18.4056+15.942+18.4056+15.942C18.3526+15.9536+18.0286+14.4966+17.9756+14.5082C17.9756+14.5082+18.5019+14.4585+18.6766+14.4066C18.8503+14.3547+18.9678+14.3039+19.1182+14.199C19.4338+14.0084+19.6053+13.7998+19.7324+13.4535C19.8891+13.1189+19.8997+12.8542+19.8277+12.492C19.7567+12.131+19.6339+11.9012+19.3734+11.6407C19.1129+11.3791+18.8853+11.2415+18.521+11.1853C18.1631+11.0975+17.8941+11.125+17.5595+11.2806C17.2132+11.4077+17.0046+11.5793+16.814+11.8948C16.5969+12.1934+16.5196+12.4518+16.5366+12.8203L15.0393+12.8256Z" opacity="1" fill="#ff4f1f"/>
<path d="M17.4409+36L17.4409+30.0425L18.9382+30.0425L18.9382+36L17.4409+36Z" opacity="1" fill="#ff4f1f"/>
<path d="M15.1865+29.1022L15.1865+34.1331L13.6891+34.1331L13.6891+29.1022L15.1865+29.1022Z" opacity="1" fill="#ff4f1f"/>
<path d="M21.1979+34.1331L21.1979+29.1022L22.6952+29.1022L22.6952+34.1331L21.1979+34.1331Z" opacity="1" fill="#ff4f1f"/>
</g>
</g>
</svg>
