<?xml version="1.0" encoding="utf-8"?>
<svg viewBox="5.003 1.002 25.722 33.997" width="25.722" height="33.997" xmlns="http://www.w3.org/2000/svg">
  <path d="M 27.623 19.181 L 29.312 22.01 L 29.312 26.024 L 25.375 24.598 C 25.858 22.947 26.112 21.432 26.117 19.49 C 26.098 13.51 23.036 4.619 18.452 1.298 L 18.044 1.002 L 17.637 1.298 C 13.06 4.61 9.97 13.502 9.951 19.483 C 9.959 21.428 10.215 22.937 10.701 24.586 L 6.416 26.045 L 6.416 22.17 L 8.44 19.343 L 7.291 18.52 L 5.135 21.531 L 5.003 21.716 L 5.003 21.943 L 5.003 27.032 L 5.003 28.02 L 5.937 27.701 L 11.811 25.701 L 12.483 25.472 L 12.253 24.804 C 11.657 23.073 11.363 21.312 11.364 19.482 C 11.345 13.73 13.961 5.944 18.044 2.752 C 22.367 5.722 24.722 13.736 24.703 19.49 C 24.708 21.317 24.418 23.076 23.828 24.805 L 23.605 25.46 L 24.257 25.696 L 29.778 27.697 L 30.725 28.04 L 30.725 27.032 L 30.725 21.815 L 30.725 21.621 L 30.626 21.453 L 28.837 18.456 Z" style="fill: rgb(255, 79, 31);"/>
  <path d="M 15.068 13.114 C 15.082 12.56 15.273 11.922 15.567 11.453 C 15.886 11 16.4 10.577 16.905 10.35 C 17.422 10.152 18.085 10.086 18.631 10.178 C 19.171 10.301 19.769 10.604 20.16 10.995 C 20.552 11.386 20.87 11.982 20.977 12.525 C 21.085 13.068 21.004 13.733 20.805 14.25 C 20.578 14.755 20.155 15.269 19.703 15.588 C 19.469 15.739 19.172 15.882 18.909 15.961 C 18.647 16.04 18.247 16.057 18.247 16.057 C 18.197 16.068 17.891 14.692 17.841 14.703 C 17.841 14.703 18.338 14.656 18.503 14.607 C 18.667 14.558 18.778 14.51 18.92 14.411 C 19.218 14.231 19.38 14.034 19.5 13.707 C 19.648 13.391 19.658 13.141 19.59 12.799 C 19.523 12.458 19.407 12.241 19.161 11.995 C 18.915 11.748 18.7 11.618 18.356 11.565 C 18.018 11.482 17.764 11.508 17.448 11.655 C 17.121 11.775 16.924 11.937 16.744 12.235 C 16.539 12.517 16.466 12.761 16.482 13.109 Z" style="fill: rgb(255, 79, 31);"/>
  <path d="M 17.336 34.999 L 17.336 29.373 L 18.75 29.373 L 18.75 34.999 Z" style="fill: rgb(255, 79, 31);"/>
  <path d="M 15.207 28.485 L 15.207 33.236 L 13.793 33.236 L 13.793 28.485 Z" style="fill: rgb(255, 79, 31);"/>
  <path d="M 20.884 33.236 L 20.884 28.485 L 22.298 28.485 L 22.298 33.236 Z" style="fill: rgb(255, 79, 31);"/>
</svg>