<?xml version="1.0" encoding="UTF-8" standalone="no"?> <!-- Created with Vectornator for iOS (http://vectornator.io/) --><!DOCTYPE svg PUBLIC "-//W3C//DTD SVG 1.1//EN" "http://www.w3.org/Graphics/SVG/1.1/DTD/svg11.dtd">
<svg height="100%" style="fill-rule:nonzero;clip-rule:evenodd;stroke-linecap:round;stroke-linejoin:round;" xmlns:xlink="http://www.w3.org/1999/xlink" xmlns="http://www.w3.org/2000/svg" xml:space="preserve" width="100%" xmlns:vectornator="http://vectornator.io" version="1.1" viewBox="0 0 36 36">
<metadata>
<vectornator:setting key="DimensionsVisible" value="1"/>
<vectornator:setting key="PencilOnly" value="0"/>
<vectornator:setting key="SnapToPoints" value="0"/>
<vectornator:setting key="OutlineMode" value="0"/>
<vectornator:setting key="CMYKEnabledKey" value="0"/>
<vectornator:setting key="RulersVisible" value="1"/>
<vectornator:setting key="SnapToEdges" value="0"/>
<vectornator:setting key="GuidesVisible" value="1"/>
<vectornator:setting key="DisplayWhiteBackground" value="0"/>
<vectornator:setting key="doHistoryDisabled" value="0"/>
<vectornator:setting key="SnapToGuides" value="1"/>
<vectornator:setting key="TimeLapseWatermarkDisabled" value="0"/>
<vectornator:setting key="Units" value="Points"/>
<vectornator:setting key="DynamicGuides" value="0"/>
<vectornator:setting key="IsolateActiveLayer" value="0"/>
<vectornator:setting key="SnapToGrid" value="0"/>
</metadata>
<defs/>
<g id="Untitled" vectornator:layerName="Untitled">
<g opacity="1">
<path d="M12.4383+7.56517L21.6836+13.893C22.365+14.388+22.9297+15.2077+23.1504+16.0209L25.7722+26.9119C25.8193+27.1948+25.8+27.573+25.7068+27.798C25.6115+28.0283+25.3832+28.3015+25.1893+28.4355C24.9965+28.5683+24.659+28.684+24.4104+28.6915C24.1672+28.698+23.8061+28.5812+23.5597+28.4376L14.3143+22.1109C13.6329+21.6148+13.0683+20.7951+12.8476+19.9819L10.2258+9.09088C10.1786+8.8091+10.1979+8.42981+10.2911+8.20589C10.3865+7.97553+10.6147+7.70124+10.8086+7.56839C11.0015+7.43553+11.339+7.31874+11.5876+7.31232C11.8308+7.30482+12.1919+7.4216+12.4383+7.56517ZM11.6251+8.75446L11.6251+8.75446L14.2479+19.6455C14.3615+20.2187+14.6326+20.6119+15.1276+20.9226L24.3729+27.2494L24.3729+27.2494L24.3729+27.2494L21.75+16.3584C21.6365+15.7852+21.3654+15.3909+20.8704+15.0812L11.6251+8.75446Z" opacity="1" fill="#ff4f1f"/>
<path d="M36+18C36+13.5283+34.3355+9.21677+31.3308+5.90506C28.3261+2.59334+24.1963+0.518586+19.7457+0.0848942C15.2951-0.348788+10.8425+0.889642+7.25498+3.55899C3.66745+6.22833+1.20195+10.1375+0.338666+14.5249C-0.524617+18.9125+0.276127+23.4643+2.58495+27.2938C4.89378+31.1233+8.54535+33.9563+12.8285+35.2411C17.1116+36.5258+21.7196+36.1703+25.7549+34.2438C29.7903+32.3173+32.9641+28.9576+34.6583+24.8193L33.226+24.2329C31.6776+28.0155+28.7766+31.0862+25.0882+32.8471C21.3998+34.608+17.188+34.9329+13.2731+33.7586C9.35825+32.5844+6.02064+29.9949+3.91033+26.4947C1.80002+22.9945+1.06811+18.8341+1.85718+14.8238C2.64623+10.8135+4.89975+7.24046+8.17883+4.80061C11.4579+2.36077+15.5277+1.22882+19.5956+1.62523C23.6636+2.02163+27.4382+3.91798+30.1846+6.94497C32.931+9.97192+34.4523+13.9128+34.4523+18L36+18Z" opacity="1" fill="#ff4f1f"/>
<path d="M16.6223+16.3349C16.2376+16.6538+15.9753+17.0963+15.8801+17.5868C15.785+18.0774+15.863+18.5858+16.1006+19.0254C16.3384+19.465+16.7211+19.8085+17.1837+19.9975C17.6464+20.1865+18.1602+20.2093+18.6377+20.0619C19.1152+19.9145+19.5268+19.6061+19.8024+19.1893C20.0781+18.7724+20.2005+18.2729+20.1492+17.7759C20.0978+17.2787+19.8757+16.8149+19.5206+16.4633C19.1655+16.1116+18.6995+15.8939+18.202+15.8473L18.1313+16.6021C18.4542+16.6323+18.7567+16.7736+18.9872+17.0019C19.2176+17.2301+19.3618+17.5311+19.3952+17.8538C19.4285+18.1764+19.349+18.5006+19.17+18.7711C18.9912+19.0416+18.724+19.2419+18.4142+19.3375C18.1042+19.4331+17.7707+19.4184+17.4704+19.2957C17.1702+19.1731+16.9218+18.95+16.7675+18.6648C16.6132+18.3795+16.5626+18.0495+16.6243+17.7311C16.6861+17.4126+16.8563+17.1255+17.1061+16.9185L16.6223+16.3349Z" opacity="1" fill="#ff4f1f"/>
</g>
</g>
</svg>
