<?xml version="1.0" encoding="utf-8"?>
<svg viewBox="1.2 1.2 33.6 33.6" width="33.6" height="33.6" xmlns="http://www.w3.org/2000/svg">
  <path d="M 12.809 8.261 L 21.438 14.167 C 22.074 14.629 22.601 15.394 22.807 16.153 L 25.254 26.318 C 25.298 26.582 25.28 26.935 25.193 27.145 C 25.104 27.36 24.891 27.615 24.71 27.74 C 24.53 27.864 24.215 27.972 23.983 27.979 C 23.756 27.985 23.419 27.876 23.189 27.742 L 14.56 21.837 C 13.924 21.374 13.397 20.609 13.191 19.85 L 10.744 9.685 C 10.7 9.422 10.718 9.068 10.805 8.859 C 10.894 8.644 11.107 8.388 11.288 8.264 C 11.468 8.14 11.783 8.031 12.015 8.025 C 12.242 8.018 12.579 8.127 12.809 8.261 Z M 12.05 9.371 C 12.05 9.371 12.05 9.371 12.05 9.371 L 14.498 19.536 C 14.604 20.071 14.857 20.438 15.319 20.728 L 23.948 26.633 C 23.948 26.633 23.948 26.633 23.948 26.633 C 23.948 26.633 23.948 26.633 23.948 26.633 L 21.5 16.468 C 21.394 15.933 21.141 15.565 20.679 15.276 Z" style="fill: rgb(255, 79, 31);"/>
  <path d="M34.8 18.0002C34.8 13.8266 33.2465 9.8025 30.4421 6.71156C27.6377 3.62061 23.7832 1.68417 19.6293 1.27939C15.4754 0.874619 11.3196 2.03049 7.97124 4.52189C4.62287 7.01328 2.32173 10.6618 1.516 14.7568C0.710267 18.8519 1.45763 23.1002 3.61254 26.6744C5.76745 30.2486 9.17559 32.8928 13.1732 34.0919C17.1708 35.291 21.4716 34.9592 25.2379 33.1611C29.0043 31.363 31.9665 28.2273 33.5477 24.3649L32.2109 23.8176C30.7657 27.348 28.0581 30.214 24.6156 31.8575C21.1731 33.501 17.2421 33.8043 13.5882 32.7083C9.9343 31.6123 6.81919 29.1955 4.84956 25.9286C2.87993 22.6617 2.19682 18.7787 2.93328 15.0357C3.66973 11.2928 5.77302 7.95793 8.8335 5.68074C11.894 3.40355 15.6925 2.34706 19.4892 2.71704C23.286 3.08701 26.809 4.85695 29.3723 7.68214C31.9356 10.5073 33.3555 14.1855 33.3555 18.0002H34.8Z" fill="#FF4F1F"/>
  <path d="M16.7141 16.4461C16.355 16.7437 16.1102 17.1567 16.0214 17.6145C15.9326 18.0724 16.0054 18.5469 16.2272 18.9572C16.4491 19.3675 16.8063 19.6881 17.2381 19.8645C17.6699 20.0409 18.1495 20.0622 18.5951 19.9246C19.0408 19.7871 19.425 19.4992 19.6822 19.1102C19.9395 18.7211 20.0538 18.2549 20.0059 17.791C19.9579 17.327 19.7506 16.8941 19.4192 16.5659C19.0878 16.2377 18.6528 16.0345 18.1885 15.991L18.1225 16.6955C18.4239 16.7237 18.7062 16.8556 18.9213 17.0686C19.1364 17.2816 19.271 17.5626 19.3021 17.8637C19.3332 18.1648 19.259 18.4674 19.092 18.7199C18.9251 18.9724 18.6757 19.1593 18.3865 19.2485C18.0972 19.3378 17.7859 19.324 17.5057 19.2095C17.2255 19.0951 16.9936 18.8869 16.8496 18.6207C16.7056 18.3544 16.6584 18.0464 16.716 17.7492C16.7736 17.452 16.9325 17.184 17.1656 16.9908L16.7141 16.4461Z" fill="#FF4F1F"/>
</svg>