<svg width="36" height="36" viewBox="0 0 36 36" fill="none" xmlns="http://www.w3.org/2000/svg">
<g clip-path="url(#clip0)">
<path d="M30.914 27.5462H5.08595C3.34172 27.5462 2 26.1345 2 24.3866C2.06709 23.4454 2.53669 22.5714 3.34172 22.1008L4.48218 21.2941C4.95178 20.958 5.22013 20.4874 5.22013 19.9496V14.7059C5.28721 8.38656 9.98323 2.94118 16.2222 2L16.4235 3.34454C10.8553 4.15126 6.62893 9.05882 6.56184 14.7059V19.9496C6.56184 20.958 6.09224 21.8992 5.22013 22.437L4.01258 23.2437C3.61006 23.5126 3.34172 23.916 3.34172 24.4538C3.34172 25.395 4.07966 26.2017 5.08595 26.2017H30.847C31.7862 26.2017 32.5912 25.395 32.5912 24.4538C32.5912 23.9832 32.3228 23.5126 31.9203 23.2437L30.7128 22.437C29.9078 21.8992 29.3711 20.958 29.3711 19.9496V14.7731C29.3711 9.05882 25.0776 4.15126 19.4423 3.34454L19.6436 2C25.9497 2.87395 30.7128 8.38656 30.7128 14.7059V19.9496C30.7128 20.4874 30.9811 21.0252 31.4507 21.2941L32.6583 22.1008C33.4633 22.5714 33.9329 23.4454 34 24.3866C34 26.1345 32.5912 27.5462 30.914 27.5462Z" fill="#FF4F1F"/>
<path d="M17.9656 34.0022C15.8188 34.0022 14.0746 32.2543 14.0746 30.103H15.4163C15.4163 31.5148 16.5568 32.6576 17.9656 32.6576C19.3744 32.6576 20.5148 31.5148 20.5148 30.103H21.8566C21.8566 32.2543 20.1123 34.0022 17.9656 34.0022Z" fill="#FF4F1F"/>
</g>
<defs>
<clipPath id="clip0">
<rect width="32" height="32" fill="white" transform="translate(2 2)"/>
</clipPath>
</defs>
</svg>
