<?xml version="1.0" encoding="UTF-8" standalone="no"?> <!-- Created with Vectornator for iOS (http://vectornator.io/) --><!DOCTYPE svg PUBLIC "-//W3C//DTD SVG 1.1//EN" "http://www.w3.org/Graphics/SVG/1.1/DTD/svg11.dtd">
<svg height="100%" style="fill-rule:nonzero;clip-rule:evenodd;stroke-linecap:round;stroke-linejoin:round;" xmlns:xlink="http://www.w3.org/1999/xlink" xmlns="http://www.w3.org/2000/svg" xml:space="preserve" width="100%" xmlns:vectornator="http://vectornator.io" version="1.1" viewBox="0 0 36 36">
<metadata>
<vectornator:setting key="DimensionsVisible" value="1"/>
<vectornator:setting key="PencilOnly" value="0"/>
<vectornator:setting key="SnapToPoints" value="0"/>
<vectornator:setting key="OutlineMode" value="0"/>
<vectornator:setting key="CMYKEnabledKey" value="0"/>
<vectornator:setting key="RulersVisible" value="1"/>
<vectornator:setting key="SnapToEdges" value="0"/>
<vectornator:setting key="GuidesVisible" value="1"/>
<vectornator:setting key="DisplayWhiteBackground" value="0"/>
<vectornator:setting key="doHistoryDisabled" value="0"/>
<vectornator:setting key="SnapToGuides" value="1"/>
<vectornator:setting key="TimeLapseWatermarkDisabled" value="0"/>
<vectornator:setting key="Units" value="Points"/>
<vectornator:setting key="DynamicGuides" value="0"/>
<vectornator:setting key="IsolateActiveLayer" value="0"/>
<vectornator:setting key="SnapToGrid" value="0"/>
</metadata>
<defs/>
<g id="Untitled" vectornator:layerName="Untitled">
<g opacity="1">
<path d="M32.5273+28.7375L3.47269+28.7375C1.51057+28.7375+0.00123787+27.1494+0.00123787+25.1832C0.076709+24.1244+0.604973+23.1412+1.51057+22.6118L2.7935+21.7044C3.32176+21.3263+3.62363+20.7969+3.62363+20.1919L3.62363+14.2932C3.69909+7.18439+8.98175+1.05875+16.0001-1.53273e-07L16.2266+1.5125C9.96277+2.42+5.20843+7.94063+5.13295+14.2932L5.13295+20.1919C5.13295+21.3263+4.60469+22.3851+3.62363+22.99L2.26523+23.8975C1.81243+24.2+1.51057+24.6538+1.51057+25.2588C1.51057+26.3176+2.34069+27.225+3.47269+27.225L32.4519+27.225C33.5084+27.225+34.414+26.3176+34.414+25.2588C34.414+24.7294+34.112+24.2+33.6593+23.8975L32.3009+22.99C31.3954+22.3851+30.7916+21.3263+30.7916+20.1919L30.7916+14.3687C30.7916+7.94063+25.9618+2.42+19.6225+1.5125L19.8489-1.53273e-07C26.9428+0.983126+32.3009+7.18439+32.3009+14.2932L32.3009+20.1919C32.3009+20.7969+32.6027+21.4019+33.131+21.7044L34.4895+22.6118C35.395+23.1412+35.9233+24.1244+35.9988+25.1832C35.9988+27.1494+34.414+28.7375+32.5273+28.7375Z" opacity="1" fill="#ff4f1f"/>
<path d="M17.9613+36C15.5463+36+13.5842+34.0337+13.5842+31.6137L15.0935+31.6137C15.0935+33.2019+16.3765+34.4874+17.9613+34.4874C19.5461+34.4874+20.829+33.2019+20.829+31.6137L22.3384+31.6137C22.3384+34.0337+20.3762+36+17.9613+36Z" opacity="1" fill="#ff4f1f"/>
<path d="M0.00123787-1.53273e-07L35.9988-1.53273e-07L35.9988-1.53273e-07L35.9988+35.9975L35.9988+35.9975L0.00123787+35.9975L0.00123787+35.9975L0.00123787-1.53273e-07Z" opacity="1" fill="none"/>
</g>
</g>
</svg>
