<svg width="36" height="36" viewBox="0 0 36 36" fill="none" xmlns="http://www.w3.org/2000/svg">
<g clip-path="url(#clip0)">
<path d="M25.9459 34.2973H9.05405C6.82432 34.2973 5 32.473 5 30.2432V6.05405C5 3.82432 6.82432 2 9.05405 2H25.9459C28.1757 2 30 3.82432 30 6.05405V9.36486H28.6486V6.05405C28.6486 4.56757 27.4324 3.35135 25.9459 3.35135H9.05405C7.56757 3.35135 6.35135 4.56757 6.35135 6.05405V30.2432C6.35135 31.7297 7.56757 32.9459 9.05405 32.9459H25.9459C27.4324 32.9459 28.6486 31.7297 28.6486 30.2432V13.2162H30V30.2432C30 32.473 28.1757 34.2973 25.9459 34.2973Z" fill="#FF4F1F"/>
<path d="M16.8237 11.458H10.0669V12.8094H16.8237V11.458Z" fill="#FF4F1F"/>
<path d="M24.9318 17.3413H10.0669V18.6927H24.9318V17.3413Z" fill="#FF4F1F"/>
<path d="M24.9318 23.0151H10.0669V24.3665H24.9318V23.0151Z" fill="#FF4F1F"/>
</g>
<defs>
<clipPath id="clip0">
<rect width="25" height="32.2973" fill="white" transform="translate(5 2)"/>
</clipPath>
</defs>
</svg>
