<?xml version="1.0" encoding="UTF-8" standalone="no"?>
<!DOCTYPE svg PUBLIC "-//W3C//DTD SVG 1.1//EN" "http://www.w3.org/Graphics/SVG/1.1/DTD/svg11.dtd">
<!-- Created with Vectornator (http://vectornator.io/) -->
<svg height="100%" stroke-miterlimit="10" version="1.1" viewBox="0 0 36 36" width="100%" xml:space="preserve" xmlns="http://www.w3.org/2000/svg" xmlns:vectornator="http://vectornator.io" xmlns:xlink="http://www.w3.org/1999/xlink">
<defs/>
<g id="Untitled" vectornator:layerName="Untitled">
<path d="M18.0042-0.00602851C13.5162-0.00959118 9.19014 1.66997 5.88033 4.70092C5.42867 4.9999 5.04128 5.38608 4.7409 5.8368C-1.59182 12.7307-1.57876 23.3293 4.77093 30.2076C4.84696 30.2898 4.94055 30.3539 5.04476 30.3951C5.10849 30.4702 5.17683 30.5451 5.24812 30.6149C6.80879 32.1755 9.3391 32.1755 10.8998 30.6149L14.5827 26.932C16.7567 27.7158 19.1362 27.7158 21.3103 26.932L24.9932 30.6149C25.5802 31.2033 26.3369 31.5929 27.1569 31.729C23.0431 34.4722 17.9167 35.2281 13.1862 33.7891C12.7899 33.6683 12.3706 33.8917 12.2498 34.288C12.129 34.6844 12.3524 35.1036 12.7487 35.2244C19.5119 37.2839 26.8544 35.195 31.5207 29.8839C36.1869 24.5727 37.3132 17.0224 34.4002 10.5806C31.4872 4.13888 25.0739-0.00204155 18.0042-0.00602851ZM29.5841 6.27877C30.053 6.75044 30.3149 7.38928 30.3121 8.05434C30.3093 8.71941 30.042 9.35601 29.5691 9.82369L26.3498 13.2312C25.4987 11.7133 24.2546 10.4525 22.7481 9.58131L26.0491 6.2803C26.5175 5.81101 27.1533 5.54716 27.8163 5.54687C28.4794 5.54658 29.1153 5.80988 29.5841 6.27877ZM18.0042 1.49449C21.1823 1.49131 24.2929 2.4111 26.9582 4.14213C26.2136 4.30462 25.5314 4.67816 24.9934 5.21808L21.3105 8.90004C19.1365 8.11618 16.7569 8.11618 14.5829 8.90004L10.8994 5.21784C10.3838 4.69877 9.7347 4.33241 9.02385 4.15928C11.6946 2.417 14.8153 1.49097 18.0042 1.49449ZM5.93507 6.75513C6.20969 6.46002 6.49503 6.17519 6.79109 5.90065C7.77687 5.33183 9.02022 5.48489 9.83861 6.27581L13.1396 9.57682C11.6764 10.4254 10.4607 11.6422 9.61349 13.1063L6.31248 9.8056C5.50074 8.99482 5.34603 7.73518 5.93744 6.75206L5.93507 6.75513ZM4.16012 26.9871C0.603866 21.5087 0.615318 14.4478 4.18933 8.98103C4.3608 9.69773 4.72806 10.3527 5.25014 10.8728L8.9308 14.5487C8.12256 16.7189 8.12256 19.1075 8.9308 21.2776L5.25014 24.9635C4.69526 25.5157 4.31599 26.2197 4.16001 26.9868L4.16012 26.9871ZM9.83861 29.5528C8.85107 30.4925 7.30002 30.4925 6.31248 29.5528C5.84407 29.0848 5.58089 28.4499 5.58089 27.7878C5.58089 27.1257 5.84407 26.4908 6.31248 26.0229L9.61349 22.7219C10.4612 24.1847 11.6768 25.4003 13.1396 26.248L9.83861 29.5528ZM20.9692 25.4534C17.579 26.8124 13.6987 25.7412 11.4857 22.8355C9.27281 19.9298 9.27161 15.9044 11.4828 12.9973C13.694 10.0903 17.5737 9.01683 20.9647 10.3737C21.0824 10.4768 21.2291 10.5407 21.3848 10.5568C24.2434 11.8911 26.0704 14.7604 26.0704 17.9151C26.0704 21.0698 24.2434 23.939 21.3848 25.2734C21.2309 25.2893 21.0857 25.3525 20.9692 25.4542L20.9692 25.4534ZM29.5841 29.5528C28.5961 30.4949 27.0423 30.4949 26.0542 29.5528L22.7532 26.2518C24.2172 25.4045 25.4342 24.1891 26.2834 22.7261L29.5844 26.0271C30.0528 26.4951 30.316 27.13 30.316 27.7921C30.316 28.4542 30.0528 29.0891 29.5844 29.557L29.5841 29.5528ZM30.6458 24.9621L27.1999 21.5162C27.1255 21.4415 27.0359 21.3834 26.9373 21.346C27.7505 19.2124 27.7795 16.8593 27.0191 14.7063L30.6462 10.8724C31.2002 10.3189 31.5785 9.61433 31.734 8.84683C35.4253 14.3729 35.4346 21.5757 31.7576 27.1113C31.6192 26.2973 31.2307 25.5466 30.6462 24.9634L30.6458 24.9621Z" fill="#ff4f1f" fill-rule="nonzero" opacity="1" stroke="none"/>
</g>
</svg>
