<?xml version="1.0" encoding="UTF-8" standalone="no"?>
<!DOCTYPE svg PUBLIC "-//W3C//DTD SVG 1.1//EN" "http://www.w3.org/Graphics/SVG/1.1/DTD/svg11.dtd">
<!-- Created with Vectornator (http://vectornator.io/) -->
<svg height="100%" stroke-miterlimit="10" style="fill-rule:nonzero;clip-rule:evenodd;stroke-linecap:round;stroke-linejoin:round;" version="1.1" viewBox="0 0 36 36" width="100%" xml:space="preserve" xmlns="http://www.w3.org/2000/svg" xmlns:vectornator="http://vectornator.io" xmlns:xlink="http://www.w3.org/1999/xlink">
<defs/>
<g clip-path="url(#ArtboardFrame)" id="Untitled" vectornator:layerName="Untitled">
<g opacity="1" vectornator:layerName="Group 2">
<g opacity="1" vectornator:layerName="Group 1">
<path d="M27.3555 36L8.64446 36C6.1746 36 4.15382 33.9665 4.15382 31.4812L4.15382 4.51883C4.15382 2.03347 6.1746-8.64267e-07 8.64446-8.64267e-07L21.7422-8.64267e-07C22.5655-8.64267e-07 23.3139 0.37657 23.9126 0.903765L31.0229 8.43514C31.5467 9.03766 31.8462 9.79078 31.8462 10.5439L31.8462 11.297L30.3492 11.297L30.3492 10.5439C30.3492 10.1674 30.1996 9.79078 29.975 9.48949L22.8649 1.95816C22.5655 1.65691 22.1913 1.50627 21.7422 1.50627L8.64446 1.50627C6.99789 1.50627 5.6507 2.86192 5.6507 4.51883L5.6507 31.4812C5.6507 33.1381 6.99789 34.4938 8.64446 34.4938L27.3555 34.4938C29.002 34.4938 30.3492 33.1381 30.3492 31.4812L30.3492 14.4603L31.8462 14.4603L31.8462 31.4812C31.8462 33.9665 29.8254 36 27.3555 36Z" fill="#ff4f1f" fill-rule="evenodd" opacity="1" stroke="none" vectornator:layerName="path"/>
<path d="M31.0978 11.2968L23.2392 11.2968C21.9668 11.2968 20.9939 10.3177 20.9939 9.03744L20.9939 0.752886L22.4907 0.752886L22.4907 9.03744C22.4907 9.48927 22.7901 9.79056 23.2392 9.79056L31.0978 9.79056L31.0978 11.2968Z" fill="#ff4f1f" fill-rule="evenodd" opacity="1" stroke="none" vectornator:layerName="path"/>
<g opacity="1" vectornator:layerName="g">
<path d="M22.8676 28.9901L21.9883 28.1107L25.3171 24.8447L21.9255 21.4531L22.8048 20.5737L27.0758 24.8447L22.8676 28.9901Z" fill="#ff4f1f" fill-rule="nonzero" opacity="1" stroke="none" vectornator:layerName="path"/>
<path d="M13.1952 28.9901L8.92421 24.7191L13.1324 20.5737L14.0116 21.4531L10.6828 24.7191L14.0745 28.1107L13.1952 28.9901Z" fill="#ff4f1f" fill-rule="nonzero" opacity="1" stroke="none" vectornator:layerName="path"/>
<path d="M19.4349 20.6357L15.6032 28.3404L16.728 28.8998L20.5596 21.1951L19.4349 20.6357Z" fill="#ff4f1f" fill-rule="nonzero" opacity="1" stroke="none" vectornator:layerName="path"/>
</g>
<g opacity="1" vectornator:layerName="Group 1">
<path d="M13.2234 18.4832C13.454 18.4832 13.6413 18.4578 13.7852 18.407C14.0581 18.3097 14.1946 18.1288 14.1946 17.8643C14.1946 17.7099 14.1269 17.5903 13.9915 17.5057C13.856 17.4232 13.6434 17.3502 13.3535 17.2867L12.8584 17.1756C12.3717 17.0656 12.0353 16.946 11.8491 16.817C11.5339 16.6011 11.3762 16.2636 11.3762 15.8045C11.3762 15.3856 11.5286 15.0375 11.8333 14.7603C12.1379 14.4831 12.5854 14.3445 13.1758 14.3445C13.6688 14.3445 14.0893 14.4752 14.4374 14.7365C14.7854 14.9978 14.9679 15.3771 14.9849 15.8743L14.0454 15.8743C14.0285 15.5929 13.9058 15.393 13.6772 15.2745C13.5249 15.1962 13.3355 15.157 13.1091 15.157C12.8573 15.157 12.6563 15.2078 12.5061 15.3094C12.3559 15.4109 12.2808 15.5527 12.2808 15.7347C12.2808 15.9018 12.3548 16.0267 12.5029 16.1092C12.5981 16.1642 12.8013 16.2287 13.1123 16.3028L13.9185 16.4964C14.2718 16.581 14.5384 16.6942 14.7183 16.836C14.9976 17.056 15.1372 17.3745 15.1372 17.7913C15.1372 18.2187 14.9738 18.5737 14.6469 18.8561C14.3199 19.1386 13.8582 19.2798 13.2615 19.2798C12.6521 19.2798 12.1729 19.1407 11.8237 18.8625C11.4746 18.5842 11.3 18.2018 11.3 17.7151L12.2332 17.7151C12.2628 17.9289 12.321 18.0886 12.4077 18.1944C12.5664 18.3869 12.8383 18.4832 13.2234 18.4832Z" fill="#ff4f1f" fill-rule="nonzero" opacity="1" stroke="none"/>
<path d="M17.8762 19.1592L15.8608 19.1592L15.8608 14.481L17.8762 14.481C18.1661 14.4852 18.4073 14.5191 18.5999 14.5826C18.9278 14.6905 19.1934 14.8883 19.3965 15.1761C19.5594 15.4088 19.6705 15.6606 19.7297 15.9315C19.789 16.2023 19.8186 16.4604 19.8186 16.7059C19.8186 17.3279 19.6938 17.8548 19.4441 18.2864C19.1056 18.8683 18.5829 19.1592 17.8762 19.1592ZM18.603 15.6744C18.4528 15.4205 18.1555 15.2935 17.7112 15.2935L16.8098 15.2935L16.8098 18.3467L17.7112 18.3467C18.1724 18.3467 18.4941 18.1193 18.676 17.6644C18.7755 17.4147 18.8252 17.1174 18.8252 16.7725C18.8252 16.2964 18.7511 15.9304 18.603 15.6744Z" fill="#ff4f1f" fill-rule="nonzero" opacity="1" stroke="none"/>
<path d="M24.7 19.1592L23.4431 19.1592L21.999 17.1153L21.5325 17.5945L21.5325 19.1592L20.5708 19.1592L20.5708 14.481L21.5325 14.481L21.5325 16.4075L23.3384 14.481L24.6016 14.481L22.6846 16.4075L24.7 19.1592Z" fill="#ff4f1f" fill-rule="nonzero" opacity="1" stroke="none"/>
</g>
</g>
</g>
</g>
</svg>
