<?xml version="1.0" encoding="UTF-8" standalone="no"?>
<!DOCTYPE svg PUBLIC "-//W3C//DTD SVG 1.1//EN" "http://www.w3.org/Graphics/SVG/1.1/DTD/svg11.dtd">
<!-- Created with Vectornator (http://vectornator.io/) -->
<svg height="100%" stroke-miterlimit="10" style="fill-rule:nonzero;clip-rule:evenodd;stroke-linecap:round;stroke-linejoin:round;" version="1.1" viewBox="0 0 36 36" width="100%" xml:space="preserve" xmlns="http://www.w3.org/2000/svg" xmlns:vectornator="http://vectornator.io" xmlns:xlink="http://www.w3.org/1999/xlink">
<defs/>
<clipPath id="ArtboardFrame">
<rect height="36" width="36" x="0" y="0"/>
</clipPath>
<g clip-path="url(#ArtboardFrame)" id="Untitled" vectornator:layerName="Untitled">
<path d="M27.3555 36L8.64449 36C6.17463 36 4.15385 33.9665 4.15385 31.4812L4.15385 4.51883C4.15385 2.03347 6.17463-8.64267e-07 8.64449-8.64267e-07L21.7422-8.64267e-07C22.5655-8.64267e-07 23.3139 0.37657 23.9126 0.903765L31.0229 8.43514C31.5467 9.03766 31.8462 9.79078 31.8462 10.5439L31.8462 11.297L30.3492 11.297L30.3492 10.5439C30.3492 10.1674 30.1996 9.79078 29.975 9.48949L22.8649 1.95816C22.5655 1.65691 22.1913 1.50627 21.7422 1.50627L8.64449 1.50627C6.99792 1.50627 5.65073 2.86192 5.65073 4.51883L5.65073 31.4812C5.65073 33.1381 6.99792 34.4938 8.64449 34.4938L27.3555 34.4938C29.002 34.4938 30.3492 33.1381 30.3492 31.4812L30.3492 14.4603L31.8462 14.4603L31.8462 31.4812C31.8462 33.9665 29.8254 36 27.3555 36Z" fill="#ff4f1f" fill-rule="evenodd" opacity="1" stroke="none" vectornator:layerName="path"/>
<path d="M31.0978 11.2968L23.2392 11.2968C21.9668 11.2968 20.9939 10.3177 20.9939 9.03744L20.9939 0.752886L22.4907 0.752886L22.4907 9.03744C22.4907 9.48927 22.7901 9.79056 23.2392 9.79056L31.0978 9.79056L31.0978 11.2968Z" fill="#ff4f1f" fill-rule="evenodd" opacity="1" stroke="none" vectornator:layerName="path"/>
<g opacity="1" vectornator:layerName="g">
<path d="M22.7286 28.9901L21.8493 28.1107L25.1781 24.8447L21.7865 21.4531L22.6658 20.5737L26.9368 24.8447L22.7286 28.9901Z" fill="#ff4f1f" fill-rule="nonzero" opacity="1" stroke="none" vectornator:layerName="path"/>
<path d="M13.0562 28.9901L8.78524 24.7191L12.9934 20.5737L13.8726 21.4531L10.5438 24.7191L13.9355 28.1107L13.0562 28.9901Z" fill="#ff4f1f" fill-rule="nonzero" opacity="1" stroke="none" vectornator:layerName="path"/>
<path d="M19.2959 20.6357L15.4642 28.3404L16.589 28.8998L20.4206 21.1951L19.2959 20.6357Z" fill="#ff4f1f" fill-rule="nonzero" opacity="1" stroke="none" vectornator:layerName="path"/>
</g>
<g fill="#ff4f1f" opacity="1" stroke="none" vectornator:layerName="Text 1">
<path d="M13.2369 17.8976C13.4675 17.8976 13.6548 17.8723 13.7986 17.8215C14.0716 17.7241 14.2081 17.5432 14.2081 17.2787C14.2081 17.1243 14.1403 17.0047 14.0049 16.9201C13.8695 16.8376 13.6569 16.7646 13.367 16.7011L12.8719 16.59C12.3852 16.48 12.0488 16.3605 11.8626 16.2314C11.5473 16.0156 11.3897 15.6781 11.3897 15.2189C11.3897 14.8 11.542 14.4519 11.8467 14.1747C12.1514 13.8976 12.5989 13.759 13.1893 13.759C13.6823 13.759 14.1028 13.8896 14.4509 14.1509C14.7989 14.4122 14.9814 14.7915 14.9983 15.2888L14.0589 15.2888C14.042 15.0073 13.9192 14.8074 13.6907 14.6889C13.5384 14.6106 13.349 14.5715 13.1226 14.5715C12.8708 14.5715 12.6698 14.6223 12.5196 14.7238C12.3694 14.8254 12.2942 14.9671 12.2942 15.1491C12.2942 15.3163 12.3683 15.4411 12.5164 15.5236C12.6116 15.5786 12.8147 15.6432 13.1258 15.7172L13.9319 15.9108C14.2853 15.9955 14.5519 16.1087 14.7317 16.2504C15.011 16.4705 15.1507 16.7889 15.1507 17.2057C15.1507 17.6332 14.9872 17.9881 14.6603 18.2706C14.3334 18.553 13.8716 18.6943 13.275 18.6943C12.6656 18.6943 12.1863 18.5552 11.8372 18.2769C11.4881 17.9987 11.3135 17.6162 11.3135 17.1296L12.2466 17.1296C12.2763 17.3433 12.3344 17.503 12.4212 17.6088C12.5799 17.8014 12.8518 17.8976 13.2369 17.8976Z"/>
<path d="M17.8897 18.5737L15.8743 18.5737L15.8743 13.8954L17.8897 13.8954C18.1796 13.8997 18.4208 13.9335 18.6133 13.997C18.9413 14.1049 19.2068 14.3028 19.41 14.5905C19.5729 14.8233 19.684 15.0751 19.7432 15.3459C19.8025 15.6167 19.8321 15.8749 19.8321 16.1203C19.8321 16.7424 19.7072 17.2692 19.4576 17.7009C19.119 18.2827 18.5964 18.5737 17.8897 18.5737ZM18.6165 15.0888C18.4663 14.8349 18.169 14.7079 17.7247 14.7079L16.8233 14.7079L16.8233 17.7612L17.7247 17.7612C18.1859 17.7612 18.5075 17.5337 18.6895 17.0788C18.7889 16.8291 18.8387 16.5318 18.8387 16.1869C18.8387 15.7109 18.7646 15.3448 18.6165 15.0888Z"/>
<path d="M24.7134 18.5737L23.4566 18.5737L22.0125 16.5297L21.5459 17.009L21.5459 18.5737L20.5843 18.5737L20.5843 13.8954L21.5459 13.8954L21.5459 15.822L23.3519 13.8954L24.615 13.8954L22.698 15.822L24.7134 18.5737Z"/>
</g>
</g>
</svg>
