<svg width="36" height="36" viewBox="0 0 36 36" fill="none" xmlns="http://www.w3.org/2000/svg">
<path d="M35.9999 34.9073L28.5176 27.425L28.7149 27.2277C29.8341 26.0919 30.4615 24.5613 30.4615 22.9667C30.4615 21.3722 29.8341 19.8416 28.7149 18.7058L25.6795 15.6704L22.9932 18.3567L19.9577 15.3213L18.8802 16.3913L21.9156 19.4267L19.4265 21.9157L16.3911 18.8803L15.3287 19.9655L18.3641 23.0009L15.6854 25.672L18.7208 28.7075C19.8566 29.8267 21.3872 30.454 22.9818 30.454C24.5764 30.454 26.1069 29.8267 27.2427 28.7075L27.44 28.5102L34.9072 36L35.9999 34.9073ZM22.9932 28.9579C22.4009 28.9603 21.814 28.8449 21.2668 28.6182C20.7196 28.3915 20.223 28.0581 19.806 27.6375L17.8254 25.6645L25.6643 17.8255L27.6373 19.8061C28.4826 20.6514 28.9574 21.7979 28.9574 22.9933C28.9574 24.1887 28.4826 25.3352 27.6373 26.1805L26.1803 27.6375C25.7628 28.0574 25.2661 28.3903 24.719 28.617C24.1719 28.8436 23.5853 28.9595 22.9932 28.9579V28.9579Z" fill="#FF4F1F"/>
<path d="M20.14 10.1535L11.231 19.07L8.34739 16.2015C7.52448 15.3522 7.06433 14.2159 7.06433 13.0333C7.06433 11.8507 7.52448 10.7145 8.34739 9.86509L9.86509 8.34739C10.7162 7.51313 11.8605 7.04584 13.0523 7.04584C14.2441 7.04584 15.3884 7.51313 16.2395 8.34739L17.4536 9.62226L18.5312 8.54469L17.2715 7.29258C16.1357 6.17338 14.6051 5.546 13.0105 5.546C11.416 5.546 9.8854 6.17338 8.74958 7.29258L8.55987 7.48229L1.06998 0L0 1.06998L7.48229 8.55987L7.29258 8.74958C6.17338 9.8854 5.546 11.416 5.546 13.0105C5.546 14.6051 6.17338 16.1357 7.29258 17.2715L11.231 21.2479L21.2479 11.231L20.14 10.1535Z" fill="#FF4F1F"/>
</svg>
