<?xml version="1.0" encoding="UTF-8" standalone="no"?> <!-- Created with Vectornator for iOS (http://vectornator.io/) --><!DOCTYPE svg PUBLIC "-//W3C//DTD SVG 1.1//EN" "http://www.w3.org/Graphics/SVG/1.1/DTD/svg11.dtd">
<svg height="100%" style="fill-rule:nonzero;clip-rule:evenodd;stroke-linecap:round;stroke-linejoin:round;" xmlns:xlink="http://www.w3.org/1999/xlink" xmlns="http://www.w3.org/2000/svg" xml:space="preserve" width="100%" xmlns:vectornator="http://vectornator.io" version="1.1" viewBox="0 0 36 36">
<metadata>
<vectornator:setting key="DimensionsVisible" value="1"/>
<vectornator:setting key="PencilOnly" value="0"/>
<vectornator:setting key="SnapToPoints" value="0"/>
<vectornator:setting key="OutlineMode" value="0"/>
<vectornator:setting key="CMYKEnabledKey" value="0"/>
<vectornator:setting key="RulersVisible" value="1"/>
<vectornator:setting key="SnapToEdges" value="0"/>
<vectornator:setting key="GuidesVisible" value="1"/>
<vectornator:setting key="DisplayWhiteBackground" value="0"/>
<vectornator:setting key="doHistoryDisabled" value="0"/>
<vectornator:setting key="SnapToGuides" value="1"/>
<vectornator:setting key="TimeLapseWatermarkDisabled" value="0"/>
<vectornator:setting key="Units" value="Points"/>
<vectornator:setting key="DynamicGuides" value="0"/>
<vectornator:setting key="IsolateActiveLayer" value="0"/>
<vectornator:setting key="SnapToGrid" value="0"/>
</metadata>
<defs/>
<g id="Untitled" vectornator:layerName="Untitled">
<g opacity="1">
<path d="M20.3721+29.1071C20.2972+29.1071+20.2972+29.1071+20.3721+29.1071L15.0544+29.1071C10.6354+29.1071+7.04037+25.512+6.96547+21.1679L8.46342+21.1679C8.53832+24.763+11.5342+27.684+15.0544+27.684L20.3721+27.684C22.1697+27.684+23.8174+27.0099+25.0158+25.7367C26.289+24.4634+26.9631+22.8157+26.9631+21.0181L26.9631+16.2996L33.5541+13.5284L17.9754+8.43535L2.39672+13.6033L17.9754+20.1943L21.5705+18.6963L22.1697+20.0445L17.9754+21.842L0.59918+14.502C0.374488+14.4271+0.149795+14.2025+0+13.9029C0+13.6033+0+13.3786+0.149795+13.079C0.224693+12.8543+0.449385+12.7045+0.674078+12.6296L17.9754+6.8625L35.2767+12.4798C35.5763+12.5547+35.801+12.7794+35.9508+13.1539C36.0257+13.3786+36.0257+13.6782+35.8759+13.9029C35.7261+14.1276+35.5763+14.2774+35.2767+14.4271L28.4611+17.1984L28.4611+20.8683C28.4611+23.1153+27.6372+25.1375+26.0643+26.6354C24.5664+28.2083+22.4693+29.1071+20.3721+29.1071ZM1.12346+13.079L1.19836+13.1539C1.19836+13.079+1.19836+13.079+1.12346+13.079Z" opacity="1" fill="#ff4f1f"/>
<path d="M33.1047+14.8018L31.6067+14.8018L31.6067+23.7146L33.1047+23.7146L33.1047+14.8018Z" opacity="1" fill="#ff4f1f"/>
</g>
</g>
</svg>
