<?xml version="1.0" encoding="utf-8"?>
<svg viewBox="0 7 36 22.2" width="36" height="22.2" xmlns="http://www.w3.org/2000/svg">
  <path d="M20.4 29.275C20.325 29.275 20.325 29.275 20.4 29.275H15.075C10.65 29.275 7.05 25.675 6.975 21.325H8.475C8.55 24.925 11.55 27.85 15.075 27.85H20.4C22.2 27.85 23.85 27.175 25.05 25.9C26.325 24.625 27 22.975 27 21.175V16.45L33.6 13.675L18 8.575L2.4 13.75L18 20.35L21.6 18.85L22.2 20.2L18 22L0.6 14.65C0.375 14.575 0.15 14.35 0 14.05C0 13.75 0 13.525 0.15 13.225C0.225 13 0.45 12.85 0.675 12.775L18 7L35.325 12.625C35.625 12.7 35.85 12.925 36 13.3C36.075 13.525 36.075 13.825 35.925 14.05C35.775 14.275 35.625 14.425 35.325 14.575L28.5 17.35V21.025C28.5 23.275 27.675 25.3 26.1 26.8C24.6 28.375 22.5 29.275 20.4 29.275ZM1.125 13.225L1.2 13.3C1.2 13.225 1.2 13.225 1.125 13.225Z" fill="#FF4F1F"/>
  <path d="M33.15 14.9502H31.65V23.8752H33.15V14.9502Z" fill="#FF4F1F"/>
</svg>