<svg width="36" height="36" viewBox="0 0 36 36" fill="none" xmlns="http://www.w3.org/2000/svg">
<path d="M25.9459 34.5H9.05405C6.82432 34.5 5 32.6642 5 30.4205V6.0795C5 3.83577 6.82432 2 9.05405 2H20.8784C21.6216 2 22.2973 2.33996 22.8378 2.8159L29.2568 9.61506C29.7297 10.159 30 10.8389 30 11.5188V12.1987H28.6486V11.5188C28.6486 11.1789 28.5135 10.8389 28.3108 10.5669L21.8919 3.76778C21.6216 3.49582 21.2838 3.35983 20.8784 3.35983H9.05405C7.56757 3.35983 6.35135 4.58368 6.35135 6.0795V30.4205C6.35135 31.9163 7.56757 33.1402 9.05405 33.1402H25.9459C27.4324 33.1402 28.6486 31.9163 28.6486 30.4205V15.0544H30V30.4205C30 32.6642 28.1757 34.5 25.9459 34.5Z" fill="#FF4F1F"/>
<path d="M29.3244 12.1985H22.2298C21.0811 12.1985 20.2028 11.3146 20.2028 10.1588V2.67969H21.5541V10.1588C21.5541 10.5667 21.8244 10.8387 22.2298 10.8387H29.3244V12.1985Z" fill="#FF4F1F"/>
<path d="M13.7162 26.0689C13.3784 26.0689 13.0405 25.9329 12.7703 25.6609C12.5 25.389 12.3649 25.049 12.3649 24.709V14.1703C12.3649 13.9664 12.4324 13.6944 12.5676 13.4904C12.973 12.8105 13.7838 12.6065 14.3919 13.0145L23.4459 18.3178C23.6486 18.4538 23.8514 18.5898 23.9189 18.7938C24.1216 19.1337 24.1216 19.4737 24.0541 19.8137C23.9865 20.1536 23.7162 20.4256 23.4459 20.6295L14.4595 25.8649C14.2568 26.0009 13.9865 26.0689 13.7162 26.0689C13.7838 26.0689 13.7838 26.0689 13.7162 26.0689ZM13.7838 14.1703V24.709L22.8378 19.4057L13.7838 14.1703Z" fill="#FF4F1F"/>
</svg>
