<?xml version="1.0" encoding="UTF-8" standalone="no"?> <!-- Created with Vectornator for iOS (http://vectornator.io/) --><!DOCTYPE svg PUBLIC "-//W3C//DTD SVG 1.1//EN" "http://www.w3.org/Graphics/SVG/1.1/DTD/svg11.dtd">
<svg height="100%" style="fill-rule:nonzero;clip-rule:evenodd;stroke-linecap:round;stroke-linejoin:round;" xmlns:xlink="http://www.w3.org/1999/xlink" xmlns="http://www.w3.org/2000/svg" xml:space="preserve" width="100%" xmlns:vectornator="http://vectornator.io" version="1.1" viewBox="0 0 36 36">
<metadata>
<vectornator:setting key="DimensionsVisible" value="1"/>
<vectornator:setting key="PencilOnly" value="0"/>
<vectornator:setting key="SnapToPoints" value="0"/>
<vectornator:setting key="OutlineMode" value="0"/>
<vectornator:setting key="CMYKEnabledKey" value="0"/>
<vectornator:setting key="RulersVisible" value="1"/>
<vectornator:setting key="SnapToEdges" value="0"/>
<vectornator:setting key="GuidesVisible" value="1"/>
<vectornator:setting key="DisplayWhiteBackground" value="0"/>
<vectornator:setting key="doHistoryDisabled" value="0"/>
<vectornator:setting key="SnapToGuides" value="1"/>
<vectornator:setting key="TimeLapseWatermarkDisabled" value="0"/>
<vectornator:setting key="Units" value="Points"/>
<vectornator:setting key="DynamicGuides" value="0"/>
<vectornator:setting key="IsolateActiveLayer" value="0"/>
<vectornator:setting key="SnapToGrid" value="0"/>
</metadata>
<defs/>
<g id="Untitled" vectornator:layerName="Untitled">
<g opacity="1">
<path d="M27.3555+36L8.64449+36C6.17463+36+4.15385+33.9665+4.15385+31.4812L4.15385+4.51883C4.15385+2.03347+6.17463-8.64267e-07+8.64449-8.64267e-07L21.7422-8.64267e-07C22.5655-8.64267e-07+23.3139+0.37657+23.9126+0.903765L31.0229+8.43514C31.5467+9.03766+31.8462+9.79078+31.8462+10.5439L31.8462+11.297L30.3492+11.297L30.3492+10.5439C30.3492+10.1674+30.1996+9.79078+29.975+9.48949L22.8649+1.95816C22.5655+1.65691+22.1913+1.50627+21.7422+1.50627L8.64449+1.50627C6.99792+1.50627+5.65073+2.86192+5.65073+4.51883L5.65073+31.4812C5.65073+33.1381+6.99792+34.4938+8.64449+34.4938L27.3555+34.4938C29.002+34.4938+30.3492+33.1381+30.3492+31.4812L30.3492+14.4603L31.8462+14.4603L31.8462+31.4812C31.8462+33.9665+29.8254+36+27.3555+36Z" opacity="1" fill="#ff4f1f"/>
<path d="M31.0978+11.2968L23.2392+11.2968C21.9668+11.2968+20.9939+10.3177+20.9939+9.03744L20.9939+0.752886L22.4907+0.752886L22.4907+9.03744C22.4907+9.48927+22.7901+9.79056+23.2392+9.79056L31.0978+9.79056L31.0978+11.2968Z" opacity="1" fill="#ff4f1f"/>
<path d="M13.8087+26.6609C13.4345+26.6609+13.0602+26.5103+12.7609+26.209C12.4615+25.9078+12.3119+25.5312+12.3119+25.1546L12.3119+13.4809C12.3119+13.2551+12.3867+12.9538+12.5364+12.7278C12.9855+11.9747+13.8836+11.7487+14.5572+12.2007L24.5862+18.0751C24.8108+18.2257+25.0354+18.3764+25.1102+18.6024C25.3347+18.9789+25.3347+19.3555+25.2599+19.7321C25.185+20.1086+24.8856+20.4099+24.5862+20.6358L14.6321+26.435C14.4075+26.5856+14.1081+26.6609+13.8087+26.6609C13.8836+26.6609+13.8836+26.6609+13.8087+26.6609ZM13.8836+13.4809L13.8836+25.1546L23.9126+19.2802L13.8836+13.4809Z" opacity="1" fill="#ff4f1f"/>
</g>
</g>
</svg>
