<?xml version="1.0" encoding="UTF-8" standalone="no"?> <!-- Created with Vectornator for iOS (http://vectornator.io/) --><!DOCTYPE svg PUBLIC "-//W3C//DTD SVG 1.1//EN" "http://www.w3.org/Graphics/SVG/1.1/DTD/svg11.dtd">
<svg height="100%" style="fill-rule:nonzero;clip-rule:evenodd;stroke-linecap:round;stroke-linejoin:round;" xmlns:xlink="http://www.w3.org/1999/xlink" xmlns="http://www.w3.org/2000/svg" xml:space="preserve" width="100%" xmlns:vectornator="http://vectornator.io" version="1.1" viewBox="0 0 36 36">
<metadata>
<vectornator:setting key="DimensionsVisible" value="1"/>
<vectornator:setting key="PencilOnly" value="0"/>
<vectornator:setting key="SnapToPoints" value="0"/>
<vectornator:setting key="OutlineMode" value="0"/>
<vectornator:setting key="RulersVisible" value="1"/>
<vectornator:setting key="CMYKEnabledKey" value="0"/>
<vectornator:setting key="SnapToEdges" value="0"/>
<vectornator:setting key="GuidesVisible" value="1"/>
<vectornator:setting key="DisplayWhiteBackground" value="0"/>
<vectornator:setting key="doHistoryDisabled" value="0"/>
<vectornator:setting key="TimeLapseWatermarkDisabled" value="0"/>
<vectornator:setting key="SnapToGuides" value="1"/>
<vectornator:setting key="Units" value="Points"/>
<vectornator:setting key="DynamicGuides" value="0"/>
<vectornator:setting key="SnapToGrid" value="0"/>
<vectornator:setting key="IsolateActiveLayer" value="0"/>
</metadata>
<defs/>
<g id="Untitled" vectornator:layerName="Untitled">
<path d="M26.8353+0.0959608C26.0287+0.021225+25.2264+0.0451877+24.4234+0.16621C22.8173+0.408265+21.2856+1.03444+19.9742+1.99269C18.6629+2.95095+17.6018+4.21248+16.8833+5.66908C16.1648+7.12572+15.8152+8.72865+15.8529+10.3524C15.9046+11.4056+16.1897+12.4111+16.6257+13.3497L15.7359+14.2863L5.26871+24.7769L6.32245+25.8307L16.813+15.3401L18.4288+13.6307L18.1478+13.1389C17.6619+12.2637+17.4008+11.3053+17.3516+10.3055C17.3202+8.94288+17.6064+7.5646+18.218+6.32474C18.8297+5.0849+19.7479+4.02601+20.8641+3.21035C21.9802+2.3947+23.2671+1.84748+24.6341+1.64145C25.7708+1.47014+26.9205+1.59179+28.0295+1.87561L24.4936+5.66908C24.1287+6.03187+23.8357+6.47845+23.6272+6.9804C23.4188+7.48237+23.2994+8.02921+23.2994+8.57272C23.2994+9.11623+23.4188+9.63968+23.6272+10.1416C23.8357+10.6436+24.132+11.1162+24.517+11.4998C25.3263+12.2504+26.3674+12.6472+27.4441+12.6472C28.5208+12.6472+29.558+12.2317+30.3477+11.4998L34.1646+7.63606C34.5298+9.01363+34.604+10.4578+34.2817+11.8744C33.9142+13.4896+33.1003+14.9775+31.9401+16.1597C30.9236+17.1766+29.6749+17.9121+28.2871+18.314C26.4384+18.8083+24.4481+18.5701+22.7608+17.6349L22.2691+17.3773L20.5362+19.0633L6.04145+33.6752C5.79818+33.9214+5.51607+34.1045+5.19846+34.2372C4.88091+34.3698+4.53559+34.4479+4.19155+34.4479C3.8475+34.4479+3.5023+34.3698+3.18464+34.2372C2.86714+34.1045+2.58345+33.92+2.34165+33.6752L2.24798+33.6049C1.76272+33.1166+1.49865+32.4458+1.49865+31.755C1.49865+31.0643+1.76107+30.3951+2.24798+29.9051L3.32514+28.8514L2.24798+27.7976L1.19424+28.8514C0.426643+29.6238-9.07851e-08+30.6684+2.83172e-08+31.755C2.83172e-08+32.8416+0.428287+33.8879+1.19424+34.6587L1.26449+34.7289C1.64244+35.1116+2.09865+35.433+2.59923+35.6422C3.09993+35.8513+3.64917+35.9466+4.19155+35.9466C4.73393+35.9466+5.25986+35.8512+5.76045+35.6422C6.26115+35.4329+6.714+35.1148+7.09519+34.7289L22.6203+19.1335C24.5188+20.0183+26.649+20.3104+28.6852+19.7658C30.3308+19.2894+31.8171+18.4142+33.0172+17.2134C34.3768+15.8282+35.3045+14.0882+35.7335+12.2023C36.1626+10.3165+36.0768+8.36616+35.4525+6.53549C35.3711+6.32465+35.2499+6.16766+35.1013+6.04374C34.9522+5.91962+34.776+5.82287+34.5861+5.78616C34.3959+5.74944+34.1848+5.77341+34.0007+5.833C33.8167+5.89251+33.6649+5.99641+33.5324+6.13741L29.294+10.4226C28.8064+10.8734+28.143+11.1485+27.4441+11.1485C26.7452+11.1485+26.06+10.8744+25.5474+10.3992C25.3216+10.1736+25.1416+9.8994+25.0088+9.57963C24.876+9.25991+24.798+8.91896+24.798+8.57272C24.798+8.22648+24.876+7.88559+25.0088+7.56581C25.1416+7.24608+25.3255+6.94374+25.5708+6.6994L29.6218+2.34394C29.7502+2.19812+29.838+2.04374+29.8794+1.87561C29.9209+1.70714+29.9204+1.52897+29.8794+1.36045C29.8385+1.19234+29.7589+1.04591+29.6452+0.915537C29.5308+0.784504+29.3851+0.674351+29.2238+0.611123C28.4414+0.341131+27.6418+0.170697+26.8353+0.0959608Z" opacity="1" fill="#ff4f1f"/>
</g>
</svg>
