<?xml version="1.0" encoding="UTF-8" standalone="no"?>
<!DOCTYPE svg PUBLIC "-//W3C//DTD SVG 1.1//EN" "http://www.w3.org/Graphics/SVG/1.1/DTD/svg11.dtd">
<!-- Created with Vectornator (http://vectornator.io/) -->
<svg height="100%" stroke-miterlimit="10" style="fill-rule:nonzero;clip-rule:evenodd;stroke-linecap:round;stroke-linejoin:round;" version="1.1" viewBox="0 0 36 36" width="100%" xml:space="preserve" xmlns="http://www.w3.org/2000/svg" xmlns:vectornator="http://vectornator.io" xmlns:xlink="http://www.w3.org/1999/xlink">
<defs/>
<g id="Untitled" vectornator:layerName="Untitled">
<path d="M19.1562 0.78125C18.1669 0.748626 17.2325 1.18138 16.5938 1.9375L0.78125 20.5625C-0.196969 21.7296-0.254874 23.4048 0.65625 24.625L5.46875 31.125C6.3682 32.3526 8.019 32.7819 9.40625 32.1562L11.5 31.25L10.875 29.8438L8.78125 30.7812C8.03891 31.1154 7.16766 30.9073 6.6875 30.25L1.875 23.75C1.38213 23.0902 1.37932 22.1641 1.90625 21.5312L17.75 2.90625C18.0883 2.49744 18.5948 2.25939 19.125 2.28125C19.6552 2.29903 20.1229 2.57276 20.4375 3L31.2188 17.5C31.5314 17.9213 31.6502 18.4578 31.5312 18.9688C31.5073 19.0743 31.3858 19.1209 31.3438 19.2188L32.5938 20.2188C32.7613 19.9328 32.9244 19.6425 33 19.3125C33.215 18.3738 33.0116 17.3669 32.4375 16.5938L21.6562 2.09375C21.0687 1.29719 20.1455 0.813875 19.1562 0.78125ZM29.9688 1.8125L26.7812 4.25C26.4499 4.50131 26.3741 4.98091 26.625 5.3125C26.8763 5.64375 27.3559 5.68836 27.6875 5.4375L30.9062 3.03125C31.238 2.77986 31.2826 2.30046 31.0312 1.96875C30.7799 1.63704 30.3005 1.56111 29.9688 1.8125ZM34.75 3.71875C34.4973 3.61456 34.214 3.6738 34 3.84375L29.1875 7.46875C28.8563 7.7201 28.7803 8.19969 29.0312 8.53125C29.2826 8.8625 29.7621 8.93837 30.0938 8.6875L34.9062 5.03125C35.1277 4.87114 35.2507 4.61516 35.2188 4.34375C35.1867 4.07234 35.0026 3.82294 34.75 3.71875ZM34.7812 8.28125L31.5938 10.7188C31.262 10.9701 31.1861 11.4495 31.4375 11.7812C31.6889 12.1129 32.1683 12.1577 32.5 11.9062L35.6875 9.5C36.019 9.24838 36.0955 8.76901 35.8438 8.4375C35.5924 8.10625 35.1128 8.03038 34.7812 8.28125ZM21.4688 24.875L18.0312 26.6562L18.7188 28L22.7812 25.9062L21.4688 24.875ZM15.0312 28L13.625 28.625L17.7812 34.25C17.8055 34.2832 17.8455 34.2839 17.875 34.3125L18.0312 34.4688C18.5132 34.9387 19.1394 35.2148 19.8125 35.2188C20.2459 35.2217 20.6959 35.1063 21.0625 34.875C21.6331 34.5132 22.0043 33.9147 22.125 33.25C22.2476 32.5841 22.0876 31.8901 21.6875 31.3438C21.4397 31.0097 20.9905 30.94 20.6562 31.1875C20.4947 31.3059 20.3739 31.4895 20.3438 31.6875C20.3136 31.8854 20.3811 32.0889 20.5 32.25C20.6534 32.4587 20.703 32.7139 20.6562 32.9688C20.6094 33.2236 20.4676 33.4532 20.25 33.5938C19.8601 33.7953 19.362 33.7271 19.0625 33.4062L15.0312 28Z" fill="#ff4f1f" fill-rule="nonzero" opacity="1" stroke="none"/>
<g opacity="1">
<path d="M18.6186 11.427C18.8438 11.3974 19.0818 11.4595 19.2748 11.6145L21.5873 13.4895L20.4311 14.8958L18.8373 13.5832L16.4936 16.5208L18.0873 17.802L16.9623 19.2082L14.6498 17.3645C14.2617 17.0517 14.1793 16.4701 14.4936 16.0832L18.0248 11.7708C18.1809 11.5786 18.3933 11.4566 18.6186 11.427Z" fill="#000000" fill-rule="evenodd" opacity="1" stroke="none" vectornator:layerName="path"/>
<path d="M22.8686 14.5208L24.1186 15.552L33.3061 22.927C33.422 23.02 33.5293 23.1028 33.5874 23.2395L35.7748 28.427C35.9122 28.7504 35.8686 29.122 35.6811 29.3645C35.4936 29.607 35.1537 29.7284 34.8061 29.677C34.0889 29.5709 29.8358 28.9393 29.1186 28.8332C28.96 28.8098 28.7747 28.7464 28.6498 28.6458L21.7436 23.0832L22.8686 21.677L28.6498 26.3645L31.0561 23.3958L22.9936 16.9582L20.6498 19.8645L21.5874 20.6458L20.4624 22.052L19.4936 21.2708L18.2436 20.2708L19.3686 18.8645L21.7436 15.927L22.8686 14.5208ZM32.1811 24.5832L30.0874 27.177C30.9075 27.2993 32.2169 27.4881 33.4936 27.677L32.1811 24.5832Z" fill="#000000" fill-rule="evenodd" opacity="1" stroke="none" vectornator:layerName="path"/>
</g>
</g>
</svg>
