<?xml version="1.0" encoding="UTF-8" standalone="no"?>
<!DOCTYPE svg PUBLIC "-//W3C//DTD SVG 1.1//EN" "http://www.w3.org/Graphics/SVG/1.1/DTD/svg11.dtd">
<!-- Created with Vectornator (http://vectornator.io/) -->
<svg height="100%" stroke-miterlimit="10" style="fill-rule:nonzero;clip-rule:evenodd;stroke-linecap:round;stroke-linejoin:round;" version="1.1" viewBox="0 0 36 36" width="100%" xml:space="preserve" xmlns="http://www.w3.org/2000/svg" xmlns:xlink="http://www.w3.org/1999/xlink">
<defs/>
<g clip-path="url(#ArtboardFrame)" id="Untitled">
<path d="M26.6352 5.30252C26.3843 4.97093 26.4494 4.49881 26.7807 4.2475L29.9842 1.81915C30.3159 1.56776 30.7886 1.63287 31.04 1.96458C31.2914 2.29629 31.2263 2.76899 30.8946 3.02038L27.6909 5.44778C27.3593 5.69864 26.8872 5.63353 26.6359 5.30228L26.6352 5.30252ZM29.0385 8.53838C29.2898 8.86963 29.7619 8.93474 30.0935 8.68387L34.9001 5.04123C35.1215 4.88112 35.239 4.61365 35.207 4.34224C35.175 4.07083 34.9985 3.83802 34.7459 3.73383C34.4932 3.62964 34.2039 3.67041 33.9899 3.84036L29.1838 7.48336C28.8526 7.73471 28.7876 8.20682 29.0385 8.53838ZM35.8466 8.43743C35.5953 8.10618 35.1232 8.04107 34.7916 8.29194L31.5872 10.7195C31.2555 10.9708 31.1904 11.4435 31.4418 11.7753C31.6932 12.107 32.1659 12.1721 32.4976 11.9207L35.702 9.49328C36.0335 9.24166 36.0983 8.76894 35.8466 8.43743ZM21.6617 2.09802C21.0742 1.30146 20.1544 0.817715 19.1652 0.78509C18.1759 0.752466 17.2262 1.17455 16.5875 1.93067L0.767051 20.5662C-0.211168 21.7333-0.258567 23.4198 0.652557 24.64L5.47576 31.1367C6.37521 32.3643 8.0111 32.7948 9.39835 32.1691L11.4874 31.2354L10.8724 29.8585L8.78336 30.7929C8.04102 31.127 7.16618 30.8956 6.68602 30.2383L1.86293 23.7413C1.37006 23.0815 1.39408 22.1698 1.92101 21.5369L17.7356 2.90588C18.0739 2.49707 18.5838 2.26987 19.114 2.29173C19.6442 2.30951 20.1371 2.56915 20.4517 2.99639L31.2226 17.5035C31.5352 17.9248 31.6468 18.4622 31.5278 18.9731C31.4132 19.4777 31.0825 19.9065 30.6235 20.1457L18.0378 26.6572L18.7305 27.9957L31.316 21.485C32.1693 21.0389 32.7845 20.2414 32.9995 19.3028C33.2145 18.3641 33.0077 17.3784 32.4336 16.6053L21.6617 2.09802ZM20.6451 31.2007C20.4836 31.3191 20.376 31.4969 20.3458 31.6949C20.3157 31.8928 20.3656 32.0946 20.4845 32.2557C20.6379 32.4644 20.6984 32.7273 20.6516 32.9821C20.6048 33.2369 20.4549 33.4611 20.2373 33.6017C19.8474 33.8032 19.371 33.7207 19.0715 33.3998L15.0371 27.996L13.6144 28.6315L17.7815 34.2346C17.8057 34.2678 17.8327 34.2988 17.8622 34.3274L18.0228 34.4781C18.5047 34.948 19.1501 35.2127 19.8232 35.2166C20.2566 35.2196 20.6819 35.0983 21.0485 34.867C21.6191 34.5052 22.0123 33.9212 22.133 33.2565C22.2556 32.5906 22.0983 31.9036 21.6982 31.3573C21.4504 31.0233 20.9788 30.9532 20.6446 31.2007L20.6451 31.2007Z" fill="#ff4f1f" fill-rule="nonzero" opacity="1" stroke="none"/>
</g>
</svg>
