<?xml version="1.0" encoding="UTF-8" standalone="no"?>
<!DOCTYPE svg PUBLIC "-//W3C//DTD SVG 1.1//EN" "http://www.w3.org/Graphics/SVG/1.1/DTD/svg11.dtd">
<!-- Created with Vectornator (http://vectornator.io/) -->
<svg height="100%" stroke-miterlimit="10" style="fill-rule:nonzero;clip-rule:evenodd;stroke-linecap:round;stroke-linejoin:round;" version="1.1" viewBox="0 0 36 36" width="100%" xml:space="preserve" xmlns="http://www.w3.org/2000/svg" xmlns:xlink="http://www.w3.org/1999/xlink">

<path d="M7.0685 9.37024C6.7505 9.27861 6.41627 9.34218 6.12671 9.57205L2.02319 12.801C1.55762 13.1706 1.48541 13.8491 1.85501 14.3146C2.22461 14.7802 2.90303 14.8861 3.36861 14.5164L6.26125 12.1956L7.43849 15.4919C7.63601 16.0525 8.22324 16.3285 8.7839 16.1309C9.34457 15.9334 9.65414 15.3126 9.45661 14.7519L7.80848 10.0766C7.68563 9.72787 7.3865 9.46186 7.0685 9.37024Z" fill="#ff0000" fill-rule="nonzero" opacity="1" stroke="none"/>
<path d="M4.14222 14.8192C3.81131 14.8152 3.48587 14.958 3.2677 15.2564L0.20688 19.4609C-0.143908 19.9408-0.037578 20.6237 0.442327 20.9744C0.922233 21.3252 1.5715 21.2189 1.92228 20.739L4.10858 17.7454L6.09307 20.6045C6.43231 21.0926 7.11852 21.2128 7.60667 20.8735C8.0948 20.5343 8.21499 19.8481 7.87575 19.3599L5.01674 15.2901C4.80575 14.9865 4.47313 14.8231 4.14222 14.8192Z" fill="#ff0000" fill-rule="nonzero" opacity="1" stroke="none"/>
<path d="M4.20949 21.0417C3.87998 21.0724 3.58805 21.2266 3.40224 21.5462L0.778681 26.0534C0.479937 26.5673 0.634751 27.2346 1.14867 27.5333C1.66259 27.8321 2.32988 27.6773 2.62863 27.1634L4.51221 23.9344L6.76578 26.5916C7.15415 27.0416 7.82934 27.0808 8.27937 26.6925C8.72941 26.3041 8.76865 25.6289 8.38028 25.1789L5.15128 21.4117C4.90974 21.1318 4.539 21.0111 4.20949 21.0417Z" fill="#ff0000" fill-rule="nonzero" opacity="1" stroke="none"/>
<path d="M28.9315 9.37024C28.6135 9.46186 28.3144 9.72787 28.1915 10.0766L26.5434 14.7519C26.3459 15.3126 26.6554 15.9334 27.2161 16.1309C27.7768 16.3285 28.364 16.0525 28.5615 15.4919L29.7388 12.1956L32.6314 14.5164C33.097 14.886 33.7754 14.7802 34.145 14.3146C34.5146 13.8491 34.4424 13.1706 33.9768 12.801L29.8733 9.57205C29.5837 9.34218 29.2495 9.27861 28.9315 9.37024Z" fill="#ff0000" fill-rule="nonzero" opacity="1" stroke="none"/>
<path d="M31.8578 14.8192C31.5269 14.8231 31.1942 14.9865 30.9833 15.2901L28.1243 19.3599C27.785 19.8481 27.9052 20.5343 28.3933 20.8735C28.8815 21.2128 29.5677 21.0926 29.9069 20.6045L31.8914 17.7454L34.0777 20.739C34.4285 21.2189 35.0778 21.3252 35.5577 20.9744C36.0376 20.6237 36.1439 19.9408 35.7931 19.4609L32.7323 15.2564C32.5141 14.958 32.1887 14.8152 31.8578 14.8192Z" fill="#ff0000" fill-rule="nonzero" opacity="1" stroke="none"/>
<path d="M31.7905 21.0417C31.461 21.0111 31.0903 21.1318 30.8487 21.4117L27.6197 25.1789C27.2314 25.6289 27.2706 26.3041 27.7206 26.6925C28.1707 27.0808 28.8459 27.0416 29.2342 26.5916L31.4878 23.9344L33.3714 27.1634C33.6701 27.6773 34.3374 27.8321 34.8513 27.5333C35.3652 27.2346 35.5201 26.5673 35.2213 26.0534L32.5978 21.5462C32.412 21.2266 32.12 21.0724 31.7905 21.0417Z" fill="#ff0000" fill-rule="nonzero" opacity="1" stroke="none"/>
<path d="M18 1.53125C14.4673 1.53125 11.5937 4.4048 11.5938 7.9375C11.5938 9.04067 11.9778 10.0011 12.4688 10.9062C11.6743 11.4416 10.8508 11.9243 10.2188 12.6562C8.26267 14.9182 6.96875 18.224 6.96875 21.6875C6.96875 25.151 8.26267 28.4256 10.2188 30.6875C12.1734 32.9511 15.0071 34.4688 18 34.4688C20.9929 34.4688 23.8266 32.9511 25.7812 30.6875C27.7373 28.4256 29.0312 25.151 29.0312 21.6875C29.0313 18.224 27.7373 14.9182 25.7812 12.6562C25.1492 11.9243 24.3257 11.4416 23.5312 10.9062C24.0222 10.0011 24.4063 9.04067 24.4062 7.9375C24.4062 4.4048 21.5327 1.53125 18 1.53125ZM18 3.46875C20.4627 3.46875 22.4687 5.47479 22.4688 7.9375C22.4688 10.4002 20.4627 12.4062 18 12.4062C15.5373 12.4062 13.5313 10.4002 13.5312 7.9375C13.5312 5.47479 15.5373 3.46875 18 3.46875ZM13.3125 12.2188C14.2939 13.2865 15.6469 13.9498 17.1562 14.1562L17.1562 32.5625C14.8475 32.3289 12.7888 31.3482 11.2188 29.5312C9.44798 27.4821 8.4375 24.8038 8.4375 21.6875C8.4375 18.5712 9.44798 15.8929 11.2188 13.8438C11.8246 13.1427 12.5809 12.6998 13.3125 12.2188ZM22.6875 12.2188C23.4213 12.6966 24.1753 13.1426 24.7812 13.8438C26.552 15.8929 27.5625 18.5712 27.5625 21.6875C27.5625 24.8038 26.552 27.4821 24.7812 29.5312C23.234 31.3218 21.2036 32.2753 18.9375 32.5312L18.9375 14.125C20.4069 13.9008 21.7274 13.2634 22.6875 12.2188Z" fill="#ff0000" fill-rule="nonzero" opacity="1" stroke="none"/>

</svg>
