<?xml version="1.0" encoding="UTF-8" standalone="no"?>
<!DOCTYPE svg PUBLIC "-//W3C//DTD SVG 1.1//EN" "http://www.w3.org/Graphics/SVG/1.1/DTD/svg11.dtd">
<!-- Created with Vectornator (http://vectornator.io/) -->
<svg height="100%" stroke-miterlimit="10" style="fill-rule:nonzero;clip-rule:evenodd;stroke-linecap:round;stroke-linejoin:round;" version="1.1" viewBox="0 0 36 36" width="100%" xml:space="preserve" xmlns="http://www.w3.org/2000/svg" xmlns:xlink="http://www.w3.org/1999/xlink">
<defs/>
<g id="Untitled">
<path d="M35.5195 16.1717L35.5195 16.1717C35.5195 16.5869 35.1828 16.9236 34.7676 16.9236L1.98222 16.9236L1.98222 33.4742C1.98307 34.0385 2.44059 34.4956 3.00493 34.496L32.9951 34.496C33.5594 34.4956 34.0169 34.0385 34.0178 33.4742L34.0178 19.7645C34.0178 19.3492 34.3544 19.0125 34.7698 19.0125C35.1851 19.0125 35.5217 19.3492 35.5217 19.7645L35.5217 33.4742C35.5201 34.8687 34.3898 35.9988 32.9952 36L3.00244 36C1.60879 35.9975 0.479892 34.8678 0.478262 33.4742L0.478262 7.79931C0.47996 6.40477 1.61028 5.27483 3.00481 5.27359L6.24003 5.27359C6.65534 5.27359 6.99202 5.61026 6.99202 6.02557C6.99202 6.44088 6.65534 6.77755 6.24003 6.77755L3.00636 6.77755C2.44146 6.77716 1.98307 7.23453 1.98222 7.79943L1.98222 15.4206L34.0155 15.4206L34.0155 7.79931C34.0147 7.23497 33.5572 6.77782 32.9928 6.77743L29.6458 6.77743C29.2305 6.77743 28.8939 6.44076 28.8939 6.02545C28.8939 5.61014 29.2305 5.27347 29.6458 5.27347L32.9951 5.27347C34.3897 5.27471 35.52 6.40473 35.5216 7.79931L35.5195 16.1717ZM9.84025 10.2808C10.2555 10.2808 10.5922 9.94418 10.5922 9.52891L10.5922 6.77743L25.3003 6.77743L25.3003 9.52891C25.3003 9.94422 25.637 10.2809 26.0523 10.2809C26.4676 10.2809 26.8043 9.94422 26.8043 9.52891L26.8043 0.751981C26.8043 0.336673 26.4676-1.81537e-08 26.0523 0C25.637 0 25.3003 0.336674 25.3003 0.751981L25.3003 5.27359L10.5943 5.27359L10.5943 0.751981C10.5943 0.336673 10.2576-1.81537e-08 9.84233 0C9.42702 0 9.09035 0.336674 9.09035 0.751981L9.09035 9.52891C9.09035 9.94418 9.42699 10.2808 9.84227 10.2808L9.84025 10.2808Z" fill="#ff4f1f" fill-rule="nonzero" opacity="1" stroke="none"/>
</g>
</svg>
