<?xml version="1.0" encoding="UTF-8" standalone="no"?>
<!DOCTYPE svg PUBLIC "-//W3C//DTD SVG 1.1//EN" "http://www.w3.org/Graphics/SVG/1.1/DTD/svg11.dtd">
<!-- Created with Vectornator (http://vectornator.io/) -->
<svg height="100%" stroke-miterlimit="10" style="fill-rule:nonzero;clip-rule:evenodd;stroke-linecap:round;stroke-linejoin:round;" version="1.1" viewBox="0 0 36 36" width="100%" xml:space="preserve" xmlns="http://www.w3.org/2000/svg" xmlns:vectornator="http://vectornator.io" xmlns:xlink="http://www.w3.org/1999/xlink">
<defs/>
<g id="files" vectornator:layerName="files">
<path d="M7.96875 12.2188C7.52692 12.2188 7.1875 12.5894 7.1875 13.0312L7.1875 26L8.78125 26L8.78125 13.8125L21.0312 13.8125L21.0312 12.2188L7.96875 12.2188ZM27.1875 10L27.1875 22.1875L15 22.2188L15 23.8125L28 23.8125C28.4414 23.8119 28.8125 23.4414 28.8125 23L28.8125 10L27.1875 10ZM22.1875 13.0625L22.1875 17.25L13.0312 17.25C12.5894 17.25 12.2187 17.5894 12.2188 18.0312L12.2188 23.0312L13.8125 23.0312L13.8125 18.8438L23 18.8438C23.4418 18.8438 23.7812 18.4731 23.7812 18.0312L23.7812 13.0625L22.1875 13.0625ZM7.1875 23L7.1875 25.2188L5 25.2188C4.30267 25.2188 3.93336 26.05 4.40625 26.5625L9.9375 32.5625C10.2553 32.9069 10.8088 32.9083 11.125 32.5625C11.1677 32.5158 16.6075 26.5215 16.625 26.5C16.6368 26.4852 16.6298 26.5059 16.6562 26.4688C16.6761 26.4399 16.6752 26.4269 16.7188 26.3438C16.7537 26.2595 16.7639 26.253 16.7812 26.1875L16.8125 25.9375L16.5312 25.4375C16.1001 25.2166 15.9476 25.2125 15.875 25.2188C15.7713 25.2183 14.6193 25.2181 13.8125 25.2188L13.8125 23.0312L12.2188 23.0312L12.2188 26C12.2204 26.4413 12.5899 26.8134 13.0312 26.8125C13.096 26.8124 13.6479 26.8127 14.1875 26.8125C12.9456 28.1763 11.2589 30.0137 10.5312 30.8125L6.84375 26.8125L7.96875 26.8125C8.41058 26.8125 8.78125 26.4418 8.78125 26L8.78125 23L7.1875 23ZM25.5312 3.21875C25.3157 3.21815 25.0965 3.29635 24.9375 3.46875L19.4062 9.46875C18.9335 9.98129 19.3028 10.8125 20 10.8125L22.1875 10.8125L22.1875 13.0312L23.8125 13.0312L23.7812 10C23.78 9.55908 23.4409 9.21875 23 9.21875L21.8438 9.21875L25.5312 5.21875L29.1875 9.21875L28 9.21875C27.5582 9.21875 27.1875 9.55817 27.1875 10L27.1875 13.0312L28.8125 13.0312L28.8125 10.8125L31 10.8125C31.6951 10.8125 32.0622 9.98234 31.5938 9.46875L26.125 3.46875C25.967 3.29548 25.7468 3.21935 25.5312 3.21875Z" fill="#000000" fill-rule="nonzero" opacity="1" stroke="none"/>
</g>
</svg>
