<?xml version="1.0" encoding="UTF-8" standalone="no"?> <!-- Created with Vectornator for iOS (http://vectornator.io/) --><!DOCTYPE svg PUBLIC "-//W3C//DTD SVG 1.1//EN" "http://www.w3.org/Graphics/SVG/1.1/DTD/svg11.dtd">
<svg height="100%" style="fill-rule:nonzero;clip-rule:evenodd;stroke-linecap:round;stroke-linejoin:round;" xmlns:xlink="http://www.w3.org/1999/xlink" xmlns="http://www.w3.org/2000/svg" xml:space="preserve" width="100%" xmlns:vectornator="http://vectornator.io" version="1.1" viewBox="0 0 36 36">
<metadata>
<vectornator:setting key="DimensionsVisible" value="1"/>
<vectornator:setting key="PencilOnly" value="0"/>
<vectornator:setting key="SnapToPoints" value="0"/>
<vectornator:setting key="OutlineMode" value="0"/>
<vectornator:setting key="CMYKEnabledKey" value="0"/>
<vectornator:setting key="RulersVisible" value="1"/>
<vectornator:setting key="SnapToEdges" value="0"/>
<vectornator:setting key="GuidesVisible" value="1"/>
<vectornator:setting key="DisplayWhiteBackground" value="0"/>
<vectornator:setting key="doHistoryDisabled" value="0"/>
<vectornator:setting key="SnapToGuides" value="1"/>
<vectornator:setting key="TimeLapseWatermarkDisabled" value="0"/>
<vectornator:setting key="Units" value="Points"/>
<vectornator:setting key="DynamicGuides" value="0"/>
<vectornator:setting key="IsolateActiveLayer" value="0"/>
<vectornator:setting key="SnapToGrid" value="0"/>
</metadata>
<defs/>
<g id="Untitled" vectornator:layerName="Untitled">
<path d="M18+0C8.05888+0+1.20087e-07+8.05888+0+18C0+27.9411+8.05888+36+18+36C27.9411+36+36+27.9411+36+18C36+8.05888+27.9411+1.20087e-07+18+0ZM24.5938+12.25C24.865+12.2366+25.1416+12.3297+25.3438+12.5C25.5455+12.6703+25.6733+12.9019+25.6875+13.1562C25.7019+13.4104+25.5882+13.6544+25.4062+13.8438L16.1875+23.4375C16.0944+23.5342+16.0013+23.633+15.875+23.6875C15.7488+23.7422+15.6078+23.7464+15.4688+23.75L15.4375+23.75C15.1659+23.75+14.9108+23.6488+14.7188+23.4688L10.625+19.625C10.4358+19.4442+10.3113+19.2219+10.3125+18.9688C10.3137+18.7158+10.4341+18.4604+10.625+18.2812C10.816+18.1024+11.0737+18.0012+11.3438+18C11.6139+17.9988+11.8698+18.104+12.0625+18.2812L15.4062+21.4062L23.9062+12.5625C24.0879+12.3732+24.3226+12.2633+24.5938+12.25Z" opacity="1" fill="#2f7bb1"/>
</g>
</svg>
