<?xml version="1.0" encoding="utf-8"?>
<svg viewBox="4.5 4.5 15 15" width="15" height="15" xmlns="http://www.w3.org/2000/svg">
  <path d="M 19.5 12 C 19.5 14.035 18.633 15.974 17.303 17.303 C 15.974 18.633 14.035 19.5 12 19.5 C 9.965 19.5 8.026 18.633 6.697 17.303 C 5.367 15.974 4.5 14.035 4.5 12 C 4.5 9.965 5.367 8.026 6.697 6.697 C 8.026 5.367 9.965 4.5 12 4.5 C 14.035 4.5 15.974 5.367 17.303 6.697 C 18.633 8.026 19.5 9.965 19.5 12 Z M 16.596 7.404 C 15.392 6.2 13.831 5.5 12 5.5 C 10.169 5.5 8.608 6.2 7.404 7.404 C 6.2 8.608 5.5 10.169 5.5 12 C 5.5 13.831 6.2 15.392 7.404 16.596 C 8.608 17.8 10.169 18.5 12 18.5 C 13.831 18.5 15.392 17.8 16.596 16.596 C 17.8 15.392 18.5 13.831 18.5 12 C 18.5 10.169 17.8 8.608 16.596 7.404 Z" style="fill: rgb(47, 123, 177);"/>
  <path d="M10.9316 14.4001C10.8184 14.4001 10.7098 14.3579 10.6298 14.2829L8.92234 12.6829C8.84349 12.6076 8.79954 12.5063 8.80005 12.4008C8.80056 12.2954 8.84549 12.1944 8.92506 12.1198C9.00463 12.0453 9.1124 12.0032 9.22493 12.0027C9.33746 12.0022 9.44563 12.0434 9.52592 12.1173L10.9153 13.4192L14.4561 9.73248C14.5318 9.65364 14.6379 9.60622 14.7509 9.60065C14.8639 9.59508 14.9747 9.63182 15.0589 9.70279C15.143 9.77376 15.1936 9.87314 15.1995 9.97907C15.2055 10.085 15.1663 10.1888 15.0905 10.2677L11.2488 14.2677C11.21 14.308 11.1629 14.3406 11.1103 14.3633C11.0577 14.3861 11.0007 14.3986 10.9428 14.4001H10.9316Z" fill="#2F7BB1"/>
</svg>