<?xml version="1.0" encoding="utf-8"?>
<svg viewBox="4.5 4.5 15 15" width="15" height="15" xmlns="http://www.w3.org/2000/svg">
  <circle cx="12" cy="12" r="7.5" fill="#2F7BB1"/>
  <path d="M10.9316 14.4001C10.8184 14.4001 10.7098 14.3579 10.6298 14.2829L8.92234 12.6829C8.84349 12.6076 8.79954 12.5063 8.80005 12.4008C8.80056 12.2954 8.84549 12.1944 8.92506 12.1198C9.00463 12.0453 9.1124 12.0032 9.22493 12.0027C9.33746 12.0022 9.44563 12.0434 9.52592 12.1173L10.9153 13.4192L14.4561 9.73248C14.5318 9.65364 14.6379 9.60622 14.7509 9.60065C14.8639 9.59508 14.9747 9.63182 15.0589 9.70279C15.143 9.77376 15.1936 9.87314 15.1995 9.97907C15.2055 10.085 15.1663 10.1888 15.0905 10.2677L11.2488 14.2677C11.21 14.308 11.1629 14.3406 11.1103 14.3633C11.0577 14.3861 11.0007 14.3986 10.9428 14.4001H10.9316Z" fill="white"/>
</svg>