<svg width="25" height="24" viewBox="0 0 25 24" fill="none" xmlns="http://www.w3.org/2000/svg">
<path d="M9.77028 17.999C9.45191 17.9989 9.1466 17.8804 8.9215 17.6694L4.11933 13.1693C3.89758 12.9577 3.77397 12.6726 3.7754 12.3761C3.77684 12.0795 3.90319 11.7955 4.12698 11.5858C4.35077 11.376 4.65388 11.2576 4.97036 11.2563C5.28685 11.2549 5.59109 11.3708 5.8169 11.5786L9.72452 15.2404L19.6829 4.87135C19.8959 4.6496 20.1942 4.51623 20.5122 4.50058C20.8301 4.48492 21.1416 4.58825 21.3783 4.78785C21.6149 4.98745 21.7572 5.26696 21.7739 5.5649C21.7906 5.86283 21.6804 6.15478 21.4674 6.37652L10.6625 17.6266C10.5534 17.7401 10.4209 17.8316 10.273 17.8956C10.1251 17.9596 9.96481 17.9948 9.80194 17.999H9.77028Z" fill="#2F7BB1"/>
</svg>
