<?xml version="1.0" encoding="UTF-8" standalone="no"?> <!-- Created with Vectornator for iOS (http://vectornator.io/) --><!DOCTYPE svg PUBLIC "-//W3C//DTD SVG 1.1//EN" "http://www.w3.org/Graphics/SVG/1.1/DTD/svg11.dtd">
<svg height="100%" style="fill-rule:nonzero;clip-rule:evenodd;stroke-linecap:round;stroke-linejoin:round;" xmlns:xlink="http://www.w3.org/1999/xlink" xmlns="http://www.w3.org/2000/svg" xml:space="preserve" width="100%" xmlns:vectornator="http://vectornator.io" version="1.1" viewBox="0 0 36 36">
<metadata>
<vectornator:setting key="DimensionsVisible" value="1"/>
<vectornator:setting key="PencilOnly" value="0"/>
<vectornator:setting key="SnapToPoints" value="0"/>
<vectornator:setting key="OutlineMode" value="0"/>
<vectornator:setting key="CMYKEnabledKey" value="0"/>
<vectornator:setting key="RulersVisible" value="1"/>
<vectornator:setting key="SnapToEdges" value="0"/>
<vectornator:setting key="GuidesVisible" value="1"/>
<vectornator:setting key="DisplayWhiteBackground" value="0"/>
<vectornator:setting key="doHistoryDisabled" value="0"/>
<vectornator:setting key="SnapToGuides" value="1"/>
<vectornator:setting key="TimeLapseWatermarkDisabled" value="0"/>
<vectornator:setting key="Units" value="Points"/>
<vectornator:setting key="DynamicGuides" value="0"/>
<vectornator:setting key="IsolateActiveLayer" value="0"/>
<vectornator:setting key="SnapToGrid" value="0"/>
</metadata>
<defs/>
<g id="Untitled" vectornator:layerName="Untitled">
<g opacity="1">
<path d="M36+18C36+22.884+33.9192+27.5376+30.7272+30.7272C27.5376+33.9192+22.884+36+18+36C13.116+36+8.4624+33.9192+5.2728+30.7272C2.0808+27.5376+0+22.884+0+18C0+13.116+2.0808+8.4624+5.2728+5.2728C8.4624+2.0808+13.116+0+18+0C22.884+0+27.5376+2.0808+30.7272+5.2728C33.9192+8.4624+36+13.116+36+18ZM29.0304+6.9696C26.1408+4.08+22.3944+2.4+18+2.4C13.6056+2.4+9.8592+4.08+6.9696+6.9696C4.08+9.8592+2.4+13.6056+2.4+18C2.4+22.3944+4.08+26.1408+6.9696+29.0304C9.8592+31.92+13.6056+33.6+18+33.6C22.3944+33.6+26.1408+31.92+29.0304+29.0304C31.92+26.1408+33.6+22.3944+33.6+18C33.6+13.6056+31.92+9.8592+29.0304+6.9696Z" opacity="1" fill="#2f7bb1"/>
<path d="M15.4358+23.7602C15.1642+23.7602+14.9035+23.659+14.7115+23.479L10.6136+19.639C10.4244+19.4582+10.3189+19.2151+10.3201+18.9619C10.3213+18.709+10.4292+18.4666+10.6201+18.2875C10.8111+18.1087+11.0698+18.0077+11.3398+18.0065C11.6099+18.0053+11.8695+18.1042+12.0622+18.2815L15.3967+21.4061L23.8946+12.558C24.0763+12.3687+24.331+12.2549+24.6022+12.2416C24.8734+12.2282+25.1393+12.3164+25.3414+12.4867C25.5432+12.657+25.6646+12.8955+25.6788+13.1498C25.6932+13.404+25.5991+13.6531+25.4172+13.8425L16.1971+23.4425C16.104+23.5392+15.991+23.6174+15.8647+23.6719C15.7385+23.7266+15.6017+23.7566+15.4627+23.7602L15.4358+23.7602Z" opacity="1" fill="#2f7bb1"/>
</g>
</g>
</svg>
