<?xml version="1.0" encoding="UTF-8" standalone="no"?> <!-- Created with Vectornator for iOS (http://vectornator.io/) --><!DOCTYPE svg PUBLIC "-//W3C//DTD SVG 1.1//EN" "http://www.w3.org/Graphics/SVG/1.1/DTD/svg11.dtd">
<svg height="100%" style="fill-rule:nonzero;clip-rule:evenodd;stroke-linecap:round;stroke-linejoin:round;" xmlns:xlink="http://www.w3.org/1999/xlink" xmlns="http://www.w3.org/2000/svg" xml:space="preserve" width="100%" xmlns:vectornator="http://vectornator.io" version="1.1" viewBox="0 0 36 36">
<metadata>
<vectornator:setting key="DimensionsVisible" value="1"/>
<vectornator:setting key="PencilOnly" value="0"/>
<vectornator:setting key="SnapToPoints" value="0"/>
<vectornator:setting key="OutlineMode" value="0"/>
<vectornator:setting key="CMYKEnabledKey" value="0"/>
<vectornator:setting key="RulersVisible" value="1"/>
<vectornator:setting key="SnapToEdges" value="0"/>
<vectornator:setting key="GuidesVisible" value="1"/>
<vectornator:setting key="DisplayWhiteBackground" value="0"/>
<vectornator:setting key="doHistoryDisabled" value="0"/>
<vectornator:setting key="SnapToGuides" value="1"/>
<vectornator:setting key="TimeLapseWatermarkDisabled" value="0"/>
<vectornator:setting key="Units" value="Points"/>
<vectornator:setting key="DynamicGuides" value="0"/>
<vectornator:setting key="IsolateActiveLayer" value="0"/>
<vectornator:setting key="SnapToGrid" value="0"/>
</metadata>
<defs/>
<g id="Untitled" vectornator:layerName="Untitled">
<g opacity="1">
<path d="M25.1428+32.0254C25.1112+33.023+24.6791+34.1315+23.971+34.835C23.2653+35.5408+22.1568+35.9706+21.1592+36L5.00737+36C4.50064+35.9955+3.92379+35.8824+3.45552+35.6969C2.99178+35.4955+2.50316+35.1675+2.14347+34.8124C1.7951+34.4459+1.46709+33.9573+1.28159+33.4867C1.09383+33.0162+0.99882+32.4529+1.00334+31.9462L1.04633+8.86766C1.08026+7.87005+1.53269+6.78195+2.21812+6.0558C2.94428+5.37263+4.03464+4.92246+5.03225+4.89305L21.1728+4.92924C21.6704+4.93829+22.236+5.0514+22.6974+5.23463C23.1521+5.43144+23.6295+5.75267+23.9869+6.09878C24.3307+6.4562+24.6497+6.93578+24.8442+7.39273C25.0275+7.85648+25.1361+8.41749+25.1428+8.91517L25.1428+32.0254ZM23.5887+8.91517C23.5978+8.56906+23.5458+8.2976+23.4078+7.98316C23.2856+7.66193+23.134+7.43345+22.8852+7.19593C22.6477+6.94483+22.4215+6.79326+22.1002+6.66884C21.7858+6.52859+21.5189+6.47656+21.1728+6.48335L5.02999+6.44489C4.32872+6.41548+3.79032+6.63944+3.31301+7.15521C2.79724+7.63026+2.57328+8.17092+2.60043+8.87219L2.55518+31.9507C2.53935+32.3014+2.5959+32.5887+2.72485+32.9144C2.85379+33.2424+2.99857+33.4777+3.24967+33.7243C3.49172+33.9799+3.72246+34.1337+4.05047+34.2627C4.3717+34.4029+4.64542+34.4572+4.99605+34.4459L21.1592+34.4459C21.8582+34.4753+22.3785+34.231+22.8762+33.7378C23.3716+33.2424+23.6181+32.7221+23.5887+32.0209L23.5887+8.91517Z" opacity="1" fill="#2f7bb1"/>
<path d="M14.8726-5.39341e-07L31.0267+0.0361935C31.5244+0.0452426+32.0899+0.15835+32.5514+0.341586C33.0061+0.538393+33.4857+0.859619+33.8408+1.20573C34.1847+1.56315+34.5037+2.04499+34.7005+2.49969C34.8814+2.96117+34.9923+3.52444+34.9968+4.02212L34.9968+6.51954L34.9968+11.5167L34.9968+27.1029C34.9651+28.1005+34.5127+29.1864+33.825+29.9125C33.0989+30.5957+32.0108+31.0459+31.0131+31.0775L29.2962+31.0775L29.2962+29.5234L31.0131+29.5234C31.7144+29.5528+32.2551+29.3289+32.7301+28.8131C33.2459+28.3403+33.4721+27.7997+33.4427+27.0984L33.4427+11.5167L33.4427+6.51954L33.4427+4.02212C33.4518+3.67601+33.3997+3.40455+33.264+3.09011C33.1396+2.76662+32.988+2.5404+32.7392+2.30061C32.5016+2.05178+32.2754+1.90021+31.9542+1.77579C31.6398+1.63554+31.3728+1.58351+31.0267+1.5903L14.8681+1.55184L14.8726-5.39341e-07Z" opacity="1" fill="#2f7bb1"/>
</g>
</g>
</svg>
