<?xml version="1.0" encoding="utf-8"?>
<svg viewBox="4.487 4.485 15.027 15.914" width="15.027" height="15.914" xmlns="http://www.w3.org/2000/svg">
  <path d="M 15.158 18.642 C 15.144 19.083 14.953 19.573 14.64 19.884 C 14.328 20.196 13.838 20.386 13.397 20.399 L 6.257 20.399 C 6.033 20.397 5.778 20.347 5.571 20.265 C 5.366 20.176 5.15 20.031 4.991 19.874 C 4.837 19.712 4.692 19.496 4.61 19.288 C 4.527 19.08 4.485 18.831 4.487 18.607 L 4.506 8.405 C 4.521 7.964 4.721 7.483 5.024 7.162 C 5.345 6.86 5.827 6.661 6.268 6.648 L 13.403 6.664 C 13.623 6.668 13.873 6.718 14.077 6.799 C 14.278 6.886 14.489 7.028 14.647 7.181 C 14.799 7.339 14.94 7.551 15.026 7.753 C 15.107 7.958 15.155 8.206 15.158 8.426 Z M 14.471 8.426 C 14.475 8.273 14.452 8.153 14.391 8.014 C 14.337 7.872 14.27 7.771 14.16 7.666 C 14.055 7.555 13.955 7.488 13.813 7.433 C 13.674 7.371 13.556 7.348 13.403 7.351 L 6.267 7.334 C 5.957 7.321 5.719 7.42 5.508 7.648 C 5.28 7.858 5.181 8.097 5.193 8.407 L 5.173 18.609 C 5.166 18.764 5.191 18.891 5.248 19.035 C 5.305 19.18 5.369 19.284 5.48 19.393 C 5.587 19.506 5.689 19.574 5.834 19.631 C 5.976 19.693 6.097 19.717 6.252 19.712 L 13.397 19.712 C 13.706 19.725 13.936 19.617 14.156 19.399 C 14.375 19.18 14.484 18.95 14.471 18.64 Z" style="fill: rgb(47, 123, 177);"/>
  <path d="M 10.618 4.485 L 17.759 4.501 C 17.979 4.505 18.229 4.555 18.433 4.636 C 18.634 4.723 18.846 4.865 19.003 5.018 C 19.155 5.176 19.296 5.389 19.383 5.59 C 19.463 5.794 19.512 6.043 19.514 6.263 L 19.514 7.367 L 19.514 9.576 L 19.514 16.466 C 19.5 16.907 19.3 17.387 18.996 17.708 C 18.675 18.01 18.194 18.209 17.753 18.223 L 16.994 18.223 L 16.994 17.536 L 17.753 17.536 C 18.063 17.549 18.302 17.45 18.512 17.222 C 18.74 17.013 18.84 16.774 18.827 16.464 L 18.827 9.576 L 18.827 7.367 L 18.827 6.263 C 18.831 6.11 18.808 5.99 18.748 5.851 C 18.693 5.708 18.626 5.608 18.516 5.502 C 18.411 5.392 18.311 5.325 18.169 5.27 C 18.03 5.208 17.912 5.185 17.759 5.188 L 10.616 5.171 Z" style="fill: rgb(47, 123, 177);"/>
</svg>