<?xml version="1.0" encoding="UTF-8" standalone="no"?> <!-- Created with Vectornator for iOS (http://vectornator.io/) --><!DOCTYPE svg PUBLIC "-//W3C//DTD SVG 1.1//EN" "http://www.w3.org/Graphics/SVG/1.1/DTD/svg11.dtd">
<svg height="100%" style="fill-rule:nonzero;clip-rule:evenodd;stroke-linecap:round;stroke-linejoin:round;" xmlns:xlink="http://www.w3.org/1999/xlink" xmlns="http://www.w3.org/2000/svg" xml:space="preserve" width="100%" xmlns:vectornator="http://vectornator.io" version="1.1" viewBox="0 0 36 36">
<metadata>
<vectornator:setting key="DimensionsVisible" value="1"/>
<vectornator:setting key="PencilOnly" value="0"/>
<vectornator:setting key="SnapToPoints" value="0"/>
<vectornator:setting key="OutlineMode" value="0"/>
<vectornator:setting key="CMYKEnabledKey" value="0"/>
<vectornator:setting key="RulersVisible" value="1"/>
<vectornator:setting key="SnapToEdges" value="0"/>
<vectornator:setting key="GuidesVisible" value="1"/>
<vectornator:setting key="DisplayWhiteBackground" value="0"/>
<vectornator:setting key="doHistoryDisabled" value="0"/>
<vectornator:setting key="SnapToGuides" value="1"/>
<vectornator:setting key="TimeLapseWatermarkDisabled" value="0"/>
<vectornator:setting key="Units" value="Points"/>
<vectornator:setting key="DynamicGuides" value="1"/>
<vectornator:setting key="IsolateActiveLayer" value="0"/>
<vectornator:setting key="SnapToGrid" value="0"/>
</metadata>
<defs/>
<g id="Untitled" vectornator:layerName="Untitled">
<path d="M36+18C36+27.9411+27.9411+36+18+36C8.05887+36+0+27.9411+0+18C0+8.05887+8.05887+0+18+0C27.9411+0+36+8.05887+36+18ZM18.002+28.0294C19.2264+28.0294+20.2189+27.0367+20.2189+25.8125C20.2189+24.588+19.2264+23.5956+18.002+23.5956C16.7777+23.5956+15.7851+24.588+15.7851+25.8125C15.7851+27.0367+16.7777+28.0294+18.002+28.0294ZM16.8935+6.96774C16.2451+6.96774+15.735+7.522+15.7889+8.16826L16.8974+21.4698C17.0103+22.8251+18.9937+22.8251+19.1066+21.4698L20.2151+8.16826C20.269+7.522+19.759+6.96774+19.1105+6.96774L16.8935+6.96774Z" fill-rule="evenodd" fill="#cc3336" opacity="1"/>
</g>
</svg>
