<?xml version="1.0" encoding="UTF-8" standalone="no"?>
<!DOCTYPE svg PUBLIC "-//W3C//DTD SVG 1.1//EN" "http://www.w3.org/Graphics/SVG/1.1/DTD/svg11.dtd">
<!-- Created with Vectornator (http://vectornator.io/) -->
<svg height="100%" stroke-miterlimit="10" style="fill-rule:nonzero;clip-rule:evenodd;stroke-linecap:round;stroke-linejoin:round;" version="1.1" viewBox="0 0 36 36" width="100%" xml:space="preserve" xmlns="http://www.w3.org/2000/svg" xmlns:xlink="http://www.w3.org/1999/xlink">
<defs/>
<g id="Untitled">
<path d="M26.2145 0L9.78941 0C6.19954 0 3.28938 2.91016 3.28938 6.50003C3.28938 10.0899 6.19954 13.0001 9.78941 13.0001L26.2144 13.0001C28.1477 13.0006 29.9807 12.1391 31.2141 10.6503L31.2141 18.0003C31.2105 20.7601 28.9742 22.9965 26.2144 23L9.78941 23C7.02827 22.9984 4.78981 20.7614 4.78623 18.0003L4.78623 14.7144C4.78623 14.3002 4.45043 13.9644 4.03621 13.9644C3.62198 13.9644 3.28618 14.3002 3.28618 14.7144L3.28618 18.0003C3.2899 21.5888 6.19799 24.4969 9.78646 24.5006L26.2115 24.5006C28.1457 24.5007 29.9792 23.6379 31.212 22.1475L31.212 29.152C31.3016 32.0061 29.0683 34.3962 26.2147 34.5002L9.78941 34.5002C6.93485 34.3975 4.7001 32.007 4.78966 29.152L4.78966 26.214C4.78966 25.7997 4.45386 25.4639 4.03963 25.4639C3.62541 25.4639 3.28961 25.7997 3.28961 26.214L3.28961 29.1518C3.19974 32.8343 6.10465 35.8961 9.78681 36L26.2115 36C29.8947 35.8974 32.8013 32.8353 32.7118 29.1518L32.7118 6.50027C32.7077 2.91312 29.8016 0.00573105 26.2145 0ZM26.2145 11.4997L9.78941 11.4997C7.02812 11.5005 4.789 9.26268 4.78818 6.50139C4.78736 3.74011 7.02517 1.50098 9.78646 1.50016L26.2114 1.50016C28.9727 1.50016 31.2112 3.73863 31.2112 6.49992C31.2112 9.2612 28.9727 11.4997 26.2114 11.4997L26.2145 11.4997Z" fill="#4e5054" fill-rule="nonzero" opacity="1" stroke="none"/>
</g>
</svg>
