<?xml version="1.0" encoding="UTF-8" standalone="no"?>
<!DOCTYPE svg PUBLIC "-//W3C//DTD SVG 1.1//EN" "http://www.w3.org/Graphics/SVG/1.1/DTD/svg11.dtd">
<!-- Created with Vectornator (http://vectornator.io/) -->
<svg height="100%" stroke-miterlimit="10" style="fill-rule:nonzero;clip-rule:evenodd;stroke-linecap:round;stroke-linejoin:round;" version="1.1" viewBox="0 0 36 36" width="100%" xml:space="preserve" xmlns="http://www.w3.org/2000/svg" xmlns:xlink="http://www.w3.org/1999/xlink">
<defs/>
<g clip-path="url(#ArtboardFrame)" id="Untitled">
<path d="M16.4687 7.85213e-06C15.4908-0.00233426 14.2462 0.519531 13.5625 1.21876L13.5 1.28126C12.9159 1.87853 12.5228 2.86352 12.4062 3.75001L14.0937 3.75001C14.2131 3.26209 14.3649 2.70421 14.6562 2.40626L14.6875 2.34376C15.0693 1.95332 15.9227 1.59245 16.4687 1.59376L31.7187 1.62501C32.2726 1.62633 33.1348 1.98815 33.5312 2.37501L33.5937 2.43751C33.9854 2.81976 34.3422 3.67148 34.3437 4.21876L34.4062 26.4375C34.4078 26.9832 34.0467 27.8063 33.6562 28.1875L33.5625 28.2813C33.167 28.6674 32.334 29.0009 31.7812 29L25.3125 29L25.3125 30.625L31.75 30.625C32.7213 30.6266 33.9925 30.116 34.6875 29.4375L34.7812 29.3438C35.4813 28.6603 36.0028 27.4158 36 26.4375L35.9375 4.21876C35.9347 3.24199 35.4178 1.99474 34.7187 1.31251L34.625 1.21876C33.9307 0.541144 32.6889 0.0335818 31.7187 0.0312579L16.4687 7.85213e-06Z" fill="#000000" fill-rule="evenodd" opacity="1" stroke="none"/>
<g opacity="1">
<path d="M33.2529 16.8723C33.6578 16.4661 33.6577 15.808 33.252 15.4023C33.216 15.3662 33.178 15.3334 33.1374 15.3031L33.1419 15.3063L27.3531 9.51752C27.3498 9.51426 27.3466 9.51105 27.3428 9.50722C26.9364 9.10084 26.2777 9.10141 25.8721 9.507C25.4666 9.91258 25.466 10.5713 25.8724 10.9776C25.8762 10.9815 25.8794 10.9847 25.8833 10.9886L25.8827 10.9879L29.9907 15.0959L20.7341 15.0945C20.4675 15.0944 20.2022 15.1961 19.9994 15.3989C19.5932 15.8051 19.594 16.4639 19.9997 16.8696C20.2032 17.0731 20.4691 17.1742 20.7357 17.1742L29.9923 17.1757L25.8849 21.2831C25.8817 21.2863 25.8785 21.2895 25.8746 21.2934C25.4684 21.6996 25.4691 22.3583 25.8748 22.764C26.2805 23.1698 26.9392 23.1705 27.3454 22.7643C27.3493 22.7604 27.3525 22.7572 27.3564 22.7533L33.1486 16.9611C33.1821 16.9367 33.2188 16.9051 33.2529 16.871L33.2529 16.8723Z" fill="#2f7bb1" fill-rule="nonzero" opacity="1" stroke="none"/>
<path d="M11.1534 19.4071C10.7484 19.8133 10.7485 20.4713 11.1543 20.8771C11.1903 20.9131 11.2283 20.946 11.2689 20.9762L11.2644 20.973L17.0532 26.7618C17.0565 26.7651 17.0597 26.7683 17.0635 26.7721C17.4699 27.1785 18.1285 27.1779 18.5341 26.7724C18.9397 26.3668 18.9403 25.7081 18.5339 25.3017C18.5301 25.2979 18.5269 25.2947 18.523 25.2908L18.5236 25.2914L14.4156 21.1834L23.6722 21.1849C23.9388 21.1849 24.204 21.0832 24.4068 20.8804C24.813 20.4742 24.8123 19.8155 24.4066 19.4098C24.2031 19.2063 23.9372 19.1052 23.6705 19.1051L14.414 19.1037L18.5214 14.9963C18.5246 14.993 18.5278 14.9898 18.5317 14.986C18.9379 14.5797 18.9372 13.921 18.5315 13.5153C18.1257 13.1096 17.467 13.1089 17.0608 13.5151C17.0569 13.519 17.0537 13.5222 17.0498 13.5261L11.2577 19.3182C11.2242 19.3427 11.1875 19.3742 11.1534 19.4083L11.1534 19.4071Z" fill="#2f7bb1" fill-rule="nonzero" opacity="1" stroke="none"/>
</g>
<path d="M4.15625 5.375C3.17828 5.37265 1.93374 5.89452 1.25 6.59375L1.1875 6.65625C0.508515 7.35061-0.000231028 8.59133 0 9.5625L0 31.8125C0.000231669 32.7845 0.53662 34.0263 1.21875 34.7188L1.21875 34.75C1.90355 35.4452 3.1804 35.9673 4.15625 35.9688L19.4375 36C20.4088 36.0016 21.68 35.491 22.375 34.8125L22.4688 34.7188C23.1687 34.0353 23.6903 32.7908 23.6875 31.8125L23.6562 23.0938L22.0625 23.0938L22.0938 31.8125C22.0952 32.3582 21.7341 33.1813 21.3438 33.5625L21.25 33.6562C20.8545 34.0425 20.0214 34.3759 19.4688 34.375L4.15625 34.375C3.60805 34.3741 2.7597 34.0156 2.375 33.625L2.34375 33.5938C1.95638 33.2005 1.59388 32.3334 1.59375 31.7812L1.59375 9.5625C1.59362 9.00961 1.9572 8.17655 2.34375 7.78125L2.375 7.71875C2.75679 7.32831 3.61017 6.96744 4.15625 6.96875L19.4062 7C19.9601 7.00132 20.8223 7.36313 21.2188 7.75L21.2812 7.8125C21.6729 8.19474 22.0296 9.04647 22.0312 9.59375L22.0312 13.2812L23.625 13.2812L23.625 9.59375C23.6222 8.61698 23.1052 7.36973 22.4062 6.6875L22.3125 6.59375C21.6182 5.91613 20.3764 5.40857 19.4062 5.40625L4.15625 5.375Z" fill="#000000" fill-rule="nonzero" opacity="1" stroke="none"/>
</g>
</svg>
