<?xml version="1.0" encoding="UTF-8" standalone="no"?>
<!DOCTYPE svg PUBLIC "-//W3C//DTD SVG 1.1//EN" "http://www.w3.org/Graphics/SVG/1.1/DTD/svg11.dtd"
[
<!ATTLIST g
  xmlns:vectornator CDATA #FIXED "http://vectornator.io"
  vectornator:layerName CDATA #IMPLIED >
<!ATTLIST g
  xmlns:vectornator CDATA #FIXED "http://vectornator.io"
  vectornator:mask CDATA #IMPLIED >
<!ATTLIST text
  xmlns:vectornator CDATA #FIXED "http://vectornator.io"
  vectornator:width CDATA #IMPLIED >
<!ATTLIST text
  xmlns:vectornator CDATA #FIXED "http://vectornator.io"
  vectornator:text CDATA #IMPLIED >

<!ATTLIST path
  xmlns:vectornator CDATA #FIXED "http://vectornator.io"
  vectornator:blendMode CDATA #IMPLIED >
<!ATTLIST path
  xmlns:vectornator CDATA #FIXED "http://vectornator.io"
  vectornator:shadowColor CDATA #IMPLIED >
<!ATTLIST path
  xmlns:vectornator CDATA #FIXED "http://vectornator.io"
  vectornator:shadowOpacity CDATA #IMPLIED >
<!ATTLIST path
  xmlns:vectornator CDATA #FIXED "http://vectornator.io"
  vectornator:shadowRadius CDATA #IMPLIED >
<!ATTLIST path
  xmlns:vectornator CDATA #FIXED "http://vectornator.io"
  vectornator:shadowOffset CDATA #IMPLIED >
<!ATTLIST path
  xmlns:vectornator CDATA #FIXED "http://vectornator.io"
  vectornator:shadowAngle CDATA #IMPLIED >

<!ATTLIST image
  xmlns:vectornator CDATA #FIXED "http://vectornator.io"
  vectornator:blendMode CDATA #IMPLIED >
<!ATTLIST image
  xmlns:vectornator CDATA #FIXED "http://vectornator.io"
  vectornator:shadowColor CDATA #IMPLIED >
<!ATTLIST image
  xmlns:vectornator CDATA #FIXED "http://vectornator.io"
  vectornator:shadowOpacity CDATA #IMPLIED >
<!ATTLIST image
  xmlns:vectornator CDATA #FIXED "http://vectornator.io"
  vectornator:shadowRadius CDATA #IMPLIED >
<!ATTLIST image
  xmlns:vectornator CDATA #FIXED "http://vectornator.io"
  vectornator:shadowOffset CDATA #IMPLIED >
<!ATTLIST image
  xmlns:vectornator CDATA #FIXED "http://vectornator.io"
  vectornator:shadowAngle CDATA #IMPLIED >

<!ATTLIST g
  xmlns:vectornator CDATA #FIXED "http://vectornator.io"
  vectornator:blendMode CDATA #IMPLIED >
<!ATTLIST g
  xmlns:vectornator CDATA #FIXED "http://vectornator.io"
  vectornator:shadowColor CDATA #IMPLIED >
<!ATTLIST g
  xmlns:vectornator CDATA #FIXED "http://vectornator.io"
  vectornator:shadowOpacity CDATA #IMPLIED >
<!ATTLIST g
  xmlns:vectornator CDATA #FIXED "http://vectornator.io"
  vectornator:shadowRadius CDATA #IMPLIED >
<!ATTLIST g
  xmlns:vectornator CDATA #FIXED "http://vectornator.io"
  vectornator:shadowOffset CDATA #IMPLIED >
<!ATTLIST g
  xmlns:vectornator CDATA #FIXED "http://vectornator.io"
  vectornator:shadowAngle CDATA #IMPLIED >

<!ENTITY % SVG.filter.extra.content  "| feDropShadow" >
<!ELEMENT feDropShadow EMPTY>
<!ATTLIST feDropShadow
  xmlns:svg CDATA #FIXED "http://www.w3.org/Graphics/SVG/1.1/DTD/svg11.dtd"
  dx CDATA #IMPLIED>
<!ATTLIST feDropShadow
  xmlns:svg CDATA #FIXED "http://www.w3.org/Graphics/SVG/1.1/DTD/svg11.dtd"
  dy CDATA #IMPLIED>
<!ATTLIST feDropShadow
  xmlns:svg CDATA #FIXED "http://www.w3.org/Graphics/SVG/1.1/DTD/svg11.dtd"
  stdDeviation CDATA #IMPLIED>
<!ATTLIST feDropShadow
  xmlns:svg CDATA #FIXED "http://www.w3.org/Graphics/SVG/1.1/DTD/svg11.dtd"
  flood-opacity CDATA #IMPLIED>
<!ATTLIST feDropShadow
  xmlns:svg CDATA #FIXED "http://www.w3.org/Graphics/SVG/1.1/DTD/svg11.dtd"
  in CDATA #IMPLIED>
<!ATTLIST feDropShadow
  xmlns:svg CDATA #FIXED "http://www.w3.org/Graphics/SVG/1.1/DTD/svg11.dtd"
  result CDATA #IMPLIED>
<!ATTLIST feDropShadow
  xmlns:svg CDATA #FIXED "http://www.w3.org/Graphics/SVG/1.1/DTD/svg11.dtd"
  flood-color CDATA #IMPLIED>
]
>
<!-- Created with Vectornator (http://vectornator.io/) -->
<svg height="100%" stroke-miterlimit="10" style="fill-rule:nonzero;clip-rule:evenodd;stroke-linecap:round;stroke-linejoin:round;" version="1.1" viewBox="0 0 36 36" width="100%" xml:space="preserve" xmlns="http://www.w3.org/2000/svg" xmlns:vectornator="http://vectornator.io" xmlns:xlink="http://www.w3.org/1999/xlink">
<defs/>
<g id="files" vectornator:layerName="files">
<path d="M4.40628 0C1.9609 0.0269597-0.00884471 2.07596 2.98704e-05 4.59375L2.98704e-05 31.4062C-0.00881196 33.9227 1.96218 35.9775 4.40628 36L22.5938 36C23.774 36 24.8865 35.5178 25.7188 34.6562C26.5511 33.7947 27.0376 32.6213 27.0313 31.4062L27.0313 30.5938L25.4375 30.5938L25.4375 31.4062C25.4439 32.1873 25.128 32.9454 24.5938 33.5C24.0596 34.0546 23.3525 34.375 22.5938 34.375L4.40628 34.375C2.83813 34.357 1.58054 33.0208 1.59378 31.4062L1.59378 4.59375C1.58051 2.97783 2.83686 1.64745 4.40628 1.625L22.625 1.625C24.1932 1.64745 25.4552 2.97917 25.4375 4.59375L25.4375 8.3125L25.4375 14.5625L27.0313 14.5625L27.0313 7.21875L27.0313 4.59375C27.0445 2.07729 25.0691 0.0269744 22.625 0L4.40628 0Z" fill="#000000" fill-rule="evenodd" opacity="1" stroke="none"/>
<path d="M5.43753 10.5L5.43753 12.1562L21.5625 12.1562L21.5625 10.5L5.43753 10.5Z" fill="#000000" fill-rule="evenodd" opacity="1" stroke="none"/>
<path d="M5.43753 17.0312L5.43753 18.6875L12.125 18.6875L12.125 17.0312L5.43753 17.0312Z" fill="#000000" fill-rule="evenodd" opacity="1" stroke="none"/>
<path d="M5.43753 23.3125L5.43753 24.9688L12.125 24.9688L12.125 23.3125L5.43753 23.3125Z" fill="#000000" fill-rule="evenodd" opacity="1" stroke="none"/>
<path d="M34.2931 16.3961L18.0822 16.3961C17.3273 16.3961 16.7145 17.0089 16.7145 17.7608L16.7145 26.6864C16.7145 27.4413 17.3273 28.054 18.0822 28.054L34.2961 28.054C35.051 28.054 35.6638 27.4413 35.6609 26.6893L35.6609 17.7608C35.6609 17.0089 35.0481 16.3961 34.2931 16.3961ZM26.7353 25.3217L24.9147 25.3217L24.9147 21.7692L23.0941 24.0457L21.2734 21.7692L21.2734 25.3217L19.4469 25.3217L19.4469 19.1285L21.2675 19.1285L23.0881 21.4051L24.9088 19.1285L26.7294 19.1285L26.7294 25.3216L26.7353 25.3217ZM30.7407 25.4134L28.0083 22.2251L29.8289 22.2251L29.8289 19.1285L31.6495 19.1285L31.6495 22.2251L33.4702 22.2251L30.7407 25.4134Z" fill="#000000" fill-rule="evenodd" opacity="1" stroke="none"/>
</g>
</svg>
