<?xml version="1.0" encoding="UTF-8" standalone="no"?>
<!DOCTYPE svg PUBLIC "-//W3C//DTD SVG 1.1//EN" "http://www.w3.org/Graphics/SVG/1.1/DTD/svg11.dtd"
[
<!ATTLIST g
  xmlns:vectornator CDATA #FIXED "http://vectornator.io"
  vectornator:layerName CDATA #IMPLIED >
<!ATTLIST g
  xmlns:vectornator CDATA #FIXED "http://vectornator.io"
  vectornator:mask CDATA #IMPLIED >
<!ATTLIST text
  xmlns:vectornator CDATA #FIXED "http://vectornator.io"
  vectornator:width CDATA #IMPLIED >
<!ATTLIST text
  xmlns:vectornator CDATA #FIXED "http://vectornator.io"
  vectornator:text CDATA #IMPLIED >

<!ATTLIST path
  xmlns:vectornator CDATA #FIXED "http://vectornator.io"
  vectornator:blendMode CDATA #IMPLIED >
<!ATTLIST path
  xmlns:vectornator CDATA #FIXED "http://vectornator.io"
  vectornator:shadowColor CDATA #IMPLIED >
<!ATTLIST path
  xmlns:vectornator CDATA #FIXED "http://vectornator.io"
  vectornator:shadowOpacity CDATA #IMPLIED >
<!ATTLIST path
  xmlns:vectornator CDATA #FIXED "http://vectornator.io"
  vectornator:shadowRadius CDATA #IMPLIED >
<!ATTLIST path
  xmlns:vectornator CDATA #FIXED "http://vectornator.io"
  vectornator:shadowOffset CDATA #IMPLIED >
<!ATTLIST path
  xmlns:vectornator CDATA #FIXED "http://vectornator.io"
  vectornator:shadowAngle CDATA #IMPLIED >

<!ATTLIST image
  xmlns:vectornator CDATA #FIXED "http://vectornator.io"
  vectornator:blendMode CDATA #IMPLIED >
<!ATTLIST image
  xmlns:vectornator CDATA #FIXED "http://vectornator.io"
  vectornator:shadowColor CDATA #IMPLIED >
<!ATTLIST image
  xmlns:vectornator CDATA #FIXED "http://vectornator.io"
  vectornator:shadowOpacity CDATA #IMPLIED >
<!ATTLIST image
  xmlns:vectornator CDATA #FIXED "http://vectornator.io"
  vectornator:shadowRadius CDATA #IMPLIED >
<!ATTLIST image
  xmlns:vectornator CDATA #FIXED "http://vectornator.io"
  vectornator:shadowOffset CDATA #IMPLIED >
<!ATTLIST image
  xmlns:vectornator CDATA #FIXED "http://vectornator.io"
  vectornator:shadowAngle CDATA #IMPLIED >

<!ATTLIST g
  xmlns:vectornator CDATA #FIXED "http://vectornator.io"
  vectornator:blendMode CDATA #IMPLIED >
<!ATTLIST g
  xmlns:vectornator CDATA #FIXED "http://vectornator.io"
  vectornator:shadowColor CDATA #IMPLIED >
<!ATTLIST g
  xmlns:vectornator CDATA #FIXED "http://vectornator.io"
  vectornator:shadowOpacity CDATA #IMPLIED >
<!ATTLIST g
  xmlns:vectornator CDATA #FIXED "http://vectornator.io"
  vectornator:shadowRadius CDATA #IMPLIED >
<!ATTLIST g
  xmlns:vectornator CDATA #FIXED "http://vectornator.io"
  vectornator:shadowOffset CDATA #IMPLIED >
<!ATTLIST g
  xmlns:vectornator CDATA #FIXED "http://vectornator.io"
  vectornator:shadowAngle CDATA #IMPLIED >

<!ENTITY % SVG.filter.extra.content  "| feDropShadow" >
<!ELEMENT feDropShadow EMPTY>
<!ATTLIST feDropShadow
  xmlns:svg CDATA #FIXED "http://www.w3.org/Graphics/SVG/1.1/DTD/svg11.dtd"
  dx CDATA #IMPLIED>
<!ATTLIST feDropShadow
  xmlns:svg CDATA #FIXED "http://www.w3.org/Graphics/SVG/1.1/DTD/svg11.dtd"
  dy CDATA #IMPLIED>
<!ATTLIST feDropShadow
  xmlns:svg CDATA #FIXED "http://www.w3.org/Graphics/SVG/1.1/DTD/svg11.dtd"
  stdDeviation CDATA #IMPLIED>
<!ATTLIST feDropShadow
  xmlns:svg CDATA #FIXED "http://www.w3.org/Graphics/SVG/1.1/DTD/svg11.dtd"
  flood-opacity CDATA #IMPLIED>
<!ATTLIST feDropShadow
  xmlns:svg CDATA #FIXED "http://www.w3.org/Graphics/SVG/1.1/DTD/svg11.dtd"
  in CDATA #IMPLIED>
<!ATTLIST feDropShadow
  xmlns:svg CDATA #FIXED "http://www.w3.org/Graphics/SVG/1.1/DTD/svg11.dtd"
  result CDATA #IMPLIED>
<!ATTLIST feDropShadow
  xmlns:svg CDATA #FIXED "http://www.w3.org/Graphics/SVG/1.1/DTD/svg11.dtd"
  flood-color CDATA #IMPLIED>
]
>
<!-- Created with Vectornator (http://vectornator.io/) -->
<svg height="100%" stroke-miterlimit="10" style="fill-rule:nonzero;clip-rule:evenodd;stroke-linecap:round;stroke-linejoin:round;" version="1.1" viewBox="0 0 36 36" width="100%" xml:space="preserve" xmlns="http://www.w3.org/2000/svg" xmlns:vectornator="http://vectornator.io" xmlns:xlink="http://www.w3.org/1999/xlink">
<defs/>
<g id="files" vectornator:layerName="files">
<g opacity="1">
<path d="M4.40628 0C1.9609 0.0269597-0.00884471 2.07596 2.98704e-05 4.59375L2.98704e-05 31.4062C-0.00881196 33.9227 1.96218 35.9775 4.40628 36L22.5938 36C23.774 36 24.8865 35.5178 25.7188 34.6562C26.5511 33.7947 27.0376 32.6213 27.0313 31.4062L27.0313 30.5938L25.4375 30.5938L25.4375 31.4062C25.4439 32.1873 25.128 32.9454 24.5938 33.5C24.0596 34.0546 23.3525 34.375 22.5938 34.375L4.40628 34.375C2.83813 34.357 1.58054 33.0208 1.59378 31.4062L1.59378 4.59375C1.58051 2.97783 2.83686 1.64745 4.40628 1.625L22.625 1.625C24.1932 1.64745 25.4552 2.97917 25.4375 4.59375L25.4375 8.3125L25.4375 14.5625L27.0313 14.5625L27.0313 7.21875L27.0313 4.59375C27.0445 2.07729 25.0691 0.0269744 22.625 0L4.40628 0Z" fill="#000000" fill-rule="evenodd" opacity="1" stroke="none"/>
<path d="M5.43753 10.5L5.43753 12.1562L21.5625 12.1562L21.5625 10.5L5.43753 10.5Z" fill="#000000" fill-rule="evenodd" opacity="1" stroke="none"/>
<path d="M31 13.625C30.7748 13.5954 30.5368 13.6575 30.3438 13.8125L28.0313 15.6875L29.1875 17.0938L30.7813 15.7812L33.125 18.7188L31.5313 20L32.6563 21.4062L34.9688 19.5625C35.3569 19.2497 35.4393 18.6681 35.125 18.2812L31.5938 13.9688C31.4377 13.7766 31.2253 13.6546 31 13.625Z" fill="#000000" fill-rule="evenodd" opacity="1" stroke="none"/>
<path d="M5.43753 17.0312L5.43753 18.6875L12.125 18.6875L12.125 17.0312L5.43753 17.0312Z" fill="#000000" fill-rule="evenodd" opacity="1" stroke="none"/>
<path d="M5.43753 23.3125L5.43753 24.9688L12.125 24.9688L12.125 23.3125L5.43753 23.3125Z" fill="#000000" fill-rule="evenodd" opacity="1" stroke="none"/>
<path d="M26.75 16.7188L25.5 17.75L16.3125 25.125C16.1966 25.218 16.0893 25.3008 16.0312 25.4375L13.8438 30.625C13.7064 30.9484 13.75 31.32 13.9375 31.5625C14.125 31.805 14.4649 31.9264 14.8125 31.875C15.5297 31.7689 19.7828 31.1373 20.5 31.0312C20.6586 31.0078 20.8439 30.9444 20.9688 30.8438L27.875 25.2812L26.75 23.875L20.9688 28.5625L18.5625 25.5938L26.625 19.1562L28.9688 22.0625L28.0312 22.8438L29.1562 24.25L30.125 23.4688L31.375 22.4688L30.25 21.0625L27.875 18.125L26.75 16.7188ZM17.4375 26.7812L19.5312 29.375C18.7111 29.4973 17.4017 29.6861 16.125 29.875L17.4375 26.7812Z" fill="#000000" fill-rule="evenodd" opacity="1" stroke="none"/>
</g>
</g>
</svg>
