<?xml version="1.0" encoding="UTF-8" standalone="no"?> <!-- Created with Vectornator for iOS (http://vectornator.io/) --><!DOCTYPE svg PUBLIC "-//W3C//DTD SVG 1.1//EN" "http://www.w3.org/Graphics/SVG/1.1/DTD/svg11.dtd">
<svg height="100%" style="fill-rule:nonzero;clip-rule:evenodd;stroke-linecap:round;stroke-linejoin:round;" xmlns:xlink="http://www.w3.org/1999/xlink" xmlns="http://www.w3.org/2000/svg" xml:space="preserve" width="100%" xmlns:vectornator="http://vectornator.io" version="1.1" viewBox="0 0 36 36">
<metadata>
<vectornator:setting key="DimensionsVisible" value="1"/>
<vectornator:setting key="PencilOnly" value="0"/>
<vectornator:setting key="SnapToPoints" value="0"/>
<vectornator:setting key="GuidesVisible" value="1"/>
<vectornator:setting key="OutlineMode" value="0"/>
<vectornator:setting key="RulersVisible" value="1"/>
<vectornator:setting key="SnapToEdges" value="0"/>
<vectornator:setting key="CMYKEnabledKey" value="0"/>
<vectornator:setting key="DisplayWhiteBackground" value="0"/>
<vectornator:setting key="doHistoryDisabled" value="0"/>
<vectornator:setting key="SnapToGuides" value="1"/>
<vectornator:setting key="TimeLapseWatermarkDisabled" value="0"/>
<vectornator:setting key="Units" value="Points"/>
<vectornator:setting key="DynamicGuides" value="0"/>
<vectornator:setting key="SnapToGrid" value="0"/>
<vectornator:setting key="IsolateActiveLayer" value="0"/>
</metadata>
<defs/>
<g id="Layer 1" vectornator:layerName="Layer 1">
<g opacity="1">
<path d="M36+18L36+18C36+20.6318+33.8665+22.7653+31.2347+22.7653L31.2347+22.7653C28.6029+22.7653+26.4694+20.6318+26.4694+18L26.4694+18C26.4694+15.3682+28.6029+13.2347+31.2347+13.2347L31.2347+13.2347C33.8665+13.2347+36+15.3682+36+18Z" opacity="1" fill="#2f7bb1"/>
<path d="M22.7653+18L22.7653+18C22.7653+20.6318+20.6318+22.7653+18+22.7653L18+22.7653C15.3682+22.7653+13.2347+20.6318+13.2347+18L13.2347+18C13.2347+15.3682+15.3682+13.2347+18+13.2347L18+13.2347C20.6318+13.2347+22.7653+15.3682+22.7653+18Z" opacity="1" fill="#2f7bb1"/>
<path d="M9.5306+18L9.5306+18C9.5306+20.6318+7.3971+22.7653+4.7653+22.7653L4.7653+22.7653C2.1335+22.7653+8.55089e-07+20.6318+6.56393e-07+18L6.56393e-07+18C4.57698e-07+15.3682+2.1335+13.2347+4.7653+13.2347L4.7653+13.2347C7.3971+13.2347+9.5306+15.3682+9.5306+18Z" opacity="1" fill="#2f7bb1"/>
</g>
</g>
</svg>
