<?xml version="1.0" encoding="UTF-8" standalone="no"?> <!-- Created with Vectornator for iOS (http://vectornator.io/) --><!DOCTYPE svg PUBLIC "-//W3C//DTD SVG 1.1//EN" "http://www.w3.org/Graphics/SVG/1.1/DTD/svg11.dtd">
<svg height="100%" style="fill-rule:nonzero;clip-rule:evenodd;stroke-linecap:round;stroke-linejoin:round;" xmlns:xlink="http://www.w3.org/1999/xlink" xmlns="http://www.w3.org/2000/svg" xml:space="preserve" width="100%" xmlns:vectornator="http://vectornator.io" version="1.1" viewBox="0 0 36 36">
<metadata>
<vectornator:setting key="DimensionsVisible" value="1"/>
<vectornator:setting key="PencilOnly" value="0"/>
<vectornator:setting key="SnapToPoints" value="0"/>
<vectornator:setting key="OutlineMode" value="0"/>
<vectornator:setting key="CMYKEnabledKey" value="0"/>
<vectornator:setting key="RulersVisible" value="1"/>
<vectornator:setting key="SnapToEdges" value="0"/>
<vectornator:setting key="GuidesVisible" value="1"/>
<vectornator:setting key="DisplayWhiteBackground" value="0"/>
<vectornator:setting key="doHistoryDisabled" value="0"/>
<vectornator:setting key="SnapToGuides" value="1"/>
<vectornator:setting key="TimeLapseWatermarkDisabled" value="0"/>
<vectornator:setting key="Units" value="Points"/>
<vectornator:setting key="DynamicGuides" value="0"/>
<vectornator:setting key="IsolateActiveLayer" value="0"/>
<vectornator:setting key="SnapToGrid" value="0"/>
</metadata>
<defs/>
<g id="Untitled" vectornator:layerName="Untitled">
<g opacity="1">
<path d="M11.9994+5.40012C11.9994+2.41772+14.6857-7.06422e-07+17.9995-7.06422e-07C21.3133-7.06422e-07+23.9996+2.41772+23.9996+5.40012C23.9996+8.38252+21.3133+10.8002+17.9995+10.8002C14.6857+10.8002+11.9994+8.38252+11.9994+5.40012Z" opacity="1" fill="#2f7bb1"/>
<path d="M12.0004+18.001C12.0004+15.0186+14.6867+12.6009+18.0005+12.6009C21.3143+12.6009+24.0006+15.0186+24.0006+18.001C24.0006+20.9834+21.3143+23.4011+18.0005+23.4011C14.6867+23.4011+12.0004+20.9834+12.0004+18.001Z" opacity="1" fill="#2f7bb1"/>
<path d="M12.0004+30.5999C12.0004+27.6175+14.6867+25.1998+18.0005+25.1998C21.3143+25.1998+24.0006+27.6175+24.0006+30.5999C24.0006+33.5823+21.3143+36+18.0005+36C14.6867+36+12.0004+33.5823+12.0004+30.5999Z" opacity="1" fill="#2f7bb1"/>
</g>
</g>
</svg>
