<svg xmlns="http://www.w3.org/2000/svg" width="304.003" height="202.236" viewBox="0 0 304.003 202.236">
  <path id="email-expanded" d="M304.048,77.64v107.6A25.083,25.083,0,0,1,278.99,210.3H25.1A25.083,25.083,0,0,1,.045,185.244V33.122A25.083,25.083,0,0,1,25.1,8.064H278.99a25.083,25.083,0,0,1,25.058,25.058A6.383,6.383,0,0,1,302.2,37.6l-123.4,123.771a37.571,37.571,0,0,1-26.745,11.117h0a37.564,37.564,0,0,1-26.739-11.079L33.542,69.677A6.345,6.345,0,1,1,42.515,60.7l91.765,91.735a24.956,24.956,0,0,0,17.767,7.361h0a24.994,24.994,0,0,0,17.767-7.386L291.123,30.729a12.38,12.38,0,0,0-12.132-9.975H25.1A12.38,12.38,0,0,0,12.736,33.122V185.244A12.38,12.38,0,0,0,25.1,197.611H278.99a12.38,12.38,0,0,0,12.367-12.367V77.64a6.345,6.345,0,0,1,12.691,0Z" transform="translate(-0.045 -8.064)" fill="#4e5054"/>
</svg>
