<?xml version="1.0" encoding="UTF-8" standalone="no"?> <!-- Created with Vectornator for iOS (http://vectornator.io/) --><!DOCTYPE svg PUBLIC "-//W3C//DTD SVG 1.1//EN" "http://www.w3.org/Graphics/SVG/1.1/DTD/svg11.dtd">
<svg height="100%" style="fill-rule:nonzero;clip-rule:evenodd;stroke-linecap:round;stroke-linejoin:round;" xmlns:xlink="http://www.w3.org/1999/xlink" xmlns="http://www.w3.org/2000/svg" xml:space="preserve" width="100%" xmlns:vectornator="http://vectornator.io" version="1.1" viewBox="0 0 36 36">
<metadata>
<vectornator:setting key="DimensionsVisible" value="1"/>
<vectornator:setting key="PencilOnly" value="0"/>
<vectornator:setting key="SnapToPoints" value="0"/>
<vectornator:setting key="GuidesVisible" value="1"/>
<vectornator:setting key="OutlineMode" value="0"/>
<vectornator:setting key="CMYKEnabledKey" value="0"/>
<vectornator:setting key="SnapToEdges" value="0"/>
<vectornator:setting key="RulersVisible" value="1"/>
<vectornator:setting key="DisplayWhiteBackground" value="0"/>
<vectornator:setting key="doHistoryDisabled" value="0"/>
<vectornator:setting key="TimeLapseWatermarkDisabled" value="0"/>
<vectornator:setting key="SnapToGuides" value="1"/>
<vectornator:setting key="Units" value="Points"/>
<vectornator:setting key="SnapToGrid" value="0"/>
<vectornator:setting key="IsolateActiveLayer" value="0"/>
<vectornator:setting key="DynamicGuides" value="0"/>
</metadata>
<defs/>
<g id="Untitled" vectornator:layerName="Untitled">
<path d="M1.28359+0C0.574856+0.00112532+0+0.576163+0+1.28511C0+1.34813+0.00449986+1.41002+0.0134996+1.47192L0.0123746+1.46516L0.0123746+11.5806C0.0123746+11.5863+0.0123746+11.5919+0.0123746+11.5986C0.0123746+12.3087+0.588356+12.8837+1.29709+12.8837C2.00581+12.8837+2.5818+12.3087+2.5818+11.5986C2.5818+11.5919+2.5818+11.5863+2.5818+11.5795L2.5818+11.5806L2.5818+4.40225L10.668+12.491C10.9009+12.724+11.2215+12.8669+11.5759+12.8669C12.2857+12.8669+12.8606+12.2907+12.8606+11.5818C12.8606+11.2262+12.7166+10.9055+12.4837+10.6725L4.39748+2.58373L11.5748+2.58373C11.5804+2.58373+11.586+2.58373+11.5928+2.58373C12.3026+2.58373+12.8775+2.00757+12.8775+1.29861C12.8775+0.589666+12.3026+0.0135038+11.5928+0.0135038C11.586+0.0135038+11.5804+0.0135038+11.5736+0.0135038L1.45233+0.0135038C1.40171+0.00562658+1.34208+0.00112532+1.28246+0.00112532L1.28359+0ZM34.6794+0.00112532C34.6298+0.00225063+34.5824+0.00675191+34.5365+0.0135038L34.5431+0.0123785L24.4241+0.0123785C24.4185+0.0123785+24.4129+0.0123785+24.4061+0.0123785C23.6963+0.0123785+23.1214+0.587415+23.1214+1.29749C23.1214+2.00757+23.6963+2.5826+24.4061+2.5826C24.4129+2.5826+24.4185+2.5826+24.4252+2.5826L31.6014+2.5826L23.5151+10.6714C23.2823+10.9043+23.1383+11.225+23.1383+11.5806C23.1383+12.2907+23.7143+12.8657+24.4241+12.8657C24.7785+12.8657+25.1002+12.7217+25.3331+12.4899L33.4194+4.40111L33.4194+11.5795C33.4194+11.5851+33.4194+11.5908+33.4194+11.5975C33.4194+12.3076+33.9942+12.8826+34.704+12.8826C35.414+12.8826+35.9886+12.3076+35.9886+11.5975C35.9886+11.5908+35.9886+11.5851+35.9886+11.5784L35.9886+11.5795L35.9886+1.45503C35.9956+1.4044+36+1.34475+36+1.28511C36+0.575036+35.4251+0+34.7154+0C34.7029+0+34.6893+0+34.6771+0.00112532L34.6794+0.00112532ZM1.27796+23.1309C0.575983+23.1421+0.0112496+23.7127+0.0112496+24.416C0.0112496+24.4227+0.0112496+24.4284+0.0112496+24.4351L0.0112496+24.434L0.0112496+34.7159C0.0112496+34.717+0.0112496+34.7184+0.0112496+34.7195C0.0112496+34.7206+0.0112496+34.7217+0.0112496+34.7228C0.0112496+34.7599+0.0134996+34.797+0.0168745+34.833L0.0157495+34.8275C0.0168745+34.8375+0.0168745+34.8433+0.0168745+34.8488L0.0168745+34.8444C0.0202494+34.8826+0.0258742+34.9153+0.0314989+34.9477L0.030374+34.9399C0.0337489+34.9602+0.0359989+34.9726+0.0382489+34.984L0.0371238+34.9759C0.0641229+35.1008+0.105747+35.2122+0.159745+35.3135L0.15637+35.3069C0.164245+35.3238+0.16987+35.3326+0.175494+35.3418L0.17212+35.3348C0.191244+35.3686+0.206994+35.3958+0.224993+35.4226L0.221618+35.4182C0.229493+35.4318+0.235118+35.4395+0.240743+35.4475L0.237368+35.4431C0.309365+35.5453+0.391489+35.6342+0.484859+35.7098L0.48711+35.712C0.490483+35.7142+0.493859+35.7186+0.498359+35.722L0.499483+35.7231C0.708726+35.8887+0.974221+35.9909+1.26334+35.9978L1.26446+35.9978C1.27121+35.9989+1.28133+35.9989+1.29259+35.9989L11.5736+35.9989C11.5793+35.9989+11.5849+35.9989+11.5916+35.9989C12.3015+35.9989+12.8763+35.4237+12.8763+34.7137C12.8763+34.0037+12.3015+33.4288+11.5916+33.4288C11.5849+33.4288+11.5793+33.4288+11.5725+33.4288L4.39748+33.4288L12.4826+25.3399C12.7222+25.1058+12.8707+24.7806+12.8707+24.4194C12.8707+23.7093+12.2959+23.1343+11.586+23.1343C11.5736+23.1343+11.5601+23.1343+11.5478+23.1354L11.55+23.1354C11.2035+23.1455+10.8919+23.2918+10.6669+23.5225L2.58067+31.6113L2.58067+24.4317C2.58067+24.4261+2.58067+24.4205+2.58067+24.4149C2.58067+23.7048+2.00469+23.1298+1.29596+23.1298C1.28921+23.1298+1.28246+23.1298+1.27571+23.1298L1.27683+23.1298L1.27796+23.1309ZM34.686+23.1309C33.984+23.1421+33.4194+23.7127+33.4194+24.416C33.4194+24.4227+33.4194+24.4284+33.4194+24.4351L33.4194+24.434L33.4194+31.6135L25.3331+23.5247C25.0991+23.2839+24.7728+23.1354+24.4117+23.1354C24.4106+23.1354+24.4106+23.1354+24.4106+23.1354C23.7019+23.1365+23.127+23.7115+23.127+24.4205C23.127+24.7817+23.2767+25.1081+23.5163+25.341L31.6014+33.4299L24.4252+33.4299C24.4196+33.4299+24.414+33.4299+24.4072+33.4299C23.6974+33.4299+23.1225+34.0048+23.1225+34.7148C23.1225+35.4248+23.6974+36+24.4072+36C24.414+36+24.4196+36+24.4264+36L34.704+36C34.8391+36+34.9707+35.9787+35.0934+35.9394L35.0842+35.9416C35.0922+35.938+35.0934+35.9369+35.0945+35.9369L35.0875+35.9405C35.136+35.9258+35.1753+35.9111+35.2146+35.8942L35.2069+35.8975C35.2171+35.8931+35.2194+35.892+35.2216+35.8909L35.2146+35.8942C35.2587+35.8751+35.2947+35.8571+35.3296+35.838L35.3226+35.8413C35.3285+35.838+35.3296+35.8358+35.3307+35.8358L35.3274+35.838C35.3935+35.8009+35.4498+35.7638+35.5026+35.722L35.5004+35.7242C35.5195+35.7098+35.5342+35.6973+35.55+35.6838L35.5478+35.6849C35.5771+35.6602+35.6029+35.6353+35.6275+35.6095C35.6286+35.6084+35.6298+35.6073+35.6311+35.6062C35.6874+35.5475+35.7391+35.4835+35.7829+35.4138L35.7862+35.4082C35.7829+35.4149+35.784+35.4138+35.784+35.4138L35.7873+35.4068C35.8064+35.3778+35.8278+35.3418+35.8471+35.3046L35.8505+35.2977C35.8471+35.3046+35.8482+35.3035+35.8482+35.3035L35.8516+35.2966C35.8865+35.229+35.9178+35.1504+35.9405+35.0682L35.9427+35.0593C35.9416+35.0659+35.9416+35.0648+35.9416+35.0626L35.9438+35.0535C35.9695+34.9613+35.9853+34.8566+35.9875+34.7475L35.9875+34.7464C35.9886+34.7397+35.9886+34.7295+35.9886+34.7184L35.9886+24.434C35.9886+24.4284+35.9886+24.4227+35.9886+24.4171C35.9886+23.7071+35.414+23.132+34.704+23.132C34.6974+23.132+34.6904+23.132+34.6838+23.132L34.6849+23.132L34.686+23.1309Z" opacity="1" fill="#2f7bb1"/>
</g>
</svg>
