<?xml version="1.0" encoding="UTF-8" standalone="no"?> <!-- Created with Vectornator for iOS (http://vectornator.io/) --><!DOCTYPE svg PUBLIC "-//W3C//DTD SVG 1.1//EN" "http://www.w3.org/Graphics/SVG/1.1/DTD/svg11.dtd">
<svg height="100%" style="fill-rule:nonzero;clip-rule:evenodd;stroke-linecap:round;stroke-linejoin:round;" xmlns:xlink="http://www.w3.org/1999/xlink" xmlns="http://www.w3.org/2000/svg" xml:space="preserve" width="100%" xmlns:vectornator="http://vectornator.io" version="1.1" viewBox="0 0 36 36">
<metadata>
<vectornator:setting key="DimensionsVisible" value="1"/>
<vectornator:setting key="PencilOnly" value="0"/>
<vectornator:setting key="SnapToPoints" value="0"/>
<vectornator:setting key="OutlineMode" value="0"/>
<vectornator:setting key="CMYKEnabledKey" value="0"/>
<vectornator:setting key="RulersVisible" value="1"/>
<vectornator:setting key="SnapToEdges" value="0"/>
<vectornator:setting key="GuidesVisible" value="1"/>
<vectornator:setting key="DisplayWhiteBackground" value="0"/>
<vectornator:setting key="doHistoryDisabled" value="0"/>
<vectornator:setting key="SnapToGuides" value="1"/>
<vectornator:setting key="TimeLapseWatermarkDisabled" value="0"/>
<vectornator:setting key="Units" value="Points"/>
<vectornator:setting key="DynamicGuides" value="0"/>
<vectornator:setting key="IsolateActiveLayer" value="0"/>
<vectornator:setting key="SnapToGrid" value="0"/>
</metadata>
<defs/>
<g id="Untitled" vectornator:layerName="Untitled">
<g opacity="1">
<path d="M33.9999+16C33.4695+16+32.961+16.2107+32.5857+16.5858C32.2107+16.9609+32.0001+17.4696+32.0001+18L32.0001+30C32.0001+30.5304+31.7892+31.0392+31.4142+31.4142C31.0392+31.7892+30.5304+32.0001+30+32.0001L6+32.0001C5.46957+32.0001+4.96086+31.7892+4.5858+31.4142C4.21071+31.0392+3.99999+30.5304+3.99999+30L3.99999+6C3.99999+5.46957+4.21071+4.96086+4.5858+4.5858C4.96086+4.21071+5.46957+3.99999+6+3.99999L18+3.99999C18.5304+3.99999+19.0391+3.7893+19.4142+3.41421C19.7893+3.03915+20+2.53043+20+2C20+1.46957+19.7893+0.960858+19.4142+0.585786C19.0391+0.210714+18.5304+0+18+0L6+0C4.40871+0+2.88258+0.632142+1.75736+1.75736C0.632142+2.88258+0+4.40871+0+6L0+30C0+31.5912+0.632142+33.1173+1.75736+34.2426C2.88258+35.3679+4.40871+36+6+36L30+36C31.5912+36+33.1173+35.3679+34.2426+34.2426C35.3679+33.1173+36+31.5912+36+30L36+18C36+17.4696+35.7894+16.9609+35.4141+16.5858C35.0391+16.2107+34.5303+16+33.9999+16Z" opacity="1" fill="#2f7bb1"/>
<path d="M26+3.99999L29.16+3.99999L16.58+16.56C16.3925+16.7459+16.2437+16.9671+16.1422+17.2108C16.0407+17.4546+15.9884+17.716+15.9884+17.98C15.9884+18.244+16.0407+18.5054+16.1422+18.7492C16.2437+18.9929+16.3925+19.2141+16.58+19.4C16.7659+19.5875+16.9871+19.7363+17.2309+19.8378C17.4746+19.9393+17.736+19.9916+18+19.9916C18.264+19.9916+18.5254+19.9393+18.7691+19.8378C19.0129+19.7363+19.2341+19.5875+19.42+19.4L32.0001+6.84L32.0001+9.99999C32.0001+10.5304+32.2107+11.0391+32.5857+11.4142C32.961+11.7893+33.4695+12+33.9999+12C34.5303+12+35.0391+11.7893+35.4141+11.4142C35.7894+11.0391+36+10.5304+36+9.99999L36+2C36+1.46957+35.7894+0.960858+35.4141+0.585786C35.0391+0.210714+34.5303+0+33.9999+0L26+0C25.4696+0+24.9609+0.210714+24.5858+0.585786C24.2107+0.960858+24+1.46957+24+2C24+2.53043+24.2107+3.03915+24.5858+3.41421C24.9609+3.7893+25.4696+3.99999+26+3.99999Z" opacity="1" fill="#2f7bb1"/>
</g>
</g>
</svg>
