<?xml version="1.0" encoding="UTF-8" standalone="no"?>
<!DOCTYPE svg PUBLIC "-//W3C//DTD SVG 1.1//EN" "http://www.w3.org/Graphics/SVG/1.1/DTD/svg11.dtd">
<!-- Created with Vectornator (http://vectornator.io/) -->
<svg stroke-miterlimit="10" style="fill-rule:nonzero;clip-rule:evenodd;stroke-linecap:round;stroke-linejoin:round;" version="1.1" viewBox="0 0 36 36" xml:space="preserve" xmlns="http://www.w3.org/2000/svg" xmlns:xlink="http://www.w3.org/1999/xlink">
<defs/>
<g id="Layer-1">
<path d="M18 4.3125C4.31552 4.3125 1.28613e-07 16.8405 0 18C0.00245074 18.4032 0.31559 18.7162 0.71875 18.7188C1.12859 18.7217 1.48066 18.4094 1.5 18C1.56017 16.8134 5.79666 5.8125 18 5.8125C30.2033 5.8125 34.4392 16.8263 34.5 18C34.4384 19.1873 30.1885 30.1875 17.9688 30.1875C14.3687 30.2612 10.8455 29.1547 7.9375 27.0312C7.72249 26.8623 7.43915 26.8306 7.1875 26.9375C6.93585 27.0444 6.77767 27.2592 6.75 27.5312C6.72232 27.8033 6.83754 28.0633 7.0625 28.2188C10.1378 30.4666 13.847 31.6914 17.6562 31.6875L18 31.6875C31.6838 31.6875 36 19.1583 36 18C36 16.8405 31.6845 4.3125 18 4.3125ZM18 8.625C12.8223 8.6248 8.62515 12.8223 8.625 18C8.62485 23.1777 12.8223 27.3749 18 27.375C23.1777 27.3751 27.3749 23.1777 27.375 18C27.3585 15.5218 26.3874 13.1484 24.6562 11.375C24.4726 11.1748 24.2019 11.0936 23.9375 11.1562C23.6731 11.2189 23.4493 11.4262 23.375 11.6875C23.3007 11.9488 23.3707 12.2139 23.5625 12.4062C25.0258 13.9013 25.8577 15.9081 25.875 18C25.875 22.3493 22.3493 25.875 18 25.875C13.6507 25.875 10.125 22.3493 10.125 18C10.125 13.6507 13.6507 10.125 18 10.125C18.4142 10.125 18.75 9.78923 18.75 9.375C18.75 8.96077 18.4142 8.625 18 8.625Z" fill="#ff4f1f" fill-rule="nonzero" opacity="1" stroke="none"/>
</g>
</svg>
