<?xml version="1.0" encoding="UTF-8" standalone="no"?> <!-- Created with Vectornator for iOS (http://vectornator.io/) --><!DOCTYPE svg PUBLIC "-//W3C//DTD SVG 1.1//EN" "http://www.w3.org/Graphics/SVG/1.1/DTD/svg11.dtd">
<svg height="100%" style="fill-rule:nonzero;clip-rule:evenodd;stroke-linecap:round;stroke-linejoin:round;" xmlns:xlink="http://www.w3.org/1999/xlink" xmlns="http://www.w3.org/2000/svg" xml:space="preserve" width="100%" xmlns:vectornator="http://vectornator.io" version="1.1" viewBox="0 0 36 36">
<metadata>
<vectornator:setting key="DimensionsVisible" value="1"/>
<vectornator:setting key="PencilOnly" value="0"/>
<vectornator:setting key="SnapToPoints" value="0"/>
<vectornator:setting key="GuidesVisible" value="1"/>
<vectornator:setting key="OutlineMode" value="0"/>
<vectornator:setting key="RulersVisible" value="1"/>
<vectornator:setting key="SnapToEdges" value="0"/>
<vectornator:setting key="CMYKEnabledKey" value="0"/>
<vectornator:setting key="DisplayWhiteBackground" value="0"/>
<vectornator:setting key="doHistoryDisabled" value="0"/>
<vectornator:setting key="SnapToGuides" value="1"/>
<vectornator:setting key="TimeLapseWatermarkDisabled" value="0"/>
<vectornator:setting key="Units" value="Points"/>
<vectornator:setting key="DynamicGuides" value="0"/>
<vectornator:setting key="SnapToGrid" value="0"/>
<vectornator:setting key="IsolateActiveLayer" value="0"/>
</metadata>
<defs/>
<g id="Layer 1" vectornator:layerName="Layer 1">
<g opacity="1">
<path d="M31.2347+36L31.2347+36C28.6029+36+26.4694+33.8665+26.4694+31.2347L26.4694+31.2347C26.4694+28.6029+28.6029+26.4694+31.2347+26.4694L31.2347+26.4694C33.8665+26.4694+36+28.6029+36+31.2347L36+31.2347C36+33.8665+33.8665+36+31.2347+36Z" opacity="1" fill="#2f7bb1"/>
<path d="M31.2347+22.7653L31.2347+22.7653C28.6029+22.7653+26.4694+20.6318+26.4694+18L26.4694+18C26.4694+15.3682+28.6029+13.2347+31.2347+13.2347L31.2347+13.2347C33.8665+13.2347+36+15.3682+36+18L36+18C36+20.6318+33.8665+22.7653+31.2347+22.7653Z" opacity="1" fill="#2f7bb1"/>
<path d="M31.2347+9.53059L31.2347+9.53059C28.6029+9.53059+26.4694+7.3971+26.4694+4.7653L26.4694+4.7653C26.4694+2.13349+28.6029-2.69316e-06+31.2347-3.09055e-06L31.2347-3.09055e-06C33.8665-3.48794e-06+36+2.13349+36+4.76529L36+4.76529C36+7.3971+33.8665+9.53059+31.2347+9.53059Z" opacity="1" fill="#2f7bb1"/>
<path d="M9.06056e-07+31.2347L9.06056e-07+31.2347C3.09969e-07+28.6029+2.1335+26.4694+4.7653+26.4694L4.7653+26.4694C7.3971+26.4694+9.5306+28.6029+9.5306+31.2347L9.5306+31.2347C9.5306+33.8665+7.3971+36+4.7653+36L4.7653+36C2.1335+36+1.50214e-06+33.8665+9.06056e-07+31.2347Z" opacity="1" fill="#2f7bb1"/>
<path d="M13.2347+31.2347L13.2347+31.2347C13.2347+28.6029+15.3682+26.4694+18+26.4694L18+26.4694C20.6318+26.4694+22.7653+28.6029+22.7653+31.2347L22.7653+31.2347C22.7653+33.8665+20.6318+36+18+36L18+36C15.3682+36+13.2347+33.8665+13.2347+31.2347Z" opacity="1" fill="#2f7bb1"/>
<path d="M13.238+18.0033L13.238+18.0033C13.238+15.3715+15.3715+13.238+18.0033+13.238L18.0033+13.238C20.6351+13.238+22.7686+15.3715+22.7686+18.0033L22.7686+18.0033C22.7686+20.6351+20.6351+22.7686+18.0033+22.7686L18.0033+22.7686C15.3715+22.7686+13.238+20.6351+13.238+18.0033Z" opacity="1" fill="#2f7bb1"/>
</g>
</g>
</svg>
