<?xml version="1.0" encoding="UTF-8" standalone="no"?> <!-- Created with Vectornator for iOS (http://vectornator.io/) --><!DOCTYPE svg PUBLIC "-//W3C//DTD SVG 1.1//EN" "http://www.w3.org/Graphics/SVG/1.1/DTD/svg11.dtd">
<svg height="100%" style="fill-rule:nonzero;clip-rule:evenodd;stroke-linecap:round;stroke-linejoin:round;" xmlns:xlink="http://www.w3.org/1999/xlink" xmlns="http://www.w3.org/2000/svg" xml:space="preserve" width="100%" xmlns:vectornator="http://vectornator.io" version="1.1" viewBox="0 0 36 36">
<metadata>
<vectornator:setting key="DimensionsVisible" value="1"/>
<vectornator:setting key="PencilOnly" value="0"/>
<vectornator:setting key="SnapToPoints" value="0"/>
<vectornator:setting key="GuidesVisible" value="1"/>
<vectornator:setting key="OutlineMode" value="0"/>
<vectornator:setting key="RulersVisible" value="1"/>
<vectornator:setting key="SnapToEdges" value="0"/>
<vectornator:setting key="CMYKEnabledKey" value="0"/>
<vectornator:setting key="DisplayWhiteBackground" value="0"/>
<vectornator:setting key="doHistoryDisabled" value="0"/>
<vectornator:setting key="SnapToGuides" value="1"/>
<vectornator:setting key="TimeLapseWatermarkDisabled" value="0"/>
<vectornator:setting key="Units" value="Points"/>
<vectornator:setting key="DynamicGuides" value="0"/>
<vectornator:setting key="SnapToGrid" value="0"/>
<vectornator:setting key="IsolateActiveLayer" value="0"/>
</metadata>
<defs/>
<g id="Layer 1" vectornator:layerName="Layer 1">
<g opacity="1">
<path d="M36+4.7653L36+4.7653C36+7.3971+33.8665+9.5306+31.2347+9.5306L31.2347+9.5306C28.6029+9.5306+26.4694+7.3971+26.4694+4.7653L26.4694+4.7653C26.4694+2.1335+28.6029-1.22523e-06+31.2347-1.42393e-06L31.2347-1.42393e-06C33.8665-1.62262e-06+36+2.13349+36+4.7653Z" opacity="1" fill="#2f7bb1"/>
<path d="M22.7653+4.7653L22.7653+4.7653C22.7653+7.3971+20.6318+9.5306+18+9.5306L18+9.5306C15.3682+9.5306+13.2347+7.3971+13.2347+4.7653L13.2347+4.7653C13.2347+2.1335+15.3682-2.26041e-07+18-4.24737e-07L18-4.24737e-07C20.6318-6.23432e-07+22.7653+2.1335+22.7653+4.7653Z" opacity="1" fill="#2f7bb1"/>
<path d="M9.5306+4.7653L9.5306+4.7653C9.5306+7.3971+7.3971+9.5306+4.7653+9.5306L4.7653+9.5306C2.1335+9.5306-5.61872e-07+7.3971-7.60567e-07+4.7653L-7.60567e-07+4.7653C-9.59263e-07+2.1335+2.1335+7.73151e-07+4.7653+5.74455e-07L4.7653+5.74455e-07C7.3971+3.7576e-07+9.5306+2.1335+9.5306+4.7653Z" opacity="1" fill="#2f7bb1"/>
<path d="M31.2347+36L31.2347+36C28.6029+36+26.4694+33.8665+26.4694+31.2347L26.4694+31.2347C26.4694+28.6029+28.6029+26.4694+31.2347+26.4694L31.2347+26.4694C33.8665+26.4694+36+28.6029+36+31.2347L36+31.2347C36+33.8665+33.8665+36+31.2347+36Z" opacity="1" fill="#2f7bb1"/>
<path d="M31.2347+22.7653L31.2347+22.7653C28.6029+22.7653+26.4694+20.6318+26.4694+18L26.4694+18C26.4694+15.3682+28.6029+13.2347+31.2347+13.2347L31.2347+13.2347C33.8665+13.2347+36+15.3682+36+18L36+18C36+20.6318+33.8665+22.7653+31.2347+22.7653Z" opacity="1" fill="#2f7bb1"/>
<path d="M18.0033+22.762L18.0033+22.762C15.3715+22.762+13.238+20.6285+13.238+17.9967L13.238+17.9967C13.238+15.3649+15.3715+13.2314+18.0033+13.2314L18.0033+13.2314C20.6351+13.2314+22.7686+15.3649+22.7686+17.9967L22.7686+17.9967C22.7686+20.6285+20.6351+22.762+18.0033+22.762Z" opacity="1" fill="#2f7bb1"/>
</g>
</g>
</svg>
