<?xml version="1.0" encoding="UTF-8" standalone="no"?> <!-- Created with Vectornator for iOS (http://vectornator.io/) --><!DOCTYPE svg PUBLIC "-//W3C//DTD SVG 1.1//EN" "http://www.w3.org/Graphics/SVG/1.1/DTD/svg11.dtd">
<svg height="100%" xmlns:xlink="http://www.w3.org/1999/xlink" viewBox="0 0 36 36" xmlns="http://www.w3.org/2000/svg" xmlns:vectornator="http://vectornator.io" width="100%" xml:space="preserve" version="1.1" style="fill-rule:nonzero;clip-rule:evenodd;stroke-linecap:round;stroke-linejoin:round;">
<metadata>
<vectornator:setting value="false" key="WDIsolateActiveLayer"/>
<vectornator:setting key="UndoHistoryDisabled" value="false"/>
<vectornator:setting key="IsTimeLapseWatermarkDisabled" value="false"/>
<vectornator:setting key="WDUnits" value="Points"/>
<vectornator:setting key="WDSnapToPoints" value="false"/>
<vectornator:setting key="WDSnapToEdges" value="false"/>
<vectornator:setting value="false" key="WDSnapToGrid"/>
<vectornator:setting key="VNSnapToGuides" value="true"/>
<vectornator:setting value="false" key="VNPencilOnly"/>
<vectornator:setting value="false" key="WDDynamicGuides"/>
<vectornator:setting value="false" key="WDCMYKEnabledKey"/>
<vectornator:setting value="true" key="WDRulersVisible"/>
<vectornator:setting key="WDDisplayWhiteBackground" value="false"/>
<vectornator:setting value="true" key="VNDimensionsVisible"/>
<vectornator:setting key="WDGuidesVisible" value="true"/>
<vectornator:setting key="WDOutlineMode" value="false"/>
</metadata>
<defs/>
<g vectornator:layerName="Untitled" id="Untitled">
<g opacity="1">
<path fill="#ff4f1f" d="M21.825+9.7875L20.8125+10.8562L31.8375+21.6562C32.1479+21.9687+32.3438+22.3875+32.3438+22.8375C32.3438+23.2876+32.1548+23.7557+31.8375+24.075C31.5216+24.3889+31.05+24.525+30.6+24.525C30.1499+24.525+29.738+24.336+29.4187+24.0187L22.6125+17.2125L21.5437+18.2812L28.35+25.0875C28.9522+25.6859+29.7534+26.0437+30.6+26.0437C31.4465+26.0437+32.3058+25.6842+32.9062+25.0875C33.5063+24.4836+33.8062+23.6841+33.8062+22.8375C33.8062+21.991+33.503+21.188+32.9062+20.5875L21.825+9.7875Z" opacity="1"/>
<path fill="#ff4f1f" opacity="1" d="M24.075+18.675L23.0063+19.7437L29.8688+26.6062C30.0265+26.7636+30.121+26.9634+30.2063+27.1687C30.2912+27.3737+30.375+27.5656+30.375+27.7875C30.375+28.0094+30.2914+28.257+30.2063+28.4625C30.1212+28.6672+30.0258+28.8681+29.8688+29.025C29.5507+29.3411+29.1376+29.475+28.6875+29.475C28.2374+29.475+27.7693+29.286+27.45+28.9688L19.9688+21.4875L18.9+22.5562L26.3813+30.0375C26.9835+30.6359+27.8409+30.9938+28.6875+30.9937C29.5341+30.9937+30.337+30.6343+30.9375+30.0375C31.2354+29.7401+31.4517+29.4122+31.6125+29.025C31.7733+28.637+31.8375+28.2067+31.8375+27.7875C31.8375+27.3683+31.7731+26.9938+31.6125+26.6062C31.4514+26.2183+31.2342+25.8335+30.9375+25.5375L24.075+18.675Z"/>
<path d="M18.9+20.4187L17.8313+21.4875L25.3125+28.9688C25.6257+29.2858+25.8187+29.7559+25.8188+30.2062C25.8188+30.6565+25.6289+31.0672+25.3125+31.3875C24.9987+31.6975+24.5816+31.8937+24.1313+31.8937C23.681+31.8937+23.2703+31.7039+22.95+31.3875L15.6937+24.1875L14.6813+25.2562L21.8813+32.4562C22.4858+33.0535+23.2861+33.3562+24.1313+33.3563C24.9765+33.3563+25.7799+33.0503+26.3813+32.4562C26.9817+31.8485+27.3375+31.0514+27.3375+30.2062C27.3375+29.361+26.9753+28.5576+26.3813+27.9562L18.9+20.4187Z" fill="#ff4f1f" opacity="1"/>
<path opacity="1" d="M18.1687+26.6625L17.1+27.675L19.6875+30.2625C20.0031+30.5801+20.1375+30.9938+20.1375+31.4437C20.1375+31.8939+20.0048+32.3058+19.6875+32.625C19.3716+32.9389+18.9+33.1312+18.45+33.1312C17.9999+33.1312+17.588+32.9423+17.2688+32.625L16.9875+32.3438L15.9188+33.4125L16.2+33.6937C16.8091+34.2992+17.6033+34.65+18.45+34.65C19.2965+34.65+20.1558+34.2905+20.7563+33.6937C21.3563+33.0899+21.6562+32.2904+21.6562+31.4437C21.6562+30.5973+21.353+29.7943+20.7563+29.1937L18.1687+26.6625Z" fill="#ff4f1f"/>
<path d="M18.3375+1.35C17.1608+1.35091+16.0188+1.8116+15.1875+2.64375L9.9+7.93125L9.9+8.2125C9.90266+8.99314+10.2471+9.7427+10.8+10.2937C11.353+10.8448+12.1006+11.1375+12.8812+11.1375L15.4688+11.1375C16.2488+11.1317+16.995+10.8339+17.55+10.2937L19.9125+7.875L18.9+6.80625L16.4812+9.225C16.2135+9.48544+15.856+9.67211+15.4688+9.675L12.8812+9.675C12.4979+9.675+12.1403+9.49563+11.8688+9.225C11.6588+9.01577+11.5842+8.72505+11.5312+8.4375L16.2563+3.7125C16.8065+3.16167+17.5594+2.86935+18.3375+2.86875L24.4688+2.86875C25.2462+2.86935+26+3.16194+26.55+3.7125L32.4563+8.4375C33.0652+9.0521+33.6123+9.81268+33.975+10.6875C34.3377+11.5623+34.4813+12.5529+34.4813+13.5C34.4813+14.4471+34.3377+15.3815+33.975+16.2562C33.6123+17.1311+33.0701+17.8932+32.4+18.5625L31.1062+19.8562L32.175+20.925L33.4688+19.6312C34.2765+18.8244+34.8867+17.8758+35.325+16.8187C35.7633+15.7617+36+14.6444+36+13.5C36+12.3556+35.7633+11.1821+35.325+10.125C34.8867+9.06795+34.2784+8.12121+33.4688+7.3125L27.5625+2.5875C26.7929+1.81064+25.6448+1.35091+24.4688+1.35L18.3375+1.35Z" fill="#ff4f1f" opacity="1"/>
<path opacity="1" d="M13.2188+27.5062C12.5618+27.5062+11.92+27.7925+11.4188+28.2937L10.5188+29.1937C9.51621+30.1963+9.51623+31.7912+10.5188+32.7938C11.5213+33.7963+13.1162+33.7963+14.1188+32.7938C14.2309+32.6816+14.9065+32.006+15.0188+31.8937C16.0212+30.8911+16.0213+29.2963+15.0188+28.2937C14.5175+27.7925+13.8757+27.5063+13.2188+27.5062ZM12.4313+29.3625C12.8475+28.9462+13.5337+28.9462+13.95+29.3625C14.3663+29.7788+14.3662+30.4087+13.95+30.825C13.8379+30.9371+13.1621+31.6129+13.05+31.725C12.6337+32.1413+12.0038+32.1412+11.5875+31.725C11.1713+31.3088+11.1713+30.6787+11.5875+30.2625L12.4313+29.3625Z" fill="#ff4f1f"/>
<path fill="#ff4f1f" d="M10.5188+24.8062C9.86176+24.8063+9.22001+25.0925+8.71875+25.5938L7.81875+26.4937C6.81619+27.4963+6.81621+29.0912+7.81875+30.0938C8.82128+31.0963+10.4162+31.0963+11.4188+30.0938C11.5309+29.9816+12.2066+29.3059+12.3187+29.1937C13.3212+28.1911+13.3213+26.5963+12.3187+25.5938C11.8175+25.0925+11.1757+24.8062+10.5188+24.8062ZM9.73125+26.6625C10.1475+26.2462+10.8338+26.2463+11.25+26.6625C11.6663+27.0788+11.6663+27.7086+11.25+28.125C11.1379+28.2371+10.4621+28.9129+10.35+29.025C9.93373+29.4413+9.24751+29.4413+8.83125+29.025C8.415+28.6088+8.415+27.9787+8.83125+27.5625L9.73125+26.6625Z" opacity="1"/>
<path d="M7.875+22.1625C7.21802+22.1625+6.52002+22.4487+6.01875+22.95L5.175+23.85C4.17246+24.8528+4.17247+26.4475+5.175+27.45C6.17751+28.4525+7.77246+28.4525+8.775+27.45C8.88711+27.3379+9.56287+26.6621+9.675+26.55C10.6775+25.5475+10.6775+23.9525+9.675+22.95C9.17373+22.4487+8.53198+22.1625+7.875+22.1625ZM7.0875+24.0187C7.50377+23.6025+8.18999+23.6025+8.60625+24.0187C9.0225+24.435+9.02249+25.065+8.60625+25.4812C8.49413+25.5934+7.81837+26.2691+7.70625+26.3812C7.28998+26.7975+6.60374+26.7975+6.1875+26.3812C5.77123+25.965+5.77117+25.3352+6.1875+24.9187L7.0875+24.0187Z" opacity="1" fill="#ff4f1f"/>
<path d="M5.4+19.5187C4.74302+19.5188+4.10127+19.7487+3.6+20.25L2.7+21.15C1.6975+22.1525+1.69746+23.8037+2.7+24.8062C3.70241+25.8089+5.29743+25.8088+6.3+24.8062C6.41216+24.6941+7.08791+24.0184+7.2+23.9062C8.20254+22.9037+8.20254+21.2525+7.2+20.25C6.69873+19.7487+6.05698+19.5187+5.4+19.5187ZM4.66875+21.3187C5.08497+20.9025+5.77124+20.9025+6.1875+21.3187C6.60375+21.735+6.60379+22.4212+6.1875+22.8375C6.07537+22.9496+5.39963+23.6254+5.2875+23.7375C4.87128+24.1537+4.18497+24.1538+3.76875+23.7375C3.35242+23.3212+3.3525+22.635+3.76875+22.2188L4.66875+21.3187Z" fill="#ff4f1f" opacity="1"/>
<path opacity="1" d="M1.06875+16.65L0+17.7188L3.6+21.3187L4.66875+20.25L1.06875+16.65Z" fill="#ff4f1f"/>
</g>
</g>
</svg>
