<?xml version="1.0" encoding="UTF-8" standalone="no"?> <!-- Created with Vectornator for iOS (http://vectornator.io/) --><!DOCTYPE svg PUBLIC "-//W3C//DTD SVG 1.1//EN" "http://www.w3.org/Graphics/SVG/1.1/DTD/svg11.dtd">
<svg height="100%" style="fill-rule:nonzero;clip-rule:evenodd;stroke-linecap:round;stroke-linejoin:round;" xmlns:xlink="http://www.w3.org/1999/xlink" xmlns="http://www.w3.org/2000/svg" xml:space="preserve" width="100%" xmlns:vectornator="http://vectornator.io" version="1.1" viewBox="0 0 36 36">
<metadata>
<vectornator:setting key="DimensionsVisible" value="1"/>
<vectornator:setting key="PencilOnly" value="0"/>
<vectornator:setting key="SnapToPoints" value="0"/>
<vectornator:setting key="OutlineMode" value="0"/>
<vectornator:setting key="CMYKEnabledKey" value="0"/>
<vectornator:setting key="RulersVisible" value="1"/>
<vectornator:setting key="SnapToEdges" value="0"/>
<vectornator:setting key="GuidesVisible" value="1"/>
<vectornator:setting key="DisplayWhiteBackground" value="0"/>
<vectornator:setting key="doHistoryDisabled" value="0"/>
<vectornator:setting key="SnapToGuides" value="1"/>
<vectornator:setting key="TimeLapseWatermarkDisabled" value="0"/>
<vectornator:setting key="Units" value="Points"/>
<vectornator:setting key="DynamicGuides" value="0"/>
<vectornator:setting key="IsolateActiveLayer" value="0"/>
<vectornator:setting key="SnapToGrid" value="0"/>
</metadata>
<defs/>
<g id="Untitled" vectornator:layerName="Untitled">
<path d="M18+0C8.05956+0+0+8.06247+0+18C0+27.9434+8.05956+36+18+36C27.9404+36+36+27.9434+36+18C36+8.06247+27.9404+0+18+0ZM18+7.98387C19.6836+7.98387+21.0484+9.34869+21.0484+11.0323C21.0484+12.7158+19.6836+14.0806+18+14.0806C16.3164+14.0806+14.9516+12.7158+14.9516+11.0323C14.9516+9.34869+16.3164+7.98387+18+7.98387ZM22.0645+26.4194C22.0645+26.9004+21.6745+27.2903+21.1935+27.2903L14.8065+27.2903C14.3255+27.2903+13.9355+26.9004+13.9355+26.4194L13.9355+24.6774C13.9355+24.1964+14.3255+23.8065+14.8065+23.8065L15.6774+23.8065L15.6774+19.1613L14.8065+19.1613C14.3255+19.1613+13.9355+18.7713+13.9355+18.2903L13.9355+16.5484C13.9355+16.0674+14.3255+15.6774+14.8065+15.6774L19.4516+15.6774C19.9326+15.6774+20.3226+16.0674+20.3226+16.5484L20.3226+23.8065L21.1935+23.8065C21.6745+23.8065+22.0645+24.1964+22.0645+24.6774L22.0645+26.4194Z" opacity="1" fill="#2f7bb1"/>
</g>
</svg>
