<?xml version="1.0" encoding="UTF-8" standalone="no"?>
<!DOCTYPE svg PUBLIC "-//W3C//DTD SVG 1.1//EN" "http://www.w3.org/Graphics/SVG/1.1/DTD/svg11.dtd">
<!-- Created with Vectornator (http://vectornator.io/) -->
<svg height="100%" stroke-miterlimit="10" style="fill-rule:nonzero;clip-rule:evenodd;stroke-linecap:round;stroke-linejoin:round;" version="1.1" viewBox="0 0 36.004 36" width="100%" xml:space="preserve" xmlns="http://www.w3.org/2000/svg" xmlns:vectornator="http://vectornator.io" xmlns:xlink="http://www.w3.org/1999/xlink">
<defs/>
<g id="Untitled" vectornator:layerName="Untitled">
<path d="M8.21875 25.0625C6.67461 25.0625 5.40625 26.2996 5.40625 27.8438C5.40625 29.3879 6.67461 30.6563 8.21875 30.6562C9.76289 30.6562 11 29.3879 11 27.8438C11 26.2996 9.76289 25.0625 8.21875 25.0625ZM8.21875 26.6562C8.87924 26.6562 9.40625 27.1833 9.40625 27.8438C9.40625 28.5042 8.87923 29.0625 8.21875 29.0625C7.55826 29.0625 7 28.5042 7 27.8438C7 27.1833 7.55826 26.6562 8.21875 26.6562ZM31.0312 0.21875C30.5933 0.335227 30.1731 0.527948 29.8125 0.75C29.6849 0.828552 29.5678 0.893586 29.4688 0.96875C29.4108 1.01342 29.3293 1.10927 29.3125 1.125L29.2812 1.125C29.2763 1.13011 29.2953 1.14137 29.2812 1.15625C29.2543 1.18698 29.2391 1.19243 29.2188 1.21875L18.4062 12.0938C18.0947 12.4071 18.0929 12.9072 18.4062 13.2188C18.7196 13.5303 19.2197 13.5321 19.5312 13.2188L30.4062 2.28125C30.4046 2.28268 30.4264 2.26079 30.4375 2.25C30.5998 2.08671 30.5316 1.88356 30.5312 1.6875L30.6562 1.8125C30.4823 2.21396 30.4954 2.18833 30.4688 2.21875C30.5215 2.18011 30.5874 2.13614 30.6562 2.09375C30.8919 1.94864 31.1624 1.85441 31.4375 1.78125C32.1897 1.58117 32.8816 1.72534 33.5938 2.4375C34.512 3.35574 34.5545 4.25365 34.0938 5.125C33.9879 5.32513 33.8962 5.44135 33.8438 5.5L32 7.46875C31.6968 7.79304 31.7361 8.29275 32.0625 8.59375L33.5312 9.9375C33.1564 10.3234 32.9497 10.5392 32.5938 10.9062C32.0537 10.4027 31.1115 9.51558 31.0625 9.46875C30.7455 9.1657 30.2439 9.18621 29.9375 9.5L28.5 10.9688C28.1892 11.2871 28.1785 11.7861 28.5 12.0938L30.0625 13.5938L29.0625 14.5938L27.5 13.0625C27.1863 12.7573 26.6843 12.7528 26.375 13.0625L18.9688 20.5C18.6565 20.8126 18.6561 21.3128 18.9688 21.625C19.2814 21.9372 19.7815 21.9376 20.0938 21.625L26.9375 14.75L28.5312 16.2812C28.8485 16.5899 29.3484 16.5993 29.6562 16.2812L31.75 14.125C32.0586 13.8063 32.0705 13.2755 31.75 12.9688L30.2188 11.5L30.5312 11.1562C31.0255 11.6221 31.6232 12.1974 31.75 12.3125C31.8601 12.4124 31.9654 12.5068 32.0312 12.5625C32.0847 12.6073 32.0634 12.6093 32.125 12.6562C32.1627 12.6837 32.1673 12.6708 32.25 12.7188C32.3133 12.7521 32.3051 12.7668 32.4688 12.8125C32.8025 12.8666 32.8082 12.8626 33.3438 12.375C33.2884 12.4875 33.4471 12.3261 33.3125 12.4688C33.3642 12.414 35.1554 10.5333 35.2188 10.4688C35.5347 10.1464 35.5505 9.64974 35.2188 9.34375L33.7188 8L35.0312 6.59375C35.1764 6.43162 35.3589 6.1697 35.5312 5.84375C36.2945 4.40028 36.1858 2.77956 34.7188 1.3125C33.5869 0.180663 32.3154-0.122796 31.0312 0.21875ZM10.5312 15.2188C4.8431 15.2188 0.218749 19.8119 0.21875 25.5C0.21875 31.1881 4.8431 35.8125 10.5312 35.8125C16.2194 35.8125 20.8125 31.1881 20.8125 25.5C20.8125 23.5498 20.1264 21.833 19.1875 20.2812L18.0625 21.4062C18.7377 22.6423 19.2188 23.99 19.2188 25.5C19.2188 30.3045 15.3357 34.2187 10.5312 34.2188C5.72676 34.2188 1.8125 30.3045 1.8125 25.5C1.8125 20.6955 5.72676 16.8125 10.5312 16.8125C12.0662 16.8125 13.4372 17.3039 14.6875 18L15.8125 16.875C14.2478 15.9138 12.5065 15.2188 10.5312 15.2188Z" fill="#000000" fill-rule="nonzero" opacity="1" stroke="none"/>
</g>
</svg>
