<?xml version="1.0" encoding="UTF-8" standalone="no"?> <!-- Created with Vectornator for iOS (http://vectornator.io/) --><!DOCTYPE svg PUBLIC "-//W3C//DTD SVG 1.1//EN" "http://www.w3.org/Graphics/SVG/1.1/DTD/svg11.dtd">
<svg height="100%" style="fill-rule:nonzero;clip-rule:evenodd;stroke-linecap:round;stroke-linejoin:round;" xmlns:xlink="http://www.w3.org/1999/xlink" xmlns="http://www.w3.org/2000/svg" xml:space="preserve" width="100%" xmlns:vectornator="http://vectornator.io" version="1.1" viewBox="0 0 36 36">
<metadata>
<vectornator:setting key="DimensionsVisible" value="1"/>
<vectornator:setting key="PencilOnly" value="0"/>
<vectornator:setting key="SnapToPoints" value="0"/>
<vectornator:setting key="OutlineMode" value="0"/>
<vectornator:setting key="CMYKEnabledKey" value="0"/>
<vectornator:setting key="RulersVisible" value="1"/>
<vectornator:setting key="SnapToEdges" value="0"/>
<vectornator:setting key="GuidesVisible" value="1"/>
<vectornator:setting key="DisplayWhiteBackground" value="0"/>
<vectornator:setting key="doHistoryDisabled" value="0"/>
<vectornator:setting key="SnapToGuides" value="1"/>
<vectornator:setting key="TimeLapseWatermarkDisabled" value="0"/>
<vectornator:setting key="Units" value="Points"/>
<vectornator:setting key="DynamicGuides" value="0"/>
<vectornator:setting key="IsolateActiveLayer" value="0"/>
<vectornator:setting key="SnapToGrid" value="0"/>
</metadata>
<defs/>
<g id="Untitled" vectornator:layerName="Untitled">
<g opacity="1">
<path d="M19.551+14.293L20.4642+15.1699C21.7743+16.4628+22.5667+18.2736+22.5667+20.0827C22.5667+21.8917+21.7726+23.7025+20.4624+24.9954C19.1212+26.2573+17.2534+27.0151+15.3822+27.0151C13.511+27.0151+11.6415+26.2556+10.302+24.9954L2.10424+17.105C0.792327+15.812-8.31496e-07+14.003-8.31496e-07+12.1939C-8.31496e-07+10.3848+0.794053+8.57233+2.10597+7.27941C3.4455+6.01928+5.31498+5.26147+7.18619+5.26147C9.0574+5.26147+10.9251+6.021+12.2664+7.28113L13.1778+8.15804L12.5771+8.78293L11.6657+7.90602C10.4643+6.73565+8.89686+6.12803+7.18619+6.12803C5.47379+6.12803+3.9064+6.73392+2.70669+7.90602C1.49144+9.0574+0.866554+10.5557+0.866554+12.1939C0.866554+13.8321+1.49144+15.3304+2.70669+16.4835L10.9027+24.3706C12.1024+25.5409+13.6698+26.1468+15.3822+26.1468C17.0929+26.1468+18.6603+25.5409+19.8617+24.3706C21.0752+23.2192+21.7001+21.7208+21.7001+20.0827C21.7001+18.4445+21.0752+16.9462+19.86+15.793L18.9503+14.9161L19.551+14.293Z" opacity="1" fill="#2f7bb1"/>
<path d="M16.4473+21.707L15.5427+20.837C14.2291+19.5458+13.4351+17.735+13.4351+15.9242C13.4351+14.1152+14.2308+12.3027+15.5427+11.0115C16.8823+9.7496+18.7518+8.99007+20.623+8.99007C22.4959+8.99007+24.3654+9.7496+25.7049+11.0115L33.894+18.8933C35.2059+20.1862+36+21.9953+36+23.8061C36+25.6169+35.2059+27.4277+33.8923+28.7206C32.551+29.9807+30.6833+30.7385+28.8121+30.7385C26.9409+30.7385+25.0714+29.979+23.7319+28.7189L22.8204+27.842L23.4211+27.2171L24.3326+28.094C25.534+29.2643+27.1014+29.872+28.8121+29.872C30.5228+29.872+32.0919+29.2643+33.2916+28.094C34.5068+26.9426+35.1334+25.446+35.1334+23.8061C35.1334+22.1662+34.5068+20.6678+33.2916+19.5182L25.1025+11.6363C23.9028+10.4643+22.3354+9.85663+20.623+9.85663C18.9123+9.85663+17.3432+10.4643+16.1435+11.6363C14.9282+12.7877+14.3016+14.2861+14.3016+15.9242C14.3016+17.5641+14.9282+19.0625+16.1452+20.2139L17.048+21.0821L16.4473+21.707Z" opacity="1" fill="#2f7bb1"/>
</g>
</g>
</svg>
