<?xml version="1.0" encoding="utf-8"?>
<svg viewBox="3.73 7.256 20.855 14.759" width="20.855" height="14.759" xmlns="http://www.w3.org/2000/svg">
  <path d="M 15.056 12.488 L 15.585 12.996 C 16.344 13.745 16.803 14.794 16.803 15.842 C 16.803 16.89 16.343 17.939 15.584 18.688 C 14.807 19.419 13.725 19.858 12.641 19.858 C 11.557 19.858 10.474 19.418 9.698 18.688 L 4.949 14.117 C 4.189 13.368 3.73 12.32 3.73 11.272 C 3.73 10.224 4.19 9.174 4.95 8.425 C 5.726 7.695 6.809 7.256 7.893 7.256 C 8.977 7.256 10.059 7.696 10.836 8.426 L 11.364 8.934 L 11.016 9.296 L 10.488 8.788 C 9.792 8.11 8.884 7.758 7.893 7.758 C 6.901 7.758 5.993 8.109 5.298 8.788 C 4.594 9.455 4.232 10.323 4.232 11.272 C 4.232 12.221 4.594 13.089 5.298 13.757 L 10.046 18.326 C 10.741 19.004 11.649 19.355 12.641 19.355 C 13.632 19.355 14.54 19.004 15.236 18.326 C 15.939 17.659 16.301 16.791 16.301 15.842 C 16.301 14.893 15.939 14.025 15.235 13.357 L 14.708 12.849 Z" style="fill: rgb(47, 123, 177);"/>
  <path d="M 13.258 16.783 L 12.734 16.279 C 11.973 15.531 11.513 14.482 11.513 13.433 C 11.513 12.385 11.974 11.335 12.734 10.587 C 13.51 9.856 14.593 9.416 15.677 9.416 C 16.762 9.416 17.845 9.856 18.621 10.587 L 23.365 15.153 C 24.125 15.902 24.585 16.95 24.585 17.999 C 24.585 19.048 24.125 20.097 23.364 20.846 C 22.587 21.576 21.505 22.015 20.421 22.015 C 19.337 22.015 18.254 21.575 17.478 20.845 L 16.95 20.337 L 17.298 19.975 L 17.826 20.483 C 18.522 21.161 19.43 21.513 20.421 21.513 C 21.412 21.513 22.321 21.161 23.016 20.483 C 23.72 19.816 24.083 18.949 24.083 17.999 C 24.083 17.049 23.72 16.181 23.016 15.515 L 18.272 10.949 C 17.577 10.27 16.669 9.918 15.677 9.918 C 14.686 9.918 13.777 10.27 13.082 10.949 C 12.378 11.616 12.015 12.484 12.015 13.433 C 12.015 14.383 12.378 15.251 13.083 15.918 L 13.606 16.421 Z" style="fill: rgb(47, 123, 177);"/>
</svg>