<?xml version="1.0" encoding="UTF-8" standalone="no"?>
<!DOCTYPE svg PUBLIC "-//W3C//DTD SVG 1.1//EN" "http://www.w3.org/Graphics/SVG/1.1/DTD/svg11.dtd">
<!-- Created with Vectornator (http://vectornator.io/) -->
<svg height="100%" stroke-miterlimit="10" style="fill-rule:nonzero;clip-rule:evenodd;stroke-linecap:round;stroke-linejoin:round;" version="1.1" viewBox="0 0 36 36" width="100%" xml:space="preserve" xmlns="http://www.w3.org/2000/svg" xmlns:xlink="http://www.w3.org/1999/xlink">
<defs/>
<g id="Layer-2">
<path d="M0 2.34129L0 11.0191L8.63484 11.0191L8.63484 2.34129L0 2.34129ZM2.49165 4.83294L6.18616 4.83294L6.18616 8.52745L2.49165 8.52745C2.49165 7.32306 2.49165 6.03732 2.49165 4.83294ZM11.642 5.43437L11.642 7.92601L36 7.92601L36 5.43437L11.642 5.43437ZM0 13.6826L0 22.3174L8.63484 22.3174L8.63484 13.6826L0 13.6826ZM2.49165 16.1313L6.18616 16.1313L6.18616 19.8687L2.49165 19.8687C2.49165 18.6699 2.49165 17.3497 2.49165 16.1313ZM11.642 16.7757L11.642 19.2673L36 19.2673L36 16.7757L11.642 16.7757ZM0 24.9809L0 33.6587L8.63484 33.6587L8.63484 24.9809L0 24.9809ZM2.49165 27.4726L6.18616 27.4726L6.18616 31.1671L2.49165 31.1671C2.49165 29.9627 2.49165 28.6769 2.49165 27.4726ZM11.642 28.1169L11.642 30.6086L36 30.5656L36 28.1169L11.642 28.1169Z" fill="#ff0000" fill-rule="nonzero" opacity="1" stroke="none"/>
</g>
</svg>
