<svg xmlns="http://www.w3.org/2000/svg" width="206.692" height="303.781" viewBox="0 0 206.692 303.781">
  <path id="location-expanded" d="M214.41,103.436a102.959,102.959,0,0,1-16.5,55.9L116.534,300.666a6.345,6.345,0,0,1-11,0L81.692,259.25a6.351,6.351,0,0,1,11-6.345l18.338,31.879,76.048-132.052a90.687,90.687,0,1,0-152.116-.038l37.558,65.2a6.351,6.351,0,0,1-11,6.345L24.14,159.312a103.346,103.346,0,1,1,190.27-55.877ZM111.032,67.483a38.015,38.015,0,0,1,14.842,2.982,6.345,6.345,0,1,0,4.924-11.7A50.927,50.927,0,1,0,159.65,90.5,6.346,6.346,0,1,0,147.543,94.3a38.256,38.256,0,1,1-36.511-26.822Z" transform="translate(-7.718 -0.063)" fill="#4e5054"/>
</svg>
