<?xml version="1.0" encoding="UTF-8" standalone="no"?> <!-- Created with Vectornator for iOS (http://vectornator.io/) --><!DOCTYPE svg PUBLIC "-//W3C//DTD SVG 1.1//EN" "http://www.w3.org/Graphics/SVG/1.1/DTD/svg11.dtd">
<svg height="100%" style="fill-rule:nonzero;clip-rule:evenodd;stroke-linecap:round;stroke-linejoin:round;" xmlns:xlink="http://www.w3.org/1999/xlink" xmlns="http://www.w3.org/2000/svg" xml:space="preserve" width="100%" xmlns:vectornator="http://vectornator.io" version="1.1" viewBox="0 0 36 36">
<metadata>
<vectornator:setting key="DimensionsVisible" value="1"/>
<vectornator:setting key="PencilOnly" value="0"/>
<vectornator:setting key="SnapToPoints" value="0"/>
<vectornator:setting key="GuidesVisible" value="1"/>
<vectornator:setting key="OutlineMode" value="0"/>
<vectornator:setting key="CMYKEnabledKey" value="0"/>
<vectornator:setting key="SnapToEdges" value="0"/>
<vectornator:setting key="RulersVisible" value="1"/>
<vectornator:setting key="DisplayWhiteBackground" value="0"/>
<vectornator:setting key="doHistoryDisabled" value="0"/>
<vectornator:setting key="TimeLapseWatermarkDisabled" value="0"/>
<vectornator:setting key="SnapToGuides" value="1"/>
<vectornator:setting key="Units" value="Points"/>
<vectornator:setting key="DynamicGuides" value="0"/>
<vectornator:setting key="SnapToGrid" value="0"/>
<vectornator:setting key="IsolateActiveLayer" value="0"/>
</metadata>
<defs/>
<g id="Untitled" vectornator:layerName="Untitled">
<path d="M12.1597+4.16439e-05L11.5704+0.235792C8.73199+1.38896+6.21776+3.24075+4.26211+5.59911C2.30647+7.95746+0.980126+10.7591+0.372233+13.762C-0.235666+16.7647-0.0995701+19.8756+0.784796+22.8089C1.66916+25.7422+3.2745+28.3928+5.44086+30.5592L6.08918+31.237L8.59403+28.7321L7.94571+28.0543C6.30441+26.4131+5.05838+24.4205+4.32105+22.2195C3.58372+20.0185+3.38084+17.6815+3.70221+15.3827C4.02356+13.0839+4.86497+10.8729+6.17758+8.95855C7.08995+7.62793+8.2587+6.53884+9.53703+5.56964C9.23957+7.61752+9.14363+9.68584+9.53703+11.7286C10.078+14.5375+11.2823+17.173+13.0143+19.4494C14.7465+21.7258+16.9641+23.5719+19.5269+24.8422C22.0899+26.1126+24.9178+26.7873+27.7782+26.7872C28.6837+26.7866+29.5661+26.5649+30.4599+26.4335C29.4858+27.7256+28.3834+28.9023+27.0415+29.8225C25.1271+31.135+22.9161+31.9764+20.6173+32.2978C18.3188+32.6192+15.9818+32.4163+13.7805+31.679L12.5428+31.2664L12.5134+35.009L13.1912+35.2152C16.1244+36.0996+19.2353+36.2355+22.2381+35.6278C25.2411+35.0198+28.0427+33.6936+30.4009+31.7379C32.7592+29.7823+34.611+27.2681+35.7642+24.4297L36+23.8403L33.9961+21.8659L33.4067+22.1016C30.6758+23.2148+27.6927+23.5103+24.8019+22.9268C21.911+22.3432+19.2547+20.9159+17.1694+18.8306C15.0841+16.7453+13.6568+14.0889+13.0733+11.1982C12.4897+8.30735+12.7853+5.32426+13.8984+2.5933L14.1342+2.00392L12.1597+4.16439e-05Z" opacity="1" fill="#272d2d"/>
</g>
</svg>
