<?xml version="1.0" encoding="UTF-8" standalone="no"?>
<!DOCTYPE svg PUBLIC "-//W3C//DTD SVG 1.1//EN" "http://www.w3.org/Graphics/SVG/1.1/DTD/svg11.dtd">
<!-- Created with Vectornator (http://vectornator.io/) -->
<svg height="100%" stroke-miterlimit="10" style="fill-rule:nonzero;clip-rule:evenodd;stroke-linecap:round;stroke-linejoin:round;" version="1.1" viewBox="0 0 36 36" width="100%" xml:space="preserve" xmlns="http://www.w3.org/2000/svg" xmlns:xlink="http://www.w3.org/1999/xlink">
<defs/>
<g clip-path="url(#ArtboardFrame)" id="Untitled">
<path d="M32.5273 28.7375L18 28.7375L3.47269 28.7375C2.49163 28.7375 1.62377 28.3405 1.00117 27.6977C0.378571 27.0549 0.00123787 26.1663 0.00123787 25.1832C0.0389734 24.6538 0.189907 24.1433 0.444607 23.699C0.699306 23.2547 1.05777 22.8765 1.51057 22.6118L2.15203 22.1581L2.7935 21.7044C3.05763 21.5153 3.26516 21.2885 3.40666 21.0332C3.54816 20.778 3.62363 20.4944 3.62363 20.1919L3.62363 17.2426L3.62363 14.2932C3.66136 10.7388 5.00089 7.43018 7.20828 4.87783C9.41567 2.32547 12.4909 0.529375 16.0001-1.53273e-07L19.8489-1.53273e-07C23.3958 0.491563 26.5088 2.28766 28.7351 4.84947C30.9614 7.41128 32.3009 10.7388 32.3009 14.2932L32.3009 17.2426L32.3009 20.1919C32.3009 20.4944 32.3764 20.7969 32.5178 21.0616C32.6593 21.3263 32.8668 21.5532 33.131 21.7044L33.8102 22.1581L34.4895 22.6118C34.9423 22.8765 35.3007 23.2547 35.5554 23.699C35.8101 24.1433 35.9611 24.6538 35.9988 25.1832C35.9988 26.1663 35.6026 27.0549 34.9706 27.6977C34.3385 28.3405 33.4706 28.7375 32.5273 28.7375Z" fill="#ff4f1f" fill-rule="nonzero" opacity="1" stroke="none"/>
<path d="M17.9613 36C15.5463 36 13.5842 34.0337 13.5842 31.6137L22.3384 31.6137C22.3384 34.0337 20.3762 36 17.9613 36Z" fill="#ff4f1f" fill-rule="nonzero" opacity="1" stroke="none"/>
</g>
</svg>
