<?xml version="1.0" encoding="utf-8"?>
<svg viewBox="0 0 12 18" width="12" height="18" xmlns="http://www.w3.org/2000/svg">
  <path d="M 3 1.44 L 2.25 1.44 C 2.075 1.425 1.846 1.332 1.719 1.229 C 1.608 1.099 1.5 0.876 1.5 0.72 C 1.5 0.564 1.608 0.341 1.719 0.211 C 1.846 0.108 2.075 0.015 2.25 0 L 9.75 0 C 9.924 0.015 10.153 0.108 10.28 0.211 C 10.391 0.34 10.5 0.564 10.5 0.72 C 10.5 0.876 10.391 1.1 10.28 1.229 C 10.153 1.332 9.924 1.425 9.75 1.44 L 9 1.44 L 9 6.012 L 9 6.012 C 9.854 6.311 10.641 6.884 11.172 7.589 C 11.689 8.305 11.988 9.212 12 10.081 C 11.983 10.43 11.809 10.835 11.559 11.097 C 11.29 11.336 10.87 11.505 10.499 11.52 L 6.75 11.52 L 6.75 17.28 C 6.735 17.436 6.641 17.659 6.53 17.789 C 6.403 17.892 6.174 18 6 18 C 5.825 18 5.596 17.892 5.469 17.789 C 5.358 17.659 5.264 17.436 5.25 17.28 L 5.25 11.52 L 1.499 11.52 C 1.127 11.505 0.709 11.336 0.44 11.097 C 0.19 10.835 0.016 10.428 0 10.079 C 0.011 9.21 0.31 8.305 0.827 7.589 C 1.358 6.884 2.145 6.311 3 6.012 L 3 6.012 Z M 8.215 0.785 L 3.784 0.785 L 3.784 6.574 L 3.252 6.755 C 2.502 7 1.904 7.434 1.458 8.054 C 0.998 8.662 0.775 9.332 0.784 10.078 C 0.769 10.274 0.822 10.398 0.983 10.531 C 1.128 10.689 1.276 10.749 1.501 10.735 L 5.642 10.735 L 6.034 10.735 L 6.034 17.28 C 6.019 17.287 6.003 17.249 6.006 17.232 C 6.005 17.232 6.004 17.231 6.004 17.231 C 6 17.234 5.997 17.235 5.994 17.235 C 5.994 17.253 5.98 17.287 5.965 17.28 L 5.965 10.735 L 10.499 10.735 C 10.725 10.749 10.871 10.689 11.016 10.531 C 11.177 10.398 11.23 10.274 11.215 10.078 C 11.223 9.333 11.001 8.662 10.541 8.054 C 10.095 7.434 9.498 7 8.747 6.755 L 8.215 6.574 Z" style="fill: rgb(47, 123, 177);"/>
</svg>