<?xml version="1.0" encoding="UTF-8" standalone="no"?> <!-- Created with Vectornator for iOS (http://vectornator.io/) --><!DOCTYPE svg PUBLIC "-//W3C//DTD SVG 1.1//EN" "http://www.w3.org/Graphics/SVG/1.1/DTD/svg11.dtd">
<svg height="100%" style="fill-rule:nonzero;clip-rule:evenodd;stroke-linecap:round;stroke-linejoin:round;" xmlns:xlink="http://www.w3.org/1999/xlink" xmlns="http://www.w3.org/2000/svg" xml:space="preserve" width="100%" xmlns:vectornator="http://vectornator.io" version="1.1" viewBox="0 0 36 36">
<metadata>
<vectornator:setting key="DimensionsVisible" value="1"/>
<vectornator:setting key="PencilOnly" value="0"/>
<vectornator:setting key="SnapToPoints" value="0"/>
<vectornator:setting key="OutlineMode" value="0"/>
<vectornator:setting key="CMYKEnabledKey" value="0"/>
<vectornator:setting key="RulersVisible" value="1"/>
<vectornator:setting key="SnapToEdges" value="0"/>
<vectornator:setting key="GuidesVisible" value="1"/>
<vectornator:setting key="DisplayWhiteBackground" value="0"/>
<vectornator:setting key="doHistoryDisabled" value="0"/>
<vectornator:setting key="SnapToGuides" value="1"/>
<vectornator:setting key="TimeLapseWatermarkDisabled" value="0"/>
<vectornator:setting key="Units" value="Points"/>
<vectornator:setting key="DynamicGuides" value="0"/>
<vectornator:setting key="IsolateActiveLayer" value="0"/>
<vectornator:setting key="SnapToGrid" value="0"/>
</metadata>
<defs/>
<g id="Untitled" vectornator:layerName="Untitled">
<path d="M12+2.88L10.5+2.88C10.15+2.85+9.692+2.664+9.438+2.458C9.216+2.198+9+1.752+9+1.44C9+1.128+9.216+0.682+9.438+0.422C9.692+0.216+10.15+0.03+10.5+0L25.5+0C25.848+0.03+26.306+0.216+26.56+0.422C26.782+0.68+27+1.128+27+1.44C27+1.752+26.782+2.2+26.56+2.458C26.306+2.664+25.848+2.85+25.5+2.88L24+2.88L24+12.024L24+12.024C25.708+12.622+27.282+13.768+28.344+15.178C29.378+16.61+29.976+18.424+30+20.162C29.966+20.86+29.618+21.67+29.118+22.194C28.58+22.672+27.74+23.01+26.998+23.04L19.5+23.04L19.5+34.56C19.47+34.872+19.282+35.318+19.06+35.578C18.806+35.784+18.348+36+18+36C17.65+36+17.192+35.784+16.938+35.578C16.716+35.318+16.528+34.872+16.5+34.56L16.5+23.04L8.998+23.04C8.254+23.01+7.418+22.672+6.88+22.194C6.38+21.67+6.032+20.856+6+20.158C6.022+18.42+6.62+16.61+7.654+15.178C8.716+13.768+10.29+12.622+12+12.024L12+12.024L12+2.88ZM22.43+1.57L13.568+1.57L13.568+13.148L12.504+13.51C11.004+14+9.808+14.868+8.916+16.108C7.996+17.324+7.55+18.664+7.568+20.156C7.538+20.548+7.644+20.796+7.966+21.062C8.256+21.378+8.552+21.498+9.002+21.47L17.284+21.47L18.068+21.47L18.068+34.56C18.038+34.574+18.006+34.498+18.012+34.464C18.01+34.464+18.008+34.462+18.008+34.462C18+34.468+17.994+34.47+17.988+34.47C17.988+34.506+17.96+34.574+17.93+34.56L17.93+21.47L26.998+21.47C27.45+21.498+27.742+21.378+28.032+21.062C28.354+20.796+28.46+20.548+28.43+20.156C28.446+18.666+28.002+17.324+27.082+16.108C26.19+14.868+24.996+14+23.494+13.51L22.43+13.148L22.43+1.57Z" opacity="1" fill="#2f7bb1"/>
</g>
</svg>
