<?xml version="1.0" encoding="utf-8"?>
<svg viewBox="0 0 12 18" width="12" height="18" xmlns="http://www.w3.org/2000/svg">
  <path d="M3.39177 1.44V1.04774H2.99951H2.24951C2.14958 1.04774 2.05681 1.00948 1.99083 0.946147C1.9254 0.883333 1.89177 0.801636 1.89177 0.72C1.89177 0.638364 1.9254 0.556667 1.99083 0.493853C2.05681 0.430516 2.14958 0.392258 2.24951 0.392258H9.74951C9.84944 0.392258 9.94222 0.430517 10.0082 0.493853C10.0736 0.556666 10.1073 0.638363 10.1073 0.72C10.1073 0.801637 10.0736 0.883334 10.0082 0.946147C9.94222 1.00948 9.84944 1.04774 9.74951 1.04774H8.99951H8.60725V1.44V6.012V6.2931L8.87344 6.38345C9.67592 6.65582 10.3681 7.15918 10.8566 7.82158C11.3447 8.4835 11.6061 9.2723 11.6073 10.0796C11.6062 10.352 11.4931 10.6163 11.2872 10.814C11.0807 11.0123 10.7976 11.1267 10.499 11.1277H6.74951H6.35725V11.52V17.28C6.35725 17.3616 6.32362 17.4433 6.25819 17.5061C6.19222 17.5695 6.09944 17.6077 5.99951 17.6077C5.89958 17.6077 5.80681 17.5695 5.74083 17.5061C5.6754 17.4433 5.64177 17.3616 5.64177 17.28V11.52V11.1277H5.24951H1.50003C1.2014 11.1267 0.918332 11.0123 0.711814 10.814C0.505892 10.6163 0.392836 10.352 0.39177 10.0796C0.392922 9.27227 0.654323 8.48349 1.14246 7.82158C1.63095 7.15918 2.3231 6.65582 3.12558 6.38345L3.39177 6.2931V6.012V1.44Z" stroke-width="0.784515" style="fill: rgb(47, 123, 177);"/>
  <path d="M 3 1.44 L 2.25 1.44 C 2.075 1.425 1.846 1.332 1.719 1.229 C 1.608 1.099 1.5 0.876 1.5 0.72 C 1.5 0.564 1.608 0.341 1.719 0.211 C 1.846 0.108 2.075 0.015 2.25 0 L 9.75 0 C 9.924 0.015 10.153 0.108 10.28 0.211 C 10.391 0.34 10.5 0.564 10.5 0.72 C 10.5 0.876 10.391 1.1 10.28 1.229 C 10.153 1.332 9.924 1.425 9.75 1.44 L 9 1.44 L 9 6.012 L 9 6.012 C 9.854 6.311 10.641 6.884 11.172 7.589 C 11.689 8.305 11.988 9.212 12 10.081 C 11.983 10.43 11.809 10.835 11.559 11.097 C 11.29 11.336 10.87 11.505 10.499 11.52 L 6.75 11.52 L 6.75 17.28 C 6.735 17.436 6.641 17.659 6.53 17.789 C 6.403 17.892 6.174 18 6 18 C 5.825 18 5.596 17.892 5.469 17.789 C 5.358 17.659 5.264 17.436 5.25 17.28 L 5.25 11.52 L 1.499 11.52 C 1.127 11.505 0.709 11.336 0.44 11.097 C 0.19 10.835 0.016 10.428 0 10.079 C 0.011 9.21 0.31 8.305 0.827 7.589 C 1.358 6.884 2.145 6.311 3 6.012 L 3 6.012 Z M 8.215 0.785 L 3.784 0.785 L 3.784 6.574 L 3.252 6.755 C 2.502 7 1.904 7.434 1.458 8.054 C 0.998 8.662 0.775 9.332 0.784 10.078 C 0.769 10.274 0.822 10.398 0.983 10.531 C 1.128 10.689 1.276 10.749 1.501 10.735 L 5.642 10.735 L 6.034 10.735 L 6.034 17.28 C 6.019 17.287 6.003 17.249 6.006 17.232 C 6.005 17.232 6.004 17.231 6.004 17.231 C 6 17.234 5.997 17.235 5.994 17.235 C 5.994 17.253 5.98 17.287 5.965 17.28 L 5.965 10.735 L 10.499 10.735 C 10.725 10.749 10.871 10.689 11.016 10.531 C 11.177 10.398 11.23 10.274 11.215 10.078 C 11.223 9.333 11.001 8.662 10.541 8.054 C 10.095 7.434 9.498 7 8.747 6.755 L 8.215 6.574 Z" style="fill: rgb(47, 123, 177);"/>
</svg>