<svg width="25" height="24" viewBox="0 0 25 24" fill="none" xmlns="http://www.w3.org/2000/svg">
<path fill-rule="evenodd" clip-rule="evenodd" d="M13.6754 20.1C13.6754 20.5971 13.2724 21 12.7754 21V21C12.2783 21 11.8754 20.5971 11.8754 20.1V12.9H4.67539C4.17833 12.9 3.77539 12.4971 3.77539 12V12C3.77539 11.5029 4.17833 11.1 4.67539 11.1H11.8754V3.9C11.8754 3.40294 12.2783 3 12.7754 3V3C13.2724 3 13.6754 3.40294 13.6754 3.9V11.1H20.8754C21.3724 11.1 21.7754 11.5029 21.7754 12V12C21.7754 12.4971 21.3724 12.9 20.8754 12.9H13.6754V20.1Z" fill="#2F7BB1"/>
</svg>
