<?xml version="1.0" encoding="UTF-8" standalone="no"?> <!-- Created with Vectornator for iOS (http://vectornator.io/) --><!DOCTYPE svg PUBLIC "-//W3C//DTD SVG 1.1//EN" "http://www.w3.org/Graphics/SVG/1.1/DTD/svg11.dtd">
<svg height="100%" style="fill-rule:nonzero;clip-rule:evenodd;stroke-linecap:round;stroke-linejoin:round;" xmlns:xlink="http://www.w3.org/1999/xlink" xmlns="http://www.w3.org/2000/svg" xml:space="preserve" width="100%" xmlns:vectornator="http://vectornator.io" version="1.1" viewBox="0 0 36 36">
<metadata>
<vectornator:setting key="DimensionsVisible" value="1"/>
<vectornator:setting key="PencilOnly" value="0"/>
<vectornator:setting key="SnapToPoints" value="0"/>
<vectornator:setting key="OutlineMode" value="0"/>
<vectornator:setting key="CMYKEnabledKey" value="0"/>
<vectornator:setting key="RulersVisible" value="1"/>
<vectornator:setting key="SnapToEdges" value="0"/>
<vectornator:setting key="GuidesVisible" value="1"/>
<vectornator:setting key="DisplayWhiteBackground" value="0"/>
<vectornator:setting key="doHistoryDisabled" value="0"/>
<vectornator:setting key="SnapToGuides" value="1"/>
<vectornator:setting key="TimeLapseWatermarkDisabled" value="0"/>
<vectornator:setting key="Units" value="Points"/>
<vectornator:setting key="DynamicGuides" value="0"/>
<vectornator:setting key="IsolateActiveLayer" value="0"/>
<vectornator:setting key="SnapToGrid" value="0"/>
</metadata>
<defs/>
<g id="Untitled" vectornator:layerName="Untitled">
<g opacity="1">
<path d="M36+18C36+22.884+33.9192+27.5376+30.7272+30.7272C27.5376+33.9192+22.884+36+18+36C13.116+36+8.4624+33.9192+5.2728+30.7272C2.0808+27.5376+0+22.884+0+18C0+13.116+2.0808+8.4624+5.2728+5.2728C8.4624+2.0808+13.116+0+18+0C22.884+0+27.5376+2.0808+30.7272+5.2728C33.9192+8.4624+36+13.116+36+18ZM29.0304+6.9696C26.1408+4.08+22.3944+2.4+18+2.4C13.6056+2.4+9.8592+4.08+6.9696+6.9696C4.08+9.8592+2.4+13.6056+2.4+18C2.4+22.3944+4.08+26.1408+6.9696+29.0304C9.8592+31.92+13.6056+33.6+18+33.6C22.3944+33.6+26.1408+31.92+29.0304+29.0304C31.92+26.1408+33.6+22.3944+33.6+18C33.6+13.6056+31.92+9.8592+29.0304+6.9696Z" opacity="1" fill="#2f7bb1"/>
<path d="M19.183+25.2166C19.183+25.7374+18.7608+26.1595+18.24+26.1595L18.24+26.1595C17.7194+26.1595+17.2973+25.7374+17.2973+25.2166L17.2973+19.1825L11.263+19.1825C10.7423+19.1825+10.3201+18.7603+10.3201+18.2395L10.3201+18.2395C10.3201+17.7187+10.7423+17.2966+11.263+17.2966L17.2973+17.2966L17.2973+11.2624C17.2973+10.7417+17.7194+10.3195+18.24+10.3195L18.24+10.3195C18.7608+10.3195+19.183+10.7417+19.183+11.2624L19.183+17.2966L25.2173+17.2966C25.7381+17.2966+26.16+17.7187+26.16+18.2395L26.16+18.2395C26.16+18.7603+25.7381+19.1825+25.2173+19.1825L19.183+19.1825L19.183+25.2166Z" fill-rule="evenodd" fill="#2f7bb1" opacity="1"/>
</g>
</g>
</svg>
