<?xml version="1.0" encoding="utf-8"?>
<svg viewBox="4.5 4.5 15 15" width="15" height="15" xmlns="http://www.w3.org/2000/svg">
  <circle cx="12" cy="12" r="7.5" fill="#2F7BB1"/>
  <path fill-rule="evenodd" clip-rule="evenodd" d="M12.4929 15.0069C12.4929 15.2239 12.317 15.3998 12.1 15.3998V15.3998C11.8831 15.3998 11.7072 15.2239 11.7072 15.0069V12.4927H9.19291C8.97594 12.4927 8.80005 12.3168 8.80005 12.0998V12.0998C8.80005 11.8828 8.97594 11.7069 9.19291 11.7069H11.7072V9.19266C11.7072 8.97569 11.8831 8.7998 12.1 8.7998V8.7998C12.317 8.7998 12.4929 8.97569 12.4929 9.19266V11.7069H15.0072C15.2242 11.7069 15.4 11.8828 15.4 12.0998V12.0998C15.4 12.3168 15.2242 12.4927 15.0072 12.4927H12.4929V15.0069Z" fill="white"/>
</svg>