<?xml version="1.0" encoding="UTF-8" standalone="no"?> <!-- Created with Vectornator for iOS (http://vectornator.io/) --><!DOCTYPE svg PUBLIC "-//W3C//DTD SVG 1.1//EN" "http://www.w3.org/Graphics/SVG/1.1/DTD/svg11.dtd">
<svg height="100%" style="fill-rule:nonzero;clip-rule:evenodd;stroke-linecap:round;stroke-linejoin:round;" xmlns:xlink="http://www.w3.org/1999/xlink" xmlns="http://www.w3.org/2000/svg" xml:space="preserve" width="100%" xmlns:vectornator="http://vectornator.io" version="1.1" viewBox="0 0 36 36">
<metadata>
<vectornator:setting key="DimensionsVisible" value="1"/>
<vectornator:setting key="PencilOnly" value="0"/>
<vectornator:setting key="SnapToPoints" value="0"/>
<vectornator:setting key="OutlineMode" value="0"/>
<vectornator:setting key="CMYKEnabledKey" value="0"/>
<vectornator:setting key="RulersVisible" value="1"/>
<vectornator:setting key="SnapToEdges" value="0"/>
<vectornator:setting key="GuidesVisible" value="1"/>
<vectornator:setting key="DisplayWhiteBackground" value="0"/>
<vectornator:setting key="doHistoryDisabled" value="0"/>
<vectornator:setting key="SnapToGuides" value="1"/>
<vectornator:setting key="TimeLapseWatermarkDisabled" value="0"/>
<vectornator:setting key="Units" value="Points"/>
<vectornator:setting key="DynamicGuides" value="0"/>
<vectornator:setting key="IsolateActiveLayer" value="0"/>
<vectornator:setting key="SnapToGrid" value="0"/>
</metadata>
<defs/>
<g id="Untitled" vectornator:layerName="Untitled">
<path d="M18+0C8.05887+0+1.20087e-07+8.05887+0+18C0+27.9411+8.05887+36+18+36C27.9411+36+36+27.9411+36+18C36+8.05887+27.9411+1.20087e-07+18+0ZM18.25+10.3125C18.7708+10.3125+19.1875+10.7293+19.1875+11.25L19.1875+17.2812L25.2188+17.2812C25.7395+17.2812+26.1563+17.7292+26.1562+18.25C26.1562+18.7708+25.7395+19.1875+25.2188+19.1875L19.1875+19.1875L19.1875+25.2188C19.1875+25.7395+18.7708+26.1563+18.25+26.1562C17.7294+26.1562+17.3125+25.7395+17.3125+25.2188L17.3125+19.1875L11.25+19.1875C10.7293+19.1875+10.3125+18.7708+10.3125+18.25C10.3125+17.7292+10.7293+17.2812+11.25+17.2812L17.3125+17.2812L17.3125+11.25C17.3125+10.7293+17.7294+10.3125+18.25+10.3125Z" opacity="1" fill="#2f7bb1"/>
</g>
</svg>
