<?xml version="1.0" encoding="utf-8"?>
<svg viewBox="4.5 4.5 15 15" width="15" height="15" xmlns="http://www.w3.org/2000/svg">
  <path d="M 19.5 12 C 19.5 14.035 18.633 15.974 17.303 17.303 C 15.974 18.633 14.035 19.5 12 19.5 C 9.965 19.5 8.026 18.633 6.697 17.303 C 5.367 15.974 4.5 14.035 4.5 12 C 4.5 9.965 5.367 8.026 6.697 6.697 C 8.026 5.367 9.965 4.5 12 4.5 C 14.035 4.5 15.974 5.367 17.303 6.697 C 18.633 8.026 19.5 9.965 19.5 12 Z M 16.596 7.404 C 15.392 6.2 13.831 5.5 12 5.5 C 10.169 5.5 8.608 6.2 7.404 7.404 C 6.2 8.608 5.5 10.169 5.5 12 C 5.5 13.831 6.2 15.392 7.404 16.596 C 8.608 17.8 10.169 18.5 12 18.5 C 13.831 18.5 15.392 17.8 16.596 16.596 C 17.8 15.392 18.5 13.831 18.5 12 C 18.5 10.169 17.8 8.608 16.596 7.404 Z" style="fill: rgb(47, 123, 177);"/>
  <path fill-rule="evenodd" clip-rule="evenodd" d="M12.4929 15.0069C12.4929 15.2239 12.317 15.3998 12.1 15.3998V15.3998C11.8831 15.3998 11.7072 15.2239 11.7072 15.0069V12.4927H9.19291C8.97594 12.4927 8.80005 12.3168 8.80005 12.0998V12.0998C8.80005 11.8828 8.97594 11.7069 9.19291 11.7069H11.7072V9.19266C11.7072 8.97569 11.8831 8.7998 12.1 8.7998V8.7998C12.317 8.7998 12.4929 8.97569 12.4929 9.19266V11.7069H15.0072C15.2242 11.7069 15.4 11.8828 15.4 12.0998V12.0998C15.4 12.3168 15.2242 12.4927 15.0072 12.4927H12.4929V15.0069Z" fill="#2F7BB1"/>
</svg>