<?xml version="1.0" encoding="UTF-8" standalone="no"?>
<!DOCTYPE svg PUBLIC "-//W3C//DTD SVG 1.1//EN" "http://www.w3.org/Graphics/SVG/1.1/DTD/svg11.dtd">
<!-- Created with Vectornator (http://vectornator.io/) -->
<svg height="100%" stroke-miterlimit="10" style="fill-rule:nonzero;clip-rule:evenodd;stroke-linecap:round;stroke-linejoin:round;" version="1.1" viewBox="0 0 36 36" width="100%" xml:space="preserve" xmlns="http://www.w3.org/2000/svg" xmlns:vectornator="http://vectornator.io" xmlns:xlink="http://www.w3.org/1999/xlink">
<defs/>
<g id="files" vectornator:layerName="files">
<path d="M17.9688 5.15625C10.8836 5.15625 5.15625 10.9149 5.15625 18C5.31448 19.6983 5.35141 19.2196 5.5625 20.0625L2.96875 18.625C2.40561 18.3124 1.71889 18.4994 1.40625 19.0625C1.09361 19.6256 1.28061 20.3436 1.84375 20.6562L6.375 23.1875C6.8414 23.4464 7.44666 23.357 7.8125 22.9688L11.375 19.1562C11.8167 18.6875 11.7813 17.973 11.3125 17.5312C11.0781 17.3104 10.7671 17.1786 10.4688 17.1875C10.1704 17.1964 9.87711 17.3281 9.65625 17.5625L7.78125 19.5625C7.66085 19.0467 7.5776 18.8979 7.46875 18C7.46875 12.2031 12.1718 7.50001 17.9688 7.5C23.7657 7.5 28.4688 12.2031 28.4688 18C28.4688 23.7969 23.7657 28.5 17.9688 28.5C15.9986 28.5 14.3028 27.8043 12.75 26.8438L11.2188 28.6562C13.1708 29.9664 15.4238 30.8438 17.9688 30.8438C25.0539 30.8438 30.8125 25.0851 30.8125 18C30.8125 10.9149 25.0539 5.15624 17.9688 5.15625Z" fill="#000000" fill-rule="nonzero" opacity="1" stroke="none"/>
</g>
</svg>
