<?xml version="1.0" encoding="UTF-8" standalone="no"?>
<!DOCTYPE svg PUBLIC "-//W3C//DTD SVG 1.1//EN" "http://www.w3.org/Graphics/SVG/1.1/DTD/svg11.dtd">
<!-- Created with Vectornator (http://vectornator.io/) -->
<svg height="100%" stroke-miterlimit="10" style="fill-rule:nonzero;clip-rule:evenodd;stroke-linecap:round;stroke-linejoin:round;" version="1.1" viewBox="0 0 36 36" width="100%" xml:space="preserve" xmlns="http://www.w3.org/2000/svg" xmlns:xlink="http://www.w3.org/1999/xlink">
<defs/>
<g id="files">
<path d="M10.4663 17.1982C10.1679 17.2071 9.88535 17.3283 9.66449 17.5627L6.71241 20.697L2.95853 18.6196C2.3954 18.3069 1.70402 18.4938 1.39138 19.0569C1.07874 19.6201 1.26559 20.3479 1.82873 20.6605L6.3844 23.1752C6.8508 23.4342 7.43993 23.3448 7.80577 22.9566L11.3774 19.1663C11.8191 18.6975 11.7733 17.9679 11.3045 17.5262C11.0701 17.3053 10.7646 17.1893 10.4663 17.1982ZM17.974 5.17122C10.8889 5.17122 5.14526 10.9149 5.14526 18C5.14526 19.4483 5.9835 22.0819 5.9835 22.0819L8.09733 21.0614C7.791 20.0759 7.47776 19.0863 7.47776 18C7.47776 12.2031 12.1771 7.50373 17.974 7.50373C23.771 7.50373 28.4703 12.2031 28.4703 18C28.4703 23.7969 23.771 28.4963 17.974 28.4963C14.8571 28.4963 12.1336 27.082 10.2112 24.9246L8.13378 25.9451C10.4855 28.8572 13.9394 30.8288 17.974 30.8288C25.0592 30.8288 30.8028 25.0851 30.8028 18C30.8028 10.9149 25.0592 5.17121 17.974 5.17122Z" fill="#000000" fill-rule="nonzero" opacity="1" stroke="none"/>
</g>
</svg>
