<?xml version="1.0" encoding="UTF-8" standalone="no"?> <!-- Created with Vectornator for iOS (http://vectornator.io/) --><!DOCTYPE svg PUBLIC "-//W3C//DTD SVG 1.1//EN" "http://www.w3.org/Graphics/SVG/1.1/DTD/svg11.dtd">
<svg height="100%" style="fill-rule:nonzero;clip-rule:evenodd;stroke-linecap:round;stroke-linejoin:round;" xmlns:xlink="http://www.w3.org/1999/xlink" xmlns="http://www.w3.org/2000/svg" xml:space="preserve" width="100%" xmlns:vectornator="http://vectornator.io" version="1.1" viewBox="0 0 36 36">
<metadata>
<vectornator:setting key="doHistoryDisabled" value="0"/>
<vectornator:setting key="CMYKEnabledKey" value="0"/>
<vectornator:setting key="OutlineMode" value="0"/>
<vectornator:setting key="DynamicGuides" value="0"/>
<vectornator:setting key="DimensionsVisible" value="1"/>
<vectornator:setting key="SnapToGrid" value="0"/>
<vectornator:setting key="DisplayWhiteBackground" value="0"/>
<vectornator:setting key="IsolateActiveLayer" value="0"/>
<vectornator:setting key="PencilOnly" value="0"/>
<vectornator:setting key="SnapToGuides" value="1"/>
<vectornator:setting key="TimeLapseWatermarkDisabled" value="0"/>
<vectornator:setting key="GuidesVisible" value="1"/>
<vectornator:setting key="SnapToPoints" value="0"/>
<vectornator:setting key="Units" value="Points"/>
<vectornator:setting key="RulersVisible" value="1"/>
<vectornator:setting key="SnapToEdges" value="0"/>
</metadata>
<defs/>
<g id="Untitled" vectornator:layerName="Untitled">
<path d="M4.73607+5.54801L4.73607+13.0519C4.7289+16.8635+5.69616+20.616+7.54941+23.9668C9.40267+27.3174+12.0829+30.1595+15.3451+32.2331L18.4281+34.1986L21.509+32.2331C24.7716+30.1599+27.4522+27.3178+29.3059+23.9672C31.1595+20.6164+32.127+16.8637+32.1202+13.0519L32.1202+5.54801L18.4281+1.67993L4.73607+5.54801ZM26.9042+9.26746C27.0056+9.36696+27.0863+9.48507+27.1411+9.61507C27.1961+9.74508+27.2244+9.88441+27.2244+10.0251C27.2244+10.1659+27.1961+10.3052+27.1411+10.4352C27.0863+10.5652+27.0056+10.6833+26.9042+10.7828L15.6888+21.778C15.5873+21.8776+15.4668+21.9565+15.3342+22.0103C15.2016+22.0643+15.0595+22.092+14.9159+22.092C14.7724+22.092+14.6303+22.0643+14.4977+22.0103C14.3651+21.9565+14.2446+21.8776+14.1431+21.778L9.95199+17.6692C9.75042+17.4676+9.63817+17.1961+9.63963+16.9138C9.64108+16.6314+9.75612+16.3611+9.95974+16.1615C10.1634+15.9618+10.4391+15.849+10.7271+15.8476C11.0151+15.8462+11.292+15.9562+11.4977+16.1539L14.9159+19.5049L25.3584+9.26752C25.4599+9.16798+25.5804+9.08901+25.7129+9.03514C25.8457+8.98126+25.9877+8.95352+26.1312+8.95352C26.2749+8.95352+26.417+8.98124+26.5497+9.0351C26.6822+9.08899+26.8028+9.16794+26.9042+9.26746ZM18+0L3.05439+4.30886L3.05439+12.8768C3.05445+16.9898+4.08147+21.0376+6.04227+24.6533C8.00308+28.2687+10.8356+31.3374+14.2828+33.5808L18+36L21.7176+33.5808C25.1647+31.3374+27.9972+28.2687+29.9579+24.6531C31.9188+21.0376+32.9456+16.9898+32.9456+12.8768L32.9456+4.30886L18+0ZM30.4306+14.0327C30.4365+17.3616+29.6082+20.6389+28.0209+23.565C26.4337+26.4912+24.1385+28.973+21.3449+30.7834L18.4667+32.657C18.3281+32.7474+18.166+32.7957+18.0004+32.7957C17.8348+32.7957+17.6728+32.7474+17.5341+32.657L14.6543+30.7834C11.8611+28.9728+9.56613+26.491+7.97926+23.5649C6.3924+20.6387+5.56417+17.3614+5.57031+14.0327L5.57031+7.39714C5.57031+7.21156+5.63061+7.03099+5.74217+6.88267C5.8537+6.73435+6.01043+6.62631+6.18872+6.57481L17.7631+3.23873C17.9183+3.19529+18.0825+3.19529+18.2378+3.23873L29.812+6.57485C29.9904+6.62635+30.1472+6.73439+30.2586+6.88271C30.3702+7.03103+30.4306+7.2116+30.4306+7.39718L30.4306+14.0327Z" opacity="1" fill="#ff4f1f"/>
</g>
</svg>
