<?xml version="1.0" encoding="UTF-8" standalone="no"?> <!-- Created with Vectornator for iOS (http://vectornator.io/) --><!DOCTYPE svg PUBLIC "-//W3C//DTD SVG 1.1//EN" "http://www.w3.org/Graphics/SVG/1.1/DTD/svg11.dtd">
<svg height="100%" style="fill-rule:nonzero;clip-rule:evenodd;stroke-linecap:round;stroke-linejoin:round;" xmlns:xlink="http://www.w3.org/1999/xlink" xmlns="http://www.w3.org/2000/svg" xml:space="preserve" width="100%" xmlns:vectornator="http://vectornator.io" version="1.1" viewBox="0 0 36 36">
<metadata>
<vectornator:setting key="DimensionsVisible" value="1"/>
<vectornator:setting key="PencilOnly" value="0"/>
<vectornator:setting key="SnapToPoints" value="0"/>
<vectornator:setting key="OutlineMode" value="0"/>
<vectornator:setting key="CMYKEnabledKey" value="0"/>
<vectornator:setting key="RulersVisible" value="1"/>
<vectornator:setting key="SnapToEdges" value="0"/>
<vectornator:setting key="GuidesVisible" value="1"/>
<vectornator:setting key="DisplayWhiteBackground" value="0"/>
<vectornator:setting key="doHistoryDisabled" value="0"/>
<vectornator:setting key="SnapToGuides" value="1"/>
<vectornator:setting key="TimeLapseWatermarkDisabled" value="0"/>
<vectornator:setting key="Units" value="Points"/>
<vectornator:setting key="DynamicGuides" value="0"/>
<vectornator:setting key="IsolateActiveLayer" value="0"/>
<vectornator:setting key="SnapToGrid" value="0"/>
</metadata>
<defs/>
<g id="Untitled" vectornator:layerName="Untitled">
<path d="M17.9998+1.13595C17.5248+1.13595+17.049+1.27819+16.6648+1.55755C16.2805+1.83691+16.0384+2.22992+15.8918+2.68182L12.7298+12.3786L2.26007+12.3786C1.77745+12.3799+1.31053+12.5149+0.925001+12.8002C0.539467+13.0856+0.223082+13.4661+0.0817984+13.9245C-0.0594842+14.3829-0.00591288+14.8769+0.152065+15.3299C0.310041+15.7827+0.599552+16.1831+0.995267+16.4541L9.42729+22.216L6.19501+31.9128C6.04237+32.364+5.98159+32.7929+6.12475+33.2479C6.26793+33.703+6.58383+34.1596+6.96795+34.4424C7.352+34.7253+7.82607+34.8622+8.30302+34.864C8.78017+34.8658+9.25188+34.7226+9.63809+34.4424L17.9998+28.3292L26.3616+34.4424C26.7502+34.7215+27.2233+34.8658+27.6967+34.864C27.6967+34.864+28.4338+34.7461+28.7507+34.583C29.0678+34.4197+29.3159+34.1703+29.5236+33.8803C29.7313+33.5904+29.8926+33.2492+29.9452+32.8966C29.9979+32.5433+29.919+32.1806+29.8047+31.8426L26.5724+22.216L35.0044+16.4541C35.4005+16.1828+35.6898+15.7834+35.8476+15.3299C36.0055+14.8762+36.06+14.3832+35.9179+13.9245C35.7758+13.4657+35.4615+13.0851+35.0747+12.8002C34.688+12.5154+34.2199+12.3784+33.7396+12.3786L23.2699+12.3786L20.1078+2.68182C19.9615+2.23049+19.7192+1.83693+19.3349+1.55755C18.9506+1.27819+18.4749+1.13595+17.9998+1.13595ZM17.9998+3.38449L21.6537+14.6272C21.6537+14.6272+33.7396+14.6272+33.7396+14.6272C33.7397+14.6275+24.6049+20.8809+24.6049+20.8809L23.9023+21.3728C23.9023+21.3728+27.6969+32.6154+27.6967+32.6155C27.6967+32.6155+17.9998+25.5888+17.9998+25.5888C17.9998+25.5888+8.30299+32.6156+8.30302+32.6155L12.0974+21.3728C12.0974+21.3728+2.26007+14.6272+2.26007+14.6272L14.346+14.6272C14.346+14.6272+17.9998+3.38449+17.9998+3.38449Z" opacity="1" fill="#fba10f"/>
</g>
</svg>
