<?xml version="1.0" encoding="UTF-8" standalone="no"?> <!-- Created with Vectornator for iOS (http://vectornator.io/) --><!DOCTYPE svg PUBLIC "-//W3C//DTD SVG 1.1//EN" "http://www.w3.org/Graphics/SVG/1.1/DTD/svg11.dtd">
<svg height="100%" style="fill-rule:nonzero;clip-rule:evenodd;stroke-linecap:round;stroke-linejoin:round;" xmlns:xlink="http://www.w3.org/1999/xlink" xmlns="http://www.w3.org/2000/svg" xml:space="preserve" width="100%" xmlns:vectornator="http://vectornator.io" version="1.1" viewBox="0 0 36 36">
<metadata>
<vectornator:setting key="DimensionsVisible" value="1"/>
<vectornator:setting key="PencilOnly" value="0"/>
<vectornator:setting key="SnapToPoints" value="0"/>
<vectornator:setting key="OutlineMode" value="0"/>
<vectornator:setting key="CMYKEnabledKey" value="0"/>
<vectornator:setting key="RulersVisible" value="1"/>
<vectornator:setting key="SnapToEdges" value="0"/>
<vectornator:setting key="GuidesVisible" value="1"/>
<vectornator:setting key="DisplayWhiteBackground" value="0"/>
<vectornator:setting key="doHistoryDisabled" value="0"/>
<vectornator:setting key="SnapToGuides" value="1"/>
<vectornator:setting key="TimeLapseWatermarkDisabled" value="0"/>
<vectornator:setting key="Units" value="Points"/>
<vectornator:setting key="DynamicGuides" value="0"/>
<vectornator:setting key="IsolateActiveLayer" value="0"/>
<vectornator:setting key="SnapToGrid" value="0"/>
</metadata>
<defs/>
<g id="Untitled" vectornator:layerName="Untitled">
<path d="M17.9998+1.05496C17.3285+1.05496+16.6894+1.25595+16.1464+1.65068C15.6035+2.04542+15.1621+2.60077+14.955+3.23928L12.2411+11.6456L3.17289+11.6456C2.48957+11.6474+1.7981+11.8381+1.25334+12.2413C0.708581+12.6446+0.327716+13.2484+0.128083+13.8961C-0.0715483+14.5438-0.0289509+15.2419+0.194275+15.8819C0.417495+16.5218+0.82658+17.0212+1.38572+17.4043L8.66679+22.4348L5.88675+30.7088C5.67117+31.346+5.61828+32.0516+5.82055+32.6945C6.02288+33.3376+6.46926+33.8834+7.012+34.2831C7.55468+34.6828+8.19149+34.9425+8.86536+34.945C9.5397+34.9476+10.1731+34.7452+10.7187+34.3493L17.9998+29.054L25.2809+34.3493C25.832+34.7451+26.4654+34.9476+27.1342+34.945C27.1342+34.945+28.1427+34.7784+28.5904+34.5479C29.0384+34.3172+29.4221+34.0311+29.7157+33.6212C30.0092+33.2114+30.1709+32.7292+30.2452+32.2312C30.3196+31.7321+30.2745+31.1866+30.1128+30.7088L27.3328+22.4348L34.6139+17.4043C35.1735+17.0209+35.5823+16.5228+35.8053+15.8819C36.0284+15.2408+36.0722+14.5441+35.8715+13.8961C35.6707+13.2478+35.2267+12.6439+34.6801+12.2413C34.1337+11.8389+33.5053+11.6453+32.8267+11.6456L23.7585+11.6456L21.0446+3.23928C20.8379+2.60183+20.3962+2.04544+19.8532+1.65068C19.3102+1.25594+18.6711+1.05496+17.9998+1.05496ZM17.9998+7.67411L20.6475+15.8819L29.3847+15.8819L22.3022+20.7138L25.0823+28.9878L17.9998+23.8248L10.9173+28.9878L13.6973+20.7138L6.61485+15.8819L15.3521+15.8819L17.9998+7.67411Z" opacity="1" fill="#fba10f"/>
</g>
</svg>
