<?xml version="1.0" encoding="UTF-8" standalone="no"?> <!-- Created with Vectornator for iOS (http://vectornator.io/) --><!DOCTYPE svg PUBLIC "-//W3C//DTD SVG 1.1//EN" "http://www.w3.org/Graphics/SVG/1.1/DTD/svg11.dtd">
<svg height="100%" style="fill-rule:nonzero;clip-rule:evenodd;stroke-linecap:round;stroke-linejoin:round;" xmlns:xlink="http://www.w3.org/1999/xlink" xmlns="http://www.w3.org/2000/svg" xml:space="preserve" width="100%" xmlns:vectornator="http://vectornator.io" version="1.1" viewBox="0 0 36 36">
<metadata>
<vectornator:setting key="DimensionsVisible" value="1"/>
<vectornator:setting key="PencilOnly" value="0"/>
<vectornator:setting key="SnapToPoints" value="0"/>
<vectornator:setting key="OutlineMode" value="0"/>
<vectornator:setting key="CMYKEnabledKey" value="0"/>
<vectornator:setting key="RulersVisible" value="1"/>
<vectornator:setting key="SnapToEdges" value="0"/>
<vectornator:setting key="GuidesVisible" value="1"/>
<vectornator:setting key="DisplayWhiteBackground" value="0"/>
<vectornator:setting key="doHistoryDisabled" value="0"/>
<vectornator:setting key="SnapToGuides" value="1"/>
<vectornator:setting key="TimeLapseWatermarkDisabled" value="0"/>
<vectornator:setting key="Units" value="Points"/>
<vectornator:setting key="DynamicGuides" value="0"/>
<vectornator:setting key="IsolateActiveLayer" value="0"/>
<vectornator:setting key="SnapToGrid" value="0"/>
</metadata>
<defs/>
<g id="Untitled" vectornator:layerName="Untitled">
<path d="M18+0C8.05887+0+0+8.05887+0+18C0+27.9411+8.05887+36+18+36C27.9411+36+36+27.9411+36+18C36+8.05887+27.9411+0+18+0ZM28.2188+11.625C28.4525+11.629+28.6686+11.7248+28.8438+11.9062C29.1942+12.2689+29.2063+12.8372+28.8438+13.1875L15.0625+26.4688C14.8855+26.6395+14.6662+26.75+14.4375+26.75C14.2122+26.75+13.9881+26.6658+13.8125+26.5L7.25+20.3125C6.8831+19.9667+6.87292+19.3979+7.21875+19.0312C7.56402+18.6643+8.13282+18.6226+8.5+18.9688L14.4375+24.5625L27.5625+11.875C27.7437+11.7+27.985+11.621+28.2188+11.625Z" opacity="1" fill="#69a358"/>
</g>
</svg>
