<?xml version="1.0" encoding="UTF-8" standalone="no"?> <!-- Created with Vectornator for iOS (http://vectornator.io/) --><!DOCTYPE svg PUBLIC "-//W3C//DTD SVG 1.1//EN" "http://www.w3.org/Graphics/SVG/1.1/DTD/svg11.dtd">
<svg height="100%" style="fill-rule:nonzero;clip-rule:evenodd;stroke-linecap:round;stroke-linejoin:round;" xmlns:xlink="http://www.w3.org/1999/xlink" xmlns="http://www.w3.org/2000/svg" xml:space="preserve" width="100%" xmlns:vectornator="http://vectornator.io" version="1.1" viewBox="0 0 36 36">
<metadata>
<vectornator:setting key="DimensionsVisible" value="1"/>
<vectornator:setting key="PencilOnly" value="0"/>
<vectornator:setting key="SnapToPoints" value="0"/>
<vectornator:setting key="OutlineMode" value="0"/>
<vectornator:setting key="CMYKEnabledKey" value="0"/>
<vectornator:setting key="RulersVisible" value="1"/>
<vectornator:setting key="SnapToEdges" value="0"/>
<vectornator:setting key="GuidesVisible" value="1"/>
<vectornator:setting key="DisplayWhiteBackground" value="0"/>
<vectornator:setting key="doHistoryDisabled" value="0"/>
<vectornator:setting key="TimeLapseWatermarkDisabled" value="0"/>
<vectornator:setting key="SnapToGuides" value="1"/>
<vectornator:setting key="Units" value="Points"/>
<vectornator:setting key="DynamicGuides" value="0"/>
<vectornator:setting key="SnapToGrid" value="0"/>
<vectornator:setting key="IsolateActiveLayer" value="0"/>
</metadata>
<defs/>
<g id="Untitled" vectornator:layerName="Untitled">
<g opacity="1">
<path d="M35.3571+17.3571L30.2143+17.3571C30.0438+17.3571+29.8803+17.4249+29.7597+17.5454C29.6391+17.666+29.5714+17.8295+29.5714+18C29.5714+18.1705+29.6391+18.334+29.7597+18.4546C29.8803+18.5751+30.0438+18.6429+30.2143+18.6429L35.3571+18.6429C35.5276+18.6429+35.6912+18.5751+35.8118+18.4546C35.9324+18.334+36+18.1705+36+18C36+17.8295+35.9324+17.666+35.8118+17.5454C35.6912+17.4249+35.5276+17.3571+35.3571+17.3571Z" opacity="1" fill="#ff4f1f"/>
<path d="M6.42857+18C6.42857+17.8295+6.36084+17.666+6.24029+17.5454C6.11972+17.4249+5.9562+17.3571+5.78571+17.3571L0.642857+17.3571C0.472361+17.3571+0.308847+17.4249+0.188289+17.5454C0.0677296+17.666+0+17.8295+0+18C0+18.1705+0.0677296+18.334+0.188289+18.4546C0.308847+18.5751+0.472361+18.6429+0.642857+18.6429L5.78571+18.6429C5.9562+18.6429+6.11972+18.5751+6.24029+18.4546C6.36084+18.334+6.42857+18.1705+6.42857+18Z" opacity="1" fill="#ff4f1f"/>
<path d="M26.64+10.0088C26.7246+10.0093+26.8087+9.99306+26.8869+9.96105C26.9653+9.92906+27.0365+9.88192+27.0964+9.82234L30.735+6.18377C30.8404+6.06081+30.8955+5.90261+30.8893+5.74082C30.8829+5.57902+30.816+5.42553+30.7013+5.31105C30.5869+5.19657+30.4334+5.12949+30.2716+5.12324C30.1099+5.11699+29.9517+5.17204+29.8286+5.27734L26.19+8.91591C26.0995+9.00584+26.0375+9.1207+26.0126+9.24591C25.9874+9.37111+26.0002+9.50094+26.0491+9.61887C26.0979+9.73679+26.181+9.83746+26.2875+9.90805C26.3939+9.97866+26.5189+10.0159+26.6464+10.0152L26.64+10.0088Z" opacity="1" fill="#ff4f1f"/>
<path d="M8.91008+26.1818L5.27151+29.8139C5.20421+29.8715+5.14957+29.9422+5.11097+30.0222C5.0724+30.1019+5.0507+30.1888+5.04728+30.2773C5.04386+30.3657+5.05877+30.4542+5.09109+30.5365C5.12342+30.619+5.17245+30.6941+5.23509+30.7566C5.29773+30.8193+5.37267+30.8682+5.45516+30.9006C5.53765+30.933+5.62595+30.9479+5.71449+30.9446C5.80302+30.941+5.88988+30.9194+5.96962+30.8808C6.04939+30.8422+6.12031+30.7875+6.17793+30.7203L9.81651+27.0818C9.92183+26.9586+9.97686+26.8005+9.97061+26.6387C9.96436+26.477+9.8973+26.3235+9.78279+26.209C9.66831+26.0943+9.51483+26.0275+9.35306+26.0211C9.19126+26.0149+9.03307+26.0699+8.91008+26.1753L8.91008+26.1818Z" opacity="1" fill="#ff4f1f"/>
<path d="M18+6.42857C18.1705+6.42857+18.334+6.36084+18.4546+6.24029C18.5751+6.11972+18.6429+5.9562+18.6429+5.78571L18.6429+0.642857C18.6429+0.472361+18.5751+0.308847+18.4546+0.188289C18.334+0.0677296+18.1705+0+18+0C17.8295+0+17.666+0.0677296+17.5454+0.188289C17.4249+0.308847+17.3571+0.472361+17.3571+0.642857L17.3571+5.78571C17.3571+5.9562+17.4249+6.11972+17.5454+6.24029C17.666+6.36084+17.8295+6.42857+18+6.42857Z" opacity="1" fill="#ff4f1f"/>
<path d="M18+29.5714C17.8295+29.5714+17.666+29.6391+17.5454+29.7597C17.4249+29.8803+17.3571+30.0438+17.3571+30.2143L17.3571+35.3571C17.3571+35.5276+17.4249+35.6912+17.5454+35.8118C17.666+35.9324+17.8295+36+18+36C18.1705+36+18.334+35.9324+18.4546+35.8118C18.5751+35.6912+18.6429+35.5276+18.6429+35.3571L18.6429+30.2143C18.6429+30.0438+18.5751+29.8803+18.4546+29.7597C18.334+29.6391+18.1705+29.5714+18+29.5714Z" opacity="1" fill="#ff4f1f"/>
<path d="M8.91013+9.81733C9.03309+9.92265+9.19129+9.97768+9.35308+9.97143C9.51488+9.96519+9.66834+9.8981+9.78285+9.78362C9.89733+9.66914+9.96439+9.51565+9.97064+9.35385C9.97689+9.19206+9.92186+9.03387+9.81656+8.9109L6.18441+5.27233C6.06142+5.167+5.90323+5.11197+5.74143+5.11822C5.57964+5.12447+5.42618+5.19153+5.3117+5.30604C5.19719+5.42052+5.13013+5.57401+5.12388+5.7358C5.11763+5.89757+5.17266+6.05577+5.27799+6.17876L8.91013+9.81733Z" opacity="1" fill="#ff4f1f"/>
<path d="M27.0903+26.1854C26.9671+26.0799+26.8089+26.0249+26.6472+26.0311C26.4855+26.0375+26.3319+26.1044+26.2175+26.2191C26.1028+26.3335+26.036+26.487+26.0295+26.6487C26.0234+26.8105+26.0784+26.9686+26.1838+27.0918L29.8224+30.7304C29.9453+30.8355+30.1035+30.8906+30.2652+30.8844C30.4269+30.8782+30.5805+30.8111+30.6949+30.6967C30.8096+30.582+30.8764+30.4285+30.8829+30.2667C30.889+30.105+30.834+29.9469+30.7288+29.8239L27.0903+26.1854Z" opacity="1" fill="#ff4f1f"/>
<path d="M26.3571+18C26.3571+19.8979+25.7112+21.7392+24.5255+23.2211C23.3398+24.703+21.685+25.7372+19.8334+26.1535C17.9818+26.5698+16.0436+26.3435+14.3377+25.5119C12.6318+24.6803+11.2597+23.2927+10.4473+21.5775C9.63486+19.8623+9.43043+17.9217+9.8676+16.0749C10.3048+14.2281+11.3575+12.5851+12.8527+11.4161C14.3479+10.2472+16.1963+9.62203+18.0941+9.6434C19.9918+9.66474+21.8258+10.3314+23.2942+11.5337L22.4809+12.5271C21.238+11.5096+19.6858+10.9453+18.0796+10.9272C16.4734+10.9091+14.9089+11.4383+13.6435+12.4276C12.378+13.417+11.487+14.8076+11.117+16.3707C10.747+17.9338+10.92+19.5762+11.6076+21.0279C12.2953+22.4796+13.4565+23.654+14.9003+24.3579C16.3442+25.0618+17.9846+25.2533+19.5518+24.9009C21.1189+24.5485+22.5194+23.6732+23.523+22.419C24.5265+21.1647+25.0732+19.6063+25.0732+18L26.3571+18Z" opacity="1" fill="#ff4f1f"/>
</g>
</g>
</svg>
