<?xml version="1.0" encoding="UTF-8" standalone="no"?> <!-- Created with Vectornator for iOS (http://vectornator.io/) --><!DOCTYPE svg PUBLIC "-//W3C//DTD SVG 1.1//EN" "http://www.w3.org/Graphics/SVG/1.1/DTD/svg11.dtd">
<svg height="100%" style="fill-rule:nonzero;clip-rule:evenodd;stroke-linecap:round;stroke-linejoin:round;" xmlns:xlink="http://www.w3.org/1999/xlink" xmlns="http://www.w3.org/2000/svg" xml:space="preserve" width="100%" xmlns:vectornator="http://vectornator.io" version="1.1" viewBox="0 0 36 36">
<metadata>
<vectornator:setting key="DimensionsVisible" value="1"/>
<vectornator:setting key="PencilOnly" value="0"/>
<vectornator:setting key="SnapToPoints" value="0"/>
<vectornator:setting key="OutlineMode" value="0"/>
<vectornator:setting key="GuidesVisible" value="1"/>
<vectornator:setting key="RulersVisible" value="1"/>
<vectornator:setting key="SnapToEdges" value="0"/>
<vectornator:setting key="CMYKEnabledKey" value="0"/>
<vectornator:setting key="DisplayWhiteBackground" value="0"/>
<vectornator:setting key="doHistoryDisabled" value="0"/>
<vectornator:setting key="SnapToGuides" value="1"/>
<vectornator:setting key="TimeLapseWatermarkDisabled" value="0"/>
<vectornator:setting key="Units" value="Points"/>
<vectornator:setting key="IsolateActiveLayer" value="0"/>
<vectornator:setting key="SnapToGrid" value="0"/>
<vectornator:setting key="DynamicGuides" value="0"/>
</metadata>
<defs/>
<g id="Untitled" vectornator:layerName="Untitled">
<g opacity="1">
<path d="M29.5757+16.4309C29.163+16.4309+28.7721+16.613+28.4803+16.9046C28.1881+17.1968+28.0066+17.5872+28.0066+18C28.0066+18.4128+28.1883+18.8035+28.4803+19.0954C28.7724+19.3873+29.163+19.5691+29.5757+19.5691L34.4309+19.5691C34.8436+19.5691+35.264+19.387+35.5559+19.0954C35.8481+18.8032+36+18.4128+36+18C36+17.5872+35.8479+17.1965+35.5559+16.9046C35.2638+16.6127+34.8436+16.4309+34.4309+16.4309L29.5757+16.4309Z" opacity="1" fill="#ff4f1f"/>
<path d="M1.56908+16.4309C1.15635+16.4309+0.735927+16.6129+0.444079+16.9046C0.152007+17.1968-3.79587e-07+17.5873-4.17233e-07+18C-4.17233e-07+18.4127+0.152279+18.8035+0.444079+19.0954C0.736199+19.3874+1.15635+19.5691+1.56908+19.5691L6.42434+19.5691C6.83705+19.5691+7.22788+19.3871+7.51974+19.0954C7.81184+18.8032+7.99342+18.4127+7.99342+18C7.99342+17.5873+7.81151+17.1965+7.51974+16.9046C7.22755+16.6126+6.83705+16.4309+6.42434+16.4309L1.56908+16.4309Z" opacity="1" fill="#ff4f1f"/>
<path d="M9.85855+24.6612C9.46566+24.6461+9.06088+24.7613+8.76316+25.0164L8.4375+25.3125C8.4375+25.3125+8.4375+25.3581+8.4375+25.3717L5.26974+28.5099C5.15976+28.6003+5.03759+28.7897+4.94408+28.9836C4.85113+29.1756+4.80434+29.3909+4.79605+29.6053C4.78776+29.8197+4.8064+30.0272+4.88487+30.227C4.96296+30.4262+5.08803+30.6081+5.24013+30.7599C5.39068+30.9106+5.57357+31.0368+5.77303+31.1151C5.97264+31.1935+6.1806+31.2119+6.39474+31.2039C6.61155+31.1951+6.82379+31.1492+7.01645+31.0559C7.20925+30.9626+7.38031+30.8337+7.51974+30.6711L10.9243+27.2664C11.2291+26.9143+11.3539+26.533+11.3388+26.1414C11.3237+25.7498+11.1719+25.3824+10.8947+25.1053C10.6183+24.8283+10.2501+24.6767+9.85855+24.6612Z" opacity="1" fill="#ff4f1f"/>
<path d="M18-4.17233e-07C17.5873-4.17233e-07+17.1965+0.152279+16.9046+0.444079C16.6126+0.736199+16.4309+1.15635+16.4309+1.56908L16.4309+6.42434C16.4309+6.83705+16.6129+7.22788+16.9046+7.51974C17.1968+7.81184+17.5873+7.99342+18+7.99342C18.4127+7.99342+18.8035+7.81151+19.0954+7.51974C19.3874+7.22755+19.5691+6.83705+19.5691+6.42434L19.5691+1.56908C19.5691+1.15635+19.3871+0.735927+19.0954+0.444079C18.8032+0.152007+18.4127-3.79587e-07+18-4.17233e-07Z" opacity="1" fill="#ff4f1f"/>
<path d="M18+28.0066C17.5872+28.0066+17.1965+28.1883+16.9046+28.4803C16.6127+28.7724+16.4309+29.163+16.4309+29.5757L16.4309+34.4309C16.4309+34.8436+16.613+35.264+16.9046+35.5559C17.1968+35.8481+17.5872+36+18+36C18.4128+36+18.8035+35.8479+19.0954+35.5559C19.3873+35.2638+19.5691+34.8436+19.5691+34.4309L19.5691+29.5757C19.5691+29.163+19.387+28.7721+19.0954+28.4803C18.8032+28.1881+18.4128+28.0066+18+28.0066Z" opacity="1" fill="#ff4f1f"/>
<path d="M6.33553+4.85526C5.94378+4.8704+5.57653+5.02208+5.29934+5.29934C5.02225+5.57636+4.8704+5.94379+4.85526+6.33553C4.84013+6.72723+4.98514+7.13318+5.24013+7.43092C5.71933+7.91487+8.76316+10.9539+8.76316+10.9539C9.0609+11.209+9.46683+11.3539+9.85855+11.3388C10.2502+11.3237+10.6175+11.1719+10.8947+10.8947C11.172+10.6175+11.3237+10.2502+11.3388+9.85855C11.3539+9.46686+11.2089+9.06089+10.9539+8.76316L7.49013+5.26974C7.13813+4.96448+6.72725+4.84013+6.33553+4.85526Z" opacity="1" fill="#ff4f1f"/>
<path d="M26.1414+24.6612C25.7487+24.6767+25.3823+24.8275+25.1053+25.1053C24.8294+25.3804+24.6769+25.7501+24.6612+26.1414C24.6463+26.5351+24.7914+26.9392+25.0461+27.2368L28.5395+30.7303C28.8912+31.0348+29.2732+31.1597+29.6645+31.1447C30.0562+31.1297+30.4235+30.9778+30.7007+30.7007C30.9777+30.4236+31.129+30.0556+31.1447+29.6645C31.1596+29.271+31.0439+28.8962+30.7895+28.5987C30.3085+28.1137+27.2368+25.0461+27.2368+25.0461C26.939+24.791+26.5331+24.6462+26.1414+24.6612Z" opacity="1" fill="#ff4f1f"/>
<path d="M18.0888+9.14803C16.0758+9.12536+14.1386+9.77327+12.5526+11.0132C10.9666+12.2531+9.84863+13.9983+9.38487+15.9572C8.92114+17.9162+9.1152+19.9701+9.97697+21.7895C10.8387+23.6088+12.3122+25.0817+14.1217+25.9638C15.9312+26.8459+17.9899+27.0863+19.9539+26.6447C21.918+26.2032+23.6699+25.1081+24.9276+23.5362C26.1853+21.9643+26.852+20.0132+26.852+18L26.852+17.0526L23.7434+17.0526L23.7434+18C23.7434+19.3066+23.3163+20.5619+22.5+21.5822C21.6837+22.6024+20.5477+23.3383+19.273+23.625C17.9982+23.9117+16.6581+23.7535+15.4836+23.1809C14.3092+22.6084+13.3489+21.6382+12.7895+20.4572C12.2302+19.2764+12.1036+17.9393+12.4046+16.6678C12.7056+15.3963+13.418+14.2752+14.4474+13.4704C15.4767+12.6656+16.7527+12.2419+18.0592+12.2566C19.3657+12.2713+20.6304+12.7315+21.6414+13.5592L22.3816+14.1513L24.3355+11.7533L23.625+11.1316C22.0674+9.85627+20.1018+9.17066+18.0888+9.14803Z" opacity="1" fill="#ff4f1f"/>
<path d="M30.6735+5.29C30.3817+4.99815+29.9977+4.82952+29.585+4.82945C29.1719+4.82955+28.7464+4.99816+28.4545+5.29L25.0213+8.72319C24.7295+9.01502+24.5818+9.42007+24.5817+9.8327C24.5818+10.2459+24.7295+10.6504+25.0213+10.9422C25.3132+11.2341+25.7181+11.3817+26.1308+11.3818C26.5439+11.3817+26.9485+11.234+27.2403+10.9422L30.6735+7.50901C30.9654+7.21717+31.134+6.79121+31.1341+6.37857C31.134+5.96545+30.9654+5.58186+30.6735+5.29Z" opacity="1" fill="#ff4f1f"/>
</g>
</g>
</svg>
