<?xml version="1.0" encoding="UTF-8" standalone="no"?> <!-- Created with Vectornator for iOS (http://vectornator.io/) --><!DOCTYPE svg PUBLIC "-//W3C//DTD SVG 1.1//EN" "http://www.w3.org/Graphics/SVG/1.1/DTD/svg11.dtd">
<svg height="100%" style="fill-rule:nonzero;clip-rule:evenodd;stroke-linecap:round;stroke-linejoin:round;" xmlns:xlink="http://www.w3.org/1999/xlink" xmlns="http://www.w3.org/2000/svg" xml:space="preserve" width="100%" xmlns:vectornator="http://vectornator.io" version="1.1" viewBox="0 0 36 36">
<metadata>
<vectornator:setting key="DimensionsVisible" value="1"/>
<vectornator:setting key="PencilOnly" value="0"/>
<vectornator:setting key="SnapToPoints" value="0"/>
<vectornator:setting key="OutlineMode" value="0"/>
<vectornator:setting key="CMYKEnabledKey" value="0"/>
<vectornator:setting key="RulersVisible" value="1"/>
<vectornator:setting key="SnapToEdges" value="0"/>
<vectornator:setting key="GuidesVisible" value="1"/>
<vectornator:setting key="DisplayWhiteBackground" value="0"/>
<vectornator:setting key="doHistoryDisabled" value="0"/>
<vectornator:setting key="SnapToGuides" value="1"/>
<vectornator:setting key="TimeLapseWatermarkDisabled" value="0"/>
<vectornator:setting key="Units" value="Points"/>
<vectornator:setting key="DynamicGuides" value="0"/>
<vectornator:setting key="IsolateActiveLayer" value="0"/>
<vectornator:setting key="SnapToGrid" value="0"/>
</metadata>
<defs/>
<g id="Untitled" vectornator:layerName="Untitled">
<path d="M16.5938+0C14.5346+1.58946e-07+12.9375+1.6625+12.9375+3.6875C12.9375+5.4125+12.234+7.03751+10.9375+8.3125L2.78125+16.3438C2.01861+17.0938+1.5625+18.1374+1.5625+19.1875L1.5625+28.0625C1.5625+32.4875+5.1567+36+9.65625+36L27.0312+36C28.7852+36+30.25+34.5686+30.25+32.8438C30.25+32.2242+30.0083+31.6775+29.6875+31.1875L29.7812+31.1875C31.5352+31.1875+33+29.7875+33+28.0625C33+27.2874+32.6375+26.5831+32.1562+26.0312C33.4264+25.608+34.4688+24.628+34.4688+23.25C34.4688+21.8799+33.4427+20.9278+32.1875+20.5C32.677+19.946+33.0312+19.2512+33.0312+18.4688C33.0313+16.7437+31.5665+15.3125+29.8125+15.3125L12.2812+15.3125L12.2812+16.8125L29.8125+16.8125C30.7275+16.8125+31.5+17.5688+31.5+18.4688C31.5+19.3688+30.7275+20.125+29.8125+20.125L26.2188+20.125L23.9375+20.125L23.9375+21.625L26.2188+21.625L29.8125+21.625L31.25+21.625C32.1652+21.625+32.9375+22.35+32.9375+23.25C32.9375+24.15+32.1652+24.9062+31.25+24.9062L29.7812+24.9062L23.9062+24.9062L23.9062+26.4062L29.7812+26.4062C30.6964+26.4063+31.4687+27.1625+31.4688+28.0625C31.4688+28.9625+30.6964+29.6875+29.7812+29.6875L27.0312+29.6875L25.125+29.6875L24+29.6875L24+31.1875L25.125+31.1875L27.0312+31.1875C27.9464+31.1875+28.7188+31.9437+28.7188+32.8438C28.7187+33.7437+27.9464+34.5+27.0312+34.5L9.65625+34.5C5.99561+34.5+3.09375+31.6625+3.09375+28.0625L3.09375+19.1875C3.09375+18.5124+3.38616+17.8562+3.84375+17.4062L12+9.3125C13.6015+7.81249+14.4688+5.76874+14.4688+3.59375C14.4688+2.46875+15.3735+1.5+16.5938+1.5C17.7377+1.5+18.7188+2.39374+18.7188+3.59375L18.7188+7.9375C18.7188+9.6625+18.0465+11.3188+16.75+12.5938L16.375+12.9688L17.4375+14.0312L17.8125+13.6562C19.414+12.1563+20.25+10.1125+20.25+7.9375L20.25+3.59375C20.25+1.64376+18.6529+0+16.5938+0Z" opacity="1" fill="#2f7bb1"/>
</g>
</svg>
