<?xml version="1.0" encoding="UTF-8" standalone="no"?> <!-- Created with Vectornator for iOS (http://vectornator.io/) --><!DOCTYPE svg PUBLIC "-//W3C//DTD SVG 1.1//EN" "http://www.w3.org/Graphics/SVG/1.1/DTD/svg11.dtd">
<svg height="100%" style="fill-rule:nonzero;clip-rule:evenodd;stroke-linecap:round;stroke-linejoin:round;" xmlns:xlink="http://www.w3.org/1999/xlink" xmlns="http://www.w3.org/2000/svg" xml:space="preserve" width="100%" xmlns:vectornator="http://vectornator.io" version="1.1" viewBox="0 0 36 36">
<metadata>
<vectornator:setting key="DimensionsVisible" value="1"/>
<vectornator:setting key="PencilOnly" value="0"/>
<vectornator:setting key="SnapToPoints" value="0"/>
<vectornator:setting key="OutlineMode" value="0"/>
<vectornator:setting key="CMYKEnabledKey" value="0"/>
<vectornator:setting key="RulersVisible" value="1"/>
<vectornator:setting key="SnapToEdges" value="0"/>
<vectornator:setting key="GuidesVisible" value="1"/>
<vectornator:setting key="DisplayWhiteBackground" value="0"/>
<vectornator:setting key="doHistoryDisabled" value="0"/>
<vectornator:setting key="SnapToGuides" value="1"/>
<vectornator:setting key="TimeLapseWatermarkDisabled" value="0"/>
<vectornator:setting key="Units" value="Points"/>
<vectornator:setting key="DynamicGuides" value="0"/>
<vectornator:setting key="IsolateActiveLayer" value="0"/>
<vectornator:setting key="SnapToGrid" value="0"/>
</metadata>
<defs/>
<g id="Untitled" vectornator:layerName="Untitled">
<path d="M19.4375+36C21.4966+36+23.0938+34.3375+23.0938+32.3125C23.0938+30.5875+23.7973+28.9625+25.0938+27.6875L33.25+19.6562C34.0126+18.9062+34.4687+17.8626+34.4687+16.8125L34.4687+7.9375C34.4687+3.51248+30.8745-1.94164e-06+26.375-1.26223e-06L9+1.36132e-06C7.24601-4.73166e-06+5.78125+1.43138+5.78125+3.15625C5.78125+3.77579+6.02293+4.32248+6.34375+4.8125L6.25+4.8125C4.49602+4.8125+3.03125+6.21248+3.03125+7.9375C3.03125+8.71256+3.39372+9.41687+3.875+9.96875C2.60481+10.392+1.5625+11.372+1.5625+12.75C1.5625+14.1201+2.58855+15.0722+3.84375+15.5C3.35427+16.054+3+16.7488+3+17.5313C3+19.2563+4.46477+20.6875+6.21875+20.6875L23.75+20.6875L23.75+19.1875L6.21875+19.1875C5.30373+19.1875+4.53125+18.4313+4.53125+17.5313C4.53125+16.6313+5.30373+15.875+6.21875+15.875L9.8125+15.875L12.0937+15.875L12.0937+14.375L9.8125+14.375L6.21875+14.375L4.78125+14.375C3.86607+14.375+3.09375+13.65+3.09375+12.75C3.09375+11.85+3.86607+11.0938+4.78125+11.0938L6.25+11.0938L12.125+11.0938L12.125+9.59375L6.25+9.59375C5.33482+9.59375+4.5625+8.8375+4.5625+7.9375C4.5625+7.0375+5.33482+6.3125+6.25+6.3125L9+6.3125L10.9062+6.3125L12.0312+6.3125L12.0312+4.8125L10.9062+4.8125L9+4.8125C8.08482+4.8125+7.3125+4.05625+7.3125+3.15625C7.3125+2.25625+8.08482+1.5+9+1.5L26.375+1.5C30.0356+1.49999+32.9375+4.3375+32.9375+7.9375L32.9375+16.8125C32.9375+17.4876+32.6451+18.1437+32.1875+18.5937L24.0313+26.6875C22.4297+28.1875+21.5625+30.2313+21.5625+32.4062C21.5625+33.5312+20.6577+34.5+19.4375+34.5C18.2935+34.5+17.3125+33.6063+17.3125+32.4063L17.3125+28.0625C17.3125+26.3375+17.9847+24.6812+19.2813+23.4062L19.6563+23.0312L18.5938+21.9687L18.2188+22.3437C16.6172+23.8437+15.7813+25.8875+15.7813+28.0625L15.7813+32.4063C15.7813+34.3562+17.3783+36+19.4375+36Z" opacity="1" fill="#2f7bb1"/>
</g>
</svg>
