<?xml version="1.0" encoding="utf-8"?>
<svg viewBox="4.5 4.5 15 15" width="15" height="15" xmlns="http://www.w3.org/2000/svg">
  <path d="M 19.5 12 C 19.5 14.035 18.633 15.974 17.303 17.303 C 15.974 18.633 14.035 19.5 12 19.5 C 9.965 19.5 8.026 18.633 6.697 17.303 C 5.367 15.974 4.5 14.035 4.5 12 C 4.5 9.965 5.367 8.026 6.697 6.697 C 8.026 5.367 9.965 4.5 12 4.5 C 14.035 4.5 15.974 5.367 17.303 6.697 C 18.633 8.026 19.5 9.965 19.5 12 Z M 16.596 7.404 C 15.392 6.2 13.831 5.5 12 5.5 C 10.169 5.5 8.608 6.2 7.404 7.404 C 6.2 8.608 5.5 10.169 5.5 12 C 5.5 13.831 6.2 15.392 7.404 16.596 C 8.608 17.8 10.169 18.5 12 18.5 C 13.831 18.5 15.392 17.8 16.596 16.596 C 17.8 15.392 18.5 13.831 18.5 12 C 18.5 10.169 17.8 8.608 16.596 7.404 Z" style="fill: rgb(47, 123, 177);"/>
  <path d="M11.4888 12.0004L9.20351 14.282C9.1352 14.3503 9.09683 14.443 9.09683 14.5396C9.09683 14.6362 9.1352 14.7288 9.20351 14.7971C9.27182 14.8654 9.36446 14.9038 9.46106 14.9038C9.55766 14.9038 9.6503 14.8654 9.7186 14.7971L12.0003 12.5119L14.2819 14.7971C14.3502 14.8654 14.4429 14.9038 14.5395 14.9038C14.6361 14.9038 14.7287 14.8654 14.797 14.7971C14.8653 14.7288 14.9037 14.6362 14.9037 14.5396C14.9037 14.443 14.8653 14.3503 14.797 14.282L12.5117 12.0004L14.797 9.71874C14.831 9.68501 14.858 9.6449 14.8764 9.60069C14.8948 9.55649 14.9043 9.50908 14.9043 9.46119C14.9043 9.4133 14.8948 9.36589 14.8764 9.32169C14.858 9.27748 14.831 9.23736 14.797 9.20364C14.7633 9.16964 14.7232 9.14266 14.679 9.12424C14.6347 9.10583 14.5873 9.09634 14.5395 9.09634C14.4916 9.09634 14.4442 9.10583 14.3999 9.12424C14.3557 9.14266 14.3156 9.16964 14.2819 9.20364L12.0003 11.4889L9.7186 9.20364C9.68488 9.16964 9.64476 9.14266 9.60056 9.12424C9.55636 9.10583 9.50894 9.09634 9.46106 9.09634C9.41317 9.09634 9.36576 9.10583 9.32155 9.12424C9.27735 9.14266 9.23723 9.16964 9.20351 9.20364C9.16951 9.23736 9.14252 9.27748 9.12411 9.32169C9.10569 9.36589 9.09621 9.4133 9.09621 9.46119C9.09621 9.50908 9.10569 9.55649 9.12411 9.60069C9.14252 9.6449 9.16951 9.68502 9.20351 9.71874L11.4888 12.0004Z" fill="#2F7BB1"/>
</svg>