<?xml version="1.0" encoding="UTF-8" standalone="no"?> <!-- Created with Vectornator for iOS (http://vectornator.io/) --><!DOCTYPE svg PUBLIC "-//W3C//DTD SVG 1.1//EN" "http://www.w3.org/Graphics/SVG/1.1/DTD/svg11.dtd">
<svg height="100%" style="fill-rule:nonzero;clip-rule:evenodd;stroke-linecap:round;stroke-linejoin:round;" xmlns:xlink="http://www.w3.org/1999/xlink" xmlns="http://www.w3.org/2000/svg" xml:space="preserve" width="100%" xmlns:vectornator="http://vectornator.io" version="1.1" viewBox="0 0 36 36">
<metadata>
<vectornator:setting key="DimensionsVisible" value="1"/>
<vectornator:setting key="PencilOnly" value="0"/>
<vectornator:setting key="SnapToPoints" value="0"/>
<vectornator:setting key="OutlineMode" value="0"/>
<vectornator:setting key="CMYKEnabledKey" value="0"/>
<vectornator:setting key="RulersVisible" value="1"/>
<vectornator:setting key="SnapToEdges" value="0"/>
<vectornator:setting key="GuidesVisible" value="1"/>
<vectornator:setting key="DisplayWhiteBackground" value="0"/>
<vectornator:setting key="doHistoryDisabled" value="0"/>
<vectornator:setting key="SnapToGuides" value="1"/>
<vectornator:setting key="TimeLapseWatermarkDisabled" value="0"/>
<vectornator:setting key="Units" value="Points"/>
<vectornator:setting key="DynamicGuides" value="0"/>
<vectornator:setting key="IsolateActiveLayer" value="0"/>
<vectornator:setting key="SnapToGrid" value="0"/>
</metadata>
<defs/>
<g id="Untitled" vectornator:layerName="Untitled">
<path d="M14.8299+18.002L0.665078+32.144C0.241671+32.5673+0.00384888+33.1419+0.00384888+33.7406C0.00384888+34.3394+0.241671+34.9134+0.665078+35.3367C1.08848+35.76+1.66268+35.998+2.26143+35.998C2.86019+35.998+3.43439+35.76+3.85773+35.3367L18.0003+21.1725L32.1422+35.3367C32.5655+35.76+33.1401+35.998+33.7389+35.998C34.3376+35.998+34.9116+35.76+35.3349+35.3367C35.7583+34.9134+35.9963+34.3394+35.9963+33.7406C35.9963+33.1419+35.7583+32.5673+35.3349+32.144L21.1701+18.002L35.3349+3.85975C35.5457+3.65068+35.713+3.40207+35.8271+3.12804C35.9411+2.85408+36+2.56022+36+2.26339C36+1.96655+35.9411+1.67269+35.8271+1.39873C35.713+1.12471+35.5457+0.876031+35.3349+0.667025C35.126+0.456282+34.8775+0.289057+34.6035+0.174884C34.329+0.0607758+34.0352+0.00195437+33.7389+0.00195437C33.442+0.00195437+33.1482+0.0607758+32.8736+0.174884C32.5996+0.289057+32.3511+0.456282+32.1422+0.667025L18.0003+14.8316L3.85773+0.667025C3.64873+0.456282+3.40005+0.289057+3.12609+0.174884C2.85213+0.0607758+2.55821+0.00195437+2.26143+0.00195437C1.9646+0.00195437+1.67074+0.0607758+1.39672+0.174884C1.12276+0.289057+0.874083+0.456282+0.665078+0.667025C0.454335+0.876031+0.287044+1.12471+0.172936+1.39873C0.0587631+1.67269+7.44191e-07+1.96655+7.44191e-07+2.26339C7.44191e-07+2.56022+0.0587631+2.85408+0.172936+3.12804C0.287044+3.40207+0.454335+3.65074+0.665078+3.85975L14.8299+18.002Z" opacity="1" fill="#2f7bb1"/>
</g>
</svg>
