<?xml version="1.0" encoding="UTF-8" standalone="no"?> <!-- Created with Vectornator for iOS (http://vectornator.io/) --><!DOCTYPE svg PUBLIC "-//W3C//DTD SVG 1.1//EN" "http://www.w3.org/Graphics/SVG/1.1/DTD/svg11.dtd">
<svg height="100%" style="fill-rule:nonzero;clip-rule:evenodd;stroke-linecap:round;stroke-linejoin:round;" xmlns:xlink="http://www.w3.org/1999/xlink" xmlns="http://www.w3.org/2000/svg" xml:space="preserve" width="100%" xmlns:vectornator="http://vectornator.io" version="1.1" viewBox="0 0 36 36">
<metadata>
<vectornator:setting key="DimensionsVisible" value="1"/>
<vectornator:setting key="PencilOnly" value="0"/>
<vectornator:setting key="SnapToPoints" value="0"/>
<vectornator:setting key="OutlineMode" value="0"/>
<vectornator:setting key="CMYKEnabledKey" value="0"/>
<vectornator:setting key="RulersVisible" value="1"/>
<vectornator:setting key="SnapToEdges" value="0"/>
<vectornator:setting key="GuidesVisible" value="1"/>
<vectornator:setting key="DisplayWhiteBackground" value="0"/>
<vectornator:setting key="doHistoryDisabled" value="0"/>
<vectornator:setting key="SnapToGuides" value="1"/>
<vectornator:setting key="TimeLapseWatermarkDisabled" value="0"/>
<vectornator:setting key="Units" value="Points"/>
<vectornator:setting key="DynamicGuides" value="0"/>
<vectornator:setting key="IsolateActiveLayer" value="0"/>
<vectornator:setting key="SnapToGrid" value="0"/>
</metadata>
<defs/>
<g id="Untitled" vectornator:layerName="Untitled">
<g opacity="1">
<path d="M-7.15256e-07+18C-7.15256e-07+8.05887+8.05887-7.15256e-07+18-7.15256e-07C27.9411-7.15256e-07+36+8.05887+36+18C36+27.9411+27.9411+36+18+36C8.05887+36-7.15256e-07+27.9411-7.15256e-07+18Z" opacity="1" fill="#2f7bb1"/>
<path d="M16.7731+18.0009L11.2884+23.4768C11.1245+23.6407+11.0324+23.8632+11.0324+24.095C11.0324+24.3269+11.1245+24.5491+11.2884+24.713C11.4524+24.877+11.6747+24.9691+11.9065+24.9691C12.1384+24.9691+12.3607+24.877+12.5246+24.713L18.0006+19.2284L23.4766+24.713C23.6405+24.877+23.863+24.9691+24.0948+24.9691C24.3266+24.9691+24.5489+24.877+24.7128+24.713C24.8767+24.5491+24.9689+24.3269+24.9689+24.095C24.9689+23.8632+24.8767+23.6407+24.7128+23.4768L19.2281+18.0009L24.7128+12.525C24.7944+12.444+24.8592+12.3478+24.9034+12.2417C24.9475+12.1356+24.9703+12.0218+24.9703+11.9069C24.9703+11.7919+24.9475+11.6781+24.9034+11.5721C24.8592+11.466+24.7944+11.3697+24.7128+11.2887C24.6319+11.2071+24.5357+11.1424+24.4296+11.0982C24.3233+11.054+24.2095+11.0312+24.0948+11.0312C23.9798+11.0312+23.8661+11.054+23.7598+11.0982C23.6537+11.1424+23.5574+11.2071+23.4766+11.2887L18.0006+16.7734L12.5246+11.2887C12.4437+11.2071+12.3474+11.1424+12.2413+11.0982C12.1353+11.054+12.0215+11.0312+11.9065+11.0312C11.7916+11.0312+11.6778+11.054+11.5717+11.0982C11.4656+11.1424+11.3694+11.2071+11.2884+11.2887C11.2068+11.3697+11.142+11.466+11.0979+11.5721C11.0537+11.6781+11.0309+11.7919+11.0309+11.9069C11.0309+12.0218+11.0537+12.1356+11.0979+12.2417C11.142+12.3478+11.2068+12.444+11.2884+12.525L16.7731+18.0009Z" opacity="1" fill="#ffffff"/>
</g>
</g>
</svg>
