<svg width="16" height="16" viewBox="0 0 16 16" fill="none" xmlns="http://www.w3.org/2000/svg">
<circle cx="8" cy="8" r="7.5" fill="#2F7BB1"/>
<path d="M7.48879 8.00039L5.20351 10.282C5.1352 10.3503 5.09683 10.443 5.09683 10.5396C5.09683 10.6362 5.1352 10.7288 5.20351 10.7971C5.27182 10.8654 5.36446 10.9038 5.46106 10.9038C5.55766 10.9038 5.6503 10.8654 5.7186 10.7971L8.00025 8.51185L10.2819 10.7971C10.3502 10.8654 10.4429 10.9038 10.5395 10.9038C10.6361 10.9038 10.7287 10.8654 10.797 10.7971C10.8653 10.7288 10.9037 10.6362 10.9037 10.5396C10.9037 10.443 10.8653 10.3503 10.797 10.282L8.51172 8.00039L10.797 5.71874C10.831 5.68501 10.858 5.6449 10.8764 5.60069C10.8948 5.55649 10.9043 5.50908 10.9043 5.46119C10.9043 5.4133 10.8948 5.36589 10.8764 5.32169C10.858 5.27748 10.831 5.23736 10.797 5.20364C10.7633 5.16964 10.7232 5.14266 10.679 5.12424C10.6347 5.10583 10.5873 5.09634 10.5395 5.09634C10.4916 5.09634 10.4442 5.10583 10.3999 5.12424C10.3557 5.14266 10.3156 5.16964 10.2819 5.20364L8.00025 7.48892L5.7186 5.20364C5.68488 5.16964 5.64476 5.14266 5.60056 5.12424C5.55636 5.10583 5.50894 5.09634 5.46106 5.09634C5.41317 5.09634 5.36576 5.10583 5.32155 5.12424C5.27735 5.14266 5.23723 5.16964 5.20351 5.20364C5.16951 5.23736 5.14252 5.27748 5.12411 5.32169C5.10569 5.36589 5.09621 5.4133 5.09621 5.46119C5.09621 5.50908 5.10569 5.55649 5.12411 5.60069C5.14252 5.6449 5.16951 5.68502 5.20351 5.71874L7.48879 8.00039Z" fill="white"/>
</svg>
