<?xml version="1.0" encoding="UTF-8" standalone="no"?>
<!DOCTYPE svg PUBLIC "-//W3C//DTD SVG 1.1//EN" "http://www.w3.org/Graphics/SVG/1.1/DTD/svg11.dtd">
<!-- Created with Vectornator (http://vectornator.io/) -->
<svg height="100%" stroke-miterlimit="10" style="fill-rule:nonzero;clip-rule:evenodd;stroke-linecap:round;stroke-linejoin:round;" version="1.1" viewBox="0 0 36 36" width="100%" xml:space="preserve" xmlns="http://www.w3.org/2000/svg" xmlns:xlink="http://www.w3.org/1999/xlink">
<defs/>
<g id="Layer-2">
<path d="M8.65625 8.04688L8.625 26.2344L15.0312 26.2344L15.0312 27.9531L20.375 27.9531L20.375 22.5781L15.0312 22.5781L15.0312 24.4219L10.4375 24.4219L10.4375 13.7969L15.0312 13.7969L15.0312 15.5469L16.8125 15.5469L16.8125 19.8281L22.0312 19.8281L22.0312 21.5469L27.375 21.5469L27.375 16.1719L22.0312 16.1719L22.0312 18.0469L18.5938 18.0469L18.5938 15.5469L20.375 15.5469L20.375 10.1719L15.0312 10.1719L15.0312 11.9844L10.4375 11.9844L10.4375 8.04688L8.65625 8.04688ZM16.8125 11.9844L18.5938 11.9844L18.5938 13.7656L16.8125 13.7656C16.8125 13.1299 16.8125 12.6299 16.8125 11.9844ZM23.8125 17.9844L25.5938 17.9844L25.5938 19.7344L23.8125 19.7344C23.8125 19.1002 23.8125 18.6186 23.8125 17.9844ZM16.8125 24.3906L18.5938 24.3906L18.5938 26.1406L16.8125 26.1406C16.8125 25.5064 16.8125 25.0248 16.8125 24.3906Z" fill="#ff0000" fill-rule="nonzero" opacity="1" stroke="none"/>
</g>
</svg>
