<?xml version="1.0" encoding="UTF-8" standalone="no"?>
<!DOCTYPE svg PUBLIC "-//W3C//DTD SVG 1.1//EN" "http://www.w3.org/Graphics/SVG/1.1/DTD/svg11.dtd">
<!-- Created with Vectornator (http://vectornator.io/) -->
<svg height="100%" stroke-miterlimit="10" style="fill-rule:nonzero;clip-rule:evenodd;stroke-linecap:round;stroke-linejoin:round;" version="1.1" viewBox="0 0 36 36" width="100%" xml:space="preserve" xmlns="http://www.w3.org/2000/svg" xmlns:xlink="http://www.w3.org/1999/xlink">
<defs/>
<g id="Layer-2">
<path d="M1.10204 0L1.04553 32.8917L12.6311 32.8917L12.6311 36L22.2951 36L22.2951 26.2794L12.6311 26.2794L12.6311 29.6138L4.32339 29.6138L4.32339 10.3987L12.6311 10.3987L12.6311 13.5636L15.8524 13.5636L15.8524 21.3061L25.2904 21.3061L25.2904 24.4144L34.9545 24.4144L34.9545 14.6939L25.2904 14.6939L25.2904 18.0848L19.0738 18.0848L19.0738 13.5636L22.2951 13.5636L22.2951 3.84301L12.6311 3.84301L12.6311 7.12088L4.32339 7.12088L4.32339 0L1.10204 0ZM15.8524 7.12088L19.0738 7.12088L19.0738 10.3422L15.8524 10.3422C15.8524 9.19253 15.8524 8.28825 15.8524 7.12088ZM28.5118 17.9717L31.7331 17.9717L31.7331 21.1366L28.5118 21.1366C28.5118 19.9897 28.5118 19.1186 28.5118 17.9717ZM15.8524 29.5573L19.0738 29.5573L19.0738 32.7221L15.8524 32.7221C15.8524 31.5752 15.8524 30.7042 15.8524 29.5573Z" fill="#ff0000" fill-rule="nonzero" opacity="1" stroke="none"/>
</g>
</svg>
