<?xml version="1.0" encoding="UTF-8" standalone="no"?>
<!DOCTYPE svg PUBLIC "-//W3C//DTD SVG 1.1//EN" "http://www.w3.org/Graphics/SVG/1.1/DTD/svg11.dtd">
<!-- Created with Vectornator (http://vectornator.io/) -->
<svg height="100%" stroke-miterlimit="10" style="fill-rule:nonzero;clip-rule:evenodd;stroke-linecap:round;stroke-linejoin:round;" version="1.1" viewBox="0 0 36 36" width="100%" xml:space="preserve" xmlns="http://www.w3.org/2000/svg" xmlns:xlink="http://www.w3.org/1999/xlink">
<defs/>
<g id="Layer-2">
<path d="M5.32155 0L5.32155 33.7527L13.9293 33.7527L13.9293 36L21.1802 36L21.1802 28.7491L13.9293 28.7491L13.9293 31.2933L7.73852 31.2933L7.73852 8.60777L13.9293 8.60777L13.9293 10.9823L16.3463 10.9823L16.3463 14.5442L16.3463 16.7915L16.3463 24.9329L23.4276 24.9329L23.4276 27.265L30.6784 27.265L30.6784 19.9717L23.4276 19.9717L23.4276 22.5159L18.7633 22.5159L18.7633 16.7915L23.4276 16.7915L23.4276 19.1237L30.6784 19.1237L30.6784 11.8304L23.4276 11.8304L23.4276 14.3746L18.7633 14.3746L18.7633 10.9823L21.1802 10.9823L21.1802 3.68905L13.9293 3.68905L13.9293 6.14841L7.73852 6.14841L7.73852 0L5.32155 0ZM16.3463 6.14841L18.7633 6.14841L18.7633 8.56537L16.3463 8.56537C16.3463 7.70276 16.3463 7.02428 16.3463 6.14841ZM25.8445 14.2898L28.2615 14.2898L28.2615 16.6643L25.8445 16.6643C25.8445 15.8038 25.8445 15.1503 25.8445 14.2898ZM25.8445 22.4311L28.2615 22.4311L28.2615 24.8057L25.8445 24.8057C25.8445 23.9451 25.8445 23.2916 25.8445 22.4311ZM16.3463 31.1661L18.7633 31.1661L18.7633 33.583L16.3463 33.583C16.3463 32.7204 16.3463 32.042 16.3463 31.1661Z" fill="#ff0000" fill-rule="nonzero" opacity="1" stroke="none"/>
</g>
</svg>
