<?xml version="1.0" encoding="UTF-8" standalone="no"?>
<!DOCTYPE svg PUBLIC "-//W3C//DTD SVG 1.1//EN" "http://www.w3.org/Graphics/SVG/1.1/DTD/svg11.dtd">
<!-- Created with Vectornator (http://vectornator.io/) -->
<svg height="100%" stroke-miterlimit="10" style="fill-rule:nonzero;clip-rule:evenodd;stroke-linecap:round;stroke-linejoin:round;" version="1.1" viewBox="0 0 36 36" width="100%" xml:space="preserve" xmlns="http://www.w3.org/2000/svg" xmlns:xlink="http://www.w3.org/1999/xlink">
<defs/>
<g id="Layer-2">
<path d="M0.220521-3.55271e-15L0.165391 32.0858L11.4671 32.0858L11.4671 36L22.5482 36L22.5482 24.9188L11.4671 24.9188L11.4671 28.8882L3.36294 28.8882L3.36294 8.37979L11.4671 8.37979L11.4671 12.294L14.6095 12.294L14.6095 20.2879L24.7534 20.2879L24.7534 24.2573L35.8346 24.2573L35.8346 13.1761L24.7534 13.1761L24.7534 17.0904L17.7519 17.0904L17.7519 12.294L22.5482 12.294L22.5482 1.21286L11.4671 1.21286L11.4671 5.18224L3.36294 5.18224L3.36294-3.55271e-15L0.220521-3.55271e-15ZM14.6095 4.35528L19.4058 4.35528L19.4058 9.15161L14.6095 9.15161C14.6095 7.61319 14.6095 5.91885 14.6095 4.35528ZM27.8959 16.3185L32.6922 16.3185L32.6922 21.1149L27.8959 21.1149C27.8959 19.5764 27.8959 17.8821 27.8959 16.3185ZM14.6095 28.0613L19.4058 28.0613L19.4058 32.8576L14.6095 32.8576C14.6095 31.3192 14.6095 29.6248 14.6095 28.0613Z" fill="#ff0000" fill-rule="nonzero" opacity="1" stroke="none"/>
</g>
</svg>
