<?xml version="1.0" encoding="UTF-8" standalone="no"?>
<!DOCTYPE svg PUBLIC "-//W3C//DTD SVG 1.1//EN" "http://www.w3.org/Graphics/SVG/1.1/DTD/svg11.dtd">
<!-- Created with Vectornator (http://vectornator.io/) -->
<svg height="100%" stroke-miterlimit="10" version="1.1" viewBox="0 0 36 36" width="100%" xml:space="preserve" xmlns="http://www.w3.org/2000/svg" xmlns:vectornator="http://vectornator.io" xmlns:xlink="http://www.w3.org/1999/xlink">
	<defs />
	<g id="Untitled" vectornator:layerName="Untitled">
		<path d="M17.8765 0.300407C14.3099 0.166672 10.8198 1.9355 8.87646 5.14416C6.2854 9.42236 7.20524 14.9619 11.064 18.1442C15.0635 21.4425 20.9237 21.1792 24.5952 17.5192C28.2667 13.8591 28.5685 7.99777 25.2827 3.98791C25.0172 3.67682 24.5364 3.63479 24.2202 3.89416C23.904 4.15352 23.8733 4.6354 24.1265 4.95666C26.861 8.30273 26.6475 13.149 23.6577 16.2692C20.6679 19.3893 15.8361 19.796 12.3765 17.2067C8.91681 14.6173 7.91327 9.86103 10.064 6.11291C12.2146 2.36479 16.8327 0.807615 20.814 2.48791C21.1959 2.6503 21.6516 2.46364 21.814 2.08166C21.9764 1.69968 21.7897 1.24405 21.4077 1.08166C20.2558 0.595304 19.0653 0.344985 17.8765 0.300407ZM18.1265 22.3629C11.1311 22.1572 4.45403 25.2761 0.157709 30.8004C-0.0972063 31.1276-0.0445303 31.608 0.282709 31.8629C0.609948 32.1178 1.09029 32.0651 1.34521 31.7379C5.34741 26.5925 11.5481 23.6713 18.064 23.8629C24.5798 24.0545 30.621 27.335 34.314 32.7067C34.5232 33.0019 34.547 33.3875 34.3765 33.7067C34.2184 34.0165 33.9118 34.2112 33.564 34.2067L1.37646 34.2067C0.961699 34.2067 0.626458 34.5419 0.626459 34.9567C0.626459 35.3714 0.961699 35.7067 1.37646 35.7067L33.564 35.7067C34.47 35.7088 35.2993 35.1965 35.7202 34.3942C36.1477 33.5807 36.087 32.6185 35.564 31.8629C31.5996 26.0957 25.1218 22.5686 18.1265 22.3629Z" fill="#ff4f1f" fill-rule="nonzero" opacity="1" stroke="none" />
	</g>
</svg>