<?xml version="1.0" encoding="UTF-8" standalone="no"?>
<!DOCTYPE svg PUBLIC "-//W3C//DTD SVG 1.1//EN" "http://www.w3.org/Graphics/SVG/1.1/DTD/svg11.dtd">
<!-- Created with Vectornator (http://vectornator.io/) -->
<svg height="100%" stroke-miterlimit="10" style="fill-rule:nonzero;clip-rule:evenodd;stroke-linecap:round;stroke-linejoin:round;" version="1.1" viewBox="0 0 36 36" width="100%" xml:space="preserve" xmlns="http://www.w3.org/2000/svg" xmlns:xlink="http://www.w3.org/1999/xlink">
<defs/>
<g id="Untitled">
<path d="M18.1265 22.3629C11.1311 22.1572 4.42973 26.1104 0.44 31.86C0.00317398 32.4895-0.124653 33.4581 0.28 34.39C0.65868 35.2621 1.73053 35.6717 2.44 35.7067L33.564 35.7067C34.47 35.7088 35.2993 35.1965 35.7202 34.3942C36.1477 33.5807 36.087 32.6156 35.564 31.86C31.5996 26.0928 25.1218 22.5686 18.1265 22.3629Z" fill="#ff4f1f" fill-rule="nonzero" opacity="1" stroke="none"/>
<path d="M7.437 10.3651C7.437 4.80561 11.9439 0.298755 17.5034 0.298755C23.0628 0.298755 27.5697 4.80561 27.5697 10.3651C27.5697 15.9246 23.0628 20.4315 17.5034 20.4315C11.9439 20.4315 7.437 15.9246 7.437 10.3651Z" fill="#1f31ff" fill-rule="nonzero" opacity="1" stroke="none"/>
</g>
</svg>
