<?xml version="1.0" encoding="UTF-8" standalone="no"?> <!-- Created with Vectornator for iOS (http://vectornator.io/) --><!DOCTYPE svg PUBLIC "-//W3C//DTD SVG 1.1//EN" "http://www.w3.org/Graphics/SVG/1.1/DTD/svg11.dtd">
<svg height="100%" style="fill-rule:nonzero;clip-rule:evenodd;stroke-linecap:round;stroke-linejoin:round;" xmlns:xlink="http://www.w3.org/1999/xlink" xmlns="http://www.w3.org/2000/svg" xml:space="preserve" width="100%" xmlns:vectornator="http://vectornator.io" version="1.1" viewBox="0 0 36 36">
<metadata>
<vectornator:setting key="DimensionsVisible" value="1"/>
<vectornator:setting key="PencilOnly" value="0"/>
<vectornator:setting key="SnapToPoints" value="0"/>
<vectornator:setting key="OutlineMode" value="0"/>
<vectornator:setting key="CMYKEnabledKey" value="0"/>
<vectornator:setting key="RulersVisible" value="1"/>
<vectornator:setting key="SnapToEdges" value="0"/>
<vectornator:setting key="GuidesVisible" value="1"/>
<vectornator:setting key="DisplayWhiteBackground" value="0"/>
<vectornator:setting key="doHistoryDisabled" value="0"/>
<vectornator:setting key="SnapToGuides" value="1"/>
<vectornator:setting key="TimeLapseWatermarkDisabled" value="0"/>
<vectornator:setting key="Units" value="Points"/>
<vectornator:setting key="DynamicGuides" value="0"/>
<vectornator:setting key="IsolateActiveLayer" value="0"/>
<vectornator:setting key="SnapToGrid" value="0"/>
</metadata>
<defs/>
<g id="Untitled" vectornator:layerName="Untitled">
<path d="M16.0725+3.2291C16.9292+1.74526+19.0709+1.74526+19.9276+3.2291L35.6985+30.5451C36.5552+32.0291+35.4844+33.8838+33.771+33.8838L2.22907+33.8838C0.515689+33.8838-0.555179+32.0291+0.301517+30.5451L16.0725+3.2291ZM17.9745+31.4052C19.1479+31.4052+20.099+30.4541+20.099+29.2807C20.099+28.1073+19.1479+27.1562+17.9745+27.1562C16.8012+27.1562+15.85+28.1073+15.85+29.2807C15.85+30.4541+16.8012+31.4052+17.9745+31.4052ZM16.9123+11.2216C16.2909+11.2216+15.8021+11.7527+15.8537+12.3721L16.916+25.1192C17.0242+26.4179+18.9249+26.4179+19.0332+25.1192L20.0954+12.3721C20.147+11.7527+19.6583+11.2216+19.0368+11.2216L16.9123+11.2216Z" fill-rule="evenodd" fill="#fbbe3b" opacity="1"/>
</g>
</svg>
