<?xml version="1.0" encoding="UTF-8" standalone="no"?>
<!DOCTYPE svg PUBLIC "-//W3C//DTD SVG 1.1//EN" "http://www.w3.org/Graphics/SVG/1.1/DTD/svg11.dtd"
[
<!ATTLIST g
  xmlns:vectornator CDATA #FIXED "http://vectornator.io"
  vectornator:layerName CDATA #IMPLIED >
<!ATTLIST g
  xmlns:vectornator CDATA #FIXED "http://vectornator.io"
  vectornator:mask CDATA #IMPLIED >
<!ATTLIST text
  xmlns:vectornator CDATA #FIXED "http://vectornator.io"
  vectornator:width CDATA #IMPLIED >
<!ATTLIST text
  xmlns:vectornator CDATA #FIXED "http://vectornator.io"
  vectornator:text CDATA #IMPLIED >

<!ATTLIST path
  xmlns:vectornator CDATA #FIXED "http://vectornator.io"
  vectornator:blendMode CDATA #IMPLIED >
<!ATTLIST path
  xmlns:vectornator CDATA #FIXED "http://vectornator.io"
  vectornator:shadowColor CDATA #IMPLIED >
<!ATTLIST path
  xmlns:vectornator CDATA #FIXED "http://vectornator.io"
  vectornator:shadowOpacity CDATA #IMPLIED >
<!ATTLIST path
  xmlns:vectornator CDATA #FIXED "http://vectornator.io"
  vectornator:shadowRadius CDATA #IMPLIED >
<!ATTLIST path
  xmlns:vectornator CDATA #FIXED "http://vectornator.io"
  vectornator:shadowOffset CDATA #IMPLIED >
<!ATTLIST path
  xmlns:vectornator CDATA #FIXED "http://vectornator.io"
  vectornator:shadowAngle CDATA #IMPLIED >

<!ATTLIST image
  xmlns:vectornator CDATA #FIXED "http://vectornator.io"
  vectornator:blendMode CDATA #IMPLIED >
<!ATTLIST image
  xmlns:vectornator CDATA #FIXED "http://vectornator.io"
  vectornator:shadowColor CDATA #IMPLIED >
<!ATTLIST image
  xmlns:vectornator CDATA #FIXED "http://vectornator.io"
  vectornator:shadowOpacity CDATA #IMPLIED >
<!ATTLIST image
  xmlns:vectornator CDATA #FIXED "http://vectornator.io"
  vectornator:shadowRadius CDATA #IMPLIED >
<!ATTLIST image
  xmlns:vectornator CDATA #FIXED "http://vectornator.io"
  vectornator:shadowOffset CDATA #IMPLIED >
<!ATTLIST image
  xmlns:vectornator CDATA #FIXED "http://vectornator.io"
  vectornator:shadowAngle CDATA #IMPLIED >

<!ATTLIST g
  xmlns:vectornator CDATA #FIXED "http://vectornator.io"
  vectornator:blendMode CDATA #IMPLIED >
<!ATTLIST g
  xmlns:vectornator CDATA #FIXED "http://vectornator.io"
  vectornator:shadowColor CDATA #IMPLIED >
<!ATTLIST g
  xmlns:vectornator CDATA #FIXED "http://vectornator.io"
  vectornator:shadowOpacity CDATA #IMPLIED >
<!ATTLIST g
  xmlns:vectornator CDATA #FIXED "http://vectornator.io"
  vectornator:shadowRadius CDATA #IMPLIED >
<!ATTLIST g
  xmlns:vectornator CDATA #FIXED "http://vectornator.io"
  vectornator:shadowOffset CDATA #IMPLIED >
<!ATTLIST g
  xmlns:vectornator CDATA #FIXED "http://vectornator.io"
  vectornator:shadowAngle CDATA #IMPLIED >

<!ENTITY % SVG.filter.extra.content  "| feDropShadow" >
<!ELEMENT feDropShadow EMPTY>
<!ATTLIST feDropShadow
  xmlns:svg CDATA #FIXED "http://www.w3.org/Graphics/SVG/1.1/DTD/svg11.dtd"
  dx CDATA #IMPLIED>
<!ATTLIST feDropShadow
  xmlns:svg CDATA #FIXED "http://www.w3.org/Graphics/SVG/1.1/DTD/svg11.dtd"
  dy CDATA #IMPLIED>
<!ATTLIST feDropShadow
  xmlns:svg CDATA #FIXED "http://www.w3.org/Graphics/SVG/1.1/DTD/svg11.dtd"
  stdDeviation CDATA #IMPLIED>
<!ATTLIST feDropShadow
  xmlns:svg CDATA #FIXED "http://www.w3.org/Graphics/SVG/1.1/DTD/svg11.dtd"
  flood-opacity CDATA #IMPLIED>
<!ATTLIST feDropShadow
  xmlns:svg CDATA #FIXED "http://www.w3.org/Graphics/SVG/1.1/DTD/svg11.dtd"
  in CDATA #IMPLIED>
<!ATTLIST feDropShadow
  xmlns:svg CDATA #FIXED "http://www.w3.org/Graphics/SVG/1.1/DTD/svg11.dtd"
  result CDATA #IMPLIED>
<!ATTLIST feDropShadow
  xmlns:svg CDATA #FIXED "http://www.w3.org/Graphics/SVG/1.1/DTD/svg11.dtd"
  flood-color CDATA #IMPLIED>
]
>
<!-- Created with Vectornator (http://vectornator.io/) -->
<svg height="100%" stroke-miterlimit="10" style="fill-rule:nonzero;clip-rule:evenodd;stroke-linecap:round;stroke-linejoin:round;" version="1.1" viewBox="0 0 36 36" width="100%" xml:space="preserve" xmlns="http://www.w3.org/2000/svg" xmlns:vectornator="http://vectornator.io" xmlns:xlink="http://www.w3.org/1999/xlink">
<defs/>
<g id="Layer-1" vectornator:layerName="Layer 1">
<path d="M5.66341 36C3.80165 35.991 2.29591 34.4815 2.29141 32.6198L2.29141 29.2149C2.32363 28.0961 3.0142 27.1022 4.05143 26.6818C4.33928 26.5584 11.5438 23.392 12.2758 23.0713C12.8186 22.8492 14.4553 22.1748 15.3517 23.6058C15.4846 23.8346 15.5842 24.081 15.6478 24.3378C15.7129 24.5584 15.7898 24.7752 15.8781 24.9875C16.2863 25.7676 17.1127 26.2371 17.9918 26.1883C18.6822 26.2122 19.3511 25.9455 19.8357 25.4531C20.3203 24.9607 20.5763 24.2876 20.5413 23.5976C20.5413 23.2357 20.5825 21.1796 20.5825 19.8884L22.2273 19.8884C22.2273 20.2256 22.2273 23.1782 22.1862 23.721C22.1863 24.8202 21.7463 25.8737 20.9644 26.6463C20.1825 27.419 19.1238 27.8464 18.0247 27.8332C16.485 27.9042 15.0515 27.0499 14.3813 25.6619C14.2635 25.3941 14.1619 25.1195 14.077 24.8395C14.047 24.7207 14.0057 24.605 13.9536 24.4941C13.896 24.4036 13.7973 24.2391 12.9091 24.6092C12.1771 24.9135 4.75873 28.1786 4.68471 28.2115C4.24439 28.3792 3.94664 28.7934 3.92806 29.2642L3.92806 32.6362C3.93256 33.5928 4.70687 34.3671 5.66341 34.3716L30.3366 34.3716C31.2918 34.367 32.0637 33.5914 32.0637 32.6362L32.0637 29.2231C32.0637 28.6967 31.3893 28.4007 30.9945 28.2362L23.7406 25.0698L24.4068 23.5565L31.6031 26.7064C32.7549 27.0028 33.597 27.9897 33.7086 29.1738L33.7086 32.5951C33.7131 34.4588 32.2084 35.9745 30.3448 35.9836L5.66341 36Z" fill="#000000" fill-rule="evenodd" opacity="1" stroke="none"/>
<path d="M22.2438 20.8589L20.5989 20.8589L20.5989 18.8439L20.9526 18.5972C22.4263 17.5962 23.3171 15.9375 23.3376 14.156L23.3376 8.34137C23.3276 7.49092 22.9887 6.67738 22.3918 6.07144C22.3107 6.00202 22.2225 5.94137 22.1286 5.89051C18.0987 9.87934 14.5869 10.5044 12.9009 10.5373L12.9009 13.827C12.9667 16.4506 14.8912 19.1976 17.9918 19.1976L17.9918 20.8424C13.8796 20.8424 11.3465 17.2813 11.256 13.8517L11.256 10.1343C11.256 9.44388 11.8157 8.88418 12.5061 8.88418C13.5259 8.93353 17.0542 8.74437 21.2404 4.45124L21.4378 4.24563L21.7256 4.24563C22.3745 4.18183 23.0186 4.40753 23.4857 4.86246C24.4335 5.78285 24.9727 7.04489 24.9825 8.36605L24.9825 14.156C24.9547 16.3136 23.9468 18.3414 22.2438 19.6664L22.2438 20.8589Z" fill="#000000" fill-rule="evenodd" opacity="1" stroke="none"/>
<path d="M21.2812 0.1875C19.3106-0.010289 18.0345 0.490895 16.75 1.59375C16.7672 1.57894 15.8681 2.3781 15.6562 2.53125C15.2902 2.7959 15.0255 2.84049 14.6875 2.71875C14.2826 2.57292 13.8439 2.50115 13.375 2.5C12.6293 2.49816 11.8476 2.66097 11.0625 2.9375C10.7566 3.04522 10.51 3.1625 10.25 3.28125C10.1929 3.30733 10.0733 3.38308 10.0938 3.375C10.0843 3.38008 10.0396 3.36978 10.0312 3.375C10.011 3.38293 10.0085 3.40959 9.875 3.53125C9.7864 3.60778 9.78385 3.60229 9.8125 4.0625C10.1843 4.37228 10.1891 4.37705 10.3125 4.34375C10.4185 4.3242 10.4141 4.32244 10.4375 4.3125C10.4555 4.30542 10.5108 4.27371 10.5625 4.25C10.6198 4.21409 11.4762 4.11384 12.1562 4.125C12.2833 4.12709 12.3307 4.14877 12.4375 4.15625C12.3794 4.20668 12.2675 4.29678 12.25 4.3125C12.0441 4.49714 11.8898 4.61912 11.75 4.8125C11.5189 5.13228 11.5783 5.0489 10.5 7.125C10.1458 7.80685 9.63496 8.35742 9 8.84375C8.48001 9.24202 8.03297 9.48669 7.28125 9.84375C6.90724 10.0214 6.85636 10.0561 6.75 10.1562C6.51911 10.3738 6.45636 10.7681 6.78125 11C6.89446 11.0808 7.02325 11.1034 7.1875 11.125C7.61005 11.1807 8.12205 11.0718 8.75 10.8125C8.94109 10.7336 9.14095 10.6312 9.34375 10.5312C9.27951 10.7002 9.2178 10.8604 9.15625 11.0312C9.05099 11.3233 8.9618 11.6026 8.875 11.875C8.75615 12.2479 8.63679 12.5919 8.5625 12.9062C8.41687 13.5225 7.98982 14.1864 7.28125 14.9062C6.99169 15.2004 6.06076 16.0555 5.9375 16.1875C5.7982 16.3367 5.75525 16.4016 5.75 16.5938C5.98028 17.1021 5.95985 17.0825 6.28125 17.0938C6.4114 17.0705 6.44168 17.087 6.5 17.0625C6.59712 17.0221 6.71198 16.9363 6.90625 16.8125C7.20778 16.6204 7.6639 16.3257 8.21875 15.9375C8.23413 15.9267 8.57893 15.6792 8.875 15.4688C8.78917 16.0752 8.78812 16.5902 8.4375 17.4688C7.56623 19.6518 5.92946 21.948 3.375 24.2188L4.03125 24.9375C6.70045 22.5647 8.41408 20.1732 9.34375 17.8438C9.68363 16.9922 9.91863 16.1892 10.0312 15.4688C10.1067 14.9859 10.1041 14.6157 10.0938 14.3438C10.092 14.3049 10.0948 14.2962 10.0938 14.2812C10.0646 13.8912 9.62943 13.6771 9.3125 13.9062C9.28841 13.9237 9.06083 14.1087 8.90625 14.2188C9.11074 13.8721 9.47819 13.513 9.5625 13.1562C9.6304 12.8689 9.70089 12.5377 9.8125 12.1875C9.89531 11.9277 9.99252 11.6559 10.0938 11.375C10.2472 10.9492 10.4291 10.5284 10.5938 10.125C10.6924 9.88339 10.7695 9.69211 10.8125 9.59375C10.9848 9.19963 10.5902 8.8855 10.2188 8.96875C10.6501 8.53711 11.1219 8.14128 11.4062 7.59375C12.4259 5.63064 12.3774 5.66235 12.5625 5.40625C12.6563 5.27647 12.7498 5.17156 12.9062 5.03125C12.963 4.98033 13.4079 4.60292 13.5938 4.4375C13.9533 4.11752 13.868 3.78525 13.625 3.53125C13.883 3.55081 14.157 3.57775 14.375 3.65625C15.057 3.90187 15.6365 3.78723 16.25 3.34375C16.5138 3.15303 17.4642 2.29398 17.4062 2.34375C18.4986 1.40589 19.5229 0.999618 21.125 1.15625C21.1484 1.16723 21.3044 1.19924 21.5312 1.25C21.9085 1.33441 22.3362 1.42118 22.75 1.5C23.17 1.58 23.55 1.66199 23.9375 1.71875C24.1033 1.74303 24.1582 1.69979 24.3125 1.71875C23.9192 1.9309 23.3608 2.09067 23.125 2.34375C22.6035 2.90339 22.8213 3.51015 23.5 3.71875C23.8239 3.8183 24.1592 3.86103 25.0312 3.90625C25.4443 3.92767 25.5418 3.92606 25.7188 3.9375C25.8521 3.94613 25.8496 3.98941 25.9688 4C25.4295 4.15269 24.8857 4.31447 24.5938 4.75C24.1481 5.41479 24.0401 5.77162 24.625 6.03125C24.7959 6.10711 24.9408 6.10653 25.1562 6.0625C25.2394 6.0455 25.5881 5.95499 25.5312 5.96875C25.8404 5.89397 26.0753 5.86222 26.2812 5.875C26.3516 5.87937 26.3762 5.95317 26.4375 5.96875C25.9944 6.12924 25.6375 6.43242 25.5 7.0625C25.1597 8.62157 25.7715 10.6731 26.6875 12.5625C26.5735 12.4623 26.3722 12.3325 26.3438 12.2812C26.1407 11.916 25.5539 11.7243 25.3438 12.3125C25.2987 12.4386 25.3003 12.5926 25.3125 12.7812C25.333 13.097 25.4041 13.5366 25.5312 14C25.7575 14.8242 26.2729 15.4841 26.7188 16.1875C26.3835 16.0326 26.0391 15.849 25.7812 15.875C25.3147 15.9221 25.1358 16.3224 25.1875 16.75C25.2166 16.9907 25.3397 17.2948 25.5 17.6562C25.8023 18.3381 26.316 19.2379 26.9688 20.1875C28.5048 22.422 30.4298 24.5154 32.25 25.7812L32.8125 24.9688C31.1045 23.781 29.2545 21.7369 27.7812 19.5938C27.1608 18.6911 26.6806 17.8688 26.4062 17.25C26.3749 17.1793 26.3683 17.1559 26.3438 17.0938C26.4619 17.1489 26.5028 17.1284 26.6562 17.2188C26.7664 17.2836 26.8753 17.3567 27 17.4375C27.1112 17.5095 27.8825 18.0365 28 18.0938C28.0591 18.1234 28.0733 18.1245 28.2188 18.1562C28.6026 18.1169 28.6018 18.1219 28.7812 17.625C28.7714 17.4606 28.7116 17.3985 28.5938 17.25C28.5002 17.1321 28.32 16.9286 28.0312 16.625C27.319 15.8762 26.8016 14.8176 26.5 13.7188C26.4933 13.6945 26.5063 13.6803 26.5 13.6562C26.6162 13.7356 26.6677 13.8426 26.7812 13.9062C27.145 14.1101 27.4095 14.1862 27.6875 14.0938C28.2447 13.9085 28.1989 13.4636 27.9062 12.9375C26.854 11.0458 26.1461 8.75961 26.4688 7.28125C26.5507 6.90562 26.6616 6.82316 26.8438 6.8125C26.9449 6.80658 27.0554 6.82845 27.2188 6.875C27.219 6.87506 27.443 6.92405 27.5 6.9375C27.5814 6.9567 27.6348 6.97653 27.7188 6.96875C27.9489 6.94744 28.184 6.77677 28.2188 6.5C28.2547 6.21361 28.2005 6.17686 27.625 5.5C27.2822 5.09683 26.856 4.90679 26.3438 4.875C26.2936 4.87189 26.2372 4.90641 26.1875 4.90625C26.3045 4.87023 26.3269 4.77116 26.4688 4.75C26.7622 4.70621 27.0314 4.71302 27.5 4.71875C28.0928 4.726 28.1268 4.73838 28.3125 4.625C28.6654 4.40951 28.6562 4.00056 28.4375 3.75C28.3568 3.65753 28.2312 3.57858 28.0625 3.46875C27.5797 3.15443 26.9009 3.00991 25.7812 2.9375C25.5982 2.92566 25.5121 2.92794 25.0938 2.90625C24.617 2.88153 24.4981 2.84084 24.2812 2.8125C24.7006 2.50404 25.2117 2.19362 26 1.9375C26.3132 1.83574 26.6071 1.75845 26.7812 1.71875C26.8067 1.71181 26.8587 1.7238 26.875 1.71875C26.898 1.71266 26.912 1.69651 27 1.65625C27.0519 1.63654 27.0585 1.64626 27.2188 1.4375C27.1337 0.794007 27.1093 0.805254 26.8438 0.75C26.702 0.737221 26.7127 0.713236 26.6875 0.71875C26.6223 0.729092 26.6148 0.738129 26.5625 0.75C26.5403 0.755052 26.4938 0.775144 26.4688 0.78125C26.4218 0.793315 26.3897 0.794052 26.3125 0.8125C25.9169 0.906976 25.1307 0.870629 24.0938 0.71875C23.7214 0.66421 23.3443 0.608731 22.9375 0.53125C22.5349 0.454558 21.3687 0.208947 21.2812 0.1875Z" fill="#000000" fill-rule="evenodd" opacity="1" stroke="none"/>
</g>
</svg>
