<?xml version="1.0" encoding="UTF-8" standalone="no"?> <!-- Created with Vectornator for iOS (http://vectornator.io/) --><!DOCTYPE svg PUBLIC "-//W3C//DTD SVG 1.1//EN" "http://www.w3.org/Graphics/SVG/1.1/DTD/svg11.dtd">
<svg height="100%" style="fill-rule:nonzero;clip-rule:evenodd;stroke-linecap:round;stroke-linejoin:round;" xmlns:xlink="http://www.w3.org/1999/xlink" xmlns="http://www.w3.org/2000/svg" xml:space="preserve" width="100%" xmlns:vectornator="http://vectornator.io" version="1.1" viewBox="0 0 36 36">
<metadata>
<vectornator:setting key="DimensionsVisible" value="1"/>
<vectornator:setting key="PencilOnly" value="0"/>
<vectornator:setting key="SnapToPoints" value="0"/>
<vectornator:setting key="OutlineMode" value="0"/>
<vectornator:setting key="CMYKEnabledKey" value="0"/>
<vectornator:setting key="RulersVisible" value="1"/>
<vectornator:setting key="SnapToEdges" value="0"/>
<vectornator:setting key="GuidesVisible" value="1"/>
<vectornator:setting key="DisplayWhiteBackground" value="0"/>
<vectornator:setting key="doHistoryDisabled" value="0"/>
<vectornator:setting key="SnapToGuides" value="1"/>
<vectornator:setting key="TimeLapseWatermarkDisabled" value="0"/>
<vectornator:setting key="Units" value="Points"/>
<vectornator:setting key="DynamicGuides" value="0"/>
<vectornator:setting key="IsolateActiveLayer" value="0"/>
<vectornator:setting key="SnapToGrid" value="0"/>
</metadata>
<defs/>
<g id="Untitled" vectornator:layerName="Untitled">
<g opacity="1">
<g opacity="1">
<path d="M12.0999+18.3901C12.0485+18.3389+12.0078+18.2781+11.98+18.2112C11.9523+18.1442+11.9379+18.0725+11.9379+18C11.9379+17.9275+11.9523+17.8557+11.98+17.7888C12.0078+17.7218+12.0485+17.661+12.0999+17.6098L18.7121+10.9976C18.8155+10.8941+18.9559+10.836+19.1022+10.836C19.2485+10.836+19.3888+10.8941+19.4923+10.9976C19.5958+11.101+19.6539+11.2414+19.6539+11.3877C19.6539+11.5341+19.5958+11.6744+19.4923+11.7778L13.2691+18L19.4923+24.2221C19.5958+24.3255+19.6539+24.4659+19.6539+24.6122C19.6539+24.7586+19.5958+24.8989+19.4923+25.0023C19.3888+25.1058+19.2485+25.164+19.1022+25.164C18.9559+25.164+18.8155+25.1058+18.7121+25.0023L12.0999+18.3901Z" fill-rule="evenodd" fill="#ff4f1f" opacity="1"/>
<path d="M16.508+18.3901C16.4567+18.3389+16.416+18.2781+16.3882+18.2112C16.3604+18.1442+16.3461+18.0725+16.3461+18C16.3461+17.9275+16.3604+17.8557+16.3882+17.7888C16.416+17.7218+16.4567+17.661+16.508+17.6098L23.1203+10.9976C23.2237+10.8941+23.364+10.836+23.5104+10.836C23.6567+10.836+23.797+10.8941+23.9005+10.9976C24.004+11.101+24.0621+11.2414+24.0621+11.3877C24.0621+11.5341+24.004+11.6744+23.9005+11.7778L17.6773+18L23.9005+24.2221C24.004+24.3255+24.0621+24.4659+24.0621+24.6122C24.0621+24.7586+24.004+24.8989+23.9005+25.0023C23.797+25.1058+23.6567+25.164+23.5104+25.164C23.364+25.164+23.2237+25.1058+23.1203+25.0023L16.508+18.3901Z" fill-rule="evenodd" fill="#ff4f1f" opacity="1"/>
</g>
<path d="M4.68958e-13+18C2.2516e-06+27.9411+8.05888+36+18+36C27.9411+36+36+27.9411+36+18C36+8.05887+27.9411-2.2516e-06+18+4.68098e-13C8.05887+2.2516e-06-2.2516e-06+8.05888+4.68958e-13+18ZM1.46939+18C1.46939+8.8704+8.87039+1.46939+18+1.46939C27.1296+1.46939+34.5306+8.87039+34.5306+18C34.5306+27.1296+27.1296+34.5306+18+34.5306C8.8704+34.5306+1.46939+27.1296+1.46939+18Z" opacity="1" fill="#ff4f1f"/>
</g>
</g>
</svg>
