<svg width="24" height="24" viewBox="0 0 24 24" fill="none" xmlns="http://www.w3.org/2000/svg">
<path d="M2.42017 23.08C1.76471 23.08 1.15966 22.8308 0.705882 22.3822C0.252101 21.9336 0 21.3355 0 20.6876V1H1.0084V20.6876C1.0084 21.0863 1.15966 21.4352 1.41176 21.6844C1.66387 21.9336 2.01681 22.0832 2.42017 22.0832H23.6471V23.08H2.42017Z" fill="#FF4F1F"/>
<path d="M3.88239 19.9397L3.12609 19.2918L9.68071 11.7158C10.2858 11.018 11.2942 10.9183 12.0505 11.3669L13.916 12.613C14.2689 12.8622 14.7227 12.7625 14.9748 12.4136L21.9832 3.24268L22.79 3.84078L15.7816 13.0615C15.1765 13.8092 14.1177 13.9587 13.311 13.4603L11.395 12.2142C11.0925 12.0149 10.6387 12.0647 10.3866 12.3638L3.88239 19.9397Z" fill="#FF4F1F"/>
<path d="M23.042 6.78183L22.2353 3.84115C22.2353 3.79131 22.1344 3.74147 22.084 3.74147L19.0084 3.79131V2.79447L22.084 2.74463C22.5882 2.74463 23.0924 3.09352 23.1933 3.59194L24 6.53262L23.042 6.78183Z" fill="#FF4F1F"/>
</svg>
