<svg width="24" height="24" viewBox="0 0 24 24" fill="none" xmlns="http://www.w3.org/2000/svg">
<path d="M11.9974 6.6486H10.9978V4.54941C10.9978 3.69973 11.6975 3 12.4972 3V3.99962C12.1973 3.99962 11.9474 4.24952 11.9974 4.54941V6.6486Z" fill="#FF4F1F"/>
<path d="M21.9436 21.743H15.646C14.5964 21.843 13.6967 21.0433 13.5968 19.9937C13.5968 19.9437 13.5968 19.8937 13.5968 19.8937V18.8941C13.5968 18.7941 13.5468 18.7442 13.4468 18.6942H13.3968L11.0977 17.6446L11.5476 16.7449L13.8467 17.7945C14.3465 17.9445 14.6464 18.4443 14.6464 18.9441V19.9437C14.6464 20.5935 15.1962 20.8434 15.696 20.8434H21.9436C22.5933 20.7434 23.0431 20.1936 22.9932 19.5439V6.34892C23.0431 5.69917 22.5933 5.14938 21.9436 5.04942H14.0966V4.0498H21.9436C23.1431 4.09979 24.0927 5.14938 23.9928 6.34892V19.4939C24.0428 20.6934 23.0931 21.693 21.9436 21.743Z" fill="#FF4F1F"/>
<path d="M20.3442 11.3467H14.0966V12.3463H20.3442V11.3467Z" fill="#FF4F1F"/>
<path d="M19.3446 13.4458H15.1462V14.4454H19.3446V13.4458Z" fill="#FF4F1F"/>
<path d="M1.55139 21.743C0.701716 21.743 0.00198493 21.0433 0.00198493 20.1936V6.34892C-0.0479959 5.14938 0.851659 4.09979 2.0512 4.0498H8.84859V5.04942H2.0512C1.40145 5.14938 0.95162 5.69917 1.0016 6.34892V20.2436C1.0016 20.5435 1.2515 20.7934 1.55139 20.7934C1.85127 20.7934 2.10118 20.5435 2.10118 20.2436V18.8441C2.10118 18.3443 2.40106 17.8945 2.90087 17.6946L6.69941 16.2451L7.34916 16.445V16.7949C7.34916 17.3447 7.79899 17.7445 8.34878 17.7445C8.89857 17.7445 9.29841 17.2947 9.29841 16.7949V15.0956L9.49834 14.9956C10.0981 14.5958 10.498 13.946 10.498 13.1963V11.397C10.5479 10.1974 9.64828 9.19783 8.44874 9.14785C7.2492 9.09787 6.24958 9.99752 6.1996 11.1971C6.1996 11.247 6.1996 11.347 6.1996 11.397V13.1963C6.1996 14.3958 7.14924 15.3455 8.34878 15.3455V16.3451C6.59945 16.3451 5.19999 14.9456 5.19999 13.1963V11.397C5.15001 9.64765 6.49949 8.19821 8.24882 8.09825C9.99815 8.04827 11.4476 9.39775 11.5476 11.1471C11.5476 11.247 11.5476 11.297 11.5476 11.397V13.1963C11.5476 14.1459 11.0977 15.0456 10.348 15.6454V16.7949C10.298 17.8945 9.34839 18.7442 8.24882 18.6442C7.44912 18.5942 6.79937 18.0944 6.49949 17.3447L3.25074 18.5442C3.15078 18.5942 3.10079 18.6442 3.10079 18.7442V20.1436C3.10079 21.0933 2.40106 21.743 1.55139 21.743Z" fill="#FF4F1F"/>
</svg>
