<svg width="24" height="24" viewBox="0 0 24 24" fill="none" xmlns="http://www.w3.org/2000/svg">
<path d="M6.762 6.76409C3.55532 6.76409 1 5.26096 1 3.35699C1 1.50313 3.55532 0 6.762 0C9.96868 0 12.524 1.50313 12.524 3.35699C12.524 5.26096 10.0188 6.76409 6.762 6.76409ZM6.762 1.00209C3.90605 1.00209 2.00209 2.2547 2.00209 3.35699C2.00209 4.45929 3.90605 5.7119 6.762 5.7119C9.61795 5.7119 11.5219 4.50939 11.5219 3.35699C11.5219 2.20459 9.61795 1.00209 6.762 1.00209Z" fill="#FF4F1F"/>
<path d="M6.762 10.2211C3.50522 10.2211 1 8.71793 1 6.81396H2.00209C2.00209 7.96637 3.90605 9.16887 6.762 9.16887C9.61795 9.16887 11.5219 7.91626 11.5219 6.81396H12.524C12.524 8.71793 9.96868 10.2211 6.762 10.2211Z" fill="#FF4F1F"/>
<path d="M6.762 13.6285C3.50522 13.6285 1 12.1755 1 10.2715H2.00209C2.00209 11.4239 3.90605 12.6264 6.762 12.6264C9.61795 12.6264 11.5219 11.3738 11.5219 10.2715H12.524C12.524 12.1755 9.96868 13.6285 6.762 13.6285Z" fill="#FF4F1F"/>
<path d="M6.762 17.0855C3.50522 17.0855 1 15.6325 1 13.7285H2.00209C2.00209 14.8809 3.90605 16.0834 6.762 16.0834C9.61795 16.0834 11.5219 14.8809 11.5219 13.7285H12.524C12.524 15.6325 9.96868 17.0855 6.762 17.0855Z" fill="#FF4F1F"/>
<path d="M6.762 20.543C3.55532 20.543 1 19.0399 1 17.186H2.00209C2.00209 18.3384 3.90605 19.5409 6.762 19.5409C9.31733 19.5409 11.5219 18.4386 11.5219 17.186H12.524C12.524 19.0399 10.0188 20.543 6.762 20.543Z" fill="#FF4F1F"/>
<path d="M6.762 24.0001C3.50522 24.0001 1 22.4969 1 20.6431H2.00209C2.00209 21.7955 3.90605 22.998 6.762 22.998C9.61795 22.998 11.5219 21.7454 11.5219 20.6431H12.524C12.524 22.4969 9.96868 24.0001 6.762 24.0001Z" fill="#FF4F1F"/>
<path d="M12.524 3.35693H11.5219V20.5928H12.524V3.35693Z" fill="#FF4F1F"/>
<path d="M17.2839 17.0856C14.0271 17.0856 11.5219 15.5824 11.5219 13.7286C11.5219 11.8747 14.0772 10.3716 17.2839 10.3716C20.4906 10.3716 23.0459 11.8747 23.0459 13.7286C23.0459 15.5824 20.5407 17.0856 17.2839 17.0856ZM17.2839 11.3236C14.428 11.3236 12.524 12.5762 12.524 13.6785C12.524 14.7808 14.428 16.0334 17.2839 16.0334C20.1399 16.0334 22.0438 14.7808 22.0438 13.6785C22.0438 12.5762 20.1399 11.3236 17.2839 11.3236Z" fill="#FF4F1F"/>
<path d="M17.2839 20.543C14.0772 20.543 11.5219 19.0399 11.5219 17.186H12.524C12.524 18.4386 14.7787 19.5409 17.2839 19.5409C20.1399 19.5409 22.0438 18.2883 22.0438 17.186H23.0459C23.096 19.0399 20.5407 20.543 17.2839 20.543Z" fill="#FF4F1F"/>
<path d="M17.2839 24.0001C14.0271 24.0001 11.5219 22.4969 11.5219 20.6431H12.524C12.524 21.8957 14.7787 22.998 17.2839 22.998C20.1399 22.998 22.0438 21.7454 22.0438 20.6431H23.0459C23.096 22.4969 20.5407 24.0001 17.2839 24.0001Z" fill="#FF4F1F"/>
</svg>
