<svg width="24" height="24" viewBox="0 0 24 24" fill="none" xmlns="http://www.w3.org/2000/svg">
<g clip-path="url(#clip0)">
<path d="M9.06224 22.7137V21.7178H10.0581C11.9502 21.668 13.5934 20.473 14.2407 18.7303C14.4398 18.1826 14.9876 17.7842 15.5851 17.7842H15.7344C19.7178 17.7842 22.9544 14.4979 23.0042 10.5145V10.2158C23.0042 6.23236 19.7178 2.99585 15.7344 2.94606H8.26556C4.28216 2.99585 0.995851 6.28216 0.995851 10.2656V10.5643C0.995851 14.5477 4.28216 17.7842 8.26556 17.834H9.11203V18.8299H8.26556C3.73444 18.7801 0 15.0456 0 10.5145V10.2158C0 5.73444 3.73444 2 8.26556 2H15.7842C20.3154 2 24 5.73444 24.0498 10.2656V10.5643C24.0498 15.0954 20.3154 18.7801 15.7842 18.8299H15.6349C15.4357 18.8299 15.2863 18.9295 15.2365 19.1286C14.4398 21.2697 12.4481 22.7137 10.1079 22.8133H9.06224V22.7137Z" fill="#FF4F1F"/>
<path d="M18.0248 7.77539H6.07459V8.77124H18.0248V7.77539Z" fill="#FF4F1F"/>
<path d="M18.0248 11.7095H6.07459V12.7053H18.0248V11.7095Z" fill="#FF4F1F"/>
</g>
<defs>
<clipPath id="clip0">
<rect width="24" height="24" fill="white"/>
</clipPath>
</defs>
</svg>
