<svg width="24" height="24" viewBox="0 0 24 24" fill="none" xmlns="http://www.w3.org/2000/svg">
<path d="M17.5607 9.94141H10.1297V10.9456H17.5607V9.94141Z" fill="#FF4F1F"/>
<path d="M19.4686 24H4.6569C3.75314 24 3 23.2469 3 22.3431V11.5983C3 10.6946 3.75314 9.94142 4.6569 9.94142H6.56485V5.4728C6.56485 2.46025 9.0251 0 12.0377 0C15.0502 0 17.5105 2.46025 17.5105 5.4728V10.4435H16.5063V5.4728C16.5063 3.01255 14.4979 1.00418 12.0377 1.00418C9.57741 1.00418 7.56904 3.01255 7.56904 5.4728V10.9456H4.6569C4.30544 10.9456 4.00418 11.2469 4.00418 11.5983V22.3431C4.00418 22.6946 4.30544 22.9958 4.6569 22.9958H19.4686C19.8201 22.9958 20.1213 22.6946 20.1213 22.3431V11.5983C20.1213 11.2469 19.8201 10.9456 19.4686 10.9456V9.94142C20.3724 9.94142 21.0753 10.6946 21.0753 11.5983V22.3431C21.1255 23.2469 20.3724 24 19.4686 24Z" fill="#FF4F1F"/>
<path d="M7.87028 18.3767C8.48034 18.3767 8.97488 17.8821 8.97488 17.2721C8.97488 16.662 8.48034 16.1675 7.87028 16.1675C7.26023 16.1675 6.76568 16.662 6.76568 17.2721C6.76568 17.8821 7.26023 18.3767 7.87028 18.3767Z" fill="#FF4F1F"/>
<path d="M12.0376 18.3767C12.6477 18.3767 13.1422 17.8821 13.1422 17.2721C13.1422 16.662 12.6477 16.1675 12.0376 16.1675C11.4276 16.1675 10.933 16.662 10.933 17.2721C10.933 17.8821 11.4276 18.3767 12.0376 18.3767Z" fill="#FF4F1F"/>
<path d="M16.2553 18.3767C16.8653 18.3767 17.3599 17.8821 17.3599 17.2721C17.3599 16.662 16.8653 16.1675 16.2553 16.1675C15.6452 16.1675 15.1507 16.662 15.1507 17.2721C15.1507 17.8821 15.6452 18.3767 16.2553 18.3767Z" fill="#FF4F1F"/>
</svg>
