<svg width="24" height="24" viewBox="0 0 24 24" fill="none" xmlns="http://www.w3.org/2000/svg">
<g clip-path="url(#clip0)">
<path d="M20.8784 18.5262H3.12159C1.92243 18.5262 1 17.5577 1 16.3585C1.04612 15.7128 1.36897 15.1132 1.92243 14.7904L2.7065 14.2369C3.02935 14.0063 3.21384 13.6834 3.21384 13.3145V9.71698C3.25996 5.38155 6.48847 1.6457 10.7778 1L10.9161 1.92243C7.08805 2.47589 4.18239 5.84277 4.13627 9.71698V13.3145C4.13627 14.0063 3.81342 14.652 3.21384 15.021L2.38365 15.5744C2.10692 15.7589 1.92243 16.0356 1.92243 16.4046C1.92243 17.0503 2.42977 17.6038 3.12159 17.6038H20.8323C21.478 17.6038 22.0314 17.0503 22.0314 16.4046C22.0314 16.0818 21.847 15.7589 21.5702 15.5744L20.74 15.021C20.1866 14.652 19.8176 14.0063 19.8176 13.3145V9.7631C19.8176 5.84277 16.8658 2.47589 12.9916 1.92243L13.13 1C17.4654 1.59958 20.74 5.38155 20.74 9.71698V13.3145C20.74 13.6834 20.9245 14.0524 21.2474 14.2369L22.0776 14.7904C22.631 15.1132 22.9539 15.7128 23 16.3585C23 17.5577 22.0314 18.5262 20.8784 18.5262Z" fill="#FF4F1F"/>
<path d="M11.9769 22.9534C10.501 22.9534 9.30188 21.7542 9.30188 20.2783H10.2243C10.2243 21.2469 11.0084 22.0309 11.9769 22.0309C12.9455 22.0309 13.7296 21.2469 13.7296 20.2783H14.652C14.652 21.7542 13.4528 22.9534 11.9769 22.9534Z" fill="#FF4F1F"/>
</g>
<defs>
<clipPath id="clip0">
<rect width="24" height="24" fill="white"/>
</clipPath>
</defs>
</svg>
