<svg width="36" height="36" viewBox="0 0 36 36" fill="none" xmlns="http://www.w3.org/2000/svg">
<g clip-path="url(#clip0)">
<path d="M26.2994 28.2198H25.204V25.3719C25.204 25.2624 25.0945 25.1529 24.985 25.0981L20.9869 23.8384L21.3155 22.7979L25.3136 24.0575C25.916 24.2218 26.2994 24.7695 26.2994 25.3719V28.2198Z" fill="#FF4F1F"/>
<path d="M10.089 28.2737H8.99368V25.371C8.99368 24.7686 9.37705 24.2756 9.86996 24.0566L15.6753 22.3588L16.3873 22.5779V22.9612C16.3873 23.6184 16.935 24.1661 17.5922 24.1661C18.2494 24.1661 18.797 23.6184 18.797 22.9612V20.9896L19.0709 20.7705C19.7829 20.2776 20.1662 19.5109 20.1662 18.6346V16.4439C20.1662 15.02 19.0161 13.8151 17.5374 13.8151C16.1134 13.8151 14.9086 14.9652 14.9086 16.4439V18.6346C14.9086 20.0586 16.1134 21.2634 17.5374 21.2634V22.3588C15.511 22.3588 13.8132 20.7158 13.8132 18.6346V16.4439C13.8132 14.4175 15.4562 12.7197 17.5374 12.7197C19.5638 12.7197 21.2616 14.3627 21.2616 16.4439V18.6346C21.2616 19.7847 20.7139 20.8253 19.8376 21.5373V22.9612C19.8376 24.2209 18.797 25.2615 17.5374 25.2615C16.442 25.2615 15.5658 24.5495 15.2919 23.5637L10.1438 25.0972C10.089 25.1519 9.9795 25.2615 9.9795 25.371V28.2737H10.089Z" fill="#FF4F1F"/>
<path d="M9.53979 16.4154C7.5134 16.4154 5.81561 14.7176 5.81561 12.6912V10.5005C5.81561 9.51474 6.19898 8.58369 6.91096 7.87171C7.62294 7.15974 8.55398 6.77637 9.53979 6.77637C9.53979 6.77637 9.53979 6.77637 9.59456 6.77637C11.4567 6.77637 13.0269 8.34022 13.2459 10.2023L12.0953 9.97219C11.931 8.65777 10.909 7.87171 9.59456 7.87171C8.88259 7.87171 8.22538 8.14555 7.73247 8.63846C7.1848 9.18613 6.91096 9.84334 6.91096 10.5553V12.746C6.91096 14.17 8.11584 15.3748 9.53979 15.3748V16.4154Z" fill="#FF4F1F"/>
<path d="M9.54077 19.4016C8.99309 19.4016 8.44542 19.1825 8.00728 18.7992C7.62391 18.4706 7.40484 18.0324 7.2953 17.5943L4.83077 18.3062L4.50217 17.2657L7.62391 16.3894L8.33588 16.6085V17.0466C8.33588 17.1014 8.33588 17.1561 8.33588 17.1561C8.33588 17.4847 8.50019 17.7586 8.71926 17.9776C8.93833 18.1967 9.26693 18.3062 9.59553 18.3062C9.92414 18.3062 10.198 18.1419 10.417 17.9229C10.6361 17.7038 10.7456 17.3752 10.7456 17.0466V15.0202L11.0195 14.8011C11.7315 14.3082 12.1148 13.5415 12.1148 12.6652V10.4745C12.1148 10.365 12.0961 10.0817 12.0961 9.97217L13.2102 9.98161C13.2649 10.1459 13.2649 10.3102 13.2649 10.4745V12.6652C13.2649 13.8153 12.7173 14.8559 11.841 15.5679V16.9918C11.8958 17.5943 11.6767 18.1967 11.2386 18.6349C10.8004 19.073 10.2527 19.3468 9.6503 19.4016C9.6503 19.4016 9.59553 19.4016 9.54077 19.4016Z" fill="#FF4F1F"/>
<path d="M25.7521 19.2924C25.0401 19.2924 24.3829 18.9638 23.9448 18.4162L24.7663 17.7042C24.9854 17.978 25.3687 18.1423 25.6973 18.1423C26.026 18.1423 26.3546 18.0328 26.5736 17.759C26.7927 17.5399 26.9022 17.2113 26.9022 16.8827V14.9111L27.1761 14.692C27.888 14.1991 28.3262 13.3776 28.3262 12.5561V10.3654C28.3262 10.2558 28.3262 10.2011 28.3262 10.1463C28.2714 8.72234 27.0118 7.57223 25.5878 7.627C24.1639 7.68176 23.0137 8.88665 23.0685 10.3654V12.5561C23.0685 13.98 24.2734 15.1849 25.6973 15.1849V16.2802C23.671 16.2802 21.9732 14.5825 21.9732 12.5561V10.3654C21.8636 8.33897 23.5067 6.58642 25.533 6.53165C27.6142 6.47688 29.312 8.06513 29.4215 10.0915C29.4215 10.2011 29.4215 10.3106 29.4215 10.4201V12.6108C29.4215 13.7609 28.8739 14.8015 27.9976 15.5135V16.9375C27.9976 17.5399 27.7785 18.1423 27.3404 18.5805C26.9022 19.0186 26.3546 19.2924 25.7521 19.2924Z" fill="#FF4F1F"/>
<path d="M27.6362 16.4418L27.3445 17.4976L30.4063 18.3435L30.698 17.2877L27.6362 16.4418Z" fill="#FF4F1F"/>
<path d="M20.8897 15.7967C20.466 15.9558 20.017 16.037 19.5644 16.0364C18.7258 16.0363 17.9112 15.7566 17.2494 15.2418C16.5875 14.7269 16.1161 14.0061 15.9096 13.1934" stroke="#FF4F1F" stroke-width="0.74123" stroke-miterlimit="10"/>
<path d="M14.3645 18.2607C14.3673 17.4989 14.6361 16.7621 15.1246 16.1775C15.613 15.5929 16.2902 15.1973 17.0393 15.0591" stroke="#FF4F1F" stroke-width="0.74123" stroke-miterlimit="10"/>
<path d="M21.0856 17.1265C21.6301 17.1661 22.1365 17.4204 22.4935 17.8333C22.8504 18.2463 23.0287 18.7842 22.9891 19.3287C22.9697 19.5983 22.8972 19.8615 22.776 20.1032C22.6548 20.3449 22.4871 20.5603 22.2826 20.7371C22.0781 20.914 21.8407 21.0488 21.5841 21.1339C21.3275 21.219 21.0566 21.2527 20.7869 21.2331L19.7462 21.1574" stroke="#FF4F1F" stroke-width="0.703943" stroke-miterlimit="10"/>
</g>
<defs>
<clipPath id="clip0">
<rect width="26.2336" height="21.8613" fill="white" transform="translate(4.5 6.75)"/>
</clipPath>
</defs>
</svg>
