<svg width="24" height="24" viewBox="0 0 24 24" fill="none" xmlns="http://www.w3.org/2000/svg">
<path d="M16.2 13.9998L15.5 13.2998L18.1 10.6998L15.45 7.9998L16.15 7.2998L19.55 10.6998L16.2 13.9998Z" fill="#FF4F1F"/>
<path d="M8.45002 13.9998L5.10002 10.5998L8.40002 7.2998L9.10002 7.9998L6.50002 10.5998L9.20002 13.2998L8.45002 13.9998Z" fill="#FF4F1F"/>
<path d="M13.42 7.31397L10.3751 13.4502L11.2709 13.8947L14.3158 7.75847L13.42 7.31397Z" fill="#FF4F1F"/>
<path d="M3 17.4H2V5.05C2 4.5 2.2 4 2.6 3.6C3 3.2 3.5 3 4.05 3H19.95C21.1 3 22 3.9 22 5.05V15.2H21V5.05C21 4.45 20.55 4 19.95 4H4.05C3.75 4 3.5 4.1 3.3 4.3C3.1 4.5 3 4.75 3 5.05V17.4Z" fill="#FF4F1F"/>
<path d="M22 21H2C0.9 21 0 20.1 0 19C0 17.9 0.9 17 2 17H22C23.1 17 24 17.9 24 19C24 20.1 23.1 21 22 21ZM2 18C1.45 18 1 18.45 1 19C1 19.55 1.45 20 2 20H22C22.55 20 23 19.55 23 19C23 18.45 22.55 18 22 18H2Z" fill="#FF4F1F"/>
</svg>
