<svg width="24" height="24" viewBox="0 0 24 24" fill="none" xmlns="http://www.w3.org/2000/svg">
<path d="M16.5489 18.6006H1.49994V19.6005H16.5489V18.6006Z" fill="#FF4F1F"/>
<path d="M14.2991 24H3.7498C2.19991 24 1 22.9001 1 21.5502V2.45154C1.09999 1.00164 2.29991 -0.0482837 3.69981 0.00171273H14.2991C15.8489 0.00171273 17.0489 1.10163 17.0489 2.45154V7.2512H16.0489V2.45154C16.0489 1.65159 15.299 1.00164 14.2991 1.00164H3.69981C2.79987 0.951645 2.04993 1.6016 1.99993 2.50153V21.5502C1.99993 22.3501 2.74988 23.0001 3.7498 23.0001H14.2991C15.249 23.0001 16.0489 22.3501 16.0489 21.5502V20.8502H17.0489V21.5502C17.0489 22.9001 15.7989 24 14.2991 24Z" fill="#FF4F1F"/>
<path d="M17.0489 14.0005H16.049V21.5499H17.0489V14.0005Z" fill="#FF4F1F"/>
<path d="M8.99939 21.9504C9.33074 21.9504 9.59935 21.6818 9.59935 21.3504C9.59935 21.0191 9.33074 20.7505 8.99939 20.7505C8.66805 20.7505 8.39944 21.0191 8.39944 21.3504C8.39944 21.6818 8.66805 21.9504 8.99939 21.9504Z" fill="#FF4F1F"/>
<path d="M22.9984 12.001H10.4993V13.0009H22.9984V12.001Z" fill="#FF4F1F"/>
<path d="M12.5992 15.5005L10.3493 13.2507C9.94936 12.8007 9.94936 12.2008 10.3493 11.7508L12.5992 9.50098L13.2991 10.2009L11.0493 12.4508V12.5508L13.2991 14.8006L12.5992 15.5005Z" fill="#FF4F1F"/>
<path d="M22.5484 7.00098H9.99934V8.00091H22.5484V7.00098Z" fill="#FF4F1F"/>
<path d="M20.4986 10.501L19.7987 9.80109L22.0485 7.55125V7.45125L19.7987 5.20141L20.4986 4.50146L22.7485 6.7513C23.1484 7.20127 23.1484 7.80123 22.7485 8.2512L20.4986 10.501Z" fill="#FF4F1F"/>
</svg>
