<svg width="24" height="24" viewBox="0 0 24 24" fill="none" xmlns="http://www.w3.org/2000/svg">
<path d="M17.1013 23.3647C14.4567 23.3647 10.5149 22.2669 5.7747 17.5267C-1.61002 10.142 -0.163016 5.05255 0.785023 3.15648C1.68316 1.50988 3.22996 0.362257 5.02625 0.0129796C5.22584 -0.0369171 5.42542 0.0628764 5.52522 0.212567L8.61882 4.75317C9.01799 5.35193 8.9182 6.15028 8.41923 6.64925L5.92439 9.0443L5.22583 8.34574L7.72067 5.9507C7.87036 5.80101 7.92026 5.50162 7.77057 5.30204L4.92645 1.06081C3.52935 1.45999 2.38172 2.35813 1.73306 3.65544C-0.961364 8.79481 4.72687 15.0319 6.52315 16.8282C12.3112 22.6661 17.5004 23.0653 20.1949 21.7181C21.4423 21.1193 22.3903 20.1214 22.8394 18.8241L18.7978 16.0298C18.6481 15.93 18.3986 15.93 18.2489 16.0797L17.8497 16.429L17.251 15.6307L17.6501 15.3313C18.1491 14.9321 18.8477 14.8323 19.3965 15.1816L23.7874 18.1754C23.9371 18.2752 24.0369 18.5247 23.987 18.7243C23.5379 20.4208 22.3404 21.8678 20.6938 22.6162C20.1949 22.8158 18.9474 23.3647 17.1013 23.3647Z" fill="#FF4F1F"/>
<path d="M14.8559 18.3761C12.8101 16.979 10.8642 15.3823 9.11778 13.6359C7.62088 12.139 6.22377 10.4425 4.97635 8.69611C4.52728 8.04745 4.178 7.3489 3.82872 6.65034L3.47945 5.7522L4.37759 5.35303L4.72687 6.25117C5.02625 6.89983 5.42542 7.54849 5.82459 8.14725C7.02212 9.84374 8.36933 11.4404 9.81634 12.9373C11.5627 14.6338 13.4089 16.1806 15.4048 17.5777L14.8559 18.3761Z" fill="#FF4F1F"/>
</svg>
