<?xml version="1.0" encoding="UTF-8" standalone="no"?> <!-- Created with Vectornator for iOS (http://vectornator.io/) --><!DOCTYPE svg PUBLIC "-//W3C//DTD SVG 1.1//EN" "http://www.w3.org/Graphics/SVG/1.1/DTD/svg11.dtd">
<svg height="100%" style="fill-rule:nonzero;clip-rule:evenodd;stroke-linecap:round;stroke-linejoin:round;" xmlns:xlink="http://www.w3.org/1999/xlink" xmlns="http://www.w3.org/2000/svg" xml:space="preserve" width="100%" xmlns:vectornator="http://vectornator.io" version="1.1" viewBox="0 0 36 36">
<metadata>
<vectornator:setting key="DimensionsVisible" value="1"/>
<vectornator:setting key="PencilOnly" value="0"/>
<vectornator:setting key="SnapToPoints" value="0"/>
<vectornator:setting key="OutlineMode" value="0"/>
<vectornator:setting key="CMYKEnabledKey" value="0"/>
<vectornator:setting key="RulersVisible" value="1"/>
<vectornator:setting key="SnapToEdges" value="0"/>
<vectornator:setting key="GuidesVisible" value="1"/>
<vectornator:setting key="DisplayWhiteBackground" value="0"/>
<vectornator:setting key="doHistoryDisabled" value="0"/>
<vectornator:setting key="SnapToGuides" value="1"/>
<vectornator:setting key="TimeLapseWatermarkDisabled" value="0"/>
<vectornator:setting key="Units" value="Points"/>
<vectornator:setting key="DynamicGuides" value="0"/>
<vectornator:setting key="IsolateActiveLayer" value="0"/>
<vectornator:setting key="SnapToGrid" value="0"/>
</metadata>
<defs/>
<g id="Untitled" vectornator:layerName="Untitled">
<path d="M17.9983+0.444286C8.05992+0.444286-5.54136e-07+8.5031-5.54136e-07+18.4448C-5.54136e-07+26.3965+5.15706+33.1436+12.3098+35.5249C13.2104+35.6896+13.5385+35.1337+13.5385+34.6564C13.5385+34.2287+13.5231+33.0972+13.5142+31.5955C8.50744+32.6828+7.45106+29.1822+7.45106+29.1822C6.63225+27.1026+5.4521+26.549+5.4521+26.549C3.8178+25.4329+5.57586+25.455+5.57586+25.455C7.38255+25.5821+8.33285+27.3103+8.33285+27.3103C9.93843+30.0607+12.5462+29.2662+13.5717+28.8054C13.7352+27.6429+14.2004+26.8495+14.7143+26.3998C10.7175+25.9445+6.51512+24.4008+6.51512+17.5034C6.51512+15.5376+7.2168+13.932+8.36821+12.6734C8.18257+12.2181+7.56487+10.3882+8.54501+7.90971C8.54501+7.90971+10.0556+7.42572+13.4943+9.75396C14.9297+9.35506+16.4701+9.15616+18.0006+9.14842C19.5299+9.15616+21.0692+9.35506+22.5068+9.75396C25.9433+7.42572+27.4517+7.90971+27.4517+7.90971C28.434+10.3882+27.8163+12.2181+27.6318+12.6734C28.7854+13.932+29.4816+15.5376+29.4816+17.5034C29.4816+24.4185+25.2726+25.9401+21.2636+26.3854C21.909+26.9412+22.4847+28.0396+22.4847+29.7192C22.4847+32.1248+22.4626+34.0663+22.4626+34.6564C22.4626+35.1382+22.7874+35.6984+23.7002+35.5227C30.8474+33.137+36+26.3954+36+18.4448C36+8.5031+27.9401+0.444286+17.9983+0.444286" opacity="1" fill="#1b1817"/>
</g>
</svg>
