<?xml version="1.0" encoding="UTF-8" standalone="no"?> <!-- Created with Vectornator for iOS (http://vectornator.io/) --><!DOCTYPE svg PUBLIC "-//W3C//DTD SVG 1.1//EN" "http://www.w3.org/Graphics/SVG/1.1/DTD/svg11.dtd">
<svg height="100%" style="fill-rule:nonzero;clip-rule:evenodd;stroke-linecap:round;stroke-linejoin:round;" xmlns:xlink="http://www.w3.org/1999/xlink" xmlns="http://www.w3.org/2000/svg" xml:space="preserve" width="100%" xmlns:vectornator="http://vectornator.io" version="1.1" viewBox="0 0 160 160">
<metadata>
<vectornator:setting key="DimensionsVisible" value="1"/>
<vectornator:setting key="PencilOnly" value="0"/>
<vectornator:setting key="SnapToPoints" value="0"/>
<vectornator:setting key="OutlineMode" value="0"/>
<vectornator:setting key="CMYKEnabledKey" value="0"/>
<vectornator:setting key="RulersVisible" value="1"/>
<vectornator:setting key="SnapToEdges" value="0"/>
<vectornator:setting key="GuidesVisible" value="1"/>
<vectornator:setting key="DisplayWhiteBackground" value="0"/>
<vectornator:setting key="doHistoryDisabled" value="0"/>
<vectornator:setting key="SnapToGuides" value="1"/>
<vectornator:setting key="TimeLapseWatermarkDisabled" value="0"/>
<vectornator:setting key="Units" value="Points"/>
<vectornator:setting key="DynamicGuides" value="0"/>
<vectornator:setting key="IsolateActiveLayer" value="0"/>
<vectornator:setting key="SnapToGrid" value="0"/>
</metadata>
<defs/>
<g id="Untitled" vectornator:layerName="Untitled">
<g opacity="1">
<path d="M80.0007+1.97472C35.8233+1.97472+5.75385e-06+37.7914+5.75385e-06+81.9754C5.75385e-06+117.322+22.9226+147.309+54.7093+157.888C58.7075+158.628+60.1754+156.152+60.1754+154.039C60.1754+152.132+60.1012+145.83+60.0667+139.145C37.8105+143.984+33.1141+129.706+33.1141+129.706C29.475+120.459+24.2315+118+24.2315+118C16.9731+113.035+24.7786+113.137+24.7786+113.137C32.8121+113.7+37.0421+121.382+37.0421+121.382C44.1774+133.611+55.7572+130.075+60.3224+128.031C61.0405+122.861+63.1137+119.33+65.4016+117.334C47.6324+115.311+28.953+108.451+28.953+77.797C28.953+69.0628+32.0782+61.9262+37.1958+56.3237C36.3651+54.3074+33.6268+46.172+37.9708+35.1525C37.9708+35.1525+44.6887+33.0023+59.9767+43.3528C66.3581+41.5803+73.2019+40.6913+80.0007+40.6609C86.7994+40.6913+93.6485+41.5803+100.042+43.3528C115.311+33.0023+122.02+35.1525+122.02+35.1525C126.374+46.172+123.635+54.3074+122.804+56.3237C127.934+61.9262+131.038+69.0628+131.038+77.797C131.038+108.524+112.323+115.29+94.5083+117.27C97.3778+119.753+99.9346+124.621+99.9346+132.085C99.9346+142.789+99.8419+151.404+99.8419+154.039C99.8419+156.168+101.282+158.663+105.337+157.877C137.107+147.287+160+117.31+160+81.9754C160+37.7914+124.182+1.97473+80.0007+1.97473" opacity="1" fill="#1b1817"/>
<path d="M30.3003+116.838C30.1241+117.237+29.4988+117.355+28.9292+117.082C28.3489+116.821+28.023+116.279+28.2111+115.88C28.3833+115.472+29.01+115.358+29.5889+115.63C30.1705+115.892+30.5017+116.439+30.3003+116.838L30.3003+116.838" opacity="1" fill="#1b1817"/>
<path d="M33.5407+120.452C33.1592+120.806+32.4133+120.642+31.9072+120.083C31.384+119.525+31.2859+118.779+31.6728+118.42C32.0662+118.068+32.7895+118.233+33.3142+118.79C33.8374+119.354+33.9395+120.095+33.5407+120.452L33.5407+120.452" opacity="1" fill="#1b1817"/>
<path d="M36.695+125.06C36.2048+125.4+35.4033+125.081+34.9079+124.37C34.4177+123.658+34.4177+122.805+34.9185+122.463C35.4153+122.121+36.2048+122.43+36.7069+123.135C37.1958+123.858+37.1958+124.711+36.695+125.06L36.695+125.06" opacity="1" fill="#1b1817"/>
<path d="M41.0164+129.511C40.5779+129.995+39.644+129.865+38.9604+129.205C38.2609+128.56+38.0662+127.644+38.506+127.161C38.9498+126.676+39.8891+126.812+40.5779+127.467C41.2721+128.111+41.4841+129.033+41.0164+129.511L41.0164+129.511" opacity="1" fill="#1b1817"/>
<path d="M46.9779+132.096C46.7845+132.722+45.885+133.007+44.9788+132.741C44.074+132.467+43.4818+131.733+43.6647+131.099C43.8528+130.469+44.7563+130.172+45.6691+130.457C46.5726+130.73+47.1661+131.458+46.9779+132.096L46.9779+132.096" opacity="1" fill="#1b1817"/>
<path d="M53.525+132.575C53.5475+133.235+52.7791+133.782+51.8279+133.794C50.8714+133.815+50.0978+133.281+50.0872+132.632C50.0872+131.966+50.8383+131.424+51.7948+131.408C52.746+131.39+53.525+131.919+53.525+132.575L53.525+132.575" opacity="1" fill="#1b1817"/>
<path d="M59.6176+131.538C59.7316+132.182+59.0705+132.843+58.1259+133.019C57.1973+133.189+56.3375+132.791+56.2196+132.153C56.1043+131.493+56.7773+130.832+57.7046+130.661C58.6505+130.497+59.4971+130.883+59.6176+131.538L59.6176+131.538" opacity="1" fill="#1b1817"/>
</g>
</g>
</svg>
