<?xml version="1.0" encoding="UTF-8" standalone="no"?> <!-- Created with Vectornator for iOS (http://vectornator.io/) --><!DOCTYPE svg PUBLIC "-//W3C//DTD SVG 1.1//EN" "http://www.w3.org/Graphics/SVG/1.1/DTD/svg11.dtd">
<svg height="100%" style="fill-rule:nonzero;clip-rule:evenodd;stroke-linecap:round;stroke-linejoin:round;" xmlns:xlink="http://www.w3.org/1999/xlink" xmlns="http://www.w3.org/2000/svg" xml:space="preserve" width="100%" xmlns:vectornator="http://vectornator.io" version="1.1" viewBox="0 0 36 36">
<metadata>
<vectornator:setting key="DimensionsVisible" value="1"/>
<vectornator:setting key="PencilOnly" value="0"/>
<vectornator:setting key="SnapToPoints" value="0"/>
<vectornator:setting key="GuidesVisible" value="1"/>
<vectornator:setting key="CMYKEnabledKey" value="0"/>
<vectornator:setting key="OutlineMode" value="0"/>
<vectornator:setting key="SnapToEdges" value="0"/>
<vectornator:setting key="RulersVisible" value="1"/>
<vectornator:setting key="DisplayWhiteBackground" value="0"/>
<vectornator:setting key="doHistoryDisabled" value="0"/>
<vectornator:setting key="TimeLapseWatermarkDisabled" value="0"/>
<vectornator:setting key="SnapToGuides" value="1"/>
<vectornator:setting key="DynamicGuides" value="0"/>
<vectornator:setting key="SnapToGrid" value="0"/>
<vectornator:setting key="IsolateActiveLayer" value="0"/>
<vectornator:setting key="Units" value="Points"/>
</metadata>
<defs/>
<g id="Untitled" vectornator:layerName="Untitled">
<path d="M33.4012+6.92437L2.59875+6.92437C1.16437+6.92437-9.33064e-07+8.08875-9.33064e-07+9.5175L-9.33064e-07+26.4769C-9.33064e-07+27.9113+1.16437+29.0756+2.59875+29.0756L33.4069+29.0756C34.8412+29.0756+36.0056+27.9113+36+26.4825L36+9.5175C36+8.08875+34.8356+6.92437+33.4012+6.92437ZM19.0406+23.8838L15.5812+23.8838L15.5812+17.1338L12.1219+21.4594L8.66249+17.1338L8.66249+23.8838L5.19187+23.8838L5.19187+12.1162L8.65124+12.1162L12.1106+16.4419L15.57+12.1162L19.0294+12.1162L19.0294+23.8837L19.0406+23.8838ZM26.6512+24.0581L21.4594+18L24.9187+18L24.9187+12.1162L28.3781+12.1162L28.3781+18L31.8375+18L26.6512+24.0581Z" opacity="1" fill="#000000"/>
</g>
</svg>
