<?xml version="1.0" encoding="UTF-8" standalone="no"?> <!-- Created with Vectornator for iOS (http://vectornator.io/) --><!DOCTYPE svg PUBLIC "-//W3C//DTD SVG 1.1//EN" "http://www.w3.org/Graphics/SVG/1.1/DTD/svg11.dtd">
<svg height="100%" style="fill-rule:nonzero;clip-rule:evenodd;stroke-linecap:round;stroke-linejoin:round;" xmlns:xlink="http://www.w3.org/1999/xlink" xmlns="http://www.w3.org/2000/svg" xml:space="preserve" width="100%" xmlns:vectornator="http://vectornator.io" version="1.1" viewBox="0 0 36 36">
<metadata>
<vectornator:setting key="DimensionsVisible" value="1"/>
<vectornator:setting key="PencilOnly" value="0"/>
<vectornator:setting key="SnapToPoints" value="0"/>
<vectornator:setting key="OutlineMode" value="0"/>
<vectornator:setting key="CMYKEnabledKey" value="0"/>
<vectornator:setting key="RulersVisible" value="1"/>
<vectornator:setting key="SnapToEdges" value="0"/>
<vectornator:setting key="GuidesVisible" value="1"/>
<vectornator:setting key="DisplayWhiteBackground" value="0"/>
<vectornator:setting key="doHistoryDisabled" value="0"/>
<vectornator:setting key="SnapToGuides" value="1"/>
<vectornator:setting key="TimeLapseWatermarkDisabled" value="0"/>
<vectornator:setting key="Units" value="Points"/>
<vectornator:setting key="DynamicGuides" value="0"/>
<vectornator:setting key="IsolateActiveLayer" value="0"/>
<vectornator:setting key="SnapToGrid" value="0"/>
</metadata>
<defs/>
<g id="Untitled" vectornator:layerName="Untitled">
<g opacity="1">
<path d="M3.63026+34.56C2.64706+34.56+1.73949+34.1862+1.05882+33.5133C0.378152+32.8404+0+31.9433+0+30.9714L0+1.44L1.5126+1.44L1.5126+30.9714C1.5126+31.5694+1.73949+32.0928+2.11764+32.4666C2.4958+32.8404+3.02521+33.0648+3.63026+33.0648L35.4707+33.0648L35.4707+34.56L3.63026+34.56Z" opacity="1" fill="#ff4f1f"/>
<path d="M5.82359+29.8495L4.68914+28.8777L14.5211+17.5137C15.4287+16.467+16.9413+16.3174+18.0757+16.9904L20.874+18.8595C21.4033+19.2333+22.0841+19.0837+22.4622+18.5604L32.9748+4.80402L34.185+5.70117L23.6724+19.5322C22.7648+20.6538+21.1765+20.8781+19.9665+20.1305L17.0925+18.2613C16.6387+17.9624+15.958+18.0371+15.5799+18.4857L5.82359+29.8495Z" opacity="1" fill="#ff4f1f"/>
<path d="M34.563+10.1127L33.353+5.70173C33.353+5.62697+33.2016+5.55221+33.126+5.55221L28.5126+5.62697L28.5126+4.13171L33.126+4.05695C33.8823+4.05695+34.6386+4.58028+34.79+5.32791L36+9.73893L34.563+10.1127Z" opacity="1" fill="#ff4f1f"/>
</g>
</g>
</svg>
