<?xml version="1.0" encoding="UTF-8" standalone="no"?> <!-- Created with Vectornator for iOS (http://vectornator.io/) --><!DOCTYPE svg PUBLIC "-//W3C//DTD SVG 1.1//EN" "http://www.w3.org/Graphics/SVG/1.1/DTD/svg11.dtd">
<svg height="100%" style="fill-rule:nonzero;clip-rule:evenodd;stroke-linecap:round;stroke-linejoin:round;" xmlns:xlink="http://www.w3.org/1999/xlink" xmlns="http://www.w3.org/2000/svg" xml:space="preserve" width="100%" xmlns:vectornator="http://vectornator.io" version="1.1" viewBox="0 0 36 36">
<metadata>
<vectornator:setting key="DimensionsVisible" value="1"/>
<vectornator:setting key="PencilOnly" value="0"/>
<vectornator:setting key="SnapToPoints" value="0"/>
<vectornator:setting key="OutlineMode" value="0"/>
<vectornator:setting key="CMYKEnabledKey" value="0"/>
<vectornator:setting key="RulersVisible" value="1"/>
<vectornator:setting key="SnapToEdges" value="0"/>
<vectornator:setting key="GuidesVisible" value="1"/>
<vectornator:setting key="DisplayWhiteBackground" value="0"/>
<vectornator:setting key="doHistoryDisabled" value="0"/>
<vectornator:setting key="SnapToGuides" value="1"/>
<vectornator:setting key="TimeLapseWatermarkDisabled" value="0"/>
<vectornator:setting key="Units" value="Points"/>
<vectornator:setting key="DynamicGuides" value="0"/>
<vectornator:setting key="IsolateActiveLayer" value="0"/>
<vectornator:setting key="SnapToGrid" value="0"/>
</metadata>
<defs/>
<g id="Untitled" vectornator:layerName="Untitled">
<g opacity="1">
<path d="M17.9961+9.40932L16.4967+9.40932L16.4967+6.26054C16.4967+4.98602+17.5462+3.93642+18.7458+3.93642L18.7458+5.43585C18.2959+5.43585+17.9211+5.8107+17.9961+6.26054L17.9961+9.40932Z" opacity="1" fill="#ff4f1f"/>
<path d="M32.9154+32.0509L23.469+32.0509C21.8946+32.2009+20.545+31.0014+20.3952+29.427C20.3952+29.352+20.3952+29.277+20.3952+29.277L20.3952+27.7776C20.3952+27.6276+20.3202+27.5527+20.1702+27.4777L20.0952+27.4777L16.6465+25.9033L17.3214+24.5538L20.77+26.1282C21.5197+26.3532+21.9696+27.1029+21.9696+27.8526L21.9696+29.352C21.9696+30.3267+22.7943+30.7015+23.544+30.7015L32.9154+30.7015C33.8899+30.5515+34.5646+29.7268+34.4898+28.7523L34.4898+8.9598C34.5646+7.98518+33.8899+7.16049+32.9154+7.01055L21.1449+7.01055L21.1449+5.51112L32.9154+5.51112C34.7146+5.58611+36.139+7.16049+35.9892+8.9598L35.9892+28.6773C36.0642+30.4765+34.6396+31.9759+32.9154+32.0509Z" opacity="1" fill="#ff4f1f"/>
<path d="M30.5163+16.4565L21.1449+16.4565L21.1449+17.9559L30.5163+17.9559L30.5163+16.4565Z" opacity="1" fill="#ff4f1f"/>
<path d="M29.0169+19.6051L22.7193+19.6051L22.7193+21.1045L29.0169+21.1045L29.0169+19.6051Z" opacity="1" fill="#ff4f1f"/>
<path d="M2.32708+32.0509C1.05257+32.0509+0.00297792+31.0014+0.00297792+29.7268L0.00297792+8.9598C-0.0719933+7.16049+1.27749+5.58611+3.0768+5.51112L13.2729+5.51112L13.2729+7.01055L3.0768+7.01055C2.10217+7.16049+1.42743+7.98518+1.5024+8.9598L1.5024+29.8018C1.5024+30.2517+1.87725+30.6265+2.32708+30.6265C2.7769+30.6265+3.15177+30.2517+3.15177+29.8018L3.15177+27.7026C3.15177+26.9529+3.60159+26.2782+4.3513+25.9783L10.0491+23.8041L11.0237+24.1039L11.0237+24.6288C11.0237+25.4535+11.6985+26.0532+12.5232+26.0532C13.3478+26.0532+13.9476+25.3785+13.9476+24.6288L13.9476+22.0798L14.2475+21.9298C15.1471+21.3301+15.747+20.3554+15.747+19.2309L15.747+16.5319C15.8218+14.7325+14.4724+13.2332+12.6731+13.1582C10.8738+13.0832+9.37436+14.4327+9.29939+16.2321C9.29939+16.3069+9.29939+16.4569+9.29939+16.5319L9.29939+19.2309C9.29939+21.0301+10.7239+22.4547+12.5232+22.4547L12.5232+23.9541C9.89917+23.9541+7.79998+21.8548+7.79998+19.2309L7.79998+16.5319C7.72501+13.9079+9.74923+11.7337+12.3732+11.5838C14.9972+11.5088+17.1714+13.533+17.3214+16.1571C17.3214+16.3069+17.3214+16.3819+17.3214+16.5319L17.3214+19.2309C17.3214+20.6553+16.6465+22.0048+15.522+22.9045L15.522+24.6288C15.447+26.2782+14.0226+27.5527+12.3732+27.4027C11.1737+27.3277+10.199+26.578+9.74923+25.4535L4.87611+27.2527C4.72617+27.3277+4.65118+27.4027+4.65118+27.5527L4.65118+29.6518C4.65118+31.0763+3.60159+32.0509+2.32708+32.0509Z" opacity="1" fill="#ff4f1f"/>
</g>
</g>
</svg>
