<?xml version="1.0" encoding="UTF-8" standalone="no"?> <!-- Created with Vectornator for iOS (http://vectornator.io/) --><!DOCTYPE svg PUBLIC "-//W3C//DTD SVG 1.1//EN" "http://www.w3.org/Graphics/SVG/1.1/DTD/svg11.dtd">
<svg height="100%" style="fill-rule:nonzero;clip-rule:evenodd;stroke-linecap:round;stroke-linejoin:round;" xmlns:xlink="http://www.w3.org/1999/xlink" xmlns="http://www.w3.org/2000/svg" xml:space="preserve" width="100%" xmlns:vectornator="http://vectornator.io" version="1.1" viewBox="0 0 36 36">
<metadata>
<vectornator:setting key="DimensionsVisible" value="1"/>
<vectornator:setting key="PencilOnly" value="0"/>
<vectornator:setting key="SnapToPoints" value="0"/>
<vectornator:setting key="OutlineMode" value="0"/>
<vectornator:setting key="CMYKEnabledKey" value="0"/>
<vectornator:setting key="RulersVisible" value="1"/>
<vectornator:setting key="SnapToEdges" value="0"/>
<vectornator:setting key="GuidesVisible" value="1"/>
<vectornator:setting key="DisplayWhiteBackground" value="0"/>
<vectornator:setting key="doHistoryDisabled" value="0"/>
<vectornator:setting key="SnapToGuides" value="1"/>
<vectornator:setting key="TimeLapseWatermarkDisabled" value="0"/>
<vectornator:setting key="Units" value="Points"/>
<vectornator:setting key="DynamicGuides" value="0"/>
<vectornator:setting key="IsolateActiveLayer" value="0"/>
<vectornator:setting key="SnapToGrid" value="0"/>
</metadata>
<defs/>
<g id="Untitled" vectornator:layerName="Untitled">
<g opacity="1">
<path d="M10.1081+10.1461C5.29806+10.1461+1.4651+7.89141+1.4651+5.03546C1.4651+2.25469+5.29806+3.07409e-10+10.1081+3.07409e-10C14.9181+3.07409e-10+18.751+2.25469+18.751+5.03546C18.751+7.89141+14.9932+10.1461+10.1081+10.1461ZM10.1081+1.50313C5.82416+1.50313+2.96823+3.38204+2.96823+5.03546C2.96823+6.68891+5.82416+8.56781+10.1081+8.56781C14.392+8.56781+17.2479+6.76406+17.2479+5.03546C17.2479+3.30687+14.392+1.50313+10.1081+1.50313Z" opacity="1" fill="#ff4f1f"/>
<path d="M10.1081+15.3316C5.22291+15.3316+1.4651+13.0768+1.4651+10.2209L2.96823+10.2209C2.96823+11.9495+5.82416+13.7532+10.1081+13.7532C14.392+13.7532+17.2479+11.8743+17.2479+10.2209L18.751+10.2209C18.751+13.0768+14.9181+15.3316+10.1081+15.3316Z" opacity="1" fill="#ff4f1f"/>
<path d="M10.1081+20.4427C5.22291+20.4427+1.4651+18.2632+1.4651+15.4072L2.96823+15.4072C2.96823+17.1358+5.82416+18.9395+10.1081+18.9395C14.392+18.9395+17.2479+17.0606+17.2479+15.4072L18.751+15.4072C18.751+18.2632+14.9181+20.4427+10.1081+20.4427Z" opacity="1" fill="#ff4f1f"/>
<path d="M10.1081+25.6281C5.22291+25.6281+1.4651+23.4487+1.4651+20.5927L2.96823+20.5927C2.96823+22.3213+5.82416+24.125+10.1081+24.125C14.392+24.125+17.2479+22.3213+17.2479+20.5927L18.751+20.5927C18.751+23.4487+14.9181+25.6281+10.1081+25.6281Z" opacity="1" fill="#ff4f1f"/>
<path d="M10.1081+30.8144C5.29806+30.8144+1.4651+28.5597+1.4651+25.7789L2.96823+25.7789C2.96823+27.5075+5.82416+29.3112+10.1081+29.3112C13.941+29.3112+17.2479+27.6578+17.2479+25.7789L18.751+25.7789C18.751+28.5597+14.9932+30.8144+10.1081+30.8144Z" opacity="1" fill="#ff4f1f"/>
<path d="M10.1081+36C5.22291+36+1.4651+33.7452+1.4651+30.9645L2.96823+30.9645C2.96823+32.6931+5.82416+34.4969+10.1081+34.4969C14.392+34.4969+17.2479+32.618+17.2479+30.9645L18.751+30.9645C18.751+33.7452+14.9181+36+10.1081+36Z" opacity="1" fill="#ff4f1f"/>
<path d="M18.751+5.03537L17.2479+5.03537L17.2479+30.987L18.751+30.987L18.751+5.03537Z" opacity="1" fill="#ff4f1f"/>
<path d="M25.8908+25.6283C21.0057+25.6283+17.2479+23.3735+17.2479+20.5928C17.2479+17.812+21.0808+15.5573+25.8908+15.5573C30.7009+15.5573+34.5338+17.812+34.5338+20.5928C34.5338+23.3735+30.776+25.6283+25.8908+25.6283ZM25.8908+16.9853C21.607+16.9853+18.751+18.8642+18.751+20.5177C18.751+22.1711+21.607+24.05+25.8908+24.05C30.1748+24.05+33.0307+22.1711+33.0307+20.5177C33.0307+18.8642+30.1748+16.9853+25.8908+16.9853Z" opacity="1" fill="#ff4f1f"/>
<path d="M25.8908+30.8144C21.0808+30.8144+17.2479+28.5597+17.2479+25.7789L18.751+25.7789C18.751+27.6578+22.1331+29.3112+25.8908+29.3112C30.1748+29.3112+33.0307+27.4323+33.0307+25.7789L34.5338+25.7789C34.609+28.5597+30.776+30.8144+25.8908+30.8144Z" opacity="1" fill="#ff4f1f"/>
<path d="M25.8908+36C21.0057+36+17.2479+33.7452+17.2479+30.9645L18.751+30.9645C18.751+32.8434+22.1331+34.4969+25.8908+34.4969C30.1748+34.4969+33.0307+32.618+33.0307+30.9645L34.5338+30.9645C34.609+33.7452+30.776+36+25.8908+36Z" opacity="1" fill="#ff4f1f"/>
</g>
</g>
</svg>
