<?xml version="1.0" encoding="UTF-8" standalone="no"?> <!-- Created with Vectornator for iOS (http://vectornator.io/) --><!DOCTYPE svg PUBLIC "-//W3C//DTD SVG 1.1//EN" "http://www.w3.org/Graphics/SVG/1.1/DTD/svg11.dtd">
<svg height="100%" style="fill-rule:nonzero;clip-rule:evenodd;stroke-linecap:round;stroke-linejoin:round;" xmlns:xlink="http://www.w3.org/1999/xlink" xmlns="http://www.w3.org/2000/svg" xml:space="preserve" width="100%" xmlns:vectornator="http://vectornator.io" version="1.1" viewBox="0 0 36 36">
<metadata>
<vectornator:setting key="DimensionsVisible" value="1"/>
<vectornator:setting key="PencilOnly" value="0"/>
<vectornator:setting key="SnapToPoints" value="0"/>
<vectornator:setting key="OutlineMode" value="0"/>
<vectornator:setting key="CMYKEnabledKey" value="0"/>
<vectornator:setting key="RulersVisible" value="1"/>
<vectornator:setting key="SnapToEdges" value="0"/>
<vectornator:setting key="GuidesVisible" value="1"/>
<vectornator:setting key="DisplayWhiteBackground" value="0"/>
<vectornator:setting key="doHistoryDisabled" value="0"/>
<vectornator:setting key="SnapToGuides" value="1"/>
<vectornator:setting key="TimeLapseWatermarkDisabled" value="0"/>
<vectornator:setting key="Units" value="Points"/>
<vectornator:setting key="DynamicGuides" value="0"/>
<vectornator:setting key="IsolateActiveLayer" value="0"/>
<vectornator:setting key="SnapToGrid" value="0"/>
</metadata>
<defs/>
<g id="Untitled" vectornator:layerName="Untitled">
<path d="M10.0938+0C5.28371+3.17891e-07+1.46875+2.25048+1.46875+5.03125C1.46875+7.8872+5.28371+10.1562+10.0938+10.1562C13.1966+10.1562+15.7308+9.17681+17.25+7.78125L17.25+10.2188C17.25+11.8721+14.3777+13.75+10.0938+13.75C5.80981+13.75+2.96875+11.9474+2.96875+10.2188L1.46875+10.2188C1.46875+13.0747+5.20856+15.3438+10.0938+15.3438C13.1705+15.3438+15.7203+14.3498+17.25+12.9375L17.25+15.4062C17.25+17.0597+14.3777+18.9375+10.0938+18.9375C5.80981+18.9375+2.96875+17.1348+2.96875+15.4062L1.46875+15.4062C1.46875+18.2622+5.20856+20.4375+10.0938+20.4375C13.1761+20.4375+15.7217+19.4883+17.25+18.0938L17.25+20.5938C17.25+22.3223+14.3777+24.125+10.0938+24.125C5.80981+24.125+2.96875+22.3224+2.96875+20.5938L1.46875+20.5938C1.46875+23.4498+5.20856+25.625+10.0938+25.625C13.1761+25.625+15.7217+24.6757+17.25+23.2812L17.25+25.7812C17.25+27.6601+13.9267+29.3125+10.0938+29.3125C5.80981+29.3125+2.96875+27.5098+2.96875+25.7812L1.46875+25.7812C1.46875+28.562+5.28371+30.8125+10.0938+30.8125C13.2022+30.8125+15.7321+29.8492+17.25+28.4688L17.25+30.9688L17.25+31C17.2194+32.6469+14.3546+34.5+10.0938+34.5C5.80981+34.5+2.96875+32.6973+2.96875+30.9688L1.46875+30.9688C1.46875+33.7495+5.20856+36+10.0938+36C13.6578+36+16.6706+34.7725+18+33C19.3185+34.7632+22.2984+36+25.9062+36C30.7914+36+34.6065+33.7495+34.5312+30.9688L33.0312+30.9688C33.0312+32.6222+30.1903+34.5+25.9062+34.5C22.1668+34.5+18.7827+32.8675+18.75+31C18.7498+30.9909+18.75+30.9779+18.75+30.9688L18.75+28.4688C20.2821+29.854+22.8392+30.8125+25.9062+30.8125C30.7914+30.8125+34.6065+28.562+34.5312+25.7812L33.0312+25.7812C33.0312+27.4346+30.1903+29.3125+25.9062+29.3125C22.1485+29.3125+18.75+27.6602+18.75+25.7812L18.75+23.2812C20.2679+24.6617+22.7978+25.625+25.9062+25.625C30.7914+25.625+34.5312+23.3745+34.5312+20.5938C34.5313+17.8129+30.7163+15.5625+25.9062+15.5625C22.8392+15.5625+20.2821+16.521+18.75+17.9062L18.75+5.03125C18.75+2.25048+14.9038+0+10.0938+0ZM10.0938+1.5C14.3777+1.5+17.25+3.30266+17.25+5.03125C17.25+6.75985+14.3777+8.5625+10.0938+8.5625C5.80981+8.5625+2.96875+6.6847+2.96875+5.03125C2.96875+3.37783+5.80981+1.5+10.0938+1.5ZM25.9062+17C30.1903+17+33.0312+18.8778+33.0312+20.5312C33.0312+22.1846+30.1903+24.0625+25.9062+24.0625C21.6224+24.0625+18.75+22.1847+18.75+20.5312C18.75+18.8778+21.6224+17+25.9062+17Z" opacity="1" fill="#ff4f1f"/>
</g>
</svg>
