<?xml version="1.0" encoding="UTF-8" standalone="no"?> <!-- Created with Vectornator for iOS (http://vectornator.io/) --><!DOCTYPE svg PUBLIC "-//W3C//DTD SVG 1.1//EN" "http://www.w3.org/Graphics/SVG/1.1/DTD/svg11.dtd">
<svg height="100%" style="fill-rule:nonzero;clip-rule:evenodd;stroke-linecap:round;stroke-linejoin:round;" xmlns:xlink="http://www.w3.org/1999/xlink" xmlns="http://www.w3.org/2000/svg" xml:space="preserve" width="100%" xmlns:vectornator="http://vectornator.io" version="1.1" viewBox="0 0 36 36">
<metadata>
<vectornator:setting key="DimensionsVisible" value="1"/>
<vectornator:setting key="PencilOnly" value="0"/>
<vectornator:setting key="SnapToPoints" value="0"/>
<vectornator:setting key="OutlineMode" value="0"/>
<vectornator:setting key="CMYKEnabledKey" value="0"/>
<vectornator:setting key="RulersVisible" value="1"/>
<vectornator:setting key="SnapToEdges" value="0"/>
<vectornator:setting key="GuidesVisible" value="1"/>
<vectornator:setting key="DisplayWhiteBackground" value="0"/>
<vectornator:setting key="doHistoryDisabled" value="0"/>
<vectornator:setting key="SnapToGuides" value="1"/>
<vectornator:setting key="TimeLapseWatermarkDisabled" value="0"/>
<vectornator:setting key="Units" value="Points"/>
<vectornator:setting key="DynamicGuides" value="0"/>
<vectornator:setting key="IsolateActiveLayer" value="0"/>
<vectornator:setting key="SnapToGrid" value="0"/>
</metadata>
<defs/>
<g id="Untitled" vectornator:layerName="Untitled">
<g opacity="1">
<path d="M13.5652+33.4286L13.5652+31.9378L15.0559+31.9378C17.8882+31.8633+20.3479+30.0745+21.3168+27.4658C21.6148+26.646+22.4348+26.0496+23.3292+26.0496L23.5527+26.0496C29.5155+26.0496+34.3603+21.1304+34.4348+15.1677L34.4348+14.7205C34.4348+8.75774+29.5155+3.91303+23.5527+3.8385L12.3727+3.8385C6.40994+3.91303+1.49068+8.83229+1.49068+14.7951L1.49068+15.2422C1.49068+21.2049+6.40994+26.0496+12.3727+26.1242L13.6397+26.1242L13.6397+27.6149L12.3727+27.6149C5.59006+27.5404+9.60554e-08+21.9502+9.60554e-08+15.1677L9.60554e-08+14.7205C9.60554e-08+8.01241+5.59006+2.42235+12.3727+2.42235L23.6273+2.42235C30.41+2.42235+35.9255+8.01241+36+14.7951L36+15.2422C36+22.0248+30.41+27.5404+23.6273+27.6149L23.4038+27.6149C23.1056+27.6149+22.882+27.764+22.8074+28.062C21.6148+31.267+18.6335+33.4286+15.1305+33.5777L13.5652+33.5777L13.5652+33.4286Z" opacity="1" fill="#ff4f1f"/>
<path d="M26.9812+11.0675L9.09302+11.0675L9.09302+12.5582L26.9812+12.5582L26.9812+11.0675Z" opacity="1" fill="#ff4f1f"/>
<path d="M26.9812+16.9564L9.09302+16.9564L9.09302+18.447L26.9812+18.447L26.9812+16.9564Z" opacity="1" fill="#ff4f1f"/>
</g>
</g>
</svg>
