<?xml version="1.0" encoding="UTF-8" standalone="no"?> <!-- Created with Vectornator for iOS (http://vectornator.io/) --><!DOCTYPE svg PUBLIC "-//W3C//DTD SVG 1.1//EN" "http://www.w3.org/Graphics/SVG/1.1/DTD/svg11.dtd">
<svg height="100%" style="fill-rule:nonzero;clip-rule:evenodd;stroke-linecap:round;stroke-linejoin:round;" xmlns:xlink="http://www.w3.org/1999/xlink" xmlns="http://www.w3.org/2000/svg" xml:space="preserve" width="100%" xmlns:vectornator="http://vectornator.io" version="1.1" viewBox="0 0 36 36">
<metadata>
<vectornator:setting key="DimensionsVisible" value="1"/>
<vectornator:setting key="PencilOnly" value="0"/>
<vectornator:setting key="SnapToPoints" value="0"/>
<vectornator:setting key="OutlineMode" value="0"/>
<vectornator:setting key="CMYKEnabledKey" value="0"/>
<vectornator:setting key="RulersVisible" value="1"/>
<vectornator:setting key="SnapToEdges" value="0"/>
<vectornator:setting key="GuidesVisible" value="1"/>
<vectornator:setting key="DisplayWhiteBackground" value="0"/>
<vectornator:setting key="doHistoryDisabled" value="0"/>
<vectornator:setting key="SnapToGuides" value="1"/>
<vectornator:setting key="TimeLapseWatermarkDisabled" value="0"/>
<vectornator:setting key="Units" value="Points"/>
<vectornator:setting key="DynamicGuides" value="0"/>
<vectornator:setting key="IsolateActiveLayer" value="0"/>
<vectornator:setting key="SnapToGrid" value="0"/>
</metadata>
<defs/>
<g id="Untitled" vectornator:layerName="Untitled">
<g opacity="1">
<path d="M18+0C13.4811+0+9.78125+3.69992+9.78125+8.21875L9.78125+14.9062L6.9375+14.9062C5.58186+14.9063+4.4375+16.0508+4.4375+17.4062L4.4375+33.5C4.4375+34.8558+5.58186+36+6.9375+36L29.1562+36C30.5119+36+31.6378+34.8558+31.5625+33.5L31.5625+17.4062C31.5625+16.0507+30.5119+14.9062+29.1562+14.9062L29.1562+16.4062C29.6835+16.4062+30.125+16.8792+30.125+17.4062L30.125+33.5C30.125+34.0273+29.6835+34.5+29.1562+34.5L6.9375+34.5C6.41031+34.5+5.9375+34.0273+5.9375+33.5L5.9375+17.4062C5.9375+16.8792+6.41031+16.4062+6.9375+16.4062L11.2812+16.4062L11.2812+8.21875C11.2813+4.52838+14.3096+1.5+18+1.5C21.6903+1.5+24.6875+4.52838+24.6875+8.21875L24.6875+14.9062L15.125+14.9062L15.125+16.4062L26.2812+16.4062L26.2812+14.9062L26.2188+14.9062L26.2188+8.21875C26.2188+3.69992+22.5187+0+18+0Z" opacity="1" fill="#ff4f1f"/>
<path d="M11.7472+27.565C12.6623+27.565+13.4041+26.8231+13.4041+25.9082C13.4041+24.993+12.6623+24.2512+11.7472+24.2512C10.8321+24.2512+10.0903+24.993+10.0903+25.9082C10.0903+26.8231+10.8321+27.565+11.7472+27.565Z" fill-rule="evenodd" fill="#ff4f1f" opacity="1"/>
<path d="M17.9981+27.565C18.9133+27.565+19.655+26.8231+19.655+25.9082C19.655+24.993+18.9133+24.2512+17.9981+24.2512C17.0831+24.2512+16.3412+24.993+16.3412+25.9082C16.3412+26.8231+17.0831+27.565+17.9981+27.565Z" fill-rule="evenodd" fill="#ff4f1f" opacity="1"/>
<path d="M24.3247+27.565C25.2397+27.565+25.9816+26.8231+25.9816+25.9082C25.9816+24.993+25.2397+24.2512+24.3247+24.2512C23.4095+24.2512+22.6678+24.993+22.6678+25.9082C22.6678+26.8231+23.4095+27.565+24.3247+27.565Z" fill-rule="evenodd" fill="#ff4f1f" opacity="1"/>
</g>
</g>
</svg>
