<?xml version="1.0" encoding="UTF-8" standalone="no"?> <!-- Created with Vectornator for iOS (http://vectornator.io/) --><!DOCTYPE svg PUBLIC "-//W3C//DTD SVG 1.1//EN" "http://www.w3.org/Graphics/SVG/1.1/DTD/svg11.dtd">
<svg height="100%" style="fill-rule:nonzero;clip-rule:evenodd;stroke-linecap:round;stroke-linejoin:round;" xmlns:xlink="http://www.w3.org/1999/xlink" xmlns="http://www.w3.org/2000/svg" xml:space="preserve" width="100%" xmlns:vectornator="http://vectornator.io" version="1.1" viewBox="0 0 36 36">
<metadata>
<vectornator:setting key="DimensionsVisible" value="1"/>
<vectornator:setting key="PencilOnly" value="0"/>
<vectornator:setting key="SnapToPoints" value="0"/>
<vectornator:setting key="OutlineMode" value="0"/>
<vectornator:setting key="CMYKEnabledKey" value="0"/>
<vectornator:setting key="RulersVisible" value="1"/>
<vectornator:setting key="SnapToEdges" value="0"/>
<vectornator:setting key="GuidesVisible" value="1"/>
<vectornator:setting key="DisplayWhiteBackground" value="0"/>
<vectornator:setting key="doHistoryDisabled" value="0"/>
<vectornator:setting key="SnapToGuides" value="1"/>
<vectornator:setting key="TimeLapseWatermarkDisabled" value="0"/>
<vectornator:setting key="Units" value="Points"/>
<vectornator:setting key="DynamicGuides" value="0"/>
<vectornator:setting key="IsolateActiveLayer" value="0"/>
<vectornator:setting key="SnapToGrid" value="0"/>
</metadata>
<defs/>
<g id="Untitled" vectornator:layerName="Untitled">
<g opacity="1">
<path d="M32.5283+28.7174L3.47169+28.7174C1.50943+28.7174+1.19209e-07+27.1325+1.19209e-07+25.1702C0.0754693+24.1136+0.603769+23.1325+1.50943+22.6042L2.79245+21.6985C3.32075+21.3212+3.62265+20.7928+3.62265+20.1891L3.62265+14.3023C3.69812+7.20794+8.98113+1.09473+16+0.0381277L16.2263+1.54756C9.96226+2.45322+5.20755+7.96266+5.13208+14.3023L5.13208+20.1891C5.13208+21.3212+4.60378+22.3778+3.62265+22.9816L2.26415+23.8871C1.81132+24.1891+1.50943+24.6418+1.50943+25.2457C1.50943+26.3023+2.33962+27.208+3.47169+27.208L32.4529+27.208C33.5095+27.208+34.415+26.3023+34.415+25.2457C34.415+24.7174+34.1133+24.1891+33.6603+23.8871L32.3018+22.9816C31.3963+22.3778+30.7924+21.3212+30.7924+20.1891L30.7924+14.3777C30.7924+7.96266+25.9622+2.45322+19.6226+1.54756L19.8491+0.0381277C26.9434+1.01926+32.3018+7.20794+32.3018+14.3023L32.3018+20.1891C32.3018+20.7928+32.6037+21.3966+33.1321+21.6985L34.4906+22.6042C35.3962+23.1325+35.9246+24.1136+36+25.1702C36+27.1325+34.415+28.7174+32.5283+28.7174Z" opacity="1" fill="#ff4f1f"/>
<path d="M17.9622+35.9619C15.5471+35.9619+13.5849+33.9995+13.5849+31.5844L15.0943+31.5844C15.0943+33.1694+16.3774+34.4523+17.9622+34.4523C19.5472+34.4523+20.8303+33.1694+20.8303+31.5844L22.3396+31.5844C22.3396+33.9995+20.3773+35.9619+17.9622+35.9619Z" opacity="1" fill="#ff4f1f"/>
</g>
</g>
</svg>
