<?xml version="1.0" encoding="UTF-8" standalone="no"?> <!-- Created with Vectornator for iOS (http://vectornator.io/) --><!DOCTYPE svg PUBLIC "-//W3C//DTD SVG 1.1//EN" "http://www.w3.org/Graphics/SVG/1.1/DTD/svg11.dtd">
<svg height="100%" style="fill-rule:nonzero;clip-rule:evenodd;stroke-linecap:round;stroke-linejoin:round;" xmlns:xlink="http://www.w3.org/1999/xlink" xmlns="http://www.w3.org/2000/svg" xml:space="preserve" width="100%" xmlns:vectornator="http://vectornator.io" version="1.1" viewBox="0 0 36 36">
<metadata>
<vectornator:setting key="DimensionsVisible" value="1"/>
<vectornator:setting key="PencilOnly" value="0"/>
<vectornator:setting key="SnapToPoints" value="0"/>
<vectornator:setting key="OutlineMode" value="0"/>
<vectornator:setting key="CMYKEnabledKey" value="0"/>
<vectornator:setting key="RulersVisible" value="1"/>
<vectornator:setting key="SnapToEdges" value="0"/>
<vectornator:setting key="GuidesVisible" value="1"/>
<vectornator:setting key="DisplayWhiteBackground" value="0"/>
<vectornator:setting key="doHistoryDisabled" value="0"/>
<vectornator:setting key="SnapToGuides" value="1"/>
<vectornator:setting key="TimeLapseWatermarkDisabled" value="0"/>
<vectornator:setting key="Units" value="Points"/>
<vectornator:setting key="DynamicGuides" value="0"/>
<vectornator:setting key="IsolateActiveLayer" value="0"/>
<vectornator:setting key="SnapToGrid" value="0"/>
</metadata>
<defs/>
<g id="Untitled" vectornator:layerName="Untitled">
<g opacity="1">
<path d="M29.9552+32.8665L28.4498+32.8665L28.4498+28.9528C28.4498+28.8023+28.2993+28.6518+28.1488+28.5765L22.6544+26.8453L23.106+25.4154L28.6004+27.1464C29.4283+27.3722+29.9552+28.1249+29.9552+28.9528L29.9552+32.8665Z" opacity="1" fill="#ff4f1f"/>
<path d="M7.67778+32.9406L6.17252+32.9406L6.17252+28.9515C6.17252+28.1237+6.69938+27.4462+7.37676+27.1452L15.3548+24.812L16.3333+25.1131L16.3333+25.6398C16.3333+26.543+17.086+27.2957+17.9892+27.2957C18.8923+27.2957+19.6449+26.543+19.6449+25.6398L19.6449+22.9303L20.0213+22.6292C20.9998+21.9519+21.5265+20.8982+21.5265+19.6939L21.5265+16.6833C21.5265+14.7265+19.946+13.0707+17.9139+13.0707C15.9569+13.0707+14.3012+14.6512+14.3012+16.6833L14.3012+19.6939C14.3012+21.6509+15.9569+23.3066+17.9139+23.3066L17.9139+24.812C15.129+24.812+12.7958+22.5541+12.7958+19.6939L12.7958+16.6833C12.7958+13.8985+15.0537+11.5653+17.9139+11.5653C20.6987+11.5653+23.0319+13.8232+23.0319+16.6833L23.0319+19.6939C23.0319+21.2745+22.2792+22.7045+21.0749+23.683L21.0749+25.6398C21.0749+27.371+19.6449+28.801+17.9139+28.801C16.4085+28.801+15.2044+27.8226+14.8279+26.4678L7.75309+28.5753C7.67778+28.6504+7.5273+28.801+7.5273+28.9515L7.5273+32.9406L7.67778+32.9406Z" opacity="1" fill="#ff4f1f"/>
<path d="M6.92302+16.6442C4.13823+16.6442+1.80501+14.3109+1.80501+11.5261L1.80501+8.51553C1.80501+7.16084+2.33187+5.88133+3.31032+4.90288C4.28876+3.92444+5.56826+3.39759+6.92302+3.39759C6.92302+3.39759+6.92302+3.39759+6.99829+3.39759C9.55736+3.39759+11.7152+5.54673+12.0162+8.10572L10.435+7.78949C10.2092+5.98313+8.80468+4.90288+6.99829+4.90288C6.01986+4.90288+5.11668+5.27921+4.43929+5.9566C3.68664+6.70924+3.31032+7.61242+3.31032+8.59084L3.31032+11.6014C3.31032+13.5584+4.96614+15.2141+6.92302+15.2141L6.92302+16.6442Z" opacity="1" fill="#ff4f1f"/>
<path d="M6.92437+20.748C6.17171+20.748+5.41907+20.4469+4.81695+19.9201C4.2901+19.4686+3.98904+18.8664+3.8385+18.2643L0.451584+19.2426L7.61168e-07+17.8127L4.2901+16.6084L5.26853+16.9095L5.26853+17.5116C5.26853+17.5869+5.26853+17.6621+5.26853+17.6621C5.26853+18.1137+5.49434+18.4901+5.7954+18.791C6.09646+19.0921+6.54804+19.2426+6.99962+19.2426C7.45122+19.2426+7.82758+19.0168+8.12854+18.7159C8.42964+18.4148+8.58012+17.9632+8.58012+17.5116L8.58012+14.7268L8.95654+14.4257C9.93501+13.7483+10.4618+12.6947+10.4618+11.4904L10.4618+8.4798C10.4618+8.32932+10.4361+7.93999+10.4361+7.78946L11.9671+7.80244C12.0423+8.02822+12.0423+8.25401+12.0423+8.4798L12.0423+11.4904C12.0423+13.0709+11.2898+14.501+10.0855+15.4795L10.0855+17.4363C10.1608+18.2643+9.8597+19.0921+9.25764+19.6943C8.65543+20.2964+7.90275+20.6727+7.07489+20.748C7.07489+20.748+6.99962+20.748+6.92437+20.748Z" opacity="1" fill="#ff4f1f"/>
<path d="M29.203+20.5979C28.2245+20.5979+27.3214+20.1463+26.7193+19.3938L27.8483+18.4153C28.1494+18.7916+28.6761+19.0174+29.1277+19.0174C29.5794+19.0174+30.031+18.8669+30.332+18.4906C30.6331+18.1895+30.7836+17.7379+30.7836+17.2864L30.7836+14.5769L31.16+14.2758C32.1383+13.5984+32.7405+12.4694+32.7405+11.3405L32.7405+8.32987C32.7405+8.17925+32.7405+8.10408+32.7405+8.02877C32.6652+6.07187+30.9342+4.49131+28.9772+4.56658C27.0204+4.64184+25.4397+6.29767+25.515+8.32987L25.515+11.3405C25.515+13.2973+27.1709+14.9531+29.1277+14.9531L29.1277+16.4584C26.343+16.4584+24.0098+14.1253+24.0098+11.3405L24.0098+8.32987C23.8592+5.54502+26.1173+3.13655+28.9019+3.06128C31.762+2.98601+34.0953+5.16869+34.2457+7.95346C34.2457+8.10408+34.2457+8.25456+34.2457+8.40504L34.2457+11.4156C34.2457+12.9962+33.4932+14.4262+32.2889+15.4047L32.2889+17.3617C32.2889+18.1895+31.9878+19.0174+31.3858+19.6196C30.7836+20.2217+30.031+20.5979+29.203+20.5979Z" opacity="1" fill="#ff4f1f"/>
<path d="M31.7923+16.6804L31.3914+18.1314L35.5991+19.2939L36+17.8429L31.7923+16.6804Z" opacity="1" fill="#ff4f1f"/>
<path stroke="#ff4f1f" stroke-width="0.74123" d="M22.5208+15.7939C21.9385+16.0126+21.3215+16.1241+20.6995+16.1233C19.547+16.1232+18.4276+15.7388+17.5181+15.0313C16.6084+14.3237+15.9606+13.3332+15.6768+12.2163" fill="none" stroke-linecap="butt" opacity="1" stroke-linejoin="miter"/>
<path stroke="#ff4f1f" stroke-width="0.74123" d="M13.5535+19.1801C13.5573+18.1332+13.9267+17.1206+14.598+16.3172C15.2692+15.5138+16.1999+14.9702+17.2293+14.7803" fill="none" stroke-linecap="butt" opacity="1" stroke-linejoin="miter"/>
<path stroke="#ff4f1f" stroke-width="0.703943" d="M22.79+17.6214C23.5383+17.6758+24.2342+18.0253+24.7248+18.5927C25.2153+19.1603+25.4604+19.8995+25.4059+20.6478C25.3793+21.0183+25.2796+21.38+25.1131+21.7122C24.9465+22.0443+24.7161+22.3404+24.435+22.5833C24.154+22.8264+23.8277+23.0117+23.4751+23.1286C23.1225+23.2456+22.7502+23.2919+22.3795+23.265L20.9493+23.1609" fill="none" stroke-linecap="butt" opacity="1" stroke-linejoin="miter"/>
</g>
</g>
</svg>
