<?xml version="1.0" encoding="UTF-8" standalone="no"?> <!-- Created with Vectornator for iOS (http://vectornator.io/) --><!DOCTYPE svg PUBLIC "-//W3C//DTD SVG 1.1//EN" "http://www.w3.org/Graphics/SVG/1.1/DTD/svg11.dtd">
<svg height="100%" style="fill-rule:nonzero;clip-rule:evenodd;stroke-linecap:round;stroke-linejoin:round;" xmlns:xlink="http://www.w3.org/1999/xlink" xmlns="http://www.w3.org/2000/svg" xml:space="preserve" width="100%" xmlns:vectornator="http://vectornator.io" version="1.1" viewBox="0 0 36 36">
<metadata>
<vectornator:setting key="DimensionsVisible" value="1"/>
<vectornator:setting key="PencilOnly" value="0"/>
<vectornator:setting key="SnapToPoints" value="0"/>
<vectornator:setting key="OutlineMode" value="0"/>
<vectornator:setting key="CMYKEnabledKey" value="0"/>
<vectornator:setting key="RulersVisible" value="1"/>
<vectornator:setting key="SnapToEdges" value="0"/>
<vectornator:setting key="GuidesVisible" value="1"/>
<vectornator:setting key="DisplayWhiteBackground" value="0"/>
<vectornator:setting key="doHistoryDisabled" value="0"/>
<vectornator:setting key="SnapToGuides" value="1"/>
<vectornator:setting key="TimeLapseWatermarkDisabled" value="0"/>
<vectornator:setting key="Units" value="Points"/>
<vectornator:setting key="DynamicGuides" value="0"/>
<vectornator:setting key="IsolateActiveLayer" value="0"/>
<vectornator:setting key="SnapToGrid" value="0"/>
</metadata>
<defs/>
<g id="Untitled" vectornator:layerName="Untitled">
<g opacity="1">
<path d="M6.92302+16.6442C4.13823+16.6442+1.80501+14.3109+1.80501+11.5261L1.80501+8.51553C1.80501+7.16084+2.33187+5.88133+3.31032+4.90288C4.28876+3.92444+5.56826+3.39759+6.92302+3.39759C6.92302+3.39759+6.92302+3.39759+6.99829+3.39759C9.55736+3.39759+11.7152+5.54673+12.0162+8.10572L10.435+7.78949C10.2092+5.98313+8.80468+4.90288+6.99829+4.90288C6.01986+4.90288+5.11668+5.27921+4.43929+5.9566C3.68664+6.70924+3.31032+7.61242+3.31032+8.59084L3.31032+11.6014C3.31032+13.5584+4.96614+15.2141+6.92302+15.2141L6.92302+16.6442Z" fill-rule="evenodd" fill="#ff4f1f" opacity="1"/>
<path d="M6.92437+20.748C6.17171+20.748+5.41907+20.4469+4.81695+19.9201C4.2901+19.4686+3.98904+18.8664+3.8385+18.2643L0.451584+19.2426L7.61168e-07+17.8127L4.2901+16.6084L5.26853+16.9095L5.26853+17.5116C5.26853+17.5869+5.26853+17.6621+5.26853+17.6621C5.26853+18.1137+5.49434+18.4901+5.7954+18.791C6.09646+19.0921+6.54804+19.2426+6.99962+19.2426C7.45122+19.2426+7.82758+19.0168+8.12854+18.7159C8.42964+18.4148+8.58012+17.9632+8.58012+17.5116L8.58012+14.7268L8.95654+14.4257C9.93501+13.7483+10.4618+12.6947+10.4618+11.4904L10.4618+8.4798C10.4618+8.32932+10.4361+7.93999+10.4361+7.78946L11.9671+7.80244C12.0423+8.02822+12.0423+8.25401+12.0423+8.4798L12.0423+11.4904C12.0423+13.0709+11.2898+14.501+10.0855+15.4795L10.0855+17.4363C10.1608+18.2643+9.8597+19.0921+9.25764+19.6943C8.65543+20.2964+7.90275+20.6727+7.07489+20.748C7.07489+20.748+6.99962+20.748+6.92437+20.748Z" fill-rule="evenodd" fill="#ff4f1f" opacity="1"/>
<path d="M28.9062+3.0625C26.1217+3.13777+23.8494+5.5589+24+8.34375L24+11.3438C24+14.1286+26.3403+16.4688+29.125+16.4688L29.125+14.9375C27.1682+14.9375+25.5+13.3006+25.5+11.3438L25.5+8.34375C25.4247+6.31155+27.0119+4.63776+28.9688+4.5625C30.9258+4.48723+32.6747+6.07435+32.75+8.03125C32.75+8.10656+32.75+8.19313+32.75+8.34375L32.75+11.3438C32.75+12.4726+32.1346+13.6039+31.1562+14.2812L30.7812+14.5625L30.7812+17.2812C30.7812+17.7327+30.6448+18.1989+30.3438+18.5C30.0428+18.8763+29.5767+19.0312+29.125+19.0312C28.6734+19.0313+28.1448+18.7825+27.8438+18.4062L26.7188+19.4062C27.3208+20.1587+28.209+20.5938+29.1875+20.5938C30.0155+20.5938+30.7728+20.2271+31.375+19.625C31.7387+19.2612+31.9497+18.7913+32.0938+18.3125L35.5938+19.2812L36+17.8438L32.2812+16.8125L32.2812+15.4062C33.4855+14.4278+34.25+12.9868+34.25+11.4062L34.25+8.40625C34.25+8.25577+34.25+8.11937+34.25+7.96875C34.0996+5.18398+31.7663+2.98723+28.9062+3.0625Z" opacity="1" fill="#ff4f1f"/>
<path d="M17.9062+11.5625C16.9967+11.5625+16.2032+11.8699+15.4688+12.2812L15.3125+12.3125C15.3184+12.3356+15.3376+12.352+15.3438+12.375C13.8441+13.2766+12.7813+14.8433+12.7812+16.6875L12.7812+19.6875C12.7812+22.5477+15.1213+24.8125+17.9062+24.8125L17.9062+23.3125C15.9492+23.3125+14.3125+21.6445+14.3125+19.6875L14.3125+18.125C14.4645+17.584+14.5081+17.0016+14.875+16.5625C15.466+15.8551+16.289+15.4107+17.1875+15.2188C17.2219+15.2469+17.2461+15.2851+17.2812+15.3125C18.2559+16.0707+19.4528+16.4999+20.6875+16.5C20.9513+16.5003+21.2053+16.4103+21.4688+16.375C21.4783+16.4816+21.5312+16.5788+21.5312+16.6875L21.5312+19.6875C21.5313+20.8918+21.0098+21.9477+20.0312+22.625L19.6562+22.9375L19.6562+25.625C19.6562+26.5282+18.9031+27.2812+18+27.2812C17.0968+27.2813+16.3438+26.5282+16.3438+25.625L16.3438+25.125L15.3438+24.8125L7.375+27.1562C6.69762+27.4573+6.1875+28.1097+6.1875+28.9375L6.1875+32.9375L7.53125+32.9375L7.53125+28.9375C7.53125+28.787+7.67469+28.6376+7.75+28.5625L14.8125+26.4688C15.189+27.8236+16.4008+28.8125+17.9062+28.8125C19.6373+28.8125+21.0625+27.3562+21.0625+25.625L21.0625+23.6875C21.1151+23.6447+21.1366+23.5757+21.1875+23.5312L22.3438+23.625C22.7607+23.6553+23.1973+23.6003+23.5938+23.4688C23.9903+23.3373+24.3403+23.1171+24.6562+22.8438C24.9721+22.5708+25.2501+22.2486+25.4375+21.875C25.6249+21.5011+25.7201+21.1038+25.75+20.6875C25.8112+19.8466+25.5516+19.0133+25+18.375C24.505+17.8025+23.7755+17.5218+23.0312+17.4062L23.0312+16.6875C23.0312+13.8274+20.6911+11.5625+17.9062+11.5625ZM17.9062+13.0625C19.5541+13.0625+20.8605+14.1698+21.3125+15.625C21.1013+15.6544+20.902+15.7503+20.6875+15.75C19.6172+15.7499+18.5946+15.407+17.75+14.75C17.2544+14.3645+16.8741+13.884+16.5625+13.3438C16.9852+13.1712+17.4277+13.0625+17.9062+13.0625ZM15.9375+13.75C16.124+14.0627+16.3794+14.3228+16.625+14.5938C15.7896+14.8574+15.0258+15.3124+14.4375+15.9688C14.6318+15.0241+15.1756+14.2643+15.9375+13.75ZM23.0312+18.0938C23.5715+18.2004+24.1081+18.3954+24.4688+18.8125C24.8982+19.3095+25.1102+19.9699+25.0625+20.625C25.0392+20.9493+24.9585+21.2713+24.8125+21.5625C24.6666+21.8533+24.4647+22.1+24.2188+22.3125C23.9727+22.5254+23.6838+22.6789+23.375+22.7812C23.0663+22.8837+22.731+22.9298+22.4062+22.9062L21.7188+22.875C22.4771+21.9728+23.0312+20.9075+23.0312+19.6875L23.0312+18.0938ZM23.0938+25.4062L22.6562+26.8438L28.1562+28.5625C28.3068+28.6378+28.4375+28.787+28.4375+28.9375L28.4375+32.875L29.9688+32.875L29.9688+28.9375C29.9687+28.1096+29.4216+27.382+28.5938+27.1562L23.0938+25.4062Z" opacity="1" fill="#ff4f1f"/>
</g>
</g>
</svg>
