<?xml version="1.0" encoding="UTF-8" standalone="no"?> <!-- Created with Vectornator for iOS (http://vectornator.io/) --><!DOCTYPE svg PUBLIC "-//W3C//DTD SVG 1.1//EN" "http://www.w3.org/Graphics/SVG/1.1/DTD/svg11.dtd">
<svg height="100%" style="fill-rule:nonzero;clip-rule:evenodd;stroke-linecap:round;stroke-linejoin:round;" xmlns:xlink="http://www.w3.org/1999/xlink" xmlns="http://www.w3.org/2000/svg" xml:space="preserve" width="100%" xmlns:vectornator="http://vectornator.io" version="1.1" viewBox="0 0 36 36">
<metadata>
<vectornator:setting key="DimensionsVisible" value="1"/>
<vectornator:setting key="PencilOnly" value="0"/>
<vectornator:setting key="SnapToPoints" value="0"/>
<vectornator:setting key="OutlineMode" value="0"/>
<vectornator:setting key="CMYKEnabledKey" value="0"/>
<vectornator:setting key="RulersVisible" value="1"/>
<vectornator:setting key="SnapToEdges" value="0"/>
<vectornator:setting key="GuidesVisible" value="1"/>
<vectornator:setting key="DisplayWhiteBackground" value="0"/>
<vectornator:setting key="doHistoryDisabled" value="0"/>
<vectornator:setting key="SnapToGuides" value="1"/>
<vectornator:setting key="TimeLapseWatermarkDisabled" value="0"/>
<vectornator:setting key="Units" value="Points"/>
<vectornator:setting key="DynamicGuides" value="0"/>
<vectornator:setting key="IsolateActiveLayer" value="0"/>
<vectornator:setting key="SnapToGrid" value="0"/>
</metadata>
<defs/>
<g id="Untitled" vectornator:layerName="Untitled">
<g opacity="1">
<path d="M24.787+27.9009L2.21359+27.9009L2.21359+29.4008L24.787+29.4008L24.787+27.9009Z" opacity="1" fill="#ff4f1f"/>
<path d="M21.4123+36L5.58838+36C3.26355+36+1.46368+34.3502+1.46368+32.3253L1.46368+3.67731C1.61367+1.50246+3.41355-0.0724255+5.5134+0.0025691L21.4123+0.0025691C23.737+0.0025691+25.537+1.65244+25.537+3.67731L25.537+10.8768L24.037+10.8768L24.037+3.67731C24.037+2.47738+22.9122+1.50246+21.4123+1.50246L5.5134+1.50246C4.16349+1.42747+3.03858+2.4024+2.96358+3.75229L2.96358+32.3253C2.96358+33.5251+4.0885+34.5001+5.58838+34.5001L21.4123+34.5001C22.8372+34.5001+24.037+33.5251+24.037+32.3253L24.037+31.2753L25.537+31.2753L25.537+32.3253C25.537+34.3502+23.662+36+21.4123+36Z" opacity="1" fill="#ff4f1f"/>
<path d="M25.537+21.0007L24.0372+21.0007L24.0372+32.3249L25.537+32.3249L25.537+21.0007Z" opacity="1" fill="#ff4f1f"/>
<path d="M13.4628+32.9256C13.9598+32.9256+14.3627+32.5227+14.3627+32.0256C14.3627+31.5287+13.9598+31.1257+13.4628+31.1257C12.9658+31.1257+12.5628+31.5287+12.5628+32.0256C12.5628+32.5227+12.9658+32.9256+13.4628+32.9256Z" opacity="1" fill="#ff4f1f"/>
<path d="M34.4613+18.0015L15.7126+18.0015L15.7126+19.5014L34.4613+19.5014L34.4613+18.0015Z" opacity="1" fill="#ff4f1f"/>
<path d="M18.8625+23.2507L15.4876+19.876C14.8877+19.2011+14.8877+18.3012+15.4876+17.6262L18.8625+14.2515L19.9123+15.3014L16.5376+18.6762L16.5376+18.8262L19.9123+22.2009L18.8625+23.2507Z" opacity="1" fill="#ff4f1f"/>
<path d="M33.7863+10.5015L14.9627+10.5015L14.9627+12.0014L33.7863+12.0014L33.7863+10.5015Z" opacity="1" fill="#ff4f1f"/>
<path d="M30.7116+15.7515L29.6617+14.7016L33.0364+11.3269L33.0364+11.1769L29.6617+7.80211L30.7116+6.75219L34.0864+10.1269C34.6863+10.8019+34.6863+11.7018+34.0864+12.3768L30.7116+15.7515Z" opacity="1" fill="#ff4f1f"/>
</g>
</g>
</svg>
