<?xml version="1.0" encoding="UTF-8" standalone="no"?> <!-- Created with Vectornator for iOS (http://vectornator.io/) --><!DOCTYPE svg PUBLIC "-//W3C//DTD SVG 1.1//EN" "http://www.w3.org/Graphics/SVG/1.1/DTD/svg11.dtd">
<svg height="100%" style="fill-rule:nonzero;clip-rule:evenodd;stroke-linecap:round;stroke-linejoin:round;" xmlns:xlink="http://www.w3.org/1999/xlink" xmlns="http://www.w3.org/2000/svg" xml:space="preserve" width="100%" xmlns:vectornator="http://vectornator.io" version="1.1" viewBox="0 0 36 36">
<metadata>
<vectornator:setting key="DimensionsVisible" value="1"/>
<vectornator:setting key="PencilOnly" value="0"/>
<vectornator:setting key="SnapToPoints" value="0"/>
<vectornator:setting key="OutlineMode" value="0"/>
<vectornator:setting key="CMYKEnabledKey" value="0"/>
<vectornator:setting key="RulersVisible" value="1"/>
<vectornator:setting key="SnapToEdges" value="0"/>
<vectornator:setting key="GuidesVisible" value="1"/>
<vectornator:setting key="DisplayWhiteBackground" value="0"/>
<vectornator:setting key="doHistoryDisabled" value="0"/>
<vectornator:setting key="SnapToGuides" value="1"/>
<vectornator:setting key="TimeLapseWatermarkDisabled" value="0"/>
<vectornator:setting key="Units" value="Points"/>
<vectornator:setting key="DynamicGuides" value="0"/>
<vectornator:setting key="IsolateActiveLayer" value="0"/>
<vectornator:setting key="SnapToGrid" value="0"/>
</metadata>
<defs/>
<g id="Untitled" vectornator:layerName="Untitled">
<g opacity="1">
<path d="M25.652+35.5235C21.6851+35.5235+15.7724+33.8768+8.66206+26.7665C-2.41503+15.6895-0.244525+8.05529+1.17753+5.21118C2.52474+2.74128+4.84494+1.01985+7.53938+0.495929C7.83877+0.421084+8.13814+0.570774+8.28784+0.79531L12.9282+7.60622C13.527+8.50436+13.3773+9.70189+12.6289+10.4503L8.88659+14.0429L7.83875+12.9951L11.581+9.40252C11.8055+9.17798+11.8804+8.7289+11.6559+8.42953L7.38968+2.06768C5.29403+2.66645+3.57258+4.01366+2.59959+5.95962C-1.44205+13.6687+7.09031+23.0243+9.78473+25.7188C18.4668+34.4756+26.2506+35.0744+30.2924+33.0536C32.1635+32.1554+33.5855+30.6586+34.2591+28.7126L28.1967+24.5212C27.9722+24.3715+27.5979+24.3715+27.3734+24.596L26.7746+25.12L25.8765+23.9225L26.4752+23.4734C27.2237+22.8746+28.2716+22.7249+29.0948+23.2489L35.6811+27.7396C35.9057+27.8893+36.0554+28.2635+35.9805+28.5629C35.3069+31.1077+33.5106+33.2782+31.0407+34.4008C30.2924+34.7002+28.4211+35.5235+25.652+35.5235Z" opacity="1" fill="#ff4f1f"/>
<path d="M22.2839+28.0406C19.2152+25.945+16.2963+23.5499+13.6767+20.9303C11.4313+18.685+9.33566+16.1402+7.46453+13.5206C6.79092+12.5476+6.267+11.4998+5.74308+10.452L5.21918+9.10477L6.56639+8.50601L7.09031+9.85322C7.53938+10.8262+8.13814+11.7992+8.73689+12.6973C10.5332+15.2421+12.554+17.6371+14.7245+19.8824C17.3441+22.4272+20.1134+24.7474+23.1072+26.843L22.2839+28.0406Z" opacity="1" fill="#ff4f1f"/>
</g>
</g>
</svg>
