<?xml version="1.0" encoding="UTF-8" standalone="no"?>
<!DOCTYPE svg PUBLIC "-//W3C//DTD SVG 1.1//EN" "http://www.w3.org/Graphics/SVG/1.1/DTD/svg11.dtd">
<!-- Created with Vectornator (http://vectornator.io/) -->
<svg height="100%" stroke-miterlimit="10" style="fill-rule:nonzero;clip-rule:evenodd;stroke-linecap:round;stroke-linejoin:round;" version="1.1" viewBox="0 0 36 36" width="100%" xml:space="preserve" xmlns="http://www.w3.org/2000/svg" xmlns:xlink="http://www.w3.org/1999/xlink">
<defs/>
<g id="Layer-1">
<path d="M5 0C2.07035 0 0 2.05021 0 5C0 6.05041 1.5522e-10 29.9856 0 31.0312C0 33.9718 2.05147 36 5 36L31.0312 36C33.9673 36 36 33.9382 36 31C36 29.961 36 6.02692 36 5C36 2.07476 33.9511 3.17891e-07 31.0312 0L5 0ZM5 1.59375C6.03065 1.59375 29.9918 1.59375 31.0312 1.59375C33.0594 1.59375 34.4063 2.95059 34.4062 5C34.4062 6.0272 34.4063 29.9612 34.4062 31C34.4062 33.0562 33.082 34.4062 31.0312 34.4062C29.9906 34.4062 6.03947 34.4062 5 34.4062C2.92898 34.4062 1.59375 33.0819 1.59375 31.0312C1.59375 29.9856 1.59375 6.05042 1.59375 5C1.59375 2.93507 2.95281 1.59375 5 1.59375Z" fill="#000000" fill-rule="evenodd" opacity="1" stroke="none"/>
<path d="M5 8.588L5 10.616L16.778 10.616L16.778 8.588L5 8.588ZM18.312 8.588L18.312 10.616L22.914 10.616L22.914 8.588L18.312 8.588ZM24.318 8.614L24.318 10.616L31 10.616L31 8.614L24.318 8.614ZM7.626 12.8L7.626 14.828L13.658 14.828L13.658 12.8L7.626 12.8ZM15.296 12.8L15.296 14.828L19.066 14.828L19.066 12.8L15.296 12.8ZM20.756 12.8L20.756 14.828L28.374 14.828L28.374 12.8L20.756 12.8ZM12.046 16.986L12.046 19.014L21.796 19.014L21.796 16.986L12.046 16.986ZM23.408 16.986L23.408 19.014L28.738 19.014L28.738 16.986L23.408 16.986ZM7.262 17.012L7.262 19.014L10.512 19.014L10.512 17.012L7.262 17.012ZM9.212 21.198L9.212 23.226L18.962 23.226L18.962 21.198L9.212 21.198ZM20.756 21.198L20.756 23.226L26.788 23.226L26.788 21.198L20.756 21.198ZM10.434 25.384L10.434 27.412L18.026 27.412L18.026 25.384L10.434 25.384ZM19.56 25.384L19.56 27.412L25.566 27.412L25.566 25.384L19.56 25.384Z" fill="#000000" fill-rule="nonzero" opacity="1" stroke="none"/>
</g>
</svg>
