<?xml version="1.0" encoding="UTF-8" standalone="no"?>
<!DOCTYPE svg PUBLIC "-//W3C//DTD SVG 1.1//EN" "http://www.w3.org/Graphics/SVG/1.1/DTD/svg11.dtd">
<!-- Created with Vectornator (http://vectornator.io/) -->
<svg height="100%" stroke-miterlimit="10" style="fill-rule:nonzero;clip-rule:evenodd;stroke-linecap:round;stroke-linejoin:round;" version="1.1" viewBox="0 0 36 36" width="100%" xml:space="preserve" xmlns="http://www.w3.org/2000/svg" xmlns:xlink="http://www.w3.org/1999/xlink">
<defs/>
<g id="devices">
<path d="M2.375 6.6875L2.375 9.125L16.5312 9.125L16.5312 6.6875L2.375 6.6875ZM18.375 6.6875L18.375 9.125L23.9062 9.125L23.9062 6.6875L18.375 6.6875ZM25.5938 6.71875L25.5938 9.125L33.625 9.125L33.625 6.71875L25.5938 6.71875ZM5.53125 11.75L5.53125 14.1875L12.7812 14.1875L12.7812 11.75L5.53125 11.75ZM14.75 11.75L14.75 14.1875L19.2812 14.1875L19.2812 11.75L14.75 11.75ZM21.3125 11.75L21.3125 14.1875L30.4688 14.1875L30.4688 11.75L21.3125 11.75ZM10.8438 16.7812L10.8438 19.2188L22.5625 19.2188L22.5625 16.7812L10.8438 16.7812ZM24.5 16.7812L24.5 19.2188L30.9062 19.2188L30.9062 16.7812L24.5 16.7812ZM5.09375 16.8125L5.09375 19.2188L9 19.2188L9 16.8125L5.09375 16.8125ZM7.4375 21.8438L7.4375 24.2812L19.1562 24.2812L19.1562 21.8438L7.4375 21.8438ZM21.3125 21.8438L21.3125 24.2812L28.5625 24.2812L28.5625 21.8438L21.3125 21.8438ZM8.90625 26.875L8.90625 29.3125L18.0312 29.3125L18.0312 26.875L8.90625 26.875ZM19.875 26.875L19.875 29.3125L27.0938 29.3125L27.0938 26.875L19.875 26.875Z" fill="#000000" fill-rule="nonzero" opacity="1" stroke="none"/>
</g>
</svg>
