<?xml version="1.0" encoding="UTF-8" standalone="no"?>
<!DOCTYPE svg PUBLIC "-//W3C//DTD SVG 1.1//EN" "http://www.w3.org/Graphics/SVG/1.1/DTD/svg11.dtd">
<!-- Created with Vectornator (http://vectornator.io/) -->
<svg height="100%" stroke-miterlimit="10" style="fill-rule:nonzero;clip-rule:evenodd;stroke-linecap:round;stroke-linejoin:round;" version="1.1" viewBox="0 0 36 36" width="100%" xml:space="preserve" xmlns="http://www.w3.org/2000/svg" xmlns:vectornator="http://vectornator.io" xmlns:xlink="http://www.w3.org/1999/xlink">
<defs/>
<g id="Layer-1" vectornator:layerName="Layer 1">
<path d="M5 0C2.07035 0 0 2.05021 0 5C0 6.05041 1.5522e-10 29.9857 0 31.0312C0 33.9719 2.05147 36 5 36L31.0312 36C33.9674 36 36 33.9382 36 31C36 29.961 36 6.02693 36 5C36 2.07476 33.9512 9.53674e-07 31.0312 0L5 0ZM5 1.59375C6.03065 1.59375 29.9919 1.59375 31.0312 1.59375C33.0595 1.59375 34.4063 2.95059 34.4062 5C34.4062 6.0272 34.4063 29.9612 34.4062 31C34.4062 33.0562 33.082 34.4063 31.0312 34.4062C29.9906 34.4062 6.03946 34.4062 5 34.4062C2.92898 34.4062 1.59375 33.0819 1.59375 31.0312C1.59375 29.9856 1.59375 6.05042 1.59375 5C1.59375 2.93507 2.95281 1.59375 5 1.59375ZM5 8.59375L5 10.625L16.7812 10.625L16.7812 8.59375L5 8.59375ZM18.3125 8.59375L18.3125 10.625L22.9062 10.625L22.9062 8.59375L18.3125 8.59375ZM24.3125 8.625L24.3125 10.625L31 10.625L31 8.625L24.3125 8.625ZM10.25 12.8125L10.25 14.8125L16.3125 14.8125L16.3125 12.8125L10.25 12.8125ZM17.9375 12.8125L17.9375 14.8125L21.6875 14.8125L21.6875 12.8125L17.9375 12.8125ZM23.375 12.8125L23.375 14.8125L31 14.8125L31 12.8125L23.375 12.8125ZM9.53125 17L9.53125 19L12.7812 19L12.7812 17L9.53125 17ZM14.3125 17L14.3125 19L24.0938 19L24.0938 17L14.3125 17ZM25.6562 17L25.6562 19L31 19L31 17L25.6562 17ZM13.4062 21.1875L13.4062 23.2188L23.1875 23.2188L23.1875 21.1875L13.4062 21.1875ZM24.9688 21.1875L24.9688 23.2188L31 23.2188L31 21.1875L24.9688 21.1875ZM15.8438 25.375L15.8438 27.4062L23.4688 27.4062L23.4688 25.375L15.8438 25.375ZM25 25.375L25 27.4062L31 27.4062L31 25.375L25 25.375Z" fill="#000000" fill-rule="nonzero" opacity="1" stroke="none"/>
</g>
</svg>
