<?xml version="1.0" encoding="UTF-8" standalone="no"?>
<!DOCTYPE svg PUBLIC "-//W3C//DTD SVG 1.1//EN" "http://www.w3.org/Graphics/SVG/1.1/DTD/svg11.dtd">
<!-- Created with Vectornator (http://vectornator.io/) -->
<svg height="100%" stroke-miterlimit="10" style="fill-rule:nonzero;clip-rule:evenodd;stroke-linecap:round;stroke-linejoin:round;" version="1.1" viewBox="0 0 36 36" width="100%" xml:space="preserve" xmlns="http://www.w3.org/2000/svg" xmlns:xlink="http://www.w3.org/1999/xlink">
<defs/>
<g id="devices">
<path d="M0 6.6875L0 9.125L14.1562 9.125L14.1562 6.6875L0 6.6875ZM16 6.6875L16 9.125L21.5 9.125L21.5 6.6875L16 6.6875ZM23.2188 6.71875L23.2188 9.125L31.25 9.125L31.25 6.71875L23.2188 6.71875ZM0 11.75L0 14.1875L7.25 14.1875L7.25 11.75L0 11.75ZM9.21875 11.75L9.21875 14.1875L13.75 14.1875L13.75 11.75L9.21875 11.75ZM15.7812 11.75L15.7812 14.1875L24.9375 14.1875L24.9375 11.75L15.7812 11.75ZM5.75 16.7812L5.75 19.2188L17.4688 19.2188L17.4688 16.7812L5.75 16.7812ZM19.4062 16.7812L19.4062 19.2188L25.8125 19.2188L25.8125 16.7812L19.4062 16.7812ZM0 16.8125L0 19.2188L3.90625 19.2188L3.90625 16.8125L0 16.8125ZM0 21.8438L0 24.2812L11.75 24.2812L11.75 21.8438L0 21.8438ZM13.9062 21.8438L13.9062 24.2812L21.1562 24.2812L21.1562 21.8438L13.9062 21.8438ZM0 26.875L0 29.3125L9.15625 29.3125L9.15625 26.875L0 26.875ZM10.9688 26.875L10.9688 29.3125L18.2188 29.3125L18.2188 26.875L10.9688 26.875Z" fill="#000000" fill-rule="nonzero" opacity="1" stroke="none"/>
</g>
</svg>
