<?xml version="1.0" encoding="UTF-8" standalone="no"?>
<!DOCTYPE svg PUBLIC "-//W3C//DTD SVG 1.1//EN" "http://www.w3.org/Graphics/SVG/1.1/DTD/svg11.dtd">
<!-- Created with Vectornator (http://vectornator.io/) -->
<svg height="100%" stroke-miterlimit="10" style="fill-rule:nonzero;clip-rule:evenodd;stroke-linecap:round;stroke-linejoin:round;" version="1.1" viewBox="0 0 36 36" width="100%" xml:space="preserve" xmlns="http://www.w3.org/2000/svg" xmlns:xlink="http://www.w3.org/1999/xlink">
<defs/>
<g id="devices">
<path d="M4.75 6.6875L4.75 9.125L18.9062 9.125L18.9062 6.6875L4.75 6.6875ZM20.75 6.6875L20.75 9.125L26.2812 9.125L26.2812 6.6875L20.75 6.6875ZM27.9688 6.71875L27.9688 9.125L36 9.125L36 6.71875L27.9688 6.71875ZM11.0625 11.75L11.0625 14.1875L18.3438 14.1875L18.3438 11.75L11.0625 11.75ZM20.2812 11.75L20.2812 14.1875L24.8125 14.1875L24.8125 11.75L20.2812 11.75ZM26.8438 11.75L26.8438 14.1875L36 14.1875L36 11.75L26.8438 11.75ZM15.9375 16.7812L15.9375 19.2188L27.6875 19.2188L27.6875 16.7812L15.9375 16.7812ZM29.5938 16.7812L29.5938 19.2188L36 19.2188L36 16.7812L29.5938 16.7812ZM10.1875 16.8125L10.1875 19.2188L14.0938 19.2188L14.0938 16.8125L10.1875 16.8125ZM14.8438 21.8438L14.8438 24.2812L26.5938 24.2812L26.5938 21.8438L14.8438 21.8438ZM28.75 21.8438L28.75 24.2812L36 24.2812L36 21.8438L28.75 21.8438ZM17.7812 26.875L17.7812 29.3125L26.9375 29.3125L26.9375 26.875L17.7812 26.875ZM28.7812 26.875L28.7812 29.3125L36 29.3125L36 26.875L28.7812 26.875Z" fill="#000000" fill-rule="nonzero" opacity="1" stroke="none"/>
</g>
</svg>
