<?xml version="1.0" encoding="UTF-8" standalone="no"?>
<!DOCTYPE svg PUBLIC "-//W3C//DTD SVG 1.1//EN" "http://www.w3.org/Graphics/SVG/1.1/DTD/svg11.dtd">
<!-- Created with Vectornator (http://vectornator.io/) -->
<svg height="100%" stroke-miterlimit="10" style="fill-rule:nonzero;clip-rule:evenodd;stroke-linecap:round;stroke-linejoin:round;" version="1.1" viewBox="0 0 36 36" width="100%" xml:space="preserve" xmlns="http://www.w3.org/2000/svg" xmlns:xlink="http://www.w3.org/1999/xlink">
<defs/>
<g clip-path="url(#ArtboardFrame)" id="Layer-1">
<g opacity="1">
<path d="M-8.88178e-16 13.705C-8.88178e-16 12.962 0.140448 12.2643 0.421344 11.6119C0.70224 10.9595 1.08507 10.3909 1.56985 9.90612C2.05462 9.42134 2.62321 9.03851 3.27561 8.75761C3.92801 8.47672 4.62572 8.33627 5.36874 8.33627C6.11175 8.33627 6.80946 8.47672 7.46187 8.75761C8.11427 9.03851 8.68286 9.42134 9.16763 9.90612C9.6524 10.3909 10.0352 10.9595 10.3161 11.6119C10.597 12.2643 10.7375 12.962 10.7375 13.705L10.7375 27.6637L8.58998 27.6637L8.58998 19.0737L2.1475 19.0737L2.1475 27.6637L-8.88178e-16 27.6637L-8.88178e-16 13.705ZM8.58998 16.9263L8.58998 13.705C8.58998 13.261 8.50617 12.8442 8.33854 12.4546C8.1709 12.0649 7.93984 11.7229 7.64536 11.4284C7.35087 11.1339 7.00881 10.9028 6.61918 10.7352C6.22955 10.5676 5.81274 10.4838 5.36874 10.4838C4.92474 10.4838 4.50793 10.5676 4.1183 10.7352C3.72867 10.9028 3.38661 11.1339 3.09212 11.4284C2.79763 11.7229 2.56657 12.0649 2.39894 12.4546C2.23131 12.8442 2.1475 13.261 2.1475 13.705L2.1475 16.9263L8.58998 16.9263Z" fill="#000000" fill-rule="nonzero" opacity="1" stroke="none"/>
<path d="M14.7788 27.6637L12.6313 27.6637L12.6313 8.33627L18 8.33627C18.743 8.33627 19.4407 8.47672 20.0931 8.75761C20.7455 9.03851 21.3141 9.42134 21.7989 9.90612C22.2837 10.3909 22.6665 10.9595 22.9474 11.6119C23.2283 12.2643 23.3687 12.962 23.3687 13.705C23.3687 14.448 23.2283 15.1457 22.9474 15.7981C22.6665 16.4505 22.2837 17.0191 21.7989 17.5039C21.3141 17.9887 20.7455 18.3715 20.0931 18.6524C19.4407 18.9333 18.743 19.0737 18 19.0737L14.7788 19.0737L14.7788 27.6637ZM18 16.9263C18.444 16.9263 18.8608 16.8424 19.2504 16.6748C19.6401 16.5072 19.9821 16.2761 20.2766 15.9816C20.5711 15.6871 20.8022 15.3451 20.9698 14.9554C21.1374 14.5658 21.2212 14.149 21.2212 13.705C21.2212 13.261 21.1374 12.8442 20.9698 12.4546C20.8022 12.0649 20.5711 11.7229 20.2766 11.4284C19.9821 11.1339 19.6401 10.9028 19.2504 10.7352C18.8608 10.5676 18.444 10.4838 18 10.4838L14.7788 10.4838L14.7788 16.9263L18 16.9263Z" fill="#000000" fill-rule="nonzero" opacity="1" stroke="none"/>
<path d="M25.2625 25.5162L29.5575 25.5162L29.5575 10.4838L25.2625 10.4838L25.2625 8.33627L36 8.33627L36 10.4838L31.705 10.4838L31.705 25.5162L36 25.5162L36 27.6637L25.2625 27.6637L25.2625 25.5162Z" fill="#000000" fill-rule="nonzero" opacity="1" stroke="none"/>
</g>
</g>
</svg>
