<?xml version="1.0" encoding="UTF-8" standalone="no"?>
<!DOCTYPE svg PUBLIC "-//W3C//DTD SVG 1.1//EN" "http://www.w3.org/Graphics/SVG/1.1/DTD/svg11.dtd">
<!-- Created with Vectornator (http://vectornator.io/) -->
<svg height="100%" stroke-miterlimit="10" style="fill-rule:nonzero;clip-rule:evenodd;stroke-linecap:round;stroke-linejoin:round;" version="1.1" viewBox="0 0 36 36" width="100%" xml:space="preserve" xmlns="http://www.w3.org/2000/svg" xmlns:xlink="http://www.w3.org/1999/xlink">
<defs/>
<g clip-path="url(#ArtboardFrame)" id="Layer-1">
<path d="M36.0204 23.1763L34.5204 23.1763L34.5204 28.2746L36.0204 28.2746L36.0204 23.1763Z" fill="#000000" fill-rule="evenodd" opacity="1" stroke="none"/>
<path d="M36.0204 15.4509L34.5204 15.4509L34.5204 20.5491L36.0204 20.5491L36.0204 15.4509Z" fill="#000000" fill-rule="evenodd" opacity="1" stroke="none"/>
<path d="M23.625 14L23.625 17.25L20.375 17.25L20.375 18.75L23.625 18.75L23.625 22L25.125 22L25.125 18.75L28.375 18.75L28.375 17.25L25.125 17.25L25.125 14L23.625 14Z" fill="#000000" fill-rule="nonzero" opacity="1" stroke="none"/>
<path d="M36.0204 7.72544L34.5204 7.72544L34.5204 12.8237L36.0204 12.8237L36.0204 7.72544Z" fill="#000000" fill-rule="evenodd" opacity="1" stroke="none"/>
<path d="M0 0L0 36L14.375 36L14.375 0L0 0ZM3.59375 7.53125L10.7812 7.53125L10.7812 13.125L3.59375 13.125L3.59375 7.53125ZM3.59375 17.0938L10.7812 17.0938L10.7812 22.7188L3.59375 22.7188L3.59375 17.0938ZM3.59375 26.7188L10.7812 26.7188L10.7812 32L3.59375 32L3.59375 26.7188Z" fill="#000000" fill-rule="nonzero" opacity="1" stroke="none"/>
<path d="M21.4811 1.5L21.4811 0L16.3828 0L16.3828 1.5L21.4811 1.5Z" fill="#000000" fill-rule="evenodd" opacity="1" stroke="none"/>
<path d="M28.7405 1.5L28.7405 0L23.6423 0L23.6423 1.5L28.7405 1.5Z" fill="#000000" fill-rule="evenodd" opacity="1" stroke="none"/>
<path d="M30.9062 0L30.9062 1.5L34.5312 1.5L34.5312 5.09375L36.0312 5.09375L36.0312 0L36 0L30.9062 0Z" fill="#000000" fill-rule="nonzero" opacity="1" stroke="none"/>
<path d="M21.4811 36L21.4811 34.5L16.3828 34.5L16.3828 36L21.4811 36Z" fill="#000000" fill-rule="evenodd" opacity="1" stroke="none"/>
<path d="M28.7405 36L28.7405 34.5L23.6423 34.5L23.6423 36L28.7405 36Z" fill="#000000" fill-rule="evenodd" opacity="1" stroke="none"/>
<path d="M34.5312 30.9062L34.5312 34.5L30.9062 34.5L30.9062 36L36 36L36.0312 36L36.0312 30.9062L34.5312 30.9062Z" fill="#000000" fill-rule="nonzero" opacity="1" stroke="none"/>
</g>
</svg>
