<?xml version="1.0" encoding="UTF-8" standalone="no"?>
<!DOCTYPE svg PUBLIC "-//W3C//DTD SVG 1.1//EN" "http://www.w3.org/Graphics/SVG/1.1/DTD/svg11.dtd">
<!-- Created with Vectornator (http://vectornator.io/) -->
<svg height="100%" stroke-miterlimit="10" style="fill-rule:nonzero;clip-rule:evenodd;stroke-linecap:round;stroke-linejoin:round;" version="1.1" viewBox="0 0 36 36" width="100%" xml:space="preserve" xmlns="http://www.w3.org/2000/svg" xmlns:xlink="http://www.w3.org/1999/xlink">
<defs/>
<g clip-path="url(#ArtboardFrame)" id="Layer-1">
<path d="M23.1919 0.01083L23.1919 1.51083L28.2902 1.51083L28.2902 0.01083L23.1919 0.01083Z" fill="#000000" fill-rule="evenodd" opacity="1" stroke="none"/>
<path d="M15.4665 0.01083L15.4665 1.51083L20.5647 1.51083L20.5647 0.01083L15.4665 0.01083Z" fill="#000000" fill-rule="evenodd" opacity="1" stroke="none"/>
<path d="M14.0156 12.4062L17.2656 12.4062L17.2656 15.6562L18.7656 15.6562L18.7656 12.4062L22.0156 12.4062L22.0156 10.9062L18.7656 10.9062L18.7656 7.65625L17.2656 7.65625L17.2656 10.9062L14.0156 10.9062L14.0156 12.4062Z" fill="#000000" fill-rule="nonzero" opacity="1" stroke="none"/>
<path d="M7.74106 0.01083L7.74106 1.51083L12.8393 1.51083L12.8393 0.01083L7.74106 0.01083Z" fill="#000000" fill-rule="evenodd" opacity="1" stroke="none"/>
<path d="M0 36.0156L0 21.6297L36 21.6297L36 36.0156L0 36.0156ZM3.59375 31.7269L10.8125 31.7269L10.8125 25.9185L3.59375 25.9185L3.59375 31.7269ZM14.4062 31.7269L21.5938 31.7269L21.5938 25.9185L14.4062 25.9185L14.4062 31.7269ZM25.1875 31.7269L32.4062 31.7269L32.4062 25.9185L25.1875 25.9185L25.1875 31.7269Z" fill="#000000" fill-rule="nonzero" opacity="1" stroke="none"/>
<path d="M1.51562 14.5502L0.015625 14.5502L0.015625 19.6484L1.51562 19.6484L1.51562 14.5502Z" fill="#000000" fill-rule="evenodd" opacity="1" stroke="none"/>
<path d="M1.51562 7.29072L0.015625 7.29072L0.015625 12.389L1.51562 12.389L1.51562 7.29072Z" fill="#000000" fill-rule="evenodd" opacity="1" stroke="none"/>
<path d="M0.015625 5.125L1.51562 5.125L1.51562 1.5L5.10937 1.5L5.10937 0L0.015625 0L0.015625 0.03125L0.015625 5.125Z" fill="#000000" fill-rule="nonzero" opacity="1" stroke="none"/>
<path d="M36.0156 14.5502L34.5156 14.5502L34.5156 19.6484L36.0156 19.6484L36.0156 14.5502Z" fill="#000000" fill-rule="evenodd" opacity="1" stroke="none"/>
<path d="M36.0156 7.29072L34.5156 7.29072L34.5156 12.389L36.0156 12.389L36.0156 7.29072Z" fill="#000000" fill-rule="evenodd" opacity="1" stroke="none"/>
<path d="M30.9219 1.5L34.5156 1.5L34.5156 5.125L36.0156 5.125L36.0156 0.03125L36.0156 0L30.9219 0L30.9219 1.5Z" fill="#000000" fill-rule="nonzero" opacity="1" stroke="none"/>
</g>
</svg>
