<?xml version="1.0" encoding="UTF-8" standalone="no"?>
<!DOCTYPE svg PUBLIC "-//W3C//DTD SVG 1.1//EN" "http://www.w3.org/Graphics/SVG/1.1/DTD/svg11.dtd">
<!-- Created with Vectornator (http://vectornator.io/) -->
<svg height="100%" stroke-miterlimit="10"
	style="fill-rule:nonzero;clip-rule:evenodd;stroke-linecap:round;stroke-linejoin:round;"
	version="1.1" viewBox="0 0 36 36" width="100%" xml:space="preserve"
	xmlns="http://www.w3.org/2000/svg" xmlns:xlink="http://www.w3.org/1999/xlink">
<defs/>
<g clip-path="url(#ArtboardFrame)" id="Layer-1">
<path d="M0.01083 23.1763L1.51083 23.1763L1.51083 28.2746L0.01083 28.2746L0.01083 23.1763Z" fill="#000000" fill-rule="evenodd" opacity="1" stroke="none"/>
<path d="M0.01083 15.4509L1.51083 15.4509L1.51083 20.5491L0.01083 20.5491L0.01083 15.4509Z" fill="#000000" fill-rule="evenodd" opacity="1" stroke="none"/>
<path d="M12.4062 14L12.4062 17.25L15.6562 17.25L15.6562 18.75L12.4062 18.75L12.4062 22L10.9062 22L10.9062 18.75L7.65625 18.75L7.65625 17.25L10.9062 17.25L10.9062 14L12.4062 14Z" fill="#000000" fill-rule="nonzero" opacity="1" stroke="none"/>
<path d="M0.01083 7.72544L1.51083 7.72544L1.51083 12.8237L0.01083 12.8237L0.01083 7.72544Z" fill="#000000" fill-rule="evenodd" opacity="1" stroke="none"/>
<path d="M36.0312 0L36.0312 36L21.6562 36L21.6562-1.76043e-15L36.0312 0ZM32.4375 7.53125L25.25 7.53125L25.25 13.125L32.4375 13.125L32.4375 7.53125ZM32.4375 17.0938L25.25 17.0938L25.25 22.7188L32.4375 22.7188L32.4375 17.0938ZM32.4375 26.7188L25.25 26.7188L25.25 32L32.4375 32L32.4375 26.7188Z" fill="#000000" fill-rule="nonzero" opacity="1" stroke="none"/>
<path d="M14.5502 1.5L14.5502-2.63067e-15L19.6484-2.00632e-15L19.6484 1.5L14.5502 1.5Z" fill="#000000" fill-rule="evenodd" opacity="1" stroke="none"/>
<path d="M7.29072 1.5L7.29072-3.5197e-15L12.389-2.89534e-15L12.389 1.5L7.29072 1.5Z" fill="#000000" fill-rule="evenodd" opacity="1" stroke="none"/>
<path d="M5.125-3.78492e-15L5.125 1.5L1.5 1.5L1.5 5.09375L0 5.09375L0-4.41256e-15L0.03125-4.40873e-15L5.125-3.78492e-15Z" fill="#000000" fill-rule="nonzero" opacity="1" stroke="none"/>
<path d="M14.5502 36L14.5502 34.5L19.6484 34.5L19.6484 36L14.5502 36Z" fill="#000000" fill-rule="evenodd" opacity="1" stroke="none"/>
<path d="M7.29072 36L7.29072 34.5L12.389 34.5L12.389 36L7.29072 36Z" fill="#000000" fill-rule="evenodd" opacity="1" stroke="none"/>
<path d="M1.5 30.9062L1.5 34.5L5.125 34.5L5.125 36L0.03125 36L0 36L0 30.9062L1.5 30.9062Z" fill="#000000" fill-rule="nonzero" opacity="1" stroke="none"/>
</g>
</svg>