<?xml version="1.0" encoding="UTF-8" standalone="no"?>
<!DOCTYPE svg PUBLIC "-//W3C//DTD SVG 1.1//EN" "http://www.w3.org/Graphics/SVG/1.1/DTD/svg11.dtd">
<!-- Created with Vectornator (http://vectornator.io/) -->
<svg height="100%" stroke-miterlimit="10" style="fill-rule:nonzero;clip-rule:evenodd;stroke-linecap:round;stroke-linejoin:round;" version="1.1" viewBox="0 0 36 36" width="100%" xml:space="preserve" xmlns="http://www.w3.org/2000/svg" xmlns:xlink="http://www.w3.org/1999/xlink">
<defs/>
<g clip-path="url(#ArtboardFrame)" id="Layer-1">
<path d="M23.1919 36.0048L23.1919 34.5048L28.2902 34.5048L28.2902 36.0048L23.1919 36.0048Z" fill="#000000" fill-rule="evenodd" opacity="1" stroke="none"/>
<path d="M15.4665 36.0048L15.4665 34.5048L20.5647 34.5048L20.5647 36.0048L15.4665 36.0048Z" fill="#000000" fill-rule="evenodd" opacity="1" stroke="none"/>
<path d="M14.0156 23.6094L17.2656 23.6094L17.2656 20.3594L18.7656 20.3594L18.7656 23.6094L22.0156 23.6094L22.0156 25.1094L18.7656 25.1094L18.7656 28.3594L17.2656 28.3594L17.2656 25.1094L14.0156 25.1094L14.0156 23.6094Z" fill="#000000" fill-rule="nonzero" opacity="1" stroke="none"/>
<path d="M7.74106 36.0048L7.74106 34.5048L12.8393 34.5048L12.8393 36.0048L7.74106 36.0048Z" fill="#000000" fill-rule="evenodd" opacity="1" stroke="none"/>
<path d="M0 0L0 14.3859L36 14.3859L36 0L0 0ZM3.59375 4.28875L10.8125 4.28875L10.8125 10.0971L3.59375 10.0971L3.59375 4.28875ZM14.4062 4.28875L21.5938 4.28875L21.5938 10.0971L14.4062 10.0971L14.4062 4.28875ZM25.1875 4.28875L32.4062 4.28875L32.4062 10.0971L25.1875 10.0971L25.1875 4.28875Z" fill="#000000" fill-rule="nonzero" opacity="1" stroke="none"/>
<path d="M1.51562 21.4654L0.015625 21.4654L0.015625 16.3672L1.51562 16.3672L1.51562 21.4654Z" fill="#000000" fill-rule="evenodd" opacity="1" stroke="none"/>
<path d="M1.51562 28.7249L0.015625 28.7249L0.015625 23.6267L1.51562 23.6267L1.51562 28.7249Z" fill="#000000" fill-rule="evenodd" opacity="1" stroke="none"/>
<path d="M0.015625 30.8906L1.51562 30.8906L1.51562 34.5156L5.10937 34.5156L5.10937 36.0156L0.015625 36.0156L0.015625 35.9844L0.015625 30.8906Z" fill="#000000" fill-rule="nonzero" opacity="1" stroke="none"/>
<path d="M36.0156 21.4654L34.5156 21.4654L34.5156 16.3672L36.0156 16.3672L36.0156 21.4654Z" fill="#000000" fill-rule="evenodd" opacity="1" stroke="none"/>
<path d="M36.0156 28.7249L34.5156 28.7249L34.5156 23.6267L36.0156 23.6267L36.0156 28.7249Z" fill="#000000" fill-rule="evenodd" opacity="1" stroke="none"/>
<path d="M30.9219 34.5156L34.5156 34.5156L34.5156 30.8906L36.0156 30.8906L36.0156 35.9844L36.0156 36.0156L30.9219 36.0156L30.9219 34.5156Z" fill="#000000" fill-rule="nonzero" opacity="1" stroke="none"/>
</g>
</svg>
